G04 EAGLE Gerber RS-274X export*
G75*
%MOMM*%
%FSLAX34Y34*%
%LPD*%
%INCopper Layer 15*%
%IPPOS*%
%AMOC8*
5,1,8,0,0,1.08239X$1,22.5*%
G01*
G04 Define Apertures*
%ADD10C,3.556000*%
%ADD11C,0.756400*%
G36*
X-134128Y-329679D02*
X-135317Y-329920D01*
X-141421Y-329920D01*
X-141840Y-329891D01*
X-147793Y-329065D01*
X-148599Y-328838D01*
X-154102Y-326423D01*
X-154608Y-326141D01*
X-179056Y-309279D01*
X-180103Y-308025D01*
X-180373Y-306843D01*
X-180160Y-305648D01*
X-179498Y-304632D01*
X-178492Y-303954D01*
X-176064Y-302948D01*
X-174572Y-301456D01*
X-173764Y-299505D01*
X-173764Y-297395D01*
X-174572Y-295444D01*
X-176064Y-293952D01*
X-178015Y-293144D01*
X-180192Y-293144D01*
X-181268Y-292948D01*
X-182295Y-292302D01*
X-182989Y-291307D01*
X-183240Y-290120D01*
X-183008Y-288930D01*
X-182654Y-288075D01*
X-182654Y-285898D01*
X-182458Y-284822D01*
X-181812Y-283795D01*
X-180817Y-283101D01*
X-179630Y-282850D01*
X-178440Y-283082D01*
X-177585Y-283436D01*
X-175475Y-283436D01*
X-173524Y-282628D01*
X-172032Y-281136D01*
X-171224Y-279185D01*
X-171224Y-277075D01*
X-172032Y-275124D01*
X-173524Y-273632D01*
X-175475Y-272824D01*
X-177585Y-272824D01*
X-179536Y-273632D01*
X-181028Y-275124D01*
X-181836Y-277075D01*
X-181836Y-279252D01*
X-182032Y-280328D01*
X-182678Y-281355D01*
X-183673Y-282049D01*
X-184860Y-282300D01*
X-186050Y-282068D01*
X-186905Y-281714D01*
X-189015Y-281714D01*
X-190966Y-282522D01*
X-191421Y-282977D01*
X-192298Y-283589D01*
X-193479Y-283868D01*
X-194675Y-283665D01*
X-195697Y-283011D01*
X-196383Y-282010D01*
X-196599Y-280945D01*
X-197432Y-278934D01*
X-198924Y-277442D01*
X-200875Y-276634D01*
X-202985Y-276634D01*
X-204936Y-277442D01*
X-206428Y-278934D01*
X-206479Y-279057D01*
X-207132Y-280038D01*
X-208141Y-280711D01*
X-209333Y-280938D01*
X-210519Y-280682D01*
X-211510Y-279983D01*
X-224606Y-266122D01*
X-224813Y-265878D01*
X-229697Y-259480D01*
X-230051Y-258887D01*
X-230321Y-257704D01*
X-230108Y-256510D01*
X-229446Y-255493D01*
X-228440Y-254815D01*
X-228134Y-254688D01*
X-226642Y-253196D01*
X-225834Y-251245D01*
X-225834Y-249135D01*
X-226642Y-247184D01*
X-228134Y-245692D01*
X-230085Y-244884D01*
X-232195Y-244884D01*
X-234146Y-245692D01*
X-235128Y-246674D01*
X-236431Y-247445D01*
X-237640Y-247546D01*
X-238793Y-247167D01*
X-239706Y-246368D01*
X-243401Y-241527D01*
X-243582Y-241263D01*
X-259515Y-215098D01*
X-259667Y-214816D01*
X-272770Y-187125D01*
X-272834Y-186979D01*
X-274765Y-182275D01*
X-281137Y-174352D01*
X-289496Y-168563D01*
X-294325Y-166975D01*
X-294675Y-166836D01*
X-306219Y-161384D01*
X-306853Y-160983D01*
X-316716Y-152877D01*
X-317232Y-152333D01*
X-324817Y-142063D01*
X-325185Y-141410D01*
X-330031Y-129599D01*
X-330228Y-128875D01*
X-332043Y-116238D01*
X-332058Y-115488D01*
X-330731Y-102790D01*
X-330562Y-102059D01*
X-326174Y-90070D01*
X-325831Y-89403D01*
X-318648Y-78849D01*
X-318153Y-78285D01*
X-308610Y-69805D01*
X-308314Y-69574D01*
X-306982Y-68657D01*
X-304127Y-66690D01*
X-297734Y-58783D01*
X-293850Y-49386D01*
X-293341Y-44525D01*
X-293341Y-44525D01*
X-293321Y-44330D01*
X-293298Y-44160D01*
X-288033Y-11660D01*
X-287959Y-11324D01*
X-279067Y20376D01*
X-279016Y20540D01*
X-277289Y25583D01*
X-276987Y36240D01*
X-277785Y39083D01*
X-277896Y39809D01*
X-277693Y41005D01*
X-277039Y42027D01*
X-276039Y42713D01*
X-274850Y42954D01*
X-273265Y42954D01*
X-271314Y43762D01*
X-269822Y45254D01*
X-269014Y47205D01*
X-269014Y49315D01*
X-269822Y51266D01*
X-271314Y52758D01*
X-273265Y53566D01*
X-275375Y53566D01*
X-277326Y52758D01*
X-278661Y51423D01*
X-280192Y50595D01*
X-281405Y50588D01*
X-282525Y51055D01*
X-283374Y51921D01*
X-285662Y55452D01*
X-293855Y62274D01*
X-298181Y64066D01*
X-298175Y64079D01*
X-298539Y64242D01*
X-310266Y71013D01*
X-310897Y71497D01*
X-320472Y81072D01*
X-320956Y81703D01*
X-327727Y93431D01*
X-328032Y94166D01*
X-331536Y107246D01*
X-331640Y108034D01*
X-331640Y121576D01*
X-331536Y122365D01*
X-328032Y135445D01*
X-327727Y136180D01*
X-320956Y147907D01*
X-320472Y148538D01*
X-310897Y158113D01*
X-310266Y158598D01*
X-298538Y165368D01*
X-297803Y165673D01*
X-284723Y169177D01*
X-283935Y169281D01*
X-270393Y169281D01*
X-269604Y169177D01*
X-256525Y165673D01*
X-256147Y165545D01*
X-220970Y150974D01*
X-220970Y150974D01*
X-219476Y150355D01*
X-219476Y150355D01*
X-215128Y148554D01*
X-205788Y147371D01*
X-200082Y148180D01*
X-198555Y148006D01*
X-197534Y147352D01*
X-196848Y146351D01*
X-196606Y145163D01*
X-196606Y144154D01*
X-195798Y142204D01*
X-194306Y140711D01*
X-192356Y139904D01*
X-190245Y139904D01*
X-188295Y140711D01*
X-186802Y142204D01*
X-185994Y144154D01*
X-185994Y146265D01*
X-186802Y148215D01*
X-187187Y148600D01*
X-187938Y149838D01*
X-188066Y151045D01*
X-187712Y152205D01*
X-186935Y153136D01*
X-184148Y155364D01*
X-184142Y155356D01*
X-184011Y155467D01*
X-157291Y174468D01*
X-157002Y174651D01*
X-144451Y181602D01*
X-143071Y181982D01*
X-141875Y181778D01*
X-140853Y181125D01*
X-140167Y180124D01*
X-139926Y178935D01*
X-139926Y176745D01*
X-139118Y174794D01*
X-137626Y173302D01*
X-135675Y172494D01*
X-133565Y172494D01*
X-131614Y173302D01*
X-130122Y174794D01*
X-129314Y176745D01*
X-129314Y178855D01*
X-130122Y180806D01*
X-131614Y182298D01*
X-132398Y182623D01*
X-133033Y182980D01*
X-133849Y183878D01*
X-134251Y185022D01*
X-134174Y186233D01*
X-133631Y187318D01*
X-132708Y188105D01*
X-128319Y190536D01*
X-128011Y190684D01*
X-97728Y203252D01*
X-97405Y203365D01*
X-65903Y212457D01*
X-65569Y212534D01*
X-33247Y218035D01*
X-32907Y218074D01*
X-171Y219915D01*
X171Y219915D01*
X32907Y218074D01*
X33247Y218035D01*
X65569Y212534D01*
X65903Y212457D01*
X97405Y203365D01*
X97728Y203252D01*
X128011Y190684D01*
X128319Y190536D01*
X157002Y174651D01*
X157291Y174468D01*
X184011Y155467D01*
X184142Y155356D01*
X184148Y155364D01*
X187825Y152425D01*
X196467Y148693D01*
X205788Y147371D01*
X215128Y148554D01*
X219476Y150355D01*
X219476Y150355D01*
X220970Y150974D01*
X220970Y150974D01*
X256147Y165545D01*
X256525Y165673D01*
X269604Y169177D01*
X270393Y169281D01*
X283935Y169281D01*
X284723Y169177D01*
X297803Y165673D01*
X298538Y165368D01*
X310266Y158598D01*
X310897Y158113D01*
X320472Y148538D01*
X320956Y147907D01*
X327727Y136180D01*
X328032Y135445D01*
X331536Y122365D01*
X331640Y121576D01*
X331640Y108034D01*
X331536Y107246D01*
X328032Y94166D01*
X327727Y93431D01*
X320956Y81703D01*
X320472Y81072D01*
X310897Y71497D01*
X310266Y71013D01*
X298539Y64242D01*
X298175Y64079D01*
X298181Y64066D01*
X293855Y62274D01*
X285662Y55452D01*
X279865Y46505D01*
X276987Y36240D01*
X277289Y25583D01*
X279016Y20540D01*
X279067Y20376D01*
X287959Y-11324D01*
X288033Y-11660D01*
X293298Y-44160D01*
X293321Y-44330D01*
X293341Y-44525D01*
X293341Y-44525D01*
X293850Y-49386D01*
X297734Y-58783D01*
X304127Y-66690D01*
X306982Y-68657D01*
X308314Y-69574D01*
X308610Y-69805D01*
X318153Y-78285D01*
X318648Y-78849D01*
X325831Y-89403D01*
X326174Y-90070D01*
X330562Y-102059D01*
X330731Y-102790D01*
X332058Y-115488D01*
X332043Y-116238D01*
X330228Y-128875D01*
X330031Y-129599D01*
X325185Y-141410D01*
X324817Y-142063D01*
X317232Y-152333D01*
X316716Y-152877D01*
X306853Y-160983D01*
X306219Y-161384D01*
X294675Y-166836D01*
X294325Y-166975D01*
X289496Y-168563D01*
X281137Y-174352D01*
X274765Y-182275D01*
X272834Y-186979D01*
X272770Y-187125D01*
X259667Y-214816D01*
X259515Y-215098D01*
X243582Y-241263D01*
X243401Y-241527D01*
X224813Y-265878D01*
X224606Y-266122D01*
X204902Y-286979D01*
X203942Y-287663D01*
X202759Y-287933D01*
X201565Y-287720D01*
X200548Y-287058D01*
X200479Y-286955D01*
X198586Y-285062D01*
X196635Y-284254D01*
X196314Y-284254D01*
X195215Y-284049D01*
X194193Y-283395D01*
X193507Y-282395D01*
X193266Y-281206D01*
X193266Y-278601D01*
X192458Y-276650D01*
X190966Y-275158D01*
X189015Y-274350D01*
X186905Y-274350D01*
X184954Y-275158D01*
X183229Y-276883D01*
X182352Y-277495D01*
X181171Y-277774D01*
X180746Y-277702D01*
X181727Y-278329D01*
X182413Y-279330D01*
X182654Y-280518D01*
X182654Y-281224D01*
X182664Y-281271D01*
X182451Y-282465D01*
X181789Y-283481D01*
X180783Y-284159D01*
X179357Y-284750D01*
X178593Y-284921D01*
X178295Y-285371D01*
X177112Y-286554D01*
X176304Y-288505D01*
X176304Y-290615D01*
X177112Y-292566D01*
X177666Y-293120D01*
X178298Y-294042D01*
X178558Y-295226D01*
X178336Y-296419D01*
X177666Y-297430D01*
X175842Y-299254D01*
X175034Y-301205D01*
X175034Y-303315D01*
X175842Y-305266D01*
X176942Y-306366D01*
X177751Y-307811D01*
X177793Y-309023D01*
X177359Y-310156D01*
X176517Y-311030D01*
X154608Y-326141D01*
X154102Y-326423D01*
X148599Y-328838D01*
X147793Y-329065D01*
X143393Y-329676D01*
X141875Y-329500D01*
X140853Y-328846D01*
X140167Y-327845D01*
X139926Y-326657D01*
X139926Y-325083D01*
X139118Y-323132D01*
X137626Y-321640D01*
X135675Y-320832D01*
X135354Y-320832D01*
X134255Y-320627D01*
X133233Y-319973D01*
X132547Y-318973D01*
X132306Y-317784D01*
X132306Y-316445D01*
X132204Y-316197D01*
X131975Y-315177D01*
X132159Y-313978D01*
X132797Y-312945D01*
X133786Y-312244D01*
X134971Y-311983D01*
X136163Y-312206D01*
X137175Y-312876D01*
X137564Y-313265D01*
X144659Y-316204D01*
X152339Y-316204D01*
X159434Y-313265D01*
X164864Y-307835D01*
X167803Y-300740D01*
X167803Y-293060D01*
X164864Y-285965D01*
X159434Y-280535D01*
X152339Y-277596D01*
X144659Y-277596D01*
X137176Y-280696D01*
X137087Y-280758D01*
X135909Y-281047D01*
X134796Y-280866D01*
X134999Y-281789D01*
X134776Y-282982D01*
X134106Y-283993D01*
X132134Y-285965D01*
X129195Y-293060D01*
X129195Y-300740D01*
X132342Y-308338D01*
X132572Y-309383D01*
X132378Y-310580D01*
X131733Y-311607D01*
X130738Y-312301D01*
X129551Y-312552D01*
X128360Y-312320D01*
X128055Y-312194D01*
X125945Y-312194D01*
X123994Y-313002D01*
X122502Y-314494D01*
X121694Y-316445D01*
X121694Y-318555D01*
X122502Y-320506D01*
X123994Y-321998D01*
X125945Y-322806D01*
X126266Y-322806D01*
X127365Y-323011D01*
X128387Y-323665D01*
X129073Y-324665D01*
X129314Y-325854D01*
X129314Y-326872D01*
X129109Y-327971D01*
X128455Y-328993D01*
X127455Y-329679D01*
X126266Y-329920D01*
X54037Y-329920D01*
X52960Y-329724D01*
X51933Y-329078D01*
X51239Y-328083D01*
X50989Y-326896D01*
X51026Y-326705D01*
X51026Y-324065D01*
X50218Y-322114D01*
X48726Y-320622D01*
X46454Y-319681D01*
X45701Y-319199D01*
X44986Y-319681D01*
X42714Y-320622D01*
X41222Y-322114D01*
X40414Y-324065D01*
X40414Y-326609D01*
X40450Y-326775D01*
X40246Y-327971D01*
X39593Y-328993D01*
X38592Y-329679D01*
X37403Y-329920D01*
X30651Y-329920D01*
X29575Y-329724D01*
X28547Y-329078D01*
X27854Y-328083D01*
X27603Y-326896D01*
X27835Y-325706D01*
X28166Y-324905D01*
X28166Y-322795D01*
X27358Y-320844D01*
X25866Y-319352D01*
X23915Y-318544D01*
X21805Y-318544D01*
X19854Y-319352D01*
X18362Y-320844D01*
X17554Y-322795D01*
X17554Y-324905D01*
X17885Y-325706D01*
X18116Y-326775D01*
X17913Y-327971D01*
X17259Y-328993D01*
X16258Y-329679D01*
X15069Y-329920D01*
X-8193Y-329920D01*
X-9270Y-329724D01*
X-10297Y-329078D01*
X-10991Y-328083D01*
X-11241Y-326896D01*
X-11204Y-326705D01*
X-11204Y-324065D01*
X-12012Y-322114D01*
X-13504Y-320622D01*
X-15455Y-319814D01*
X-17565Y-319814D01*
X-19516Y-320622D01*
X-21008Y-322114D01*
X-21816Y-324065D01*
X-21816Y-326609D01*
X-21780Y-326775D01*
X-21984Y-327971D01*
X-22637Y-328993D01*
X-23638Y-329679D01*
X-24827Y-329920D01*
X-47563Y-329920D01*
X-48640Y-329724D01*
X-49667Y-329078D01*
X-50361Y-328083D01*
X-50611Y-326896D01*
X-50574Y-326705D01*
X-50574Y-324065D01*
X-51382Y-322114D01*
X-52874Y-320622D01*
X-53613Y-320316D01*
X-54514Y-319739D01*
X-55224Y-318756D01*
X-55493Y-317573D01*
X-55280Y-316379D01*
X-54619Y-315362D01*
X-53613Y-314684D01*
X-52874Y-314378D01*
X-51382Y-312886D01*
X-50574Y-310935D01*
X-50574Y-308825D01*
X-51382Y-306874D01*
X-52874Y-305382D01*
X-53613Y-305076D01*
X-54514Y-304499D01*
X-55224Y-303516D01*
X-55493Y-302333D01*
X-55280Y-301139D01*
X-54619Y-300122D01*
X-53613Y-299444D01*
X-52874Y-299138D01*
X-51382Y-297646D01*
X-50574Y-295695D01*
X-50574Y-293585D01*
X-51382Y-291634D01*
X-53206Y-289810D01*
X-53838Y-288888D01*
X-54098Y-287704D01*
X-53876Y-286511D01*
X-53206Y-285500D01*
X-51382Y-283676D01*
X-50927Y-282577D01*
X-50334Y-281658D01*
X-49344Y-280956D01*
X-48159Y-280696D01*
X-46967Y-280918D01*
X-46499Y-281229D01*
X-44235Y-282166D01*
X-42125Y-282166D01*
X-40174Y-281358D01*
X-38682Y-279866D01*
X-37874Y-277915D01*
X-37874Y-275805D01*
X-38682Y-273854D01*
X-40174Y-272362D01*
X-42125Y-271554D01*
X-44235Y-271554D01*
X-46186Y-272362D01*
X-47678Y-273854D01*
X-48133Y-274953D01*
X-48726Y-275872D01*
X-49716Y-276574D01*
X-50901Y-276834D01*
X-52093Y-276612D01*
X-52561Y-276301D01*
X-54825Y-275364D01*
X-56935Y-275364D01*
X-58886Y-276172D01*
X-60378Y-277664D01*
X-61186Y-279615D01*
X-61186Y-281725D01*
X-60378Y-283676D01*
X-58554Y-285500D01*
X-57922Y-286422D01*
X-57662Y-287606D01*
X-57884Y-288799D01*
X-58554Y-289810D01*
X-60378Y-291634D01*
X-61186Y-293585D01*
X-61186Y-295695D01*
X-60378Y-297646D01*
X-58886Y-299138D01*
X-58147Y-299444D01*
X-57246Y-300021D01*
X-56536Y-301004D01*
X-56267Y-302187D01*
X-56480Y-303381D01*
X-57141Y-304398D01*
X-58147Y-305076D01*
X-58886Y-305382D01*
X-60378Y-306874D01*
X-61186Y-308825D01*
X-61186Y-310935D01*
X-60378Y-312886D01*
X-58886Y-314378D01*
X-58147Y-314684D01*
X-57246Y-315261D01*
X-56536Y-316244D01*
X-56267Y-317427D01*
X-56480Y-318621D01*
X-57141Y-319638D01*
X-58147Y-320316D01*
X-58886Y-320622D01*
X-60378Y-322114D01*
X-61186Y-324065D01*
X-61186Y-326609D01*
X-61150Y-326775D01*
X-61354Y-327971D01*
X-62007Y-328993D01*
X-63008Y-329679D01*
X-64197Y-329920D01*
X-102699Y-329920D01*
X-103775Y-329724D01*
X-104803Y-329078D01*
X-105496Y-328083D01*
X-105747Y-326896D01*
X-105515Y-325706D01*
X-105184Y-324905D01*
X-105184Y-322795D01*
X-105992Y-320844D01*
X-106546Y-320290D01*
X-107178Y-319368D01*
X-107438Y-318184D01*
X-107216Y-316991D01*
X-106546Y-315980D01*
X-104722Y-314156D01*
X-103914Y-312205D01*
X-103914Y-310095D01*
X-104722Y-308144D01*
X-106214Y-306652D01*
X-107313Y-306197D01*
X-108232Y-305604D01*
X-108934Y-304614D01*
X-109194Y-303429D01*
X-108972Y-302237D01*
X-108661Y-301769D01*
X-107724Y-299505D01*
X-107724Y-297395D01*
X-108229Y-296175D01*
X-108459Y-295130D01*
X-108265Y-293933D01*
X-107619Y-292906D01*
X-106624Y-292212D01*
X-105437Y-291961D01*
X-104247Y-292193D01*
X-103925Y-292326D01*
X-101815Y-292326D01*
X-99864Y-291518D01*
X-98372Y-290026D01*
X-97564Y-288075D01*
X-97564Y-285661D01*
X-97664Y-285187D01*
X-97451Y-283993D01*
X-96790Y-282976D01*
X-95784Y-282298D01*
X-93514Y-281358D01*
X-92022Y-279866D01*
X-91214Y-277915D01*
X-91214Y-275805D01*
X-92022Y-273854D01*
X-93514Y-272362D01*
X-95465Y-271554D01*
X-97575Y-271554D01*
X-99526Y-272362D01*
X-101018Y-273854D01*
X-101826Y-275805D01*
X-101826Y-278219D01*
X-101726Y-278693D01*
X-101939Y-279887D01*
X-102601Y-280904D01*
X-103606Y-281582D01*
X-105876Y-282522D01*
X-107368Y-284014D01*
X-108176Y-285965D01*
X-108176Y-288075D01*
X-107671Y-289295D01*
X-107441Y-290340D01*
X-107635Y-291537D01*
X-108281Y-292564D01*
X-109276Y-293258D01*
X-110463Y-293509D01*
X-111653Y-293277D01*
X-111975Y-293144D01*
X-114085Y-293144D01*
X-116036Y-293952D01*
X-117528Y-295444D01*
X-118336Y-297395D01*
X-118336Y-299505D01*
X-117528Y-301456D01*
X-116036Y-302948D01*
X-114937Y-303403D01*
X-114018Y-303996D01*
X-113316Y-304986D01*
X-113056Y-306171D01*
X-113278Y-307363D01*
X-113589Y-307831D01*
X-114526Y-310095D01*
X-114526Y-312205D01*
X-113718Y-314156D01*
X-113164Y-314710D01*
X-112532Y-315632D01*
X-112272Y-316816D01*
X-112494Y-318009D01*
X-113164Y-319020D01*
X-114988Y-320844D01*
X-115796Y-322795D01*
X-115796Y-322980D01*
X-115975Y-324011D01*
X-116166Y-324325D01*
X-115830Y-324823D01*
X-115465Y-325706D01*
X-115234Y-326775D01*
X-115438Y-327971D01*
X-116091Y-328993D01*
X-117092Y-329679D01*
X-118281Y-329920D01*
X-118683Y-329920D01*
X-119760Y-329724D01*
X-120787Y-329078D01*
X-121481Y-328083D01*
X-121731Y-326896D01*
X-121694Y-326705D01*
X-121694Y-325990D01*
X-121515Y-324959D01*
X-121324Y-324645D01*
X-121660Y-324147D01*
X-122502Y-322114D01*
X-123994Y-320622D01*
X-125945Y-319814D01*
X-128055Y-319814D01*
X-130006Y-320622D01*
X-131498Y-322114D01*
X-132306Y-324065D01*
X-132306Y-326609D01*
X-132270Y-326775D01*
X-132474Y-327971D01*
X-133127Y-328993D01*
X-134128Y-329679D01*
G37*
%LPC*%
G36*
X24256Y171158D02*
X31936Y171158D01*
X39031Y174097D01*
X44461Y179527D01*
X47400Y186622D01*
X47400Y194302D01*
X44461Y201397D01*
X39031Y206827D01*
X31936Y209766D01*
X24256Y209766D01*
X17161Y206827D01*
X11731Y201397D01*
X8792Y194302D01*
X8792Y186622D01*
X11731Y179527D01*
X17161Y174097D01*
X24256Y171158D01*
G37*
G36*
X-115355Y164874D02*
X-113245Y164874D01*
X-111294Y165682D01*
X-109802Y167174D01*
X-108994Y169125D01*
X-108994Y171235D01*
X-109802Y173186D01*
X-111294Y174678D01*
X-113245Y175486D01*
X-115355Y175486D01*
X-117306Y174678D01*
X-118798Y173186D01*
X-119606Y171235D01*
X-119606Y169125D01*
X-118798Y167174D01*
X-117306Y165682D01*
X-115355Y164874D01*
G37*
G36*
X-158253Y135678D02*
X-156142Y135678D01*
X-154192Y136486D01*
X-152700Y137978D01*
X-151892Y139929D01*
X-151892Y142039D01*
X-152590Y143725D01*
X-152822Y144843D01*
X-152599Y146036D01*
X-151929Y147047D01*
X-151910Y147066D01*
X-151102Y149017D01*
X-151102Y151127D01*
X-151910Y153078D01*
X-153402Y154570D01*
X-155353Y155378D01*
X-157463Y155378D01*
X-159414Y154570D01*
X-160906Y153078D01*
X-161714Y151127D01*
X-161714Y149017D01*
X-161016Y147331D01*
X-160784Y146213D01*
X-161007Y145020D01*
X-161676Y144009D01*
X-161696Y143990D01*
X-162504Y142039D01*
X-162504Y139929D01*
X-161696Y137978D01*
X-160203Y136486D01*
X-158253Y135678D01*
G37*
G36*
X-223305Y133124D02*
X-221195Y133124D01*
X-219244Y133932D01*
X-217752Y135424D01*
X-216944Y137375D01*
X-216944Y139485D01*
X-217752Y141436D01*
X-219244Y142928D01*
X-221195Y143736D01*
X-223305Y143736D01*
X-225256Y142928D01*
X-226748Y141436D01*
X-227556Y139485D01*
X-227556Y137375D01*
X-226748Y135424D01*
X-225256Y133932D01*
X-223305Y133124D01*
G37*
G36*
X-96416Y119032D02*
X-94305Y119032D01*
X-92354Y119840D01*
X-90862Y121333D01*
X-90054Y123283D01*
X-90054Y125394D01*
X-90929Y127506D01*
X-91161Y128624D01*
X-90938Y129816D01*
X-90268Y130828D01*
X-89406Y131691D01*
X-88598Y133641D01*
X-88598Y135752D01*
X-89406Y137702D01*
X-90898Y139194D01*
X-92848Y140002D01*
X-94959Y140002D01*
X-96909Y139194D01*
X-98402Y137702D01*
X-99210Y135752D01*
X-99210Y133641D01*
X-98335Y131528D01*
X-98103Y130411D01*
X-98326Y129218D01*
X-98996Y128207D01*
X-99858Y127344D01*
X-100666Y125394D01*
X-100666Y123283D01*
X-99858Y121333D01*
X-98366Y119840D01*
X-96416Y119032D01*
G37*
G36*
X273814Y97963D02*
X280514Y97963D01*
X286704Y100527D01*
X291442Y105265D01*
X294006Y111455D01*
X294006Y118155D01*
X291442Y124345D01*
X286704Y129083D01*
X280514Y131647D01*
X273814Y131647D01*
X267624Y129083D01*
X262886Y124345D01*
X260322Y118155D01*
X260322Y111455D01*
X262886Y105265D01*
X267624Y100527D01*
X273814Y97963D01*
G37*
G36*
X-280514Y97963D02*
X-273814Y97963D01*
X-267624Y100527D01*
X-262886Y105265D01*
X-260322Y111455D01*
X-260322Y118155D01*
X-262886Y124345D01*
X-267624Y129083D01*
X-273814Y131647D01*
X-280514Y131647D01*
X-286704Y129083D01*
X-291442Y124345D01*
X-294006Y118155D01*
X-294006Y111455D01*
X-291442Y105265D01*
X-286704Y100527D01*
X-280514Y97963D01*
G37*
G36*
X150075Y110264D02*
X152185Y110264D01*
X154136Y111072D01*
X155628Y112564D01*
X156436Y114515D01*
X156436Y116625D01*
X155628Y118576D01*
X154136Y120068D01*
X152185Y120876D01*
X150075Y120876D01*
X148124Y120068D01*
X146632Y118576D01*
X145824Y116625D01*
X145824Y114515D01*
X146632Y112564D01*
X148124Y111072D01*
X150075Y110264D01*
G37*
G36*
X-138215Y108588D02*
X-136105Y108588D01*
X-134154Y109396D01*
X-132662Y110888D01*
X-131854Y112839D01*
X-131854Y114949D01*
X-132662Y116900D01*
X-134154Y118392D01*
X-136105Y119200D01*
X-138215Y119200D01*
X-140166Y118392D01*
X-141658Y116900D01*
X-142466Y114949D01*
X-142466Y112839D01*
X-141658Y110888D01*
X-141168Y110398D01*
X-140566Y109543D01*
X-140414Y108923D01*
X-139911Y109029D01*
X-138720Y108797D01*
X-138215Y108588D01*
G37*
G36*
X-166155Y95024D02*
X-164045Y95024D01*
X-162094Y95832D01*
X-160602Y97324D01*
X-159794Y99275D01*
X-159794Y101385D01*
X-160602Y103336D01*
X-162223Y104957D01*
X-162855Y105879D01*
X-163115Y107063D01*
X-162893Y108256D01*
X-162223Y109267D01*
X-160602Y110888D01*
X-159794Y112839D01*
X-159794Y114949D01*
X-160602Y116900D01*
X-162094Y118392D01*
X-164045Y119200D01*
X-166155Y119200D01*
X-168106Y118392D01*
X-169598Y116900D01*
X-170406Y114949D01*
X-170406Y112839D01*
X-169598Y110888D01*
X-167977Y109267D01*
X-167345Y108345D01*
X-167085Y107161D01*
X-167307Y105968D01*
X-167977Y104957D01*
X-169598Y103336D01*
X-170406Y101385D01*
X-170406Y99275D01*
X-169598Y97324D01*
X-168106Y95832D01*
X-166155Y95024D01*
G37*
G36*
X-54143Y103914D02*
X-52033Y103914D01*
X-50082Y104722D01*
X-48590Y106214D01*
X-47782Y108165D01*
X-47782Y110275D01*
X-48590Y112226D01*
X-50082Y113718D01*
X-52033Y114526D01*
X-54143Y114526D01*
X-56094Y113718D01*
X-57586Y112226D01*
X-58394Y110275D01*
X-58394Y108165D01*
X-57586Y106214D01*
X-56094Y104722D01*
X-54143Y103914D01*
G37*
G36*
X-216955Y93754D02*
X-214845Y93754D01*
X-212894Y94562D01*
X-211402Y96054D01*
X-210594Y98005D01*
X-210594Y98468D01*
X-210380Y99589D01*
X-209718Y100606D01*
X-208712Y101284D01*
X-206544Y102182D01*
X-205052Y103674D01*
X-204597Y104773D01*
X-204004Y105692D01*
X-203014Y106394D01*
X-201829Y106654D01*
X-200637Y106432D01*
X-199626Y105762D01*
X-198586Y104722D01*
X-196635Y103914D01*
X-194525Y103914D01*
X-192574Y104722D01*
X-191082Y106214D01*
X-190274Y108165D01*
X-190274Y110275D01*
X-191082Y112226D01*
X-192574Y113718D01*
X-194525Y114526D01*
X-196635Y114526D01*
X-198586Y113718D01*
X-200078Y112226D01*
X-200533Y111127D01*
X-201126Y110208D01*
X-202116Y109506D01*
X-203301Y109246D01*
X-204493Y109468D01*
X-205504Y110138D01*
X-206544Y111178D01*
X-208495Y111986D01*
X-210605Y111986D01*
X-212556Y111178D01*
X-214048Y109686D01*
X-214856Y107735D01*
X-214856Y107272D01*
X-215070Y106151D01*
X-215732Y105134D01*
X-216738Y104456D01*
X-218906Y103558D01*
X-220398Y102066D01*
X-221206Y100115D01*
X-221206Y98005D01*
X-220398Y96054D01*
X-218906Y94562D01*
X-216955Y93754D01*
G37*
G36*
X115785Y100104D02*
X117895Y100104D01*
X119846Y100912D01*
X121338Y102404D01*
X122146Y104355D01*
X122146Y106465D01*
X121338Y108416D01*
X119846Y109908D01*
X117895Y110716D01*
X115785Y110716D01*
X113834Y109908D01*
X112342Y108416D01*
X111534Y106465D01*
X111534Y104355D01*
X112342Y102404D01*
X113834Y100912D01*
X115785Y100104D01*
G37*
G36*
X91655Y100104D02*
X93765Y100104D01*
X95716Y100912D01*
X97208Y102404D01*
X98016Y104355D01*
X98016Y106465D01*
X97208Y108416D01*
X95716Y109908D01*
X93765Y110716D01*
X91655Y110716D01*
X89704Y109908D01*
X88212Y108416D01*
X87404Y106465D01*
X87404Y104355D01*
X88212Y102404D01*
X89704Y100912D01*
X91655Y100104D01*
G37*
G36*
X-147105Y95024D02*
X-144995Y95024D01*
X-143044Y95832D01*
X-141552Y97324D01*
X-140744Y99275D01*
X-140744Y101385D01*
X-141552Y103336D01*
X-142042Y103826D01*
X-142644Y104681D01*
X-142796Y105301D01*
X-143299Y105195D01*
X-144490Y105427D01*
X-144995Y105636D01*
X-147105Y105636D01*
X-149056Y104828D01*
X-150548Y103336D01*
X-151356Y101385D01*
X-151356Y99275D01*
X-150548Y97324D01*
X-149056Y95832D01*
X-147105Y95024D01*
G37*
G36*
X150075Y86134D02*
X152185Y86134D01*
X154136Y86942D01*
X155628Y88434D01*
X156436Y90385D01*
X156436Y92495D01*
X155628Y94446D01*
X154136Y95938D01*
X152185Y96746D01*
X150075Y96746D01*
X148124Y95938D01*
X146632Y94446D01*
X145824Y92495D01*
X145824Y90385D01*
X146632Y88434D01*
X148124Y86942D01*
X150075Y86134D01*
G37*
G36*
X-74715Y72164D02*
X-72605Y72164D01*
X-70654Y72972D01*
X-69162Y74464D01*
X-68354Y76415D01*
X-68354Y78525D01*
X-69162Y80476D01*
X-70654Y81968D01*
X-72605Y82776D01*
X-74715Y82776D01*
X-76666Y81968D01*
X-78158Y80476D01*
X-78966Y78525D01*
X-78966Y76415D01*
X-78158Y74464D01*
X-76666Y72972D01*
X-74715Y72164D01*
G37*
G36*
X-129377Y69624D02*
X-127267Y69624D01*
X-125316Y70432D01*
X-123824Y71924D01*
X-123016Y73875D01*
X-123016Y75985D01*
X-123824Y77936D01*
X-125316Y79428D01*
X-127267Y80236D01*
X-129377Y80236D01*
X-131328Y79428D01*
X-132820Y77936D01*
X-133628Y75985D01*
X-133628Y73875D01*
X-132820Y71924D01*
X-131328Y70432D01*
X-129377Y69624D01*
G37*
G36*
X150075Y63274D02*
X152185Y63274D01*
X154136Y64082D01*
X155628Y65574D01*
X156436Y67525D01*
X156436Y69635D01*
X155628Y71586D01*
X154136Y73078D01*
X152185Y73886D01*
X150075Y73886D01*
X148124Y73078D01*
X146632Y71586D01*
X145824Y69635D01*
X145824Y67525D01*
X146632Y65574D01*
X148124Y64082D01*
X150075Y63274D01*
G37*
G36*
X174205Y62004D02*
X176315Y62004D01*
X178266Y62812D01*
X179758Y64304D01*
X180566Y66255D01*
X180566Y68365D01*
X179758Y70316D01*
X178266Y71808D01*
X176315Y72616D01*
X174205Y72616D01*
X172254Y71808D01*
X170762Y70316D01*
X169954Y68365D01*
X169954Y66255D01*
X170762Y64304D01*
X172254Y62812D01*
X174205Y62004D01*
G37*
G36*
X244055Y60734D02*
X246165Y60734D01*
X248116Y61542D01*
X249608Y63034D01*
X250416Y64985D01*
X250416Y67095D01*
X249608Y69046D01*
X248116Y70538D01*
X246165Y71346D01*
X244055Y71346D01*
X242104Y70538D01*
X240612Y69046D01*
X239804Y67095D01*
X239804Y64985D01*
X240612Y63034D01*
X242104Y61542D01*
X244055Y60734D01*
G37*
G36*
X199605Y60734D02*
X201715Y60734D01*
X203666Y61542D01*
X205158Y63034D01*
X205966Y64985D01*
X205966Y67095D01*
X205158Y69046D01*
X203666Y70538D01*
X201715Y71346D01*
X199605Y71346D01*
X197654Y70538D01*
X196162Y69046D01*
X195354Y67095D01*
X195354Y64985D01*
X196162Y63034D01*
X197654Y61542D01*
X199605Y60734D01*
G37*
G36*
X223735Y60734D02*
X225845Y60734D01*
X227796Y61542D01*
X229288Y63034D01*
X230096Y64985D01*
X230096Y67095D01*
X229288Y69046D01*
X227796Y70538D01*
X225845Y71346D01*
X223735Y71346D01*
X221784Y70538D01*
X220292Y69046D01*
X219484Y67095D01*
X219484Y64985D01*
X220292Y63034D01*
X221784Y61542D01*
X223735Y60734D01*
G37*
G36*
X-211875Y46764D02*
X-209765Y46764D01*
X-207814Y47572D01*
X-206322Y49064D01*
X-205514Y51015D01*
X-205514Y53125D01*
X-206322Y55076D01*
X-207814Y56568D01*
X-209765Y57376D01*
X-211875Y57376D01*
X-213826Y56568D01*
X-215318Y55076D01*
X-216126Y53125D01*
X-216126Y51015D01*
X-215318Y49064D01*
X-213826Y47572D01*
X-211875Y46764D01*
G37*
G36*
X150075Y39144D02*
X152185Y39144D01*
X154136Y39952D01*
X155628Y41444D01*
X156436Y43395D01*
X156436Y45505D01*
X155628Y47456D01*
X154136Y48948D01*
X152185Y49756D01*
X150075Y49756D01*
X148124Y48948D01*
X146632Y47456D01*
X145824Y45505D01*
X145824Y43395D01*
X146632Y41444D01*
X148124Y39952D01*
X150075Y39144D01*
G37*
G36*
X174205Y39144D02*
X176315Y39144D01*
X178266Y39952D01*
X179758Y41444D01*
X180566Y43395D01*
X180566Y45505D01*
X179758Y47456D01*
X178266Y48948D01*
X176315Y49756D01*
X174205Y49756D01*
X172254Y48948D01*
X170762Y47456D01*
X169954Y45505D01*
X169954Y43395D01*
X170762Y41444D01*
X172254Y39952D01*
X174205Y39144D01*
G37*
G36*
X199605Y39144D02*
X201715Y39144D01*
X203666Y39952D01*
X205158Y41444D01*
X205966Y43395D01*
X205966Y45505D01*
X205158Y47456D01*
X203666Y48948D01*
X201715Y49756D01*
X199605Y49756D01*
X197654Y48948D01*
X196162Y47456D01*
X195354Y45505D01*
X195354Y43395D01*
X196162Y41444D01*
X197654Y39952D01*
X199605Y39144D01*
G37*
G36*
X223735Y39144D02*
X225845Y39144D01*
X227796Y39952D01*
X229288Y41444D01*
X230096Y43395D01*
X230096Y45505D01*
X229288Y47456D01*
X227796Y48948D01*
X225845Y49756D01*
X223735Y49756D01*
X221784Y48948D01*
X220292Y47456D01*
X219484Y45505D01*
X219484Y43395D01*
X220292Y41444D01*
X221784Y39952D01*
X223735Y39144D01*
G37*
G36*
X244055Y39144D02*
X246165Y39144D01*
X248116Y39952D01*
X249608Y41444D01*
X250416Y43395D01*
X250416Y45505D01*
X249608Y47456D01*
X248116Y48948D01*
X246165Y49756D01*
X244055Y49756D01*
X242104Y48948D01*
X240612Y47456D01*
X239804Y45505D01*
X239804Y43395D01*
X240612Y41444D01*
X242104Y39952D01*
X244055Y39144D01*
G37*
G36*
X-159805Y30254D02*
X-157695Y30254D01*
X-155744Y31062D01*
X-154252Y32554D01*
X-153444Y34505D01*
X-153444Y36615D01*
X-154252Y38566D01*
X-155744Y40058D01*
X-157695Y40866D01*
X-159805Y40866D01*
X-161756Y40058D01*
X-163248Y38566D01*
X-164056Y36615D01*
X-164056Y34505D01*
X-163248Y32554D01*
X-161756Y31062D01*
X-159805Y30254D01*
G37*
G36*
X-74715Y30254D02*
X-72605Y30254D01*
X-70654Y31062D01*
X-69162Y32554D01*
X-68354Y34505D01*
X-68354Y36615D01*
X-69162Y38566D01*
X-70654Y40058D01*
X-72605Y40866D01*
X-74715Y40866D01*
X-76666Y40058D01*
X-78158Y38566D01*
X-78966Y36615D01*
X-78966Y34505D01*
X-78158Y32554D01*
X-76666Y31062D01*
X-74715Y30254D01*
G37*
G36*
X-53125Y23904D02*
X-51015Y23904D01*
X-49064Y24712D01*
X-47572Y26204D01*
X-46764Y28155D01*
X-46764Y30265D01*
X-47572Y32216D01*
X-49064Y33708D01*
X-51015Y34516D01*
X-53125Y34516D01*
X-55076Y33708D01*
X-56568Y32216D01*
X-57376Y30265D01*
X-57376Y28155D01*
X-56568Y26204D01*
X-55076Y24712D01*
X-53125Y23904D01*
G37*
G36*
X-138918Y21492D02*
X-136807Y21492D01*
X-134857Y22299D01*
X-133364Y23792D01*
X-132556Y25742D01*
X-132556Y27853D01*
X-133364Y29803D01*
X-134857Y31296D01*
X-136807Y32104D01*
X-138918Y32104D01*
X-140868Y31296D01*
X-142360Y29803D01*
X-143168Y27853D01*
X-143168Y25742D01*
X-142360Y23792D01*
X-140868Y22299D01*
X-138918Y21492D01*
G37*
G36*
X-17565Y11204D02*
X-15455Y11204D01*
X-13504Y12012D01*
X-12012Y13504D01*
X-11204Y15455D01*
X-11204Y17565D01*
X-12012Y19516D01*
X-12619Y20123D01*
X-13260Y21067D01*
X-13511Y22253D01*
X-13279Y23444D01*
X-12474Y25389D01*
X-12474Y27499D01*
X-13282Y29450D01*
X-14774Y30942D01*
X-16725Y31750D01*
X-18835Y31750D01*
X-20786Y30942D01*
X-22278Y29450D01*
X-23086Y27499D01*
X-23086Y25389D01*
X-22278Y23438D01*
X-21671Y22832D01*
X-21030Y21887D01*
X-20779Y20701D01*
X-21011Y19510D01*
X-21816Y17565D01*
X-21816Y15455D01*
X-21008Y13504D01*
X-19516Y12012D01*
X-17565Y11204D01*
G37*
G36*
X-220560Y8459D02*
X-218450Y8459D01*
X-216499Y9267D01*
X-215007Y10759D01*
X-214199Y12710D01*
X-214199Y14820D01*
X-215007Y16771D01*
X-216499Y18263D01*
X-218450Y19071D01*
X-220917Y19071D01*
X-221993Y19267D01*
X-223020Y19913D01*
X-223714Y20908D01*
X-223965Y22095D01*
X-223733Y23285D01*
X-223294Y24345D01*
X-223294Y26455D01*
X-224102Y28406D01*
X-225594Y29898D01*
X-227545Y30706D01*
X-229655Y30706D01*
X-231606Y29898D01*
X-233098Y28406D01*
X-233906Y26455D01*
X-233906Y24345D01*
X-233098Y22394D01*
X-231606Y20902D01*
X-229655Y20094D01*
X-227188Y20094D01*
X-226112Y19898D01*
X-225085Y19252D01*
X-224391Y18257D01*
X-224140Y17070D01*
X-224372Y15880D01*
X-224811Y14820D01*
X-224811Y12710D01*
X-224003Y10759D01*
X-222511Y9267D01*
X-220560Y8459D01*
G37*
G36*
X199605Y18824D02*
X201715Y18824D01*
X203666Y19632D01*
X205158Y21124D01*
X205966Y23075D01*
X205966Y25185D01*
X205158Y27136D01*
X203666Y28628D01*
X201715Y29436D01*
X199605Y29436D01*
X197654Y28628D01*
X196162Y27136D01*
X195354Y25185D01*
X195354Y23075D01*
X196162Y21124D01*
X197654Y19632D01*
X199605Y18824D01*
G37*
G36*
X5295Y18824D02*
X7405Y18824D01*
X9356Y19632D01*
X10848Y21124D01*
X11656Y23075D01*
X11656Y25185D01*
X10848Y27136D01*
X9356Y28628D01*
X7405Y29436D01*
X5295Y29436D01*
X3344Y28628D01*
X1852Y27136D01*
X1044Y25185D01*
X1044Y23075D01*
X1852Y21124D01*
X3344Y19632D01*
X5295Y18824D01*
G37*
G36*
X174205Y17554D02*
X176315Y17554D01*
X178266Y18362D01*
X179758Y19854D01*
X180566Y21805D01*
X180566Y23915D01*
X179758Y25866D01*
X178266Y27358D01*
X176315Y28166D01*
X174205Y28166D01*
X172254Y27358D01*
X170762Y25866D01*
X169954Y23915D01*
X169954Y21805D01*
X170762Y19854D01*
X172254Y18362D01*
X174205Y17554D01*
G37*
G36*
X150301Y17554D02*
X152411Y17554D01*
X154362Y18362D01*
X155854Y19854D01*
X156662Y21805D01*
X156662Y23915D01*
X155854Y25866D01*
X154362Y27358D01*
X152411Y28166D01*
X150301Y28166D01*
X148350Y27358D01*
X146858Y25866D01*
X146050Y23915D01*
X146050Y21805D01*
X146858Y19854D01*
X148350Y18362D01*
X150301Y17554D01*
G37*
G36*
X223735Y17554D02*
X225845Y17554D01*
X227796Y18362D01*
X229288Y19854D01*
X230096Y21805D01*
X230096Y23915D01*
X229288Y25866D01*
X227796Y27358D01*
X225845Y28166D01*
X223735Y28166D01*
X221784Y27358D01*
X220292Y25866D01*
X219484Y23915D01*
X219484Y21805D01*
X220292Y19854D01*
X221784Y18362D01*
X223735Y17554D01*
G37*
G36*
X-64618Y-226D02*
X-63750Y-381D01*
X-63267Y349D01*
X-61542Y2074D01*
X-60734Y4025D01*
X-60734Y5311D01*
X-60520Y6433D01*
X-59858Y7449D01*
X-58852Y8127D01*
X-57004Y8893D01*
X-55959Y9123D01*
X-55578Y9061D01*
X-55719Y9731D01*
X-55488Y10921D01*
X-54943Y12237D01*
X-54943Y14347D01*
X-55751Y16298D01*
X-57243Y17790D01*
X-59193Y18598D01*
X-61304Y18598D01*
X-63254Y17790D01*
X-64747Y16298D01*
X-65555Y14347D01*
X-65555Y13061D01*
X-65769Y11939D01*
X-66430Y10923D01*
X-67436Y10245D01*
X-69046Y9578D01*
X-70538Y8086D01*
X-71346Y6135D01*
X-71346Y4025D01*
X-70538Y2074D01*
X-69046Y582D01*
X-67095Y-226D01*
X-64618Y-226D01*
G37*
G36*
X-103925Y4854D02*
X-101815Y4854D01*
X-99864Y5662D01*
X-99310Y6216D01*
X-98388Y6848D01*
X-97204Y7108D01*
X-96011Y6886D01*
X-95000Y6216D01*
X-94446Y5662D01*
X-92495Y4854D01*
X-90385Y4854D01*
X-88434Y5662D01*
X-86942Y7154D01*
X-86134Y9105D01*
X-86134Y11215D01*
X-86942Y13166D01*
X-88434Y14658D01*
X-90385Y15466D01*
X-92495Y15466D01*
X-94446Y14658D01*
X-95000Y14104D01*
X-95922Y13472D01*
X-97106Y13212D01*
X-98299Y13434D01*
X-99310Y14104D01*
X-99864Y14658D01*
X-101815Y15466D01*
X-103925Y15466D01*
X-105876Y14658D01*
X-107368Y13166D01*
X-108176Y11215D01*
X-108176Y9105D01*
X-107368Y7154D01*
X-105876Y5662D01*
X-103925Y4854D01*
G37*
G36*
X-49315Y-2766D02*
X-47205Y-2766D01*
X-45254Y-1958D01*
X-43762Y-466D01*
X-42954Y1485D01*
X-42954Y3595D01*
X-43762Y5546D01*
X-45254Y7038D01*
X-47205Y7846D01*
X-49315Y7846D01*
X-51505Y6939D01*
X-52550Y6709D01*
X-52931Y6771D01*
X-52789Y6101D01*
X-53021Y4911D01*
X-53566Y3595D01*
X-53566Y1485D01*
X-52758Y-466D01*
X-51266Y-1958D01*
X-49315Y-2766D01*
G37*
G36*
X17995Y-29436D02*
X20105Y-29436D01*
X22056Y-28628D01*
X23548Y-27136D01*
X24356Y-25185D01*
X24356Y-23075D01*
X24002Y-22220D01*
X23772Y-21151D01*
X23975Y-19955D01*
X24629Y-18933D01*
X25629Y-18247D01*
X26818Y-18006D01*
X27725Y-18006D01*
X29676Y-17198D01*
X31168Y-15706D01*
X31976Y-13755D01*
X31976Y-11645D01*
X31883Y-11420D01*
X31652Y-10326D01*
X31865Y-9132D01*
X32526Y-8115D01*
X33532Y-7437D01*
X34679Y-6962D01*
X36172Y-5469D01*
X36980Y-3519D01*
X36980Y-1408D01*
X36172Y542D01*
X34679Y2034D01*
X32729Y2842D01*
X30618Y2842D01*
X28668Y2034D01*
X27176Y542D01*
X26368Y-1408D01*
X26368Y-3519D01*
X26461Y-3744D01*
X26692Y-4838D01*
X26479Y-6032D01*
X25817Y-7049D01*
X24811Y-7727D01*
X23664Y-8202D01*
X22172Y-9694D01*
X21364Y-11645D01*
X21364Y-13755D01*
X21718Y-14610D01*
X21948Y-15679D01*
X21745Y-16875D01*
X21091Y-17897D01*
X20091Y-18583D01*
X18902Y-18824D01*
X17995Y-18824D01*
X16044Y-19632D01*
X14552Y-21124D01*
X13744Y-23075D01*
X13744Y-25185D01*
X14552Y-27136D01*
X16044Y-28628D01*
X17995Y-29436D01*
G37*
G36*
X-127850Y-15261D02*
X-125740Y-15261D01*
X-123789Y-14453D01*
X-122297Y-12961D01*
X-121489Y-11010D01*
X-121489Y-8900D01*
X-122297Y-6949D01*
X-123789Y-5457D01*
X-125740Y-4649D01*
X-127850Y-4649D01*
X-129801Y-5457D01*
X-131293Y-6949D01*
X-132101Y-8900D01*
X-132101Y-11010D01*
X-131293Y-12961D01*
X-129801Y-14453D01*
X-127850Y-15261D01*
G37*
G36*
X-62001Y-28152D02*
X-59890Y-28152D01*
X-57940Y-27344D01*
X-56447Y-25851D01*
X-55640Y-23901D01*
X-55640Y-21790D01*
X-56447Y-19840D01*
X-57001Y-19286D01*
X-57633Y-18364D01*
X-57894Y-17179D01*
X-57671Y-15987D01*
X-57001Y-14975D01*
X-55192Y-13166D01*
X-54384Y-11215D01*
X-54384Y-9105D01*
X-55192Y-7154D01*
X-56684Y-5662D01*
X-58635Y-4854D01*
X-61112Y-4854D01*
X-61980Y-4699D01*
X-62463Y-5429D01*
X-64188Y-7154D01*
X-64996Y-9105D01*
X-64996Y-11215D01*
X-64188Y-13166D01*
X-63634Y-13720D01*
X-63002Y-14642D01*
X-62742Y-15826D01*
X-62964Y-17019D01*
X-63634Y-18030D01*
X-65444Y-19840D01*
X-66252Y-21790D01*
X-66252Y-23901D01*
X-65444Y-25851D01*
X-63951Y-27344D01*
X-62001Y-28152D01*
G37*
G36*
X66255Y-48486D02*
X68365Y-48486D01*
X70316Y-47678D01*
X71808Y-46186D01*
X72616Y-44235D01*
X72616Y-42125D01*
X71808Y-40174D01*
X70316Y-38682D01*
X68365Y-37874D01*
X66255Y-37874D01*
X64304Y-38682D01*
X62812Y-40174D01*
X62004Y-42125D01*
X62004Y-44235D01*
X62812Y-46186D01*
X64304Y-47678D01*
X66255Y-48486D01*
G37*
G36*
X191985Y-71346D02*
X194095Y-71346D01*
X196046Y-70538D01*
X197538Y-69046D01*
X198346Y-67095D01*
X198346Y-64985D01*
X197538Y-63034D01*
X196046Y-61542D01*
X194095Y-60734D01*
X191985Y-60734D01*
X190034Y-61542D01*
X188542Y-63034D01*
X187734Y-64985D01*
X187734Y-67095D01*
X188542Y-69046D01*
X190034Y-70538D01*
X191985Y-71346D01*
G37*
G36*
X-107735Y-71346D02*
X-105625Y-71346D01*
X-103770Y-70578D01*
X-102725Y-70348D01*
X-102316Y-70415D01*
X-102374Y-70140D01*
X-102142Y-68950D01*
X-101374Y-67095D01*
X-101374Y-64985D01*
X-102182Y-63034D01*
X-103674Y-61542D01*
X-105625Y-60734D01*
X-107735Y-60734D01*
X-109686Y-61542D01*
X-111178Y-63034D01*
X-111986Y-64985D01*
X-111986Y-67095D01*
X-111178Y-69046D01*
X-109686Y-70538D01*
X-107735Y-71346D01*
G37*
G36*
X166585Y-71346D02*
X168695Y-71346D01*
X170646Y-70538D01*
X172138Y-69046D01*
X172946Y-67095D01*
X172946Y-64985D01*
X172138Y-63034D01*
X170646Y-61542D01*
X168695Y-60734D01*
X166585Y-60734D01*
X164634Y-61542D01*
X163142Y-63034D01*
X162334Y-64985D01*
X162334Y-67095D01*
X163142Y-69046D01*
X164634Y-70538D01*
X166585Y-71346D01*
G37*
G36*
X-92775Y-82964D02*
X-92037Y-83420D01*
X-92099Y-83135D01*
X-91877Y-81942D01*
X-91207Y-80931D01*
X-90752Y-80476D01*
X-89944Y-78525D01*
X-89944Y-76415D01*
X-90752Y-74464D01*
X-92244Y-72972D01*
X-94195Y-72164D01*
X-96305Y-72164D01*
X-98160Y-72932D01*
X-99205Y-73162D01*
X-99614Y-73095D01*
X-99556Y-73370D01*
X-99788Y-74560D01*
X-100556Y-76415D01*
X-100556Y-78525D01*
X-99748Y-80476D01*
X-98256Y-81968D01*
X-96305Y-82776D01*
X-93828Y-82776D01*
X-92775Y-82964D01*
G37*
G36*
X37045Y-104366D02*
X39155Y-104366D01*
X41106Y-103558D01*
X42598Y-102066D01*
X43406Y-100115D01*
X43406Y-98005D01*
X42559Y-95961D01*
X42047Y-95213D01*
X41787Y-94029D01*
X42009Y-92836D01*
X42553Y-92016D01*
X43406Y-89955D01*
X43406Y-87845D01*
X42485Y-85621D01*
X42253Y-84479D01*
X42485Y-83289D01*
X43406Y-81066D01*
X43406Y-78955D01*
X42598Y-77004D01*
X41106Y-75512D01*
X39155Y-74704D01*
X37045Y-74704D01*
X35094Y-75512D01*
X33602Y-77004D01*
X32794Y-78955D01*
X32794Y-81066D01*
X33715Y-83289D01*
X33947Y-84431D01*
X33715Y-85621D01*
X32794Y-87845D01*
X32794Y-89955D01*
X33641Y-91999D01*
X34153Y-92747D01*
X34413Y-93931D01*
X34191Y-95124D01*
X33647Y-95944D01*
X32794Y-98005D01*
X32794Y-100115D01*
X33602Y-102066D01*
X35094Y-103558D01*
X37045Y-104366D01*
G37*
G36*
X-88685Y-96746D02*
X-86575Y-96746D01*
X-84624Y-95938D01*
X-83132Y-94446D01*
X-82324Y-92495D01*
X-82324Y-90385D01*
X-83132Y-88434D01*
X-84624Y-86942D01*
X-86575Y-86134D01*
X-89052Y-86134D01*
X-90105Y-85946D01*
X-90843Y-85490D01*
X-90781Y-85775D01*
X-91003Y-86968D01*
X-91673Y-87979D01*
X-92128Y-88434D01*
X-92936Y-90385D01*
X-92936Y-92495D01*
X-92128Y-94446D01*
X-90636Y-95938D01*
X-88685Y-96746D01*
G37*
G36*
X185635Y-98016D02*
X187745Y-98016D01*
X189696Y-97208D01*
X191188Y-95716D01*
X191996Y-93765D01*
X191996Y-91655D01*
X191188Y-89704D01*
X189696Y-88212D01*
X187745Y-87404D01*
X185635Y-87404D01*
X183684Y-88212D01*
X182192Y-89704D01*
X181384Y-91655D01*
X181384Y-93765D01*
X182192Y-95716D01*
X183684Y-97208D01*
X185635Y-98016D01*
G37*
G36*
X-182665Y-106906D02*
X-180555Y-106906D01*
X-178604Y-106098D01*
X-177112Y-104606D01*
X-176304Y-102655D01*
X-176304Y-100545D01*
X-177112Y-98594D01*
X-178604Y-97102D01*
X-180555Y-96294D01*
X-182665Y-96294D01*
X-184616Y-97102D01*
X-186108Y-98594D01*
X-186916Y-100545D01*
X-186916Y-102655D01*
X-186108Y-104606D01*
X-184616Y-106098D01*
X-182665Y-106906D01*
G37*
G36*
X94195Y-108176D02*
X96305Y-108176D01*
X98256Y-107368D01*
X99748Y-105876D01*
X100556Y-103925D01*
X100556Y-101815D01*
X99748Y-99864D01*
X98256Y-98372D01*
X96305Y-97564D01*
X94195Y-97564D01*
X92244Y-98372D01*
X90752Y-99864D01*
X89944Y-101815D01*
X89944Y-103925D01*
X90752Y-105876D01*
X92244Y-107368D01*
X94195Y-108176D01*
G37*
G36*
X273814Y-131647D02*
X280514Y-131647D01*
X286704Y-129083D01*
X291442Y-124345D01*
X294006Y-118155D01*
X294006Y-111455D01*
X291442Y-105265D01*
X286704Y-100527D01*
X280514Y-97963D01*
X273814Y-97963D01*
X267624Y-100527D01*
X262886Y-105265D01*
X260322Y-111455D01*
X260322Y-118155D01*
X262886Y-124345D01*
X267624Y-129083D01*
X273814Y-131647D01*
G37*
G36*
X-280514Y-131647D02*
X-273814Y-131647D01*
X-267624Y-129083D01*
X-262886Y-124345D01*
X-260322Y-118155D01*
X-260322Y-111455D01*
X-262886Y-105265D01*
X-267624Y-100527D01*
X-273814Y-97963D01*
X-280514Y-97963D01*
X-286704Y-100527D01*
X-291442Y-105265D01*
X-294006Y-111455D01*
X-294006Y-118155D01*
X-291442Y-124345D01*
X-286704Y-129083D01*
X-280514Y-131647D01*
G37*
G36*
X-49315Y-109446D02*
X-47205Y-109446D01*
X-45254Y-108638D01*
X-43762Y-107146D01*
X-42954Y-105195D01*
X-42954Y-103085D01*
X-43762Y-101134D01*
X-45254Y-99642D01*
X-47205Y-98834D01*
X-49315Y-98834D01*
X-51266Y-99642D01*
X-52758Y-101134D01*
X-53566Y-103085D01*
X-53566Y-105195D01*
X-52758Y-107146D01*
X-51266Y-108638D01*
X-49315Y-109446D01*
G37*
G36*
X75145Y-125956D02*
X77255Y-125956D01*
X79206Y-125148D01*
X80698Y-123656D01*
X81506Y-121705D01*
X81506Y-119595D01*
X80698Y-117644D01*
X79206Y-116152D01*
X77255Y-115344D01*
X75145Y-115344D01*
X73194Y-116152D01*
X71702Y-117644D01*
X70894Y-119595D01*
X70894Y-121705D01*
X71702Y-123656D01*
X73194Y-125148D01*
X75145Y-125956D01*
G37*
G36*
X-64555Y-127226D02*
X-62445Y-127226D01*
X-60494Y-126418D01*
X-59002Y-124926D01*
X-58194Y-122975D01*
X-58194Y-120865D01*
X-59002Y-118914D01*
X-60494Y-117422D01*
X-62445Y-116614D01*
X-64555Y-116614D01*
X-66506Y-117422D01*
X-67998Y-118914D01*
X-68806Y-120865D01*
X-68806Y-122975D01*
X-67998Y-124926D01*
X-66506Y-126418D01*
X-64555Y-127226D01*
G37*
G36*
X119595Y-145006D02*
X121705Y-145006D01*
X123656Y-144198D01*
X125148Y-142706D01*
X125956Y-140755D01*
X125956Y-138645D01*
X125148Y-136694D01*
X123656Y-135202D01*
X121705Y-134394D01*
X119595Y-134394D01*
X117644Y-135202D01*
X116152Y-136694D01*
X115344Y-138645D01*
X115344Y-140755D01*
X116152Y-142706D01*
X117644Y-144198D01*
X119595Y-145006D01*
G37*
G36*
X-31535Y-160246D02*
X-29425Y-160246D01*
X-27474Y-159438D01*
X-25982Y-157946D01*
X-25174Y-155995D01*
X-25174Y-153607D01*
X-25274Y-153153D01*
X-25080Y-151956D01*
X-24434Y-150929D01*
X-23439Y-150235D01*
X-22252Y-149984D01*
X-21729Y-150086D01*
X-19265Y-150086D01*
X-17314Y-149278D01*
X-15822Y-147786D01*
X-15014Y-145835D01*
X-15014Y-143725D01*
X-15822Y-141774D01*
X-17314Y-140282D01*
X-19265Y-139474D01*
X-21375Y-139474D01*
X-23326Y-140282D01*
X-24818Y-141774D01*
X-25626Y-143725D01*
X-25626Y-146113D01*
X-25526Y-146567D01*
X-25720Y-147764D01*
X-26366Y-148791D01*
X-27361Y-149485D01*
X-28548Y-149736D01*
X-29071Y-149634D01*
X-31535Y-149634D01*
X-33486Y-150442D01*
X-34978Y-151934D01*
X-35786Y-153885D01*
X-35786Y-155995D01*
X-34978Y-157946D01*
X-33486Y-159438D01*
X-31535Y-160246D01*
G37*
G36*
X-153455Y-150086D02*
X-151345Y-150086D01*
X-149394Y-149278D01*
X-147902Y-147786D01*
X-147094Y-145835D01*
X-147094Y-143725D01*
X-147902Y-141774D01*
X-149394Y-140282D01*
X-151345Y-139474D01*
X-153455Y-139474D01*
X-155406Y-140282D01*
X-156898Y-141774D01*
X-157706Y-143725D01*
X-157706Y-145835D01*
X-157350Y-146696D01*
X-157121Y-147716D01*
X-157262Y-148635D01*
X-156190Y-148835D01*
X-155714Y-149151D01*
X-153455Y-150086D01*
G37*
G36*
X99275Y-204696D02*
X101385Y-204696D01*
X103336Y-203888D01*
X105160Y-202064D01*
X106082Y-201432D01*
X107266Y-201172D01*
X108459Y-201394D01*
X109470Y-202064D01*
X111294Y-203888D01*
X113245Y-204696D01*
X115355Y-204696D01*
X117306Y-203888D01*
X118495Y-202699D01*
X119417Y-202067D01*
X120601Y-201807D01*
X121794Y-202029D01*
X122805Y-202699D01*
X123994Y-203888D01*
X125945Y-204696D01*
X128055Y-204696D01*
X130006Y-203888D01*
X131498Y-202396D01*
X132306Y-200445D01*
X132306Y-198335D01*
X131434Y-196230D01*
X131203Y-195113D01*
X131425Y-193920D01*
X132095Y-192909D01*
X132768Y-192236D01*
X133576Y-190285D01*
X133576Y-188175D01*
X132562Y-185727D01*
X132330Y-184609D01*
X132553Y-183416D01*
X133223Y-182405D01*
X133552Y-182076D01*
X134360Y-180125D01*
X134360Y-178015D01*
X133552Y-176064D01*
X132606Y-175118D01*
X131974Y-174196D01*
X131714Y-173012D01*
X131936Y-171819D01*
X132606Y-170808D01*
X132768Y-170646D01*
X133576Y-168695D01*
X133576Y-166585D01*
X132768Y-164634D01*
X131276Y-163142D01*
X129325Y-162334D01*
X127215Y-162334D01*
X125264Y-163142D01*
X123772Y-164634D01*
X123466Y-165373D01*
X122889Y-166274D01*
X121906Y-166984D01*
X120723Y-167253D01*
X119529Y-167040D01*
X118512Y-166379D01*
X117834Y-165373D01*
X117528Y-164634D01*
X116036Y-163142D01*
X114039Y-162315D01*
X113120Y-161722D01*
X112418Y-160732D01*
X112158Y-159547D01*
X112380Y-158355D01*
X113050Y-157344D01*
X113718Y-156676D01*
X114526Y-154725D01*
X114526Y-152615D01*
X113718Y-150664D01*
X112226Y-149172D01*
X110275Y-148364D01*
X108165Y-148364D01*
X106214Y-149172D01*
X104722Y-150664D01*
X103914Y-152615D01*
X103914Y-154725D01*
X104722Y-156676D01*
X106214Y-158168D01*
X108211Y-158995D01*
X109130Y-159588D01*
X109832Y-160578D01*
X110092Y-161763D01*
X109870Y-162955D01*
X109200Y-163966D01*
X108532Y-164634D01*
X107724Y-166585D01*
X107724Y-168695D01*
X108532Y-170646D01*
X109086Y-171200D01*
X109718Y-172122D01*
X109978Y-173306D01*
X109756Y-174499D01*
X109086Y-175510D01*
X108532Y-176064D01*
X107724Y-178015D01*
X107724Y-180125D01*
X108571Y-182169D01*
X109083Y-182917D01*
X109343Y-184101D01*
X109121Y-185294D01*
X108577Y-186114D01*
X107724Y-188175D01*
X107724Y-190285D01*
X108220Y-191484D01*
X108449Y-192504D01*
X108265Y-193703D01*
X107627Y-194735D01*
X106638Y-195437D01*
X105453Y-195698D01*
X104260Y-195475D01*
X103453Y-194941D01*
X101385Y-194084D01*
X99275Y-194084D01*
X97324Y-194892D01*
X95832Y-196384D01*
X95024Y-198335D01*
X95024Y-200445D01*
X95832Y-202396D01*
X97324Y-203888D01*
X99275Y-204696D01*
G37*
G36*
X-166155Y-160048D02*
X-164045Y-160048D01*
X-162094Y-159240D01*
X-160602Y-157748D01*
X-159794Y-155797D01*
X-159794Y-153687D01*
X-160150Y-152827D01*
X-160379Y-151806D01*
X-160238Y-150887D01*
X-161310Y-150687D01*
X-161786Y-150372D01*
X-164045Y-149436D01*
X-166155Y-149436D01*
X-168106Y-150244D01*
X-169598Y-151736D01*
X-170406Y-153687D01*
X-170406Y-155797D01*
X-169598Y-157748D01*
X-168106Y-159240D01*
X-166155Y-160048D01*
G37*
G36*
X149161Y-162567D02*
X151272Y-162567D01*
X153222Y-161759D01*
X154715Y-160266D01*
X155523Y-158316D01*
X155523Y-156205D01*
X154715Y-154255D01*
X153222Y-152763D01*
X151272Y-151955D01*
X149161Y-151955D01*
X147211Y-152763D01*
X145718Y-154255D01*
X144911Y-156205D01*
X144911Y-158316D01*
X145718Y-160266D01*
X147211Y-161759D01*
X149161Y-162567D01*
G37*
G36*
X-110275Y-218666D02*
X-108165Y-218666D01*
X-106214Y-217858D01*
X-104390Y-216034D01*
X-103468Y-215402D01*
X-102284Y-215142D01*
X-101091Y-215364D01*
X-100080Y-216034D01*
X-98256Y-217858D01*
X-96305Y-218666D01*
X-94195Y-218666D01*
X-92244Y-217858D01*
X-90752Y-216366D01*
X-90446Y-215627D01*
X-89869Y-214726D01*
X-88886Y-214016D01*
X-87703Y-213747D01*
X-86509Y-213960D01*
X-85492Y-214621D01*
X-84814Y-215627D01*
X-84508Y-216366D01*
X-83016Y-217858D01*
X-81065Y-218666D01*
X-78955Y-218666D01*
X-77004Y-217858D01*
X-75512Y-216366D01*
X-74704Y-214415D01*
X-74704Y-212305D01*
X-75512Y-210354D01*
X-77004Y-208862D01*
X-77743Y-208556D01*
X-78644Y-207979D01*
X-79354Y-206996D01*
X-79623Y-205813D01*
X-79410Y-204619D01*
X-78749Y-203602D01*
X-77743Y-202924D01*
X-77004Y-202618D01*
X-75512Y-201126D01*
X-74704Y-199175D01*
X-74704Y-197065D01*
X-75512Y-195114D01*
X-77004Y-193622D01*
X-77743Y-193316D01*
X-78644Y-192739D01*
X-79354Y-191756D01*
X-79623Y-190573D01*
X-79410Y-189379D01*
X-78749Y-188362D01*
X-77743Y-187684D01*
X-77004Y-187378D01*
X-75512Y-185886D01*
X-74704Y-183935D01*
X-74704Y-181825D01*
X-75512Y-179874D01*
X-77336Y-178050D01*
X-77968Y-177128D01*
X-78228Y-175944D01*
X-78006Y-174751D01*
X-77336Y-173740D01*
X-75512Y-171916D01*
X-74704Y-169965D01*
X-74704Y-167855D01*
X-75512Y-165904D01*
X-76066Y-165350D01*
X-76698Y-164428D01*
X-76958Y-163244D01*
X-76736Y-162051D01*
X-76066Y-161040D01*
X-75512Y-160486D01*
X-74704Y-158535D01*
X-74704Y-156425D01*
X-75512Y-154474D01*
X-77004Y-152982D01*
X-78955Y-152174D01*
X-81065Y-152174D01*
X-83016Y-152982D01*
X-84840Y-154806D01*
X-85762Y-155438D01*
X-86946Y-155698D01*
X-88139Y-155476D01*
X-89150Y-154806D01*
X-90974Y-152982D01*
X-92925Y-152174D01*
X-95035Y-152174D01*
X-96986Y-152982D01*
X-98478Y-154474D01*
X-99286Y-156425D01*
X-99286Y-158535D01*
X-98478Y-160486D01*
X-97924Y-161040D01*
X-97292Y-161962D01*
X-97032Y-163146D01*
X-97254Y-164339D01*
X-97924Y-165350D01*
X-98478Y-165904D01*
X-99286Y-167855D01*
X-99286Y-169965D01*
X-98478Y-171916D01*
X-96654Y-173740D01*
X-96022Y-174662D01*
X-95762Y-175846D01*
X-95984Y-177039D01*
X-96654Y-178050D01*
X-98478Y-179874D01*
X-99286Y-181825D01*
X-99286Y-183935D01*
X-98478Y-185886D01*
X-96986Y-187378D01*
X-96882Y-187421D01*
X-95981Y-187998D01*
X-95271Y-188981D01*
X-95002Y-190164D01*
X-95215Y-191358D01*
X-95876Y-192375D01*
X-96882Y-193053D01*
X-98256Y-193622D01*
X-99748Y-195114D01*
X-100576Y-197112D01*
X-100744Y-198055D01*
X-101381Y-199087D01*
X-102371Y-199789D01*
X-103555Y-200049D01*
X-104748Y-199827D01*
X-105759Y-199157D01*
X-106214Y-198702D01*
X-108165Y-197894D01*
X-110275Y-197894D01*
X-112226Y-198702D01*
X-113718Y-200194D01*
X-114526Y-202145D01*
X-114526Y-204255D01*
X-113679Y-206299D01*
X-113167Y-207047D01*
X-112907Y-208231D01*
X-113129Y-209424D01*
X-113673Y-210244D01*
X-114526Y-212305D01*
X-114526Y-214415D01*
X-113718Y-216366D01*
X-112226Y-217858D01*
X-110275Y-218666D01*
G37*
G36*
X-123889Y-165326D02*
X-121778Y-165326D01*
X-119828Y-164518D01*
X-118335Y-163026D01*
X-117528Y-161075D01*
X-117528Y-158965D01*
X-118335Y-157014D01*
X-119828Y-155522D01*
X-121778Y-154714D01*
X-123889Y-154714D01*
X-125839Y-155522D01*
X-127332Y-157014D01*
X-128140Y-158965D01*
X-128140Y-161075D01*
X-127332Y-163026D01*
X-125839Y-164518D01*
X-123889Y-165326D01*
G37*
G36*
X20535Y-218666D02*
X22645Y-218666D01*
X24596Y-217858D01*
X26088Y-216366D01*
X27029Y-214094D01*
X27511Y-213341D01*
X27029Y-212626D01*
X26049Y-210261D01*
X25537Y-209513D01*
X25277Y-208329D01*
X25499Y-207136D01*
X26043Y-206316D01*
X26920Y-204197D01*
X27498Y-203295D01*
X28482Y-202586D01*
X29665Y-202317D01*
X30859Y-202530D01*
X31875Y-203192D01*
X31909Y-203243D01*
X34156Y-205490D01*
X34788Y-206412D01*
X35048Y-207596D01*
X34826Y-208789D01*
X34156Y-209800D01*
X33602Y-210354D01*
X32661Y-212626D01*
X32179Y-213379D01*
X32661Y-214094D01*
X33602Y-216366D01*
X35094Y-217858D01*
X37045Y-218666D01*
X39155Y-218666D01*
X41106Y-217858D01*
X42598Y-216366D01*
X42904Y-215627D01*
X43481Y-214726D01*
X44464Y-214016D01*
X45647Y-213747D01*
X46841Y-213960D01*
X47858Y-214621D01*
X48536Y-215627D01*
X48842Y-216366D01*
X50334Y-217858D01*
X52285Y-218666D01*
X54395Y-218666D01*
X56346Y-217858D01*
X57838Y-216366D01*
X58646Y-214415D01*
X58646Y-212305D01*
X57838Y-210354D01*
X56649Y-209165D01*
X56017Y-208243D01*
X55757Y-207059D01*
X55979Y-205866D01*
X56649Y-204855D01*
X57838Y-203666D01*
X58646Y-201715D01*
X58646Y-199605D01*
X57838Y-197654D01*
X56014Y-195830D01*
X55382Y-194908D01*
X55122Y-193724D01*
X55344Y-192531D01*
X56014Y-191520D01*
X57838Y-189696D01*
X58646Y-187745D01*
X58646Y-185635D01*
X57838Y-183684D01*
X56014Y-181860D01*
X55382Y-180938D01*
X55122Y-179754D01*
X55344Y-178561D01*
X56014Y-177550D01*
X57838Y-175726D01*
X58646Y-173775D01*
X58646Y-171665D01*
X57838Y-169714D01*
X56649Y-168525D01*
X56017Y-167603D01*
X55757Y-166419D01*
X55979Y-165226D01*
X56649Y-164215D01*
X57838Y-163026D01*
X58646Y-161075D01*
X58646Y-158965D01*
X57838Y-157014D01*
X56346Y-155522D01*
X54395Y-154714D01*
X52285Y-154714D01*
X50334Y-155522D01*
X48842Y-157014D01*
X47901Y-159286D01*
X47419Y-160039D01*
X47901Y-160754D01*
X48842Y-163026D01*
X50031Y-164215D01*
X50663Y-165137D01*
X50923Y-166321D01*
X50701Y-167514D01*
X50031Y-168525D01*
X48842Y-169714D01*
X47901Y-171986D01*
X47419Y-172739D01*
X47901Y-173454D01*
X48842Y-175726D01*
X50666Y-177550D01*
X51298Y-178472D01*
X51558Y-179656D01*
X51336Y-180849D01*
X50666Y-181860D01*
X48842Y-183684D01*
X47901Y-185956D01*
X47419Y-186709D01*
X47901Y-187424D01*
X48842Y-189696D01*
X50666Y-191520D01*
X51298Y-192442D01*
X51558Y-193626D01*
X51336Y-194819D01*
X50666Y-195830D01*
X48842Y-197654D01*
X47901Y-199926D01*
X47419Y-200679D01*
X47901Y-201394D01*
X48842Y-203666D01*
X50031Y-204855D01*
X50663Y-205777D01*
X50923Y-206961D01*
X50701Y-208154D01*
X50031Y-209165D01*
X48842Y-210354D01*
X48536Y-211093D01*
X47959Y-211994D01*
X46976Y-212704D01*
X45793Y-212973D01*
X44599Y-212760D01*
X43582Y-212099D01*
X42904Y-211093D01*
X42598Y-210354D01*
X40774Y-208530D01*
X40142Y-207608D01*
X39882Y-206424D01*
X40104Y-205231D01*
X40774Y-204220D01*
X41328Y-203666D01*
X42269Y-201394D01*
X42751Y-200641D01*
X42269Y-199926D01*
X41328Y-197654D01*
X39504Y-195830D01*
X38872Y-194908D01*
X38612Y-193724D01*
X38834Y-192531D01*
X39504Y-191520D01*
X41328Y-189696D01*
X42269Y-187424D01*
X42751Y-186671D01*
X42269Y-185956D01*
X41328Y-183684D01*
X39504Y-181860D01*
X38872Y-180938D01*
X38612Y-179754D01*
X38834Y-178561D01*
X39504Y-177550D01*
X41328Y-175726D01*
X42269Y-173454D01*
X42751Y-172701D01*
X42269Y-171986D01*
X41328Y-169714D01*
X40139Y-168525D01*
X39507Y-167603D01*
X39247Y-166419D01*
X39469Y-165226D01*
X40139Y-164215D01*
X41328Y-163026D01*
X42269Y-160754D01*
X42751Y-160001D01*
X42269Y-159286D01*
X41328Y-157014D01*
X39836Y-155522D01*
X37885Y-154714D01*
X35775Y-154714D01*
X33824Y-155522D01*
X32332Y-157014D01*
X31524Y-158965D01*
X31524Y-161075D01*
X32332Y-163026D01*
X33521Y-164215D01*
X34153Y-165137D01*
X34413Y-166321D01*
X34191Y-167514D01*
X33521Y-168525D01*
X32332Y-169714D01*
X31524Y-171665D01*
X31524Y-173775D01*
X32332Y-175726D01*
X34156Y-177550D01*
X34788Y-178472D01*
X35048Y-179656D01*
X34826Y-180849D01*
X34156Y-181860D01*
X32332Y-183684D01*
X31524Y-185635D01*
X31524Y-187745D01*
X32332Y-189696D01*
X34156Y-191520D01*
X34788Y-192442D01*
X35048Y-193626D01*
X34826Y-194819D01*
X34156Y-195830D01*
X32332Y-197654D01*
X31500Y-199663D01*
X30922Y-200565D01*
X29938Y-201274D01*
X28755Y-201543D01*
X27561Y-201330D01*
X26545Y-200668D01*
X26511Y-200617D01*
X24596Y-198702D01*
X22645Y-197894D01*
X20535Y-197894D01*
X18584Y-198702D01*
X17092Y-200194D01*
X16284Y-202145D01*
X16284Y-204255D01*
X17131Y-206299D01*
X17643Y-207047D01*
X17903Y-208231D01*
X17681Y-209424D01*
X17137Y-210244D01*
X16284Y-212305D01*
X16284Y-214415D01*
X17092Y-216366D01*
X18584Y-217858D01*
X20535Y-218666D01*
G37*
G36*
X7835Y-166020D02*
X9945Y-166020D01*
X11896Y-165213D01*
X13388Y-163720D01*
X14196Y-161770D01*
X14196Y-159659D01*
X13388Y-157709D01*
X11896Y-156216D01*
X9945Y-155408D01*
X7835Y-155408D01*
X5884Y-156216D01*
X4392Y-157709D01*
X3584Y-159659D01*
X3584Y-161770D01*
X4392Y-163720D01*
X5884Y-165213D01*
X7835Y-166020D01*
G37*
G36*
X155155Y-217396D02*
X157265Y-217396D01*
X159216Y-216588D01*
X161040Y-214764D01*
X161962Y-214132D01*
X163146Y-213872D01*
X164339Y-214094D01*
X165350Y-214764D01*
X167174Y-216588D01*
X169125Y-217396D01*
X171235Y-217396D01*
X173186Y-216588D01*
X174678Y-215096D01*
X174984Y-214357D01*
X175561Y-213456D01*
X176544Y-212746D01*
X177727Y-212477D01*
X178921Y-212690D01*
X179938Y-213351D01*
X180616Y-214357D01*
X180922Y-215096D01*
X182414Y-216588D01*
X184365Y-217396D01*
X186475Y-217396D01*
X188426Y-216588D01*
X189918Y-215096D01*
X190224Y-214357D01*
X190801Y-213456D01*
X191784Y-212746D01*
X192967Y-212477D01*
X194161Y-212690D01*
X195178Y-213351D01*
X195856Y-214357D01*
X196162Y-215096D01*
X197654Y-216588D01*
X199605Y-217396D01*
X201715Y-217396D01*
X203666Y-216588D01*
X205158Y-215096D01*
X205966Y-213145D01*
X205966Y-211035D01*
X205158Y-209084D01*
X203666Y-207592D01*
X201715Y-206784D01*
X199327Y-206784D01*
X198873Y-206884D01*
X197676Y-206690D01*
X196649Y-206044D01*
X195955Y-205049D01*
X195704Y-203862D01*
X195806Y-203339D01*
X195806Y-202604D01*
X196002Y-201528D01*
X196648Y-200501D01*
X197643Y-199807D01*
X198829Y-199556D01*
X199136Y-199616D01*
X201715Y-199616D01*
X203666Y-198808D01*
X205158Y-197316D01*
X205966Y-195365D01*
X205966Y-193255D01*
X205158Y-191304D01*
X203666Y-189812D01*
X202927Y-189506D01*
X202026Y-188929D01*
X201316Y-187946D01*
X201047Y-186763D01*
X201260Y-185569D01*
X201921Y-184552D01*
X202927Y-183874D01*
X203666Y-183568D01*
X205158Y-182076D01*
X205966Y-180125D01*
X205966Y-178015D01*
X205158Y-176064D01*
X203666Y-174572D01*
X202927Y-174266D01*
X202026Y-173689D01*
X201316Y-172706D01*
X201047Y-171523D01*
X201260Y-170329D01*
X201921Y-169312D01*
X202927Y-168634D01*
X203666Y-168328D01*
X205158Y-166836D01*
X205966Y-164885D01*
X205966Y-162775D01*
X205158Y-160824D01*
X203666Y-159332D01*
X201715Y-158524D01*
X199605Y-158524D01*
X197654Y-159332D01*
X196162Y-160824D01*
X195354Y-162775D01*
X195354Y-164885D01*
X196162Y-166836D01*
X197654Y-168328D01*
X198393Y-168634D01*
X199294Y-169211D01*
X200004Y-170194D01*
X200273Y-171377D01*
X200060Y-172571D01*
X199399Y-173588D01*
X198393Y-174266D01*
X197654Y-174572D01*
X196162Y-176064D01*
X195354Y-178015D01*
X195354Y-180125D01*
X196162Y-182076D01*
X197654Y-183568D01*
X198393Y-183874D01*
X199294Y-184451D01*
X200004Y-185434D01*
X200273Y-186617D01*
X200060Y-187811D01*
X199399Y-188828D01*
X198393Y-189506D01*
X197654Y-189812D01*
X196162Y-191304D01*
X195354Y-193255D01*
X195354Y-193636D01*
X195158Y-194712D01*
X194512Y-195739D01*
X193517Y-196433D01*
X192331Y-196684D01*
X192024Y-196624D01*
X189445Y-196624D01*
X188590Y-196978D01*
X187521Y-197208D01*
X186325Y-197005D01*
X185303Y-196351D01*
X184617Y-195351D01*
X184376Y-194162D01*
X184376Y-193255D01*
X183568Y-191304D01*
X182076Y-189812D01*
X181337Y-189506D01*
X180436Y-188929D01*
X179726Y-187946D01*
X179457Y-186763D01*
X179670Y-185569D01*
X180331Y-184552D01*
X181337Y-183874D01*
X182076Y-183568D01*
X183568Y-182076D01*
X184376Y-180125D01*
X184376Y-178015D01*
X183568Y-176064D01*
X182076Y-174572D01*
X181337Y-174266D01*
X180436Y-173689D01*
X179726Y-172706D01*
X179457Y-171523D01*
X179670Y-170329D01*
X180331Y-169312D01*
X181337Y-168634D01*
X182076Y-168328D01*
X183568Y-166836D01*
X184376Y-164885D01*
X184376Y-162775D01*
X183568Y-160824D01*
X182076Y-159332D01*
X180125Y-158524D01*
X178015Y-158524D01*
X176064Y-159332D01*
X174572Y-160824D01*
X173764Y-162775D01*
X173764Y-164885D01*
X174572Y-166836D01*
X176064Y-168328D01*
X176803Y-168634D01*
X177704Y-169211D01*
X178414Y-170194D01*
X178683Y-171377D01*
X178470Y-172571D01*
X177809Y-173588D01*
X176803Y-174266D01*
X176064Y-174572D01*
X174572Y-176064D01*
X173764Y-178015D01*
X173764Y-180125D01*
X174572Y-182076D01*
X176064Y-183568D01*
X176803Y-183874D01*
X177704Y-184451D01*
X178414Y-185434D01*
X178683Y-186617D01*
X178470Y-187811D01*
X177809Y-188828D01*
X176803Y-189506D01*
X176064Y-189812D01*
X174572Y-191304D01*
X173764Y-193255D01*
X173764Y-193576D01*
X173559Y-194675D01*
X172905Y-195697D01*
X171905Y-196383D01*
X170716Y-196624D01*
X169125Y-196624D01*
X167174Y-197432D01*
X165350Y-199256D01*
X164428Y-199888D01*
X163244Y-200148D01*
X162051Y-199926D01*
X161040Y-199256D01*
X159216Y-197432D01*
X157265Y-196624D01*
X155155Y-196624D01*
X153204Y-197432D01*
X151712Y-198924D01*
X150904Y-200875D01*
X150904Y-202985D01*
X151751Y-205029D01*
X152263Y-205777D01*
X152523Y-206961D01*
X152301Y-208154D01*
X151757Y-208974D01*
X150904Y-211035D01*
X150904Y-213145D01*
X151712Y-215096D01*
X153204Y-216588D01*
X155155Y-217396D01*
G37*
G36*
X-137171Y-208506D02*
X-135061Y-208506D01*
X-133110Y-207698D01*
X-131618Y-206206D01*
X-130810Y-204255D01*
X-130810Y-202145D01*
X-131657Y-200101D01*
X-132169Y-199353D01*
X-132429Y-198169D01*
X-132207Y-196976D01*
X-131663Y-196156D01*
X-130810Y-194095D01*
X-130810Y-191985D01*
X-131657Y-189941D01*
X-132169Y-189193D01*
X-132429Y-188009D01*
X-132207Y-186816D01*
X-131663Y-185996D01*
X-130810Y-183935D01*
X-130810Y-181825D01*
X-131657Y-179781D01*
X-132169Y-179033D01*
X-132429Y-177849D01*
X-132207Y-176656D01*
X-131663Y-175836D01*
X-130810Y-173775D01*
X-130810Y-171665D01*
X-131618Y-169714D01*
X-133110Y-168222D01*
X-135061Y-167414D01*
X-137171Y-167414D01*
X-139122Y-168222D01*
X-140614Y-169714D01*
X-141422Y-171665D01*
X-141422Y-173775D01*
X-140575Y-175819D01*
X-140063Y-176567D01*
X-139803Y-177751D01*
X-140025Y-178944D01*
X-140569Y-179764D01*
X-141422Y-181825D01*
X-141422Y-183935D01*
X-140575Y-185979D01*
X-140063Y-186727D01*
X-139803Y-187911D01*
X-140025Y-189104D01*
X-140569Y-189924D01*
X-141422Y-191985D01*
X-141422Y-194095D01*
X-140575Y-196139D01*
X-140063Y-196887D01*
X-139803Y-198071D01*
X-140025Y-199264D01*
X-140569Y-200084D01*
X-141422Y-202145D01*
X-141422Y-204255D01*
X-140614Y-206206D01*
X-139122Y-207698D01*
X-137171Y-208506D01*
G37*
G36*
X-34075Y-208506D02*
X-31965Y-208506D01*
X-30014Y-207698D01*
X-28190Y-205874D01*
X-27268Y-205242D01*
X-26084Y-204982D01*
X-24891Y-205204D01*
X-23880Y-205874D01*
X-22056Y-207698D01*
X-20105Y-208506D01*
X-17995Y-208506D01*
X-16044Y-207698D01*
X-14552Y-206206D01*
X-14246Y-205467D01*
X-13669Y-204566D01*
X-12686Y-203856D01*
X-11503Y-203587D01*
X-10309Y-203800D01*
X-9292Y-204461D01*
X-8614Y-205467D01*
X-8308Y-206206D01*
X-6816Y-207698D01*
X-4865Y-208506D01*
X-2755Y-208506D01*
X-804Y-207698D01*
X688Y-206206D01*
X1496Y-204255D01*
X1496Y-202145D01*
X649Y-200101D01*
X137Y-199353D01*
X-123Y-198169D01*
X99Y-196976D01*
X643Y-196156D01*
X1496Y-194095D01*
X1496Y-191985D01*
X649Y-189941D01*
X137Y-189193D01*
X-123Y-188009D01*
X99Y-186816D01*
X643Y-185996D01*
X1496Y-183935D01*
X1496Y-181825D01*
X649Y-179781D01*
X137Y-179033D01*
X-123Y-177849D01*
X99Y-176656D01*
X643Y-175836D01*
X1496Y-173775D01*
X1496Y-171665D01*
X688Y-169714D01*
X-804Y-168222D01*
X-2755Y-167414D01*
X-4865Y-167414D01*
X-6816Y-168222D01*
X-8308Y-169714D01*
X-9116Y-171665D01*
X-9116Y-173775D01*
X-8269Y-175819D01*
X-7757Y-176567D01*
X-7497Y-177751D01*
X-7719Y-178944D01*
X-8263Y-179764D01*
X-8614Y-180613D01*
X-9191Y-181514D01*
X-10174Y-182224D01*
X-11357Y-182493D01*
X-12551Y-182280D01*
X-13568Y-181619D01*
X-14246Y-180613D01*
X-14552Y-179874D01*
X-16044Y-178382D01*
X-17995Y-177574D01*
X-20105Y-177574D01*
X-22056Y-178382D01*
X-23548Y-179874D01*
X-24356Y-181825D01*
X-24356Y-183935D01*
X-23509Y-185979D01*
X-22997Y-186727D01*
X-22737Y-187911D01*
X-22959Y-189104D01*
X-23503Y-189924D01*
X-24356Y-191985D01*
X-24356Y-194095D01*
X-23509Y-196139D01*
X-22997Y-196887D01*
X-22737Y-198071D01*
X-22959Y-199264D01*
X-23629Y-200275D01*
X-23880Y-200526D01*
X-24802Y-201158D01*
X-25986Y-201418D01*
X-27179Y-201196D01*
X-28190Y-200526D01*
X-30014Y-198702D01*
X-31965Y-197894D01*
X-34075Y-197894D01*
X-36026Y-198702D01*
X-37518Y-200194D01*
X-38326Y-202145D01*
X-38326Y-204255D01*
X-37518Y-206206D01*
X-36026Y-207698D01*
X-34075Y-208506D01*
G37*
G36*
X-167425Y-207236D02*
X-165315Y-207236D01*
X-163364Y-206428D01*
X-162175Y-205239D01*
X-161253Y-204607D01*
X-160069Y-204347D01*
X-158876Y-204569D01*
X-157865Y-205239D01*
X-156676Y-206428D01*
X-154725Y-207236D01*
X-152615Y-207236D01*
X-150664Y-206428D01*
X-149172Y-204936D01*
X-148364Y-202985D01*
X-148364Y-200875D01*
X-149285Y-198651D01*
X-149517Y-197509D01*
X-149285Y-196319D01*
X-148364Y-194096D01*
X-148364Y-191985D01*
X-149211Y-189941D01*
X-149723Y-189193D01*
X-149983Y-188009D01*
X-149761Y-186816D01*
X-149217Y-185996D01*
X-148364Y-183935D01*
X-148364Y-181825D01*
X-149172Y-179874D01*
X-150664Y-178382D01*
X-152615Y-177574D01*
X-154725Y-177574D01*
X-156676Y-178382D01*
X-158168Y-179874D01*
X-158976Y-181825D01*
X-158976Y-183935D01*
X-158129Y-185979D01*
X-157617Y-186727D01*
X-157357Y-187911D01*
X-157579Y-189104D01*
X-158123Y-189924D01*
X-158976Y-191985D01*
X-158976Y-194688D01*
X-159172Y-195764D01*
X-159818Y-196791D01*
X-160813Y-197485D01*
X-162000Y-197736D01*
X-163190Y-197504D01*
X-165315Y-196624D01*
X-167425Y-196624D01*
X-169376Y-197432D01*
X-170868Y-198924D01*
X-171676Y-200875D01*
X-171676Y-202985D01*
X-170868Y-204936D01*
X-169376Y-206428D01*
X-167425Y-207236D01*
G37*
G36*
X-54395Y-211046D02*
X-52285Y-211046D01*
X-50334Y-210238D01*
X-48842Y-208746D01*
X-48034Y-206795D01*
X-48034Y-204685D01*
X-48842Y-202734D01*
X-50334Y-201242D01*
X-52285Y-200434D01*
X-54395Y-200434D01*
X-56346Y-201242D01*
X-57838Y-202734D01*
X-58646Y-204685D01*
X-58646Y-206795D01*
X-57838Y-208746D01*
X-56346Y-210238D01*
X-54395Y-211046D01*
G37*
G36*
X78955Y-211046D02*
X81065Y-211046D01*
X83016Y-210238D01*
X84508Y-208746D01*
X85316Y-206795D01*
X85316Y-204685D01*
X84508Y-202734D01*
X83016Y-201242D01*
X81065Y-200434D01*
X78955Y-200434D01*
X77004Y-201242D01*
X75512Y-202734D01*
X74704Y-204685D01*
X74704Y-206795D01*
X75512Y-208746D01*
X77004Y-210238D01*
X78955Y-211046D01*
G37*
G36*
X-192469Y-212316D02*
X-190358Y-212316D01*
X-188408Y-211508D01*
X-186915Y-210016D01*
X-186108Y-208065D01*
X-186108Y-205955D01*
X-186915Y-204004D01*
X-188408Y-202512D01*
X-190358Y-201704D01*
X-192469Y-201704D01*
X-194419Y-202512D01*
X-195912Y-204004D01*
X-196720Y-205955D01*
X-196720Y-208065D01*
X-195912Y-210016D01*
X-194419Y-211508D01*
X-192469Y-212316D01*
G37*
G36*
X-216955Y-240256D02*
X-214845Y-240256D01*
X-212894Y-239448D01*
X-211402Y-237956D01*
X-210594Y-236005D01*
X-210594Y-233895D01*
X-211402Y-231944D01*
X-212894Y-230452D01*
X-214845Y-229644D01*
X-216955Y-229644D01*
X-218906Y-230452D01*
X-220398Y-231944D01*
X-221206Y-233895D01*
X-221206Y-236005D01*
X-220398Y-237956D01*
X-218906Y-239448D01*
X-216955Y-240256D01*
G37*
G36*
X-195365Y-272006D02*
X-193255Y-272006D01*
X-191304Y-271198D01*
X-189812Y-269706D01*
X-189004Y-267755D01*
X-189004Y-265645D01*
X-189812Y-263694D01*
X-191304Y-262202D01*
X-193255Y-261394D01*
X-195365Y-261394D01*
X-197316Y-262202D01*
X-198808Y-263694D01*
X-199616Y-265645D01*
X-199616Y-267755D01*
X-198808Y-269706D01*
X-197316Y-271198D01*
X-195365Y-272006D01*
G37*
G36*
X87845Y-305026D02*
X89955Y-305026D01*
X91906Y-304218D01*
X93398Y-302726D01*
X94206Y-300775D01*
X94206Y-298665D01*
X93398Y-296714D01*
X92209Y-295525D01*
X91577Y-294603D01*
X91317Y-293419D01*
X91539Y-292226D01*
X92209Y-291215D01*
X93318Y-290106D01*
X94217Y-289484D01*
X95400Y-289214D01*
X96594Y-289427D01*
X97611Y-290089D01*
X98289Y-291095D01*
X98372Y-291296D01*
X99864Y-292788D01*
X101815Y-293596D01*
X103925Y-293596D01*
X105876Y-292788D01*
X107368Y-291296D01*
X107674Y-290557D01*
X108251Y-289656D01*
X109234Y-288946D01*
X110417Y-288677D01*
X111611Y-288890D01*
X112628Y-289551D01*
X113306Y-290557D01*
X113612Y-291296D01*
X115104Y-292788D01*
X117055Y-293596D01*
X119165Y-293596D01*
X121116Y-292788D01*
X122608Y-291296D01*
X123416Y-289345D01*
X123416Y-287235D01*
X122608Y-285284D01*
X121116Y-283792D01*
X120017Y-283337D01*
X119098Y-282744D01*
X118396Y-281754D01*
X118136Y-280569D01*
X118358Y-279377D01*
X119028Y-278366D01*
X119765Y-277629D01*
X120687Y-276997D01*
X121871Y-276737D01*
X123064Y-276959D01*
X124075Y-277629D01*
X125264Y-278818D01*
X127215Y-279626D01*
X129325Y-279626D01*
X130785Y-279022D01*
X131805Y-278793D01*
X132939Y-278967D01*
X132740Y-278025D01*
X132972Y-276835D01*
X133576Y-275375D01*
X133576Y-273265D01*
X132768Y-271314D01*
X131276Y-269822D01*
X129325Y-269014D01*
X127215Y-269014D01*
X125264Y-269822D01*
X124075Y-271011D01*
X123153Y-271643D01*
X121969Y-271903D01*
X120776Y-271681D01*
X119765Y-271011D01*
X118576Y-269822D01*
X116625Y-269014D01*
X114515Y-269014D01*
X112564Y-269822D01*
X110740Y-271646D01*
X109818Y-272278D01*
X108634Y-272538D01*
X107441Y-272316D01*
X106430Y-271646D01*
X104606Y-269822D01*
X102655Y-269014D01*
X100545Y-269014D01*
X98594Y-269822D01*
X97405Y-271011D01*
X96483Y-271643D01*
X95299Y-271903D01*
X94106Y-271681D01*
X93095Y-271011D01*
X91906Y-269822D01*
X89955Y-269014D01*
X87845Y-269014D01*
X85894Y-269822D01*
X84402Y-271314D01*
X83594Y-273265D01*
X83594Y-275375D01*
X84402Y-277326D01*
X85591Y-278515D01*
X86223Y-279437D01*
X86483Y-280621D01*
X86261Y-281814D01*
X85591Y-282825D01*
X84402Y-284014D01*
X83594Y-285965D01*
X83594Y-288075D01*
X84402Y-290026D01*
X85591Y-291215D01*
X86223Y-292137D01*
X86483Y-293321D01*
X86261Y-294514D01*
X85591Y-295525D01*
X84402Y-296714D01*
X83594Y-298665D01*
X83594Y-300775D01*
X84402Y-302726D01*
X85894Y-304218D01*
X87845Y-305026D01*
G37*
G36*
X171665Y-280896D02*
X173775Y-280896D01*
X174974Y-280400D01*
X175737Y-280229D01*
X176035Y-279779D01*
X177451Y-278363D01*
X178328Y-277751D01*
X179509Y-277472D01*
X179934Y-277544D01*
X178953Y-276917D01*
X178267Y-275916D01*
X178026Y-274728D01*
X178026Y-274535D01*
X177218Y-272584D01*
X175726Y-271092D01*
X173775Y-270284D01*
X171665Y-270284D01*
X169714Y-271092D01*
X168222Y-272584D01*
X167414Y-274535D01*
X167414Y-276645D01*
X168222Y-278596D01*
X169714Y-280088D01*
X171665Y-280896D01*
G37*
G36*
X20535Y-280896D02*
X22645Y-280896D01*
X24596Y-280088D01*
X26088Y-278596D01*
X26896Y-276645D01*
X26896Y-274535D01*
X26088Y-272584D01*
X24596Y-271092D01*
X22645Y-270284D01*
X20535Y-270284D01*
X18584Y-271092D01*
X17092Y-272584D01*
X16284Y-274535D01*
X16284Y-276645D01*
X16953Y-278260D01*
X17181Y-279280D01*
X17049Y-280139D01*
X17730Y-279995D01*
X18920Y-280227D01*
X20535Y-280896D01*
G37*
G36*
X-22645Y-282166D02*
X-20535Y-282166D01*
X-18584Y-281358D01*
X-17092Y-279866D01*
X-16284Y-277915D01*
X-16284Y-275805D01*
X-17092Y-273854D01*
X-18584Y-272362D01*
X-20535Y-271554D01*
X-22645Y-271554D01*
X-24596Y-272362D01*
X-26088Y-273854D01*
X-26896Y-275805D01*
X-26896Y-277915D01*
X-26088Y-279866D01*
X-24596Y-281358D01*
X-22645Y-282166D01*
G37*
G36*
X-117895Y-282166D02*
X-115785Y-282166D01*
X-113834Y-281358D01*
X-112342Y-279866D01*
X-111534Y-277915D01*
X-111534Y-275805D01*
X-112342Y-273854D01*
X-113834Y-272362D01*
X-115785Y-271554D01*
X-117895Y-271554D01*
X-119846Y-272362D01*
X-121338Y-273854D01*
X-122146Y-275805D01*
X-122146Y-277915D01*
X-121338Y-279866D01*
X-119846Y-281358D01*
X-117895Y-282166D01*
G37*
G36*
X40792Y-282166D02*
X41660Y-282321D01*
X42143Y-281591D01*
X43868Y-279866D01*
X44676Y-277915D01*
X44676Y-275805D01*
X43868Y-273854D01*
X42376Y-272362D01*
X40425Y-271554D01*
X38315Y-271554D01*
X36364Y-272362D01*
X34872Y-273854D01*
X34064Y-275805D01*
X34064Y-277915D01*
X34872Y-279866D01*
X36364Y-281358D01*
X38315Y-282166D01*
X40792Y-282166D01*
G37*
G36*
X-150267Y-317419D02*
X-142587Y-317419D01*
X-135492Y-314480D01*
X-130062Y-309049D01*
X-127123Y-301954D01*
X-127123Y-294275D01*
X-130062Y-287180D01*
X-135492Y-281749D01*
X-142587Y-278811D01*
X-150267Y-278811D01*
X-157362Y-281749D01*
X-162792Y-287180D01*
X-165731Y-294275D01*
X-165731Y-301954D01*
X-162792Y-309049D01*
X-157362Y-314480D01*
X-150267Y-317419D01*
G37*
G36*
X-2570Y-317474D02*
X5110Y-317474D01*
X12205Y-314535D01*
X17635Y-309105D01*
X20686Y-301740D01*
X21262Y-300839D01*
X21361Y-300768D01*
X20815Y-299971D01*
X20574Y-298783D01*
X20574Y-294330D01*
X17635Y-287235D01*
X15599Y-285199D01*
X14997Y-284343D01*
X14708Y-283165D01*
X14844Y-282329D01*
X14185Y-282474D01*
X12993Y-282251D01*
X12509Y-281931D01*
X5110Y-278866D01*
X-2570Y-278866D01*
X-9665Y-281805D01*
X-15095Y-287235D01*
X-18034Y-294330D01*
X-18034Y-302010D01*
X-15095Y-309105D01*
X-9665Y-314535D01*
X-2570Y-317474D01*
G37*
G36*
X44986Y-297539D02*
X45739Y-298021D01*
X46454Y-297539D01*
X48726Y-296598D01*
X50218Y-295106D01*
X51026Y-293155D01*
X51026Y-291045D01*
X50218Y-289094D01*
X48726Y-287602D01*
X46775Y-286794D01*
X44298Y-286794D01*
X43430Y-286639D01*
X42947Y-287369D01*
X41222Y-289094D01*
X40414Y-291045D01*
X40414Y-293155D01*
X40910Y-294354D01*
X41081Y-295117D01*
X41531Y-295415D01*
X42714Y-296598D01*
X44986Y-297539D01*
G37*
G36*
X-35345Y-299946D02*
X-33235Y-299946D01*
X-31284Y-299138D01*
X-29792Y-297646D01*
X-28984Y-295695D01*
X-28984Y-293585D01*
X-29792Y-291634D01*
X-31284Y-290142D01*
X-33235Y-289334D01*
X-35345Y-289334D01*
X-37296Y-290142D01*
X-38788Y-291634D01*
X-39596Y-293585D01*
X-39596Y-295695D01*
X-38788Y-297646D01*
X-37296Y-299138D01*
X-35345Y-299946D01*
G37*
G36*
X30695Y-306296D02*
X32805Y-306296D01*
X34756Y-305488D01*
X35211Y-305033D01*
X36088Y-304421D01*
X37269Y-304142D01*
X37721Y-304219D01*
X37297Y-303600D01*
X37056Y-302412D01*
X37056Y-299935D01*
X36560Y-298737D01*
X36389Y-297973D01*
X35939Y-297675D01*
X34756Y-296492D01*
X32805Y-295684D01*
X30695Y-295684D01*
X28744Y-296492D01*
X27252Y-297984D01*
X26438Y-299949D01*
X25878Y-300832D01*
X25763Y-300917D01*
X26318Y-301740D01*
X27252Y-303996D01*
X28744Y-305488D01*
X30695Y-306296D01*
G37*
G36*
X44986Y-314049D02*
X45739Y-314531D01*
X46454Y-314049D01*
X48726Y-313108D01*
X50218Y-311616D01*
X51026Y-309665D01*
X51026Y-307555D01*
X50218Y-305604D01*
X48726Y-304112D01*
X46454Y-303171D01*
X45701Y-302689D01*
X44986Y-303171D01*
X42714Y-304112D01*
X42259Y-304567D01*
X41382Y-305179D01*
X40201Y-305458D01*
X39749Y-305381D01*
X40173Y-306000D01*
X40414Y-307188D01*
X40414Y-309665D01*
X41222Y-311616D01*
X42714Y-313108D01*
X44986Y-314049D01*
G37*
%LPD*%
D10*
X28096Y190462D03*
X-32406Y190221D03*
X148499Y-296900D03*
X1270Y-298170D03*
X-146427Y-298115D03*
D11*
X-93980Y-157480D03*
X-80010Y-157480D03*
X-93980Y-168910D03*
X-80010Y-168910D03*
X-93980Y-182880D03*
X-80010Y-182880D03*
X-95250Y-198120D03*
X-80010Y-198120D03*
X-80010Y-213360D03*
X-95250Y-213360D03*
X-109220Y-213360D03*
X-109220Y-203200D03*
X-106680Y-66040D03*
X-95250Y-77470D03*
X-87630Y-91440D03*
X36830Y-160020D03*
X53340Y-160020D03*
X36830Y-172720D03*
X53340Y-172720D03*
X36830Y-186690D03*
X53340Y-186690D03*
X53340Y-213360D03*
X38100Y-213360D03*
X21590Y-213360D03*
X21590Y-203200D03*
X36830Y-200660D03*
X53340Y-200660D03*
X38100Y-80010D03*
X38100Y-88900D03*
X38100Y-99060D03*
X179070Y-163830D03*
X200660Y-163830D03*
X179070Y-179070D03*
X200660Y-179070D03*
X179070Y-194310D03*
X200660Y-194310D03*
X200660Y-212090D03*
X156210Y-201930D03*
X170180Y-201930D03*
X156210Y-212090D03*
X170180Y-212090D03*
X185420Y-212090D03*
X190500Y-201930D03*
X167640Y-66040D03*
X193040Y-66040D03*
X186690Y-92710D03*
X-150224Y-1270D03*
X-150224Y-11430D03*
X-6350Y140970D03*
X-6350Y152400D03*
X-6350Y165100D03*
X-82550Y137160D03*
X-69850Y95250D03*
X-73660Y67310D03*
X-11430Y35560D03*
X-45720Y-8890D03*
X-21590Y-31750D03*
X2540Y-34290D03*
X-91222Y59908D03*
X-37035Y-21385D03*
X-266700Y29210D03*
X-255270Y19050D03*
X-193040Y-163830D03*
X-167640Y-163830D03*
X-193040Y-184150D03*
X-167640Y-184150D03*
X-193040Y-173990D03*
X-167640Y-173990D03*
X-180340Y-173990D03*
X-180340Y-184150D03*
X-193040Y-194310D03*
X-180340Y-194310D03*
X-114300Y-167640D03*
X-104140Y-167640D03*
X-113030Y-180340D03*
X-104140Y-180340D03*
X-113030Y-193040D03*
X-104140Y-193040D03*
X-73660Y-76200D03*
X-85090Y-57150D03*
X-33020Y-166370D03*
X-55880Y-166370D03*
X-55880Y-187960D03*
X-33020Y-187960D03*
X-44450Y-187960D03*
X-55880Y-176530D03*
X-33020Y-176530D03*
X-44450Y-176530D03*
X13970Y-170180D03*
X26670Y-170180D03*
X13970Y-181610D03*
X26670Y-181610D03*
X-45720Y-196624D03*
X-24130Y-81280D03*
X-11430Y-101600D03*
X60960Y-97790D03*
X82550Y-166370D03*
X102870Y-166370D03*
X102870Y-186690D03*
X82550Y-194310D03*
X82550Y-180340D03*
X102870Y-176530D03*
X92710Y-179070D03*
X92710Y-191770D03*
X168910Y-163830D03*
X168910Y-179070D03*
X167640Y-190500D03*
X149860Y-190500D03*
X149860Y-176530D03*
X60734Y-78740D03*
X155363Y-166793D03*
X123190Y-78740D03*
X-255270Y-207010D03*
X-236220Y-194310D03*
X-220980Y-134620D03*
X-247650Y-96520D03*
X-236220Y-167640D03*
X-246380Y-135890D03*
X-264160Y-176530D03*
X-290830Y-146050D03*
X-313690Y-120650D03*
X-298450Y-85090D03*
X-284480Y-39370D03*
X-260350Y-67310D03*
X-67310Y-269240D03*
X-82550Y-278130D03*
X-99060Y-325120D03*
X-99060Y-311150D03*
X-99060Y-299720D03*
X-67310Y-293370D03*
X-85090Y-292100D03*
X-67310Y-280670D03*
X72390Y-259080D03*
X77470Y-271780D03*
X77470Y-290830D03*
X57150Y-292100D03*
X198120Y-255270D03*
X199390Y-232410D03*
X217170Y-232410D03*
X215900Y-166370D03*
X215900Y-186690D03*
X215900Y-207010D03*
X209550Y-271780D03*
X232410Y-247650D03*
X247650Y-207010D03*
X259080Y-166370D03*
X294640Y-147320D03*
X312420Y-105410D03*
X279400Y-69850D03*
X270510Y-13970D03*
X161290Y-1270D03*
X223520Y-1270D03*
X193040Y-33020D03*
X236220Y-60960D03*
X237490Y-123190D03*
X266700Y54610D03*
X302260Y91440D03*
X297180Y143510D03*
X241300Y138430D03*
X199390Y102870D03*
X187960Y137160D03*
X124460Y172720D03*
X82550Y193040D03*
X-66040Y205740D03*
X-66040Y190500D03*
X-66040Y175260D03*
X-99060Y195580D03*
X-110490Y187960D03*
X-82550Y201930D03*
X-68580Y156210D03*
X-60960Y148590D03*
X-48260Y82550D03*
X0Y82550D03*
X36830Y49530D03*
X41910Y12700D03*
X20320Y30480D03*
X8890Y53340D03*
X-34290Y54610D03*
X-58420Y43180D03*
X-13970Y-22860D03*
X-7620Y-63500D03*
X-44450Y-57150D03*
X-97790Y-20320D03*
X-67310Y-44450D03*
X-105410Y-49530D03*
X-140970Y-67310D03*
X-142240Y-31750D03*
X-175260Y-33020D03*
X-168910Y-48260D03*
X-203200Y-78740D03*
X-217170Y-77470D03*
X-237490Y-55880D03*
X-259080Y-34290D03*
X-241300Y-2540D03*
X-209550Y-2540D03*
X-247650Y-20320D03*
X-222250Y-43180D03*
X81280Y130810D03*
X64770Y130810D03*
X95250Y120650D03*
X123190Y151130D03*
X123190Y139700D03*
X109220Y190500D03*
X133350Y-109220D03*
X132080Y-59690D03*
X100330Y-50800D03*
X125730Y-39370D03*
X91440Y-24130D03*
X118110Y-6350D03*
X92710Y12700D03*
X118110Y13970D03*
X54610Y81280D03*
X54610Y33020D03*
X27940Y81280D03*
X-259080Y146050D03*
X-295910Y144780D03*
X-311150Y110490D03*
X-283210Y74930D03*
X-222250Y118110D03*
X-251460Y102870D03*
X-257810Y72390D03*
X-233680Y149860D03*
X-220980Y-10160D03*
X-196850Y-27940D03*
X-129540Y100330D03*
X-129540Y86360D03*
X-256540Y27940D03*
X0Y0D03*
X13068Y-192138D03*
X25768Y-192138D03*
X58420Y-278277D03*
X104140Y-125730D03*
X113616Y-111760D03*
X104116Y-137160D03*
X86360Y-83820D03*
X86360Y-124460D03*
X123190Y-95250D03*
X-57150Y-71120D03*
X-59690Y-55880D03*
X-27940Y-114300D03*
X-38100Y-139700D03*
X-38100Y-127000D03*
X-222476Y-99060D03*
X-161290Y-113030D03*
X-171450Y-138430D03*
X-171450Y-125730D03*
X-219710Y-160020D03*
X-218440Y-198120D03*
X-196850Y-220980D03*
X-151130Y-101600D03*
X-123190Y-105410D03*
X-104140Y-105410D03*
X-139700Y-113030D03*
X-157480Y-74930D03*
X-130810Y-50800D03*
X-148590Y-50800D03*
X-102870Y-2540D03*
X-80010Y-29210D03*
X12700Y-104140D03*
X22860Y-57150D03*
X57150Y-54610D03*
X-25400Y-58420D03*
X-62230Y-248920D03*
X-60960Y-223520D03*
X-62230Y-153670D03*
X72390Y-218440D03*
X71120Y-238760D03*
X72390Y-149860D03*
X147320Y-40640D03*
X213360Y-85090D03*
X168910Y-43180D03*
X227330Y-33020D03*
X247650Y-90170D03*
X-73660Y-99060D03*
X41910Y-12700D03*
X43180Y-34290D03*
X71120Y-27940D03*
X71120Y-8890D03*
X57150Y-19050D03*
X17780Y116840D03*
X-21590Y116840D03*
X59690Y116840D03*
X91440Y90170D03*
X-59690Y123190D03*
X-41910Y100330D03*
X-5080Y100330D03*
X38100Y100330D03*
X72390Y71120D03*
X72390Y39370D03*
X72390Y11430D03*
X-195580Y109220D03*
X-191300Y145210D03*
X151130Y115570D03*
X224790Y22860D03*
X245110Y66040D03*
X151130Y68580D03*
X151130Y91440D03*
X151130Y44450D03*
X175260Y22860D03*
X200660Y24130D03*
X175260Y44450D03*
X175260Y67310D03*
X200660Y44450D03*
X200660Y66040D03*
X224790Y66040D03*
X224790Y44450D03*
X245110Y44450D03*
X19050Y-24130D03*
X-222250Y138430D03*
X-228600Y25400D03*
X-219505Y13765D03*
X151356Y22860D03*
X-126795Y-9955D03*
X-93904Y134696D03*
X95250Y-102870D03*
X-48260Y-104140D03*
X-181610Y-101600D03*
X-209550Y106680D03*
X-215900Y99060D03*
X92710Y105410D03*
X116840Y105410D03*
X88900Y-274320D03*
X101600Y-274320D03*
X115570Y-274320D03*
X128270Y-274320D03*
X88900Y-287020D03*
X88900Y-299720D03*
X102870Y-288290D03*
X118110Y-288290D03*
X127000Y-317500D03*
X134620Y-326138D03*
X172720Y-275590D03*
X195580Y-289560D03*
X180340Y-302260D03*
X181610Y-289560D03*
X150217Y-157261D03*
X187960Y-279656D03*
X109220Y-153670D03*
X80010Y-205740D03*
X113030Y-167640D03*
X128270Y-167640D03*
X113030Y-179070D03*
X100330Y-199390D03*
X114300Y-199390D03*
X127000Y-199390D03*
X128270Y-189230D03*
X113030Y-189230D03*
X129054Y-179070D03*
X120650Y-139700D03*
X67310Y-43180D03*
X-102870Y10160D03*
X-137862Y26798D03*
X76200Y-120650D03*
X-165100Y100330D03*
X-146050Y100330D03*
X-165100Y113894D03*
X-137160Y113894D03*
X-53088Y109220D03*
X-95360Y124338D03*
X-30480Y-154940D03*
X-53340Y-205740D03*
X-3810Y-172720D03*
X-3810Y-182880D03*
X-19050Y-182880D03*
X-19050Y-193040D03*
X-3810Y-193040D03*
X-3810Y-203200D03*
X-19050Y-203200D03*
X-33020Y-203200D03*
X-20320Y-144780D03*
X-191414Y-207010D03*
X-165100Y-154742D03*
X-153670Y-182880D03*
X-153670Y-193040D03*
X-153670Y-201930D03*
X-166370Y-201930D03*
X-136116Y-172720D03*
X-136116Y-182880D03*
X-136116Y-193040D03*
X-136116Y-203200D03*
X-152400Y-144780D03*
X-55880Y-280670D03*
X-55880Y-294640D03*
X-55880Y-309880D03*
X-55880Y-325120D03*
X-43180Y-276860D03*
X-21590Y-276860D03*
X45720Y-325120D03*
X45720Y-308610D03*
X45720Y-292100D03*
X21590Y-275590D03*
X39370Y-276860D03*
X31750Y-300990D03*
X22860Y-323850D03*
X-16510Y-325120D03*
X-34290Y-294640D03*
X8890Y-160714D03*
X-158750Y35560D03*
X-63500Y-121920D03*
X-96520Y-276860D03*
X-116840Y-276860D03*
X-113030Y-298450D03*
X-127000Y-325120D03*
X-179070Y-298450D03*
X-176530Y-278130D03*
X-201930Y-281940D03*
X-194310Y-266700D03*
X-122834Y-160020D03*
X-187960Y-287020D03*
X-110490Y-323850D03*
X-109220Y-311150D03*
X-102870Y-287020D03*
X-215900Y-234950D03*
X-231140Y-250190D03*
X-210820Y52070D03*
X-274320Y48260D03*
X-66040Y5080D03*
X-59690Y-10160D03*
X26670Y-12700D03*
X-52070Y29210D03*
X6350Y24130D03*
X-60249Y13292D03*
X-16510Y16510D03*
X-48260Y2540D03*
X-17780Y26444D03*
X-73660Y35560D03*
X-91440Y10160D03*
X-60946Y-22846D03*
X-128322Y74930D03*
X-73660Y77470D03*
X31674Y-2464D03*
X-114300Y170180D03*
X-157198Y140984D03*
X-134620Y177800D03*
X-156408Y150072D03*
M02*
