G04 EAGLE Gerber RS-274X export*
G75*
%MOMM*%
%FSLAX34Y34*%
%LPD*%
%INBottom Copper*%
%IPPOS*%
%AMOC8*
5,1,8,0,0,1.08239X$1,22.5*%
G01*
G04 Define Apertures*
%ADD10R,0.711200X0.254000*%
%ADD11R,0.254000X0.711200*%
%ADD12R,1.701800X1.701800*%
%ADD13R,0.629100X0.560000*%
%ADD14R,0.644000X0.535100*%
%ADD15R,0.535100X0.644000*%
%ADD16P,5.49854X8X202.5*%
%ADD17P,5.49854X8X112.5*%
%ADD18C,0.284478*%
%ADD19C,0.756400*%
%ADD20C,0.609600*%
%ADD21C,0.254000*%
%ADD22C,0.406400*%
G36*
X-68190Y-161049D02*
X-69379Y-161290D01*
X-114528Y-161290D01*
X-115649Y-161076D01*
X-116666Y-160414D01*
X-117344Y-159408D01*
X-118335Y-157014D01*
X-119828Y-155522D01*
X-121778Y-154714D01*
X-123889Y-154714D01*
X-124056Y-154783D01*
X-125125Y-155013D01*
X-126321Y-154810D01*
X-127343Y-154156D01*
X-128029Y-153156D01*
X-128270Y-151967D01*
X-128270Y-113611D01*
X-128074Y-112535D01*
X-127428Y-111508D01*
X-126433Y-110814D01*
X-125246Y-110563D01*
X-124459Y-110716D01*
X-122135Y-110716D01*
X-120184Y-109908D01*
X-118692Y-108416D01*
X-117884Y-106465D01*
X-117884Y-104355D01*
X-118692Y-102404D01*
X-120184Y-100912D01*
X-122135Y-100104D01*
X-124420Y-100104D01*
X-125125Y-100256D01*
X-126321Y-100052D01*
X-127343Y-99399D01*
X-128029Y-98398D01*
X-128270Y-97209D01*
X-128270Y-77463D01*
X-128047Y-76319D01*
X-127377Y-75307D01*
X-111383Y-59313D01*
X-110416Y-58661D01*
X-109228Y-58420D01*
X-92344Y-58420D01*
X-91222Y-58634D01*
X-90206Y-59296D01*
X-89705Y-60039D01*
X-88096Y-61648D01*
X-86145Y-62456D01*
X-84035Y-62456D01*
X-82084Y-61648D01*
X-80489Y-60053D01*
X-80026Y-59347D01*
X-79025Y-58661D01*
X-77836Y-58420D01*
X-65916Y-58420D01*
X-64772Y-58643D01*
X-63761Y-59313D01*
X-62696Y-60378D01*
X-60687Y-61210D01*
X-59785Y-61788D01*
X-59076Y-62772D01*
X-58807Y-63955D01*
X-59020Y-65149D01*
X-59682Y-66165D01*
X-59733Y-66199D01*
X-61648Y-68114D01*
X-62456Y-70065D01*
X-62456Y-72175D01*
X-61648Y-74126D01*
X-60156Y-75618D01*
X-58205Y-76426D01*
X-56095Y-76426D01*
X-54144Y-75618D01*
X-52652Y-74126D01*
X-51844Y-72175D01*
X-51844Y-70065D01*
X-52652Y-68114D01*
X-54144Y-66622D01*
X-56153Y-65790D01*
X-57055Y-65212D01*
X-57764Y-64228D01*
X-58033Y-63045D01*
X-57820Y-61851D01*
X-57158Y-60835D01*
X-57107Y-60801D01*
X-55619Y-59313D01*
X-54652Y-58661D01*
X-53464Y-58420D01*
X-51704Y-58420D01*
X-50582Y-58634D01*
X-49566Y-59296D01*
X-49065Y-60039D01*
X-47456Y-61648D01*
X-45505Y-62456D01*
X-43395Y-62456D01*
X-41444Y-61648D01*
X-39849Y-60053D01*
X-39386Y-59347D01*
X-38385Y-58661D01*
X-37196Y-58420D01*
X-33180Y-58420D01*
X-32058Y-58634D01*
X-31042Y-59296D01*
X-30364Y-60302D01*
X-29898Y-61426D01*
X-28406Y-62918D01*
X-26455Y-63726D01*
X-24345Y-63726D01*
X-22394Y-62918D01*
X-20902Y-61426D01*
X-20436Y-60302D01*
X-19810Y-59347D01*
X-18809Y-58661D01*
X-17620Y-58420D01*
X-15821Y-58420D01*
X-14745Y-58616D01*
X-13718Y-59262D01*
X-13024Y-60257D01*
X-12773Y-61444D01*
X-12926Y-62231D01*
X-12926Y-64555D01*
X-12118Y-66506D01*
X-10626Y-67998D01*
X-8675Y-68806D01*
X-6565Y-68806D01*
X-4614Y-67998D01*
X-3122Y-66506D01*
X-2314Y-64555D01*
X-2314Y-62270D01*
X-2466Y-61565D01*
X-2262Y-60369D01*
X-1609Y-59347D01*
X-608Y-58661D01*
X581Y-58420D01*
X15606Y-58420D01*
X16728Y-58634D01*
X17744Y-59296D01*
X18246Y-60039D01*
X19854Y-61648D01*
X21805Y-62456D01*
X23915Y-62456D01*
X25866Y-61648D01*
X27461Y-60053D01*
X27924Y-59347D01*
X28925Y-58661D01*
X30114Y-58420D01*
X30375Y-58420D01*
X30460Y-58414D01*
X30475Y-58411D01*
X30568Y-58332D01*
X54536Y-34364D01*
X54592Y-34300D01*
X54600Y-34287D01*
X54610Y-34166D01*
X54610Y-27404D01*
X54815Y-26305D01*
X55469Y-25283D01*
X56469Y-24597D01*
X57658Y-24356D01*
X58205Y-24356D01*
X60156Y-23548D01*
X61339Y-22365D01*
X61819Y-22027D01*
X61960Y-21304D01*
X62456Y-20105D01*
X62456Y-17995D01*
X61648Y-16044D01*
X60156Y-14552D01*
X58205Y-13744D01*
X57658Y-13744D01*
X56559Y-13539D01*
X55537Y-12885D01*
X54851Y-11885D01*
X54610Y-10696D01*
X54610Y25240D01*
X54824Y26362D01*
X55486Y27378D01*
X56492Y28056D01*
X57616Y28522D01*
X59108Y30014D01*
X59916Y31965D01*
X59916Y34075D01*
X59108Y36026D01*
X57616Y37518D01*
X56492Y37984D01*
X55537Y38610D01*
X54851Y39611D01*
X54610Y40800D01*
X54610Y50695D01*
X54604Y50780D01*
X54601Y50795D01*
X54522Y50888D01*
X31942Y73468D01*
X31310Y74390D01*
X31050Y75575D01*
X31272Y76767D01*
X31942Y77778D01*
X32438Y78274D01*
X33246Y80225D01*
X33246Y82335D01*
X32438Y84286D01*
X30946Y85778D01*
X28995Y86586D01*
X26885Y86586D01*
X24934Y85778D01*
X24438Y85282D01*
X23517Y84650D01*
X22332Y84390D01*
X21139Y84612D01*
X20128Y85282D01*
X-1647Y107057D01*
X-2299Y108024D01*
X-2540Y109213D01*
X-2540Y136014D01*
X-2317Y137158D01*
X-1967Y137686D01*
X-1044Y139915D01*
X-1044Y142025D01*
X-1958Y144232D01*
X-2299Y144738D01*
X-2540Y145926D01*
X-2540Y147444D01*
X-2317Y148588D01*
X-1967Y149116D01*
X-1044Y151345D01*
X-1044Y153455D01*
X-1958Y155662D01*
X-2299Y156168D01*
X-2540Y157356D01*
X-2540Y160144D01*
X-2317Y161288D01*
X-1967Y161816D01*
X-1044Y164045D01*
X-1044Y166155D01*
X-1958Y168362D01*
X-2299Y168868D01*
X-2540Y170056D01*
X-2540Y216843D01*
X-2269Y218100D01*
X-1559Y219084D01*
X-521Y219712D01*
X679Y219887D01*
X32907Y218074D01*
X33247Y218035D01*
X65569Y212534D01*
X65903Y212457D01*
X97405Y203365D01*
X97728Y203252D01*
X105348Y200090D01*
X106266Y199497D01*
X106967Y198508D01*
X107228Y197323D01*
X107005Y196130D01*
X106335Y195119D01*
X104722Y193506D01*
X103914Y191555D01*
X103914Y189445D01*
X104722Y187494D01*
X106214Y186002D01*
X108165Y185194D01*
X110275Y185194D01*
X112226Y186002D01*
X113718Y187494D01*
X114526Y189445D01*
X114526Y191716D01*
X114723Y192794D01*
X115369Y193820D01*
X116365Y194514D01*
X117552Y194764D01*
X118742Y194531D01*
X128011Y190684D01*
X128319Y190536D01*
X157002Y174651D01*
X157291Y174468D01*
X184011Y155467D01*
X184148Y155364D01*
X184345Y155206D01*
X187825Y152425D01*
X196467Y148693D01*
X205788Y147371D01*
X215128Y148554D01*
X219476Y150355D01*
X219476Y150355D01*
X220970Y150974D01*
X220970Y150974D01*
X256147Y165545D01*
X256525Y165673D01*
X269604Y169177D01*
X270393Y169281D01*
X283935Y169281D01*
X284723Y169177D01*
X297803Y165673D01*
X298538Y165368D01*
X310266Y158598D01*
X310897Y158113D01*
X320472Y148538D01*
X320956Y147907D01*
X327727Y136180D01*
X328032Y135445D01*
X331536Y122365D01*
X331640Y121576D01*
X331640Y108034D01*
X331536Y107246D01*
X328032Y94166D01*
X327727Y93431D01*
X320956Y81703D01*
X320472Y81072D01*
X310897Y71497D01*
X310266Y71013D01*
X298539Y64242D01*
X298175Y64079D01*
X298181Y64066D01*
X293855Y62274D01*
X285662Y55452D01*
X279865Y46505D01*
X276987Y36240D01*
X277289Y25583D01*
X279016Y20540D01*
X279067Y20376D01*
X287959Y-11324D01*
X288033Y-11660D01*
X293298Y-44160D01*
X293321Y-44330D01*
X293397Y-45055D01*
X293397Y-45055D01*
X293850Y-49386D01*
X297734Y-58783D01*
X304127Y-66690D01*
X306982Y-68657D01*
X308314Y-69574D01*
X308610Y-69805D01*
X318153Y-78285D01*
X318648Y-78849D01*
X325831Y-89403D01*
X326174Y-90070D01*
X330562Y-102059D01*
X330731Y-102790D01*
X332058Y-115488D01*
X332043Y-116238D01*
X330228Y-128875D01*
X330031Y-129599D01*
X325185Y-141410D01*
X324817Y-142063D01*
X317232Y-152333D01*
X316716Y-152877D01*
X307322Y-160597D01*
X306576Y-161049D01*
X305387Y-161290D01*
X261287Y-161290D01*
X260151Y-161064D01*
X258009Y-161064D01*
X256873Y-161290D01*
X218107Y-161290D01*
X216971Y-161064D01*
X214829Y-161064D01*
X213693Y-161290D01*
X175136Y-161290D01*
X173992Y-161067D01*
X172981Y-160397D01*
X171916Y-159332D01*
X169965Y-158524D01*
X167855Y-158524D01*
X165904Y-159332D01*
X164839Y-160397D01*
X163872Y-161049D01*
X162684Y-161290D01*
X158571Y-161290D01*
X157472Y-161085D01*
X156450Y-160431D01*
X155764Y-159431D01*
X155523Y-158242D01*
X155523Y-156205D01*
X154715Y-154255D01*
X153222Y-152763D01*
X151272Y-151955D01*
X149161Y-151955D01*
X147211Y-152763D01*
X145718Y-154255D01*
X144911Y-156205D01*
X144911Y-158242D01*
X144706Y-159341D01*
X144052Y-160363D01*
X143051Y-161049D01*
X141863Y-161290D01*
X116369Y-161290D01*
X115292Y-161094D01*
X114265Y-160448D01*
X113572Y-159453D01*
X113321Y-158266D01*
X113553Y-157076D01*
X114526Y-154725D01*
X114526Y-152615D01*
X113718Y-150664D01*
X112226Y-149172D01*
X110275Y-148364D01*
X108165Y-148364D01*
X106214Y-149172D01*
X104722Y-150664D01*
X103914Y-152615D01*
X103914Y-154725D01*
X104794Y-156850D01*
X105024Y-157919D01*
X104821Y-159115D01*
X104167Y-160137D01*
X103167Y-160823D01*
X101978Y-161064D01*
X101799Y-161064D01*
X100663Y-161290D01*
X84757Y-161290D01*
X83621Y-161064D01*
X81479Y-161064D01*
X80343Y-161290D01*
X16908Y-161290D01*
X15787Y-161076D01*
X14770Y-160414D01*
X14092Y-159408D01*
X13388Y-157709D01*
X11896Y-156216D01*
X9945Y-155408D01*
X7835Y-155408D01*
X5884Y-156216D01*
X4392Y-157709D01*
X3688Y-159408D01*
X3061Y-160363D01*
X2061Y-161049D01*
X872Y-161290D01*
X-22805Y-161290D01*
X-23882Y-161094D01*
X-24909Y-160448D01*
X-25602Y-159453D01*
X-25853Y-158266D01*
X-25621Y-157076D01*
X-25174Y-155995D01*
X-25174Y-153607D01*
X-25274Y-153153D01*
X-25080Y-151956D01*
X-24434Y-150929D01*
X-23439Y-150235D01*
X-22252Y-149984D01*
X-21729Y-150086D01*
X-19265Y-150086D01*
X-17314Y-149278D01*
X-15822Y-147786D01*
X-15014Y-145835D01*
X-15014Y-143725D01*
X-15822Y-141774D01*
X-17314Y-140282D01*
X-19265Y-139474D01*
X-21375Y-139474D01*
X-23326Y-140282D01*
X-24818Y-141774D01*
X-25626Y-143725D01*
X-25626Y-146113D01*
X-25526Y-146567D01*
X-25720Y-147764D01*
X-26366Y-148791D01*
X-27361Y-149485D01*
X-28548Y-149736D01*
X-29071Y-149634D01*
X-31535Y-149634D01*
X-33486Y-150442D01*
X-34978Y-151934D01*
X-35786Y-153885D01*
X-35786Y-155995D01*
X-35339Y-157076D01*
X-35108Y-158145D01*
X-35312Y-159341D01*
X-35965Y-160363D01*
X-36966Y-161049D01*
X-38155Y-161290D01*
X-53673Y-161290D01*
X-54809Y-161064D01*
X-54988Y-161064D01*
X-56064Y-160868D01*
X-57091Y-160222D01*
X-57785Y-159227D01*
X-58036Y-158040D01*
X-57804Y-156850D01*
X-56924Y-154725D01*
X-56924Y-152615D01*
X-57732Y-150664D01*
X-59224Y-149172D01*
X-61175Y-148364D01*
X-63285Y-148364D01*
X-65236Y-149172D01*
X-66728Y-150664D01*
X-67536Y-152615D01*
X-67536Y-154725D01*
X-66563Y-157076D01*
X-66332Y-158145D01*
X-66535Y-159341D01*
X-67189Y-160363D01*
X-68190Y-161049D01*
G37*
%LPC*%
G36*
X81495Y187734D02*
X83605Y187734D01*
X85556Y188542D01*
X87048Y190034D01*
X87856Y191985D01*
X87856Y194095D01*
X87048Y196046D01*
X85556Y197538D01*
X83605Y198346D01*
X81495Y198346D01*
X79544Y197538D01*
X78052Y196046D01*
X77244Y194095D01*
X77244Y191985D01*
X78052Y190034D01*
X79544Y188542D01*
X81495Y187734D01*
G37*
G36*
X123405Y167414D02*
X125515Y167414D01*
X127466Y168222D01*
X128958Y169714D01*
X129766Y171665D01*
X129766Y173775D01*
X128958Y175726D01*
X127466Y177218D01*
X125515Y178026D01*
X123405Y178026D01*
X121454Y177218D01*
X119962Y175726D01*
X119154Y173775D01*
X119154Y171665D01*
X119962Y169714D01*
X121454Y168222D01*
X123405Y167414D01*
G37*
G36*
X122135Y134394D02*
X124245Y134394D01*
X126196Y135202D01*
X127688Y136694D01*
X128496Y138645D01*
X128496Y140755D01*
X127688Y142706D01*
X127134Y143260D01*
X126502Y144182D01*
X126242Y145366D01*
X126464Y146559D01*
X127134Y147570D01*
X127688Y148124D01*
X128496Y150075D01*
X128496Y152185D01*
X127688Y154136D01*
X126196Y155628D01*
X124245Y156436D01*
X122135Y156436D01*
X120184Y155628D01*
X118692Y154136D01*
X117884Y152185D01*
X117884Y150075D01*
X118692Y148124D01*
X119246Y147570D01*
X119878Y146648D01*
X120138Y145464D01*
X119916Y144271D01*
X119246Y143260D01*
X118692Y142706D01*
X117884Y140755D01*
X117884Y138645D01*
X118692Y136694D01*
X120184Y135202D01*
X122135Y134394D01*
G37*
G36*
X296125Y138204D02*
X298235Y138204D01*
X300186Y139012D01*
X301678Y140504D01*
X302486Y142455D01*
X302486Y144565D01*
X301678Y146516D01*
X300186Y148008D01*
X298235Y148816D01*
X296125Y148816D01*
X294174Y148008D01*
X292682Y146516D01*
X291874Y144565D01*
X291874Y142455D01*
X292682Y140504D01*
X294174Y139012D01*
X296125Y138204D01*
G37*
G36*
X240245Y133124D02*
X242355Y133124D01*
X244306Y133932D01*
X245798Y135424D01*
X246606Y137375D01*
X246606Y139485D01*
X245798Y141436D01*
X244306Y142928D01*
X242355Y143736D01*
X240245Y143736D01*
X238294Y142928D01*
X236802Y141436D01*
X235994Y139485D01*
X235994Y137375D01*
X236802Y135424D01*
X238294Y133932D01*
X240245Y133124D01*
G37*
G36*
X186905Y131854D02*
X189015Y131854D01*
X190966Y132662D01*
X192458Y134154D01*
X193266Y136105D01*
X193266Y138215D01*
X192458Y140166D01*
X190966Y141658D01*
X189015Y142466D01*
X186905Y142466D01*
X184954Y141658D01*
X183462Y140166D01*
X182654Y138215D01*
X182654Y136105D01*
X183462Y134154D01*
X184954Y132662D01*
X186905Y131854D01*
G37*
G36*
X80225Y125504D02*
X82335Y125504D01*
X84286Y126312D01*
X85778Y127804D01*
X86586Y129755D01*
X86586Y131865D01*
X85778Y133816D01*
X84286Y135308D01*
X82335Y136116D01*
X80225Y136116D01*
X78274Y135308D01*
X76782Y133816D01*
X75841Y131544D01*
X75359Y130791D01*
X75841Y130076D01*
X76782Y127804D01*
X78274Y126312D01*
X80225Y125504D01*
G37*
G36*
X58635Y111534D02*
X60745Y111534D01*
X62696Y112342D01*
X64188Y113834D01*
X64996Y115785D01*
X64996Y117895D01*
X64188Y119846D01*
X63733Y120301D01*
X63121Y121178D01*
X62842Y122359D01*
X63045Y123555D01*
X63699Y124577D01*
X64700Y125263D01*
X65765Y125479D01*
X67776Y126312D01*
X69268Y127804D01*
X70209Y130076D01*
X70691Y130829D01*
X70209Y131544D01*
X69268Y133816D01*
X67776Y135308D01*
X65825Y136116D01*
X63715Y136116D01*
X61764Y135308D01*
X60272Y133816D01*
X59464Y131865D01*
X59464Y129755D01*
X60272Y127804D01*
X60727Y127349D01*
X61339Y126472D01*
X61618Y125291D01*
X61415Y124095D01*
X60761Y123073D01*
X59760Y122387D01*
X58695Y122171D01*
X56684Y121338D01*
X55192Y119846D01*
X54384Y117895D01*
X54384Y115785D01*
X55192Y113834D01*
X56684Y112342D01*
X58635Y111534D01*
G37*
G36*
X273814Y97963D02*
X280514Y97963D01*
X286704Y100527D01*
X291442Y105265D01*
X294006Y111455D01*
X294006Y118155D01*
X291442Y124345D01*
X286704Y129083D01*
X280514Y131647D01*
X273814Y131647D01*
X267624Y129083D01*
X262886Y124345D01*
X260322Y118155D01*
X260322Y111455D01*
X262886Y105265D01*
X267624Y100527D01*
X273814Y97963D01*
G37*
G36*
X90385Y84864D02*
X92495Y84864D01*
X94446Y85672D01*
X95938Y87164D01*
X96746Y89115D01*
X96746Y91225D01*
X95938Y93176D01*
X94446Y94668D01*
X94342Y94711D01*
X93441Y95288D01*
X92731Y96271D01*
X92462Y97454D01*
X92675Y98648D01*
X93336Y99665D01*
X94342Y100343D01*
X95716Y100912D01*
X97208Y102404D01*
X98016Y104355D01*
X98016Y106465D01*
X97208Y108416D01*
X95383Y110241D01*
X95346Y110265D01*
X95312Y110312D01*
X95287Y110337D01*
X95291Y110341D01*
X94636Y111248D01*
X94367Y112431D01*
X94580Y113625D01*
X95241Y114642D01*
X96247Y115320D01*
X98256Y116152D01*
X99748Y117644D01*
X100556Y119595D01*
X100556Y121705D01*
X99748Y123656D01*
X98256Y125148D01*
X96305Y125956D01*
X94195Y125956D01*
X92244Y125148D01*
X90752Y123656D01*
X89944Y121705D01*
X89944Y119595D01*
X90752Y117644D01*
X92577Y115819D01*
X92614Y115796D01*
X92648Y115748D01*
X92673Y115723D01*
X92669Y115719D01*
X93324Y114812D01*
X93593Y113629D01*
X93380Y112435D01*
X92719Y111418D01*
X91713Y110740D01*
X89704Y109908D01*
X88212Y108416D01*
X87404Y106465D01*
X87404Y104355D01*
X88212Y102404D01*
X89704Y100912D01*
X89808Y100869D01*
X90709Y100292D01*
X91419Y99309D01*
X91688Y98126D01*
X91475Y96932D01*
X90814Y95915D01*
X89808Y95237D01*
X88434Y94668D01*
X86942Y93176D01*
X86134Y91225D01*
X86134Y89115D01*
X86942Y87164D01*
X88434Y85672D01*
X90385Y84864D01*
G37*
G36*
X16725Y111534D02*
X18835Y111534D01*
X20786Y112342D01*
X22278Y113834D01*
X23086Y115785D01*
X23086Y117895D01*
X22278Y119846D01*
X20786Y121338D01*
X18835Y122146D01*
X16725Y122146D01*
X14774Y121338D01*
X13282Y119846D01*
X12474Y117895D01*
X12474Y115785D01*
X13282Y113834D01*
X14774Y112342D01*
X16725Y111534D01*
G37*
G36*
X150075Y110264D02*
X152185Y110264D01*
X154136Y111072D01*
X155628Y112564D01*
X156436Y114515D01*
X156436Y116625D01*
X155628Y118576D01*
X154136Y120068D01*
X152185Y120876D01*
X150075Y120876D01*
X148124Y120068D01*
X146632Y118576D01*
X145824Y116625D01*
X145824Y114515D01*
X146632Y112564D01*
X148124Y111072D01*
X150075Y110264D01*
G37*
G36*
X115785Y100104D02*
X117895Y100104D01*
X119846Y100912D01*
X121338Y102404D01*
X122146Y104355D01*
X122146Y106465D01*
X121338Y108416D01*
X119846Y109908D01*
X117895Y110716D01*
X115785Y110716D01*
X113834Y109908D01*
X112342Y108416D01*
X111534Y106465D01*
X111534Y104355D01*
X112342Y102404D01*
X113834Y100912D01*
X115785Y100104D01*
G37*
G36*
X198335Y97564D02*
X200445Y97564D01*
X202396Y98372D01*
X203888Y99864D01*
X204696Y101815D01*
X204696Y103925D01*
X203888Y105876D01*
X202396Y107368D01*
X200445Y108176D01*
X198335Y108176D01*
X196384Y107368D01*
X194892Y105876D01*
X194084Y103925D01*
X194084Y101815D01*
X194892Y99864D01*
X196384Y98372D01*
X198335Y97564D01*
G37*
G36*
X37045Y95024D02*
X39155Y95024D01*
X41106Y95832D01*
X42598Y97324D01*
X43406Y99275D01*
X43406Y101385D01*
X42598Y103336D01*
X41106Y104828D01*
X39155Y105636D01*
X37045Y105636D01*
X35094Y104828D01*
X33602Y103336D01*
X32794Y101385D01*
X32794Y99275D01*
X33602Y97324D01*
X35094Y95832D01*
X37045Y95024D01*
G37*
G36*
X301205Y86134D02*
X303315Y86134D01*
X305266Y86942D01*
X306758Y88434D01*
X307566Y90385D01*
X307566Y92495D01*
X306758Y94446D01*
X305266Y95938D01*
X303315Y96746D01*
X301205Y96746D01*
X299254Y95938D01*
X297762Y94446D01*
X296954Y92495D01*
X296954Y90385D01*
X297762Y88434D01*
X299254Y86942D01*
X301205Y86134D01*
G37*
G36*
X150075Y86134D02*
X152185Y86134D01*
X154136Y86942D01*
X155628Y88434D01*
X156436Y90385D01*
X156436Y92495D01*
X155628Y94446D01*
X154136Y95938D01*
X152185Y96746D01*
X150075Y96746D01*
X148124Y95938D01*
X146632Y94446D01*
X145824Y92495D01*
X145824Y90385D01*
X146632Y88434D01*
X148124Y86942D01*
X150075Y86134D01*
G37*
G36*
X53555Y75974D02*
X55665Y75974D01*
X57616Y76782D01*
X59108Y78274D01*
X59916Y80225D01*
X59916Y82335D01*
X59108Y84286D01*
X57616Y85778D01*
X55665Y86586D01*
X53555Y86586D01*
X51604Y85778D01*
X50112Y84286D01*
X49304Y82335D01*
X49304Y80225D01*
X50112Y78274D01*
X51604Y76782D01*
X53555Y75974D01*
G37*
G36*
X71335Y65814D02*
X73445Y65814D01*
X75396Y66622D01*
X76888Y68114D01*
X77696Y70065D01*
X77696Y72175D01*
X76888Y74126D01*
X75396Y75618D01*
X73445Y76426D01*
X71335Y76426D01*
X69384Y75618D01*
X67892Y74126D01*
X67084Y72175D01*
X67084Y70065D01*
X67892Y68114D01*
X69384Y66622D01*
X71335Y65814D01*
G37*
G36*
X150075Y63274D02*
X152185Y63274D01*
X154136Y64082D01*
X155628Y65574D01*
X156436Y67525D01*
X156436Y69635D01*
X155628Y71586D01*
X154136Y73078D01*
X152185Y73886D01*
X150075Y73886D01*
X148124Y73078D01*
X146632Y71586D01*
X145824Y69635D01*
X145824Y67525D01*
X146632Y65574D01*
X148124Y64082D01*
X150075Y63274D01*
G37*
G36*
X174205Y62004D02*
X176315Y62004D01*
X178266Y62812D01*
X179758Y64304D01*
X180566Y66255D01*
X180566Y68365D01*
X179758Y70316D01*
X178266Y71808D01*
X176315Y72616D01*
X174205Y72616D01*
X172254Y71808D01*
X170762Y70316D01*
X169954Y68365D01*
X169954Y66255D01*
X170762Y64304D01*
X172254Y62812D01*
X174205Y62004D01*
G37*
G36*
X244055Y60734D02*
X246165Y60734D01*
X248116Y61542D01*
X249608Y63034D01*
X250416Y64985D01*
X250416Y67095D01*
X249608Y69046D01*
X248116Y70538D01*
X246165Y71346D01*
X244055Y71346D01*
X242104Y70538D01*
X240612Y69046D01*
X239804Y67095D01*
X239804Y64985D01*
X240612Y63034D01*
X242104Y61542D01*
X244055Y60734D01*
G37*
G36*
X223735Y60734D02*
X225845Y60734D01*
X227796Y61542D01*
X229288Y63034D01*
X230096Y64985D01*
X230096Y67095D01*
X229288Y69046D01*
X227796Y70538D01*
X225845Y71346D01*
X223735Y71346D01*
X221784Y70538D01*
X220292Y69046D01*
X219484Y67095D01*
X219484Y64985D01*
X220292Y63034D01*
X221784Y61542D01*
X223735Y60734D01*
G37*
G36*
X199605Y60734D02*
X201715Y60734D01*
X203666Y61542D01*
X205158Y63034D01*
X205966Y64985D01*
X205966Y67095D01*
X205158Y69046D01*
X203666Y70538D01*
X201715Y71346D01*
X199605Y71346D01*
X197654Y70538D01*
X196162Y69046D01*
X195354Y67095D01*
X195354Y64985D01*
X196162Y63034D01*
X197654Y61542D01*
X199605Y60734D01*
G37*
G36*
X265645Y49304D02*
X267755Y49304D01*
X269706Y50112D01*
X271198Y51604D01*
X272006Y53555D01*
X272006Y55665D01*
X271198Y57616D01*
X269706Y59108D01*
X267755Y59916D01*
X265645Y59916D01*
X263694Y59108D01*
X262202Y57616D01*
X261394Y55665D01*
X261394Y53555D01*
X262202Y51604D01*
X263694Y50112D01*
X265645Y49304D01*
G37*
G36*
X199605Y39144D02*
X201715Y39144D01*
X203666Y39952D01*
X205158Y41444D01*
X205966Y43395D01*
X205966Y45505D01*
X205158Y47456D01*
X203666Y48948D01*
X201715Y49756D01*
X199605Y49756D01*
X197654Y48948D01*
X196162Y47456D01*
X195354Y45505D01*
X195354Y43395D01*
X196162Y41444D01*
X197654Y39952D01*
X199605Y39144D01*
G37*
G36*
X174205Y39144D02*
X176315Y39144D01*
X178266Y39952D01*
X179758Y41444D01*
X180566Y43395D01*
X180566Y45505D01*
X179758Y47456D01*
X178266Y48948D01*
X176315Y49756D01*
X174205Y49756D01*
X172254Y48948D01*
X170762Y47456D01*
X169954Y45505D01*
X169954Y43395D01*
X170762Y41444D01*
X172254Y39952D01*
X174205Y39144D01*
G37*
G36*
X150075Y39144D02*
X152185Y39144D01*
X154136Y39952D01*
X155628Y41444D01*
X156436Y43395D01*
X156436Y45505D01*
X155628Y47456D01*
X154136Y48948D01*
X152185Y49756D01*
X150075Y49756D01*
X148124Y48948D01*
X146632Y47456D01*
X145824Y45505D01*
X145824Y43395D01*
X146632Y41444D01*
X148124Y39952D01*
X150075Y39144D01*
G37*
G36*
X244055Y39144D02*
X246165Y39144D01*
X248116Y39952D01*
X249608Y41444D01*
X250416Y43395D01*
X250416Y45505D01*
X249608Y47456D01*
X248116Y48948D01*
X246165Y49756D01*
X244055Y49756D01*
X242104Y48948D01*
X240612Y47456D01*
X239804Y45505D01*
X239804Y43395D01*
X240612Y41444D01*
X242104Y39952D01*
X244055Y39144D01*
G37*
G36*
X223735Y39144D02*
X225845Y39144D01*
X227796Y39952D01*
X229288Y41444D01*
X230096Y43395D01*
X230096Y45505D01*
X229288Y47456D01*
X227796Y48948D01*
X225845Y49756D01*
X223735Y49756D01*
X221784Y48948D01*
X220292Y47456D01*
X219484Y45505D01*
X219484Y43395D01*
X220292Y41444D01*
X221784Y39952D01*
X223735Y39144D01*
G37*
G36*
X71335Y34064D02*
X73445Y34064D01*
X75396Y34872D01*
X76888Y36364D01*
X77696Y38315D01*
X77696Y40425D01*
X76888Y42376D01*
X75396Y43868D01*
X73445Y44676D01*
X71335Y44676D01*
X69384Y43868D01*
X67892Y42376D01*
X67084Y40425D01*
X67084Y38315D01*
X67892Y36364D01*
X69384Y34872D01*
X71335Y34064D01*
G37*
G36*
X199605Y18824D02*
X201715Y18824D01*
X203666Y19632D01*
X205158Y21124D01*
X205966Y23075D01*
X205966Y25185D01*
X205158Y27136D01*
X203666Y28628D01*
X201715Y29436D01*
X199605Y29436D01*
X197654Y28628D01*
X196162Y27136D01*
X195354Y25185D01*
X195354Y23075D01*
X196162Y21124D01*
X197654Y19632D01*
X199605Y18824D01*
G37*
G36*
X150301Y17554D02*
X152411Y17554D01*
X154362Y18362D01*
X155854Y19854D01*
X156662Y21805D01*
X156662Y23915D01*
X155854Y25866D01*
X154362Y27358D01*
X152411Y28166D01*
X150301Y28166D01*
X148350Y27358D01*
X146858Y25866D01*
X146050Y23915D01*
X146050Y21805D01*
X146858Y19854D01*
X148350Y18362D01*
X150301Y17554D01*
G37*
G36*
X223735Y17554D02*
X225845Y17554D01*
X227796Y18362D01*
X229288Y19854D01*
X230096Y21805D01*
X230096Y23915D01*
X229288Y25866D01*
X227796Y27358D01*
X225845Y28166D01*
X223735Y28166D01*
X221784Y27358D01*
X220292Y25866D01*
X219484Y23915D01*
X219484Y21805D01*
X220292Y19854D01*
X221784Y18362D01*
X223735Y17554D01*
G37*
G36*
X174205Y17554D02*
X176315Y17554D01*
X178266Y18362D01*
X179758Y19854D01*
X180566Y21805D01*
X180566Y23915D01*
X179758Y25866D01*
X178266Y27358D01*
X176315Y28166D01*
X174205Y28166D01*
X172254Y27358D01*
X170762Y25866D01*
X169954Y23915D01*
X169954Y21805D01*
X170762Y19854D01*
X172254Y18362D01*
X174205Y17554D01*
G37*
G36*
X117055Y8664D02*
X119165Y8664D01*
X121116Y9472D01*
X122608Y10964D01*
X123416Y12915D01*
X123416Y15025D01*
X122608Y16976D01*
X121116Y18468D01*
X119165Y19276D01*
X117055Y19276D01*
X115104Y18468D01*
X113612Y16976D01*
X112804Y15025D01*
X112804Y12915D01*
X113612Y10964D01*
X115104Y9472D01*
X117055Y8664D01*
G37*
G36*
X91655Y7394D02*
X93765Y7394D01*
X95716Y8202D01*
X97208Y9694D01*
X98016Y11645D01*
X98016Y13755D01*
X97208Y15706D01*
X95716Y17198D01*
X93765Y18006D01*
X91655Y18006D01*
X89704Y17198D01*
X88212Y15706D01*
X87404Y13755D01*
X87404Y11645D01*
X88212Y9694D01*
X89704Y8202D01*
X91655Y7394D01*
G37*
G36*
X71335Y6124D02*
X73445Y6124D01*
X75396Y6932D01*
X76888Y8424D01*
X77696Y10375D01*
X77696Y12485D01*
X76888Y14436D01*
X75396Y15928D01*
X73445Y16736D01*
X71335Y16736D01*
X69384Y15928D01*
X67892Y14436D01*
X67084Y12485D01*
X67084Y10375D01*
X67892Y8424D01*
X69384Y6932D01*
X71335Y6124D01*
G37*
G36*
X222465Y-6576D02*
X224575Y-6576D01*
X226526Y-5768D01*
X228018Y-4276D01*
X228826Y-2325D01*
X228826Y-215D01*
X228018Y1736D01*
X226526Y3228D01*
X224575Y4036D01*
X222465Y4036D01*
X220514Y3228D01*
X219022Y1736D01*
X218214Y-215D01*
X218214Y-2325D01*
X219022Y-4276D01*
X220514Y-5768D01*
X222465Y-6576D01*
G37*
G36*
X160235Y-6576D02*
X162345Y-6576D01*
X164296Y-5768D01*
X165788Y-4276D01*
X166596Y-2325D01*
X166596Y-215D01*
X165788Y1736D01*
X164296Y3228D01*
X162345Y4036D01*
X160235Y4036D01*
X158284Y3228D01*
X156792Y1736D01*
X155984Y-215D01*
X155984Y-2325D01*
X156792Y-4276D01*
X158284Y-5768D01*
X160235Y-6576D01*
G37*
G36*
X117055Y-11656D02*
X119165Y-11656D01*
X121116Y-10848D01*
X122608Y-9356D01*
X123416Y-7405D01*
X123416Y-5295D01*
X122608Y-3344D01*
X121116Y-1852D01*
X119165Y-1044D01*
X117055Y-1044D01*
X115104Y-1852D01*
X113612Y-3344D01*
X112804Y-5295D01*
X112804Y-7405D01*
X113612Y-9356D01*
X115104Y-10848D01*
X117055Y-11656D01*
G37*
G36*
X70065Y-14196D02*
X72175Y-14196D01*
X74126Y-13388D01*
X75618Y-11896D01*
X76426Y-9945D01*
X76426Y-7835D01*
X75618Y-5884D01*
X74126Y-4392D01*
X72175Y-3584D01*
X70065Y-3584D01*
X68114Y-4392D01*
X66622Y-5884D01*
X65814Y-7835D01*
X65814Y-9945D01*
X66622Y-11896D01*
X68114Y-13388D01*
X70065Y-14196D01*
G37*
G36*
X269455Y-19276D02*
X271565Y-19276D01*
X273516Y-18468D01*
X275008Y-16976D01*
X275816Y-15025D01*
X275816Y-12915D01*
X275008Y-10964D01*
X273516Y-9472D01*
X271565Y-8664D01*
X269455Y-8664D01*
X267504Y-9472D01*
X266012Y-10964D01*
X265204Y-12915D01*
X265204Y-15025D01*
X266012Y-16976D01*
X267504Y-18468D01*
X269455Y-19276D01*
G37*
G36*
X90385Y-29436D02*
X92495Y-29436D01*
X94446Y-28628D01*
X95938Y-27136D01*
X96746Y-25185D01*
X96746Y-23075D01*
X95938Y-21124D01*
X94446Y-19632D01*
X92495Y-18824D01*
X90385Y-18824D01*
X88434Y-19632D01*
X86942Y-21124D01*
X86134Y-23075D01*
X86134Y-25185D01*
X86942Y-27136D01*
X88434Y-28628D01*
X90385Y-29436D01*
G37*
G36*
X56095Y-59916D02*
X58205Y-59916D01*
X60156Y-59108D01*
X61648Y-57616D01*
X62456Y-55665D01*
X62456Y-53555D01*
X61951Y-52335D01*
X61721Y-51290D01*
X61915Y-50093D01*
X62561Y-49066D01*
X63556Y-48372D01*
X64743Y-48121D01*
X65933Y-48353D01*
X66255Y-48486D01*
X68365Y-48486D01*
X70316Y-47678D01*
X71808Y-46186D01*
X72616Y-44235D01*
X72616Y-42125D01*
X71808Y-40174D01*
X70083Y-38449D01*
X69471Y-37572D01*
X69192Y-36391D01*
X69395Y-35195D01*
X70049Y-34173D01*
X71050Y-33487D01*
X72115Y-33271D01*
X74126Y-32438D01*
X75618Y-30946D01*
X76426Y-28995D01*
X76426Y-26885D01*
X75618Y-24934D01*
X74126Y-23442D01*
X72175Y-22634D01*
X70065Y-22634D01*
X68114Y-23442D01*
X66931Y-24625D01*
X66451Y-24963D01*
X66310Y-25687D01*
X65814Y-26885D01*
X65814Y-28995D01*
X66622Y-30946D01*
X68347Y-32671D01*
X68959Y-33548D01*
X69238Y-34729D01*
X69035Y-35925D01*
X68381Y-36947D01*
X67380Y-37633D01*
X66315Y-37849D01*
X64304Y-38682D01*
X62812Y-40174D01*
X62004Y-42125D01*
X62004Y-44235D01*
X62509Y-45455D01*
X62739Y-46500D01*
X62545Y-47697D01*
X61899Y-48724D01*
X60904Y-49418D01*
X59717Y-49669D01*
X58527Y-49437D01*
X58205Y-49304D01*
X56095Y-49304D01*
X54144Y-50112D01*
X52652Y-51604D01*
X51844Y-53555D01*
X51844Y-55665D01*
X52652Y-57616D01*
X54144Y-59108D01*
X56095Y-59916D01*
G37*
G36*
X226275Y-38326D02*
X228385Y-38326D01*
X230336Y-37518D01*
X231828Y-36026D01*
X232636Y-34075D01*
X232636Y-31965D01*
X231828Y-30014D01*
X230336Y-28522D01*
X228385Y-27714D01*
X226275Y-27714D01*
X224324Y-28522D01*
X222832Y-30014D01*
X222024Y-31965D01*
X222024Y-34075D01*
X222832Y-36026D01*
X224324Y-37518D01*
X226275Y-38326D01*
G37*
G36*
X191985Y-38326D02*
X194095Y-38326D01*
X196046Y-37518D01*
X197538Y-36026D01*
X198346Y-34075D01*
X198346Y-31965D01*
X197538Y-30014D01*
X196046Y-28522D01*
X194095Y-27714D01*
X191985Y-27714D01*
X190034Y-28522D01*
X188542Y-30014D01*
X187734Y-31965D01*
X187734Y-34075D01*
X188542Y-36026D01*
X190034Y-37518D01*
X191985Y-38326D01*
G37*
G36*
X124675Y-44676D02*
X126785Y-44676D01*
X128736Y-43868D01*
X130228Y-42376D01*
X131036Y-40425D01*
X131036Y-38315D01*
X130228Y-36364D01*
X128736Y-34872D01*
X126785Y-34064D01*
X124675Y-34064D01*
X122724Y-34872D01*
X121232Y-36364D01*
X120424Y-38315D01*
X120424Y-40425D01*
X121232Y-42376D01*
X122724Y-43868D01*
X124675Y-44676D01*
G37*
G36*
X146265Y-45946D02*
X148375Y-45946D01*
X150326Y-45138D01*
X151818Y-43646D01*
X152626Y-41695D01*
X152626Y-39585D01*
X151818Y-37634D01*
X150326Y-36142D01*
X148375Y-35334D01*
X146265Y-35334D01*
X144314Y-36142D01*
X142822Y-37634D01*
X142014Y-39585D01*
X142014Y-41695D01*
X142822Y-43646D01*
X144314Y-45138D01*
X146265Y-45946D01*
G37*
G36*
X167855Y-48486D02*
X169965Y-48486D01*
X171916Y-47678D01*
X173408Y-46186D01*
X174216Y-44235D01*
X174216Y-42125D01*
X173408Y-40174D01*
X171916Y-38682D01*
X169965Y-37874D01*
X167855Y-37874D01*
X165904Y-38682D01*
X164412Y-40174D01*
X163604Y-42125D01*
X163604Y-44235D01*
X164412Y-46186D01*
X165904Y-47678D01*
X167855Y-48486D01*
G37*
G36*
X99275Y-56106D02*
X101385Y-56106D01*
X103336Y-55298D01*
X104828Y-53806D01*
X105636Y-51855D01*
X105636Y-49745D01*
X104828Y-47794D01*
X103336Y-46302D01*
X101385Y-45494D01*
X99275Y-45494D01*
X97324Y-46302D01*
X95832Y-47794D01*
X95024Y-49745D01*
X95024Y-51855D01*
X95832Y-53806D01*
X97324Y-55298D01*
X99275Y-56106D01*
G37*
G36*
X131025Y-64996D02*
X133135Y-64996D01*
X135086Y-64188D01*
X136578Y-62696D01*
X137386Y-60745D01*
X137386Y-58635D01*
X136578Y-56684D01*
X135086Y-55192D01*
X133135Y-54384D01*
X131025Y-54384D01*
X129074Y-55192D01*
X127582Y-56684D01*
X126774Y-58635D01*
X126774Y-60745D01*
X127582Y-62696D01*
X129074Y-64188D01*
X131025Y-64996D01*
G37*
G36*
X235165Y-66266D02*
X237275Y-66266D01*
X239226Y-65458D01*
X240718Y-63966D01*
X241526Y-62015D01*
X241526Y-59905D01*
X240718Y-57954D01*
X239226Y-56462D01*
X237275Y-55654D01*
X235165Y-55654D01*
X233214Y-56462D01*
X231722Y-57954D01*
X230914Y-59905D01*
X230914Y-62015D01*
X231722Y-63966D01*
X233214Y-65458D01*
X235165Y-66266D01*
G37*
G36*
X278345Y-75156D02*
X280455Y-75156D01*
X282406Y-74348D01*
X283898Y-72856D01*
X284706Y-70905D01*
X284706Y-68795D01*
X283898Y-66844D01*
X282406Y-65352D01*
X280455Y-64544D01*
X278345Y-64544D01*
X276394Y-65352D01*
X274902Y-66844D01*
X274094Y-68795D01*
X274094Y-70905D01*
X274902Y-72856D01*
X276394Y-74348D01*
X278345Y-75156D01*
G37*
G36*
X-74715Y-81506D02*
X-72605Y-81506D01*
X-70654Y-80698D01*
X-69162Y-79206D01*
X-68354Y-77255D01*
X-68354Y-75145D01*
X-69162Y-73194D01*
X-70654Y-71702D01*
X-72605Y-70894D01*
X-74715Y-70894D01*
X-76666Y-71702D01*
X-78158Y-73194D01*
X-78966Y-75145D01*
X-78966Y-77255D01*
X-78158Y-79206D01*
X-76666Y-80698D01*
X-74715Y-81506D01*
G37*
G36*
X122456Y-84179D02*
X123209Y-84661D01*
X123924Y-84179D01*
X126196Y-83238D01*
X127688Y-81746D01*
X128496Y-79795D01*
X128496Y-77685D01*
X127688Y-75734D01*
X126196Y-74242D01*
X124245Y-73434D01*
X122135Y-73434D01*
X120184Y-74242D01*
X118692Y-75734D01*
X117884Y-77685D01*
X117884Y-79795D01*
X118692Y-81746D01*
X120184Y-83238D01*
X122456Y-84179D01*
G37*
G36*
X59679Y-84046D02*
X61789Y-84046D01*
X63740Y-83238D01*
X65232Y-81746D01*
X66040Y-79795D01*
X66040Y-77685D01*
X65232Y-75734D01*
X63740Y-74242D01*
X61789Y-73434D01*
X59679Y-73434D01*
X57728Y-74242D01*
X56236Y-75734D01*
X55428Y-77685D01*
X55428Y-79795D01*
X56236Y-81746D01*
X57728Y-83238D01*
X59679Y-84046D01*
G37*
G36*
X-25185Y-86586D02*
X-23075Y-86586D01*
X-21124Y-85778D01*
X-19632Y-84286D01*
X-18824Y-82335D01*
X-18824Y-80225D01*
X-19632Y-78274D01*
X-21124Y-76782D01*
X-23075Y-75974D01*
X-25185Y-75974D01*
X-27136Y-76782D01*
X-28628Y-78274D01*
X-29436Y-80225D01*
X-29436Y-82335D01*
X-28628Y-84286D01*
X-27136Y-85778D01*
X-25185Y-86586D01*
G37*
G36*
X85305Y-89126D02*
X87415Y-89126D01*
X89366Y-88318D01*
X90858Y-86826D01*
X91666Y-84875D01*
X91666Y-82765D01*
X90858Y-80814D01*
X89366Y-79322D01*
X87415Y-78514D01*
X85305Y-78514D01*
X83354Y-79322D01*
X81862Y-80814D01*
X81054Y-82765D01*
X81054Y-84875D01*
X81862Y-86826D01*
X83354Y-88318D01*
X85305Y-89126D01*
G37*
G36*
X212305Y-90396D02*
X214415Y-90396D01*
X216366Y-89588D01*
X217858Y-88096D01*
X218666Y-86145D01*
X218666Y-84035D01*
X217858Y-82084D01*
X216366Y-80592D01*
X214415Y-79784D01*
X212305Y-79784D01*
X210354Y-80592D01*
X208862Y-82084D01*
X208054Y-84035D01*
X208054Y-86145D01*
X208862Y-88096D01*
X210354Y-89588D01*
X212305Y-90396D01*
G37*
G36*
X246595Y-95476D02*
X248705Y-95476D01*
X250656Y-94668D01*
X252148Y-93176D01*
X252956Y-91225D01*
X252956Y-89115D01*
X252148Y-87164D01*
X250656Y-85672D01*
X248705Y-84864D01*
X246595Y-84864D01*
X244644Y-85672D01*
X243152Y-87164D01*
X242344Y-89115D01*
X242344Y-91225D01*
X243152Y-93176D01*
X244644Y-94668D01*
X246595Y-95476D01*
G37*
G36*
X122135Y-100556D02*
X124245Y-100556D01*
X126196Y-99748D01*
X127688Y-98256D01*
X128496Y-96305D01*
X128496Y-94195D01*
X127688Y-92244D01*
X126196Y-90752D01*
X123924Y-89811D01*
X123171Y-89329D01*
X122456Y-89811D01*
X120184Y-90752D01*
X118692Y-92244D01*
X117884Y-94195D01*
X117884Y-96305D01*
X118692Y-98256D01*
X120184Y-99748D01*
X122135Y-100556D01*
G37*
G36*
X59905Y-103096D02*
X62015Y-103096D01*
X63966Y-102288D01*
X65458Y-100796D01*
X66266Y-98845D01*
X66266Y-96735D01*
X65458Y-94784D01*
X63966Y-93292D01*
X62015Y-92484D01*
X59905Y-92484D01*
X57954Y-93292D01*
X56462Y-94784D01*
X55654Y-96735D01*
X55654Y-98845D01*
X56462Y-100796D01*
X57954Y-102288D01*
X59905Y-103096D01*
G37*
G36*
X-74715Y-104366D02*
X-72605Y-104366D01*
X-70654Y-103558D01*
X-69162Y-102066D01*
X-68354Y-100115D01*
X-68354Y-98005D01*
X-69162Y-96054D01*
X-70654Y-94562D01*
X-72605Y-93754D01*
X-74715Y-93754D01*
X-76666Y-94562D01*
X-78158Y-96054D01*
X-78966Y-98005D01*
X-78966Y-100115D01*
X-78158Y-102066D01*
X-76666Y-103558D01*
X-74715Y-104366D01*
G37*
G36*
X-12485Y-106906D02*
X-10375Y-106906D01*
X-8424Y-106098D01*
X-6932Y-104606D01*
X-6124Y-102655D01*
X-6124Y-100545D01*
X-6932Y-98594D01*
X-8424Y-97102D01*
X-10375Y-96294D01*
X-12485Y-96294D01*
X-14436Y-97102D01*
X-15928Y-98594D01*
X-16736Y-100545D01*
X-16736Y-102655D01*
X-15928Y-104606D01*
X-14436Y-106098D01*
X-12485Y-106906D01*
G37*
G36*
X94195Y-108176D02*
X96305Y-108176D01*
X98256Y-107368D01*
X99748Y-105876D01*
X100556Y-103925D01*
X100556Y-101815D01*
X99748Y-99864D01*
X98256Y-98372D01*
X96305Y-97564D01*
X94195Y-97564D01*
X92244Y-98372D01*
X90752Y-99864D01*
X89944Y-101815D01*
X89944Y-103925D01*
X90752Y-105876D01*
X92244Y-107368D01*
X94195Y-108176D01*
G37*
G36*
X273814Y-131647D02*
X280514Y-131647D01*
X286704Y-129083D01*
X291442Y-124345D01*
X294006Y-118155D01*
X294006Y-111455D01*
X291442Y-105265D01*
X286704Y-100527D01*
X280514Y-97963D01*
X273814Y-97963D01*
X267624Y-100527D01*
X262886Y-105265D01*
X260322Y-111455D01*
X260322Y-118155D01*
X262886Y-124345D01*
X267624Y-129083D01*
X273814Y-131647D01*
G37*
G36*
X11645Y-109446D02*
X13755Y-109446D01*
X15706Y-108638D01*
X17198Y-107146D01*
X18006Y-105195D01*
X18006Y-103085D01*
X17198Y-101134D01*
X15706Y-99642D01*
X13755Y-98834D01*
X11645Y-98834D01*
X9694Y-99642D01*
X8202Y-101134D01*
X7394Y-103085D01*
X7394Y-105195D01*
X8202Y-107146D01*
X9694Y-108638D01*
X11645Y-109446D01*
G37*
G36*
X-49315Y-109446D02*
X-47205Y-109446D01*
X-45254Y-108638D01*
X-43762Y-107146D01*
X-42954Y-105195D01*
X-42954Y-103085D01*
X-43762Y-101134D01*
X-45254Y-99642D01*
X-47205Y-98834D01*
X-49315Y-98834D01*
X-51266Y-99642D01*
X-52758Y-101134D01*
X-53566Y-103085D01*
X-53566Y-105195D01*
X-52758Y-107146D01*
X-51266Y-108638D01*
X-49315Y-109446D01*
G37*
G36*
X311365Y-110716D02*
X313475Y-110716D01*
X315426Y-109908D01*
X316918Y-108416D01*
X317726Y-106465D01*
X317726Y-104355D01*
X316918Y-102404D01*
X315426Y-100912D01*
X313475Y-100104D01*
X311365Y-100104D01*
X309414Y-100912D01*
X307922Y-102404D01*
X307114Y-104355D01*
X307114Y-106465D01*
X307922Y-108416D01*
X309414Y-109908D01*
X311365Y-110716D01*
G37*
G36*
X-105195Y-110716D02*
X-103085Y-110716D01*
X-101134Y-109908D01*
X-99642Y-108416D01*
X-98834Y-106465D01*
X-98834Y-104355D01*
X-99642Y-102404D01*
X-101134Y-100912D01*
X-103085Y-100104D01*
X-105195Y-100104D01*
X-107146Y-100912D01*
X-108638Y-102404D01*
X-109446Y-104355D01*
X-109446Y-106465D01*
X-108638Y-108416D01*
X-107146Y-109908D01*
X-105195Y-110716D01*
G37*
G36*
X132295Y-114526D02*
X134405Y-114526D01*
X136356Y-113718D01*
X137848Y-112226D01*
X138656Y-110275D01*
X138656Y-108165D01*
X137848Y-106214D01*
X136356Y-104722D01*
X134405Y-103914D01*
X132295Y-103914D01*
X130344Y-104722D01*
X128852Y-106214D01*
X128044Y-108165D01*
X128044Y-110275D01*
X128852Y-112226D01*
X130344Y-113718D01*
X132295Y-114526D01*
G37*
G36*
X112561Y-117066D02*
X114671Y-117066D01*
X116622Y-116258D01*
X118114Y-114766D01*
X118922Y-112815D01*
X118922Y-110705D01*
X118114Y-108754D01*
X116622Y-107262D01*
X114671Y-106454D01*
X112561Y-106454D01*
X110610Y-107262D01*
X109118Y-108754D01*
X108310Y-110705D01*
X108310Y-112815D01*
X109118Y-114766D01*
X110610Y-116258D01*
X112561Y-117066D01*
G37*
G36*
X-28995Y-119606D02*
X-26885Y-119606D01*
X-24934Y-118798D01*
X-23442Y-117306D01*
X-22634Y-115355D01*
X-22634Y-113245D01*
X-23442Y-111294D01*
X-24934Y-109802D01*
X-26885Y-108994D01*
X-28995Y-108994D01*
X-30946Y-109802D01*
X-32438Y-111294D01*
X-33246Y-113245D01*
X-33246Y-115355D01*
X-32401Y-117395D01*
X-31923Y-118075D01*
X-31710Y-118947D01*
X-31384Y-118878D01*
X-30194Y-119110D01*
X-28995Y-119606D01*
G37*
G36*
X85305Y-129766D02*
X87415Y-129766D01*
X89366Y-128958D01*
X90858Y-127466D01*
X91666Y-125515D01*
X91666Y-123405D01*
X90858Y-121454D01*
X89366Y-119962D01*
X87415Y-119154D01*
X85305Y-119154D01*
X84722Y-119395D01*
X83629Y-119626D01*
X82435Y-119413D01*
X81418Y-118752D01*
X80740Y-117746D01*
X80698Y-117644D01*
X79206Y-116152D01*
X77255Y-115344D01*
X75145Y-115344D01*
X73194Y-116152D01*
X71702Y-117644D01*
X70894Y-119595D01*
X70894Y-121705D01*
X71702Y-123656D01*
X73194Y-125148D01*
X75145Y-125956D01*
X77255Y-125956D01*
X77838Y-125715D01*
X78931Y-125484D01*
X80125Y-125697D01*
X81142Y-126359D01*
X81820Y-127364D01*
X81862Y-127466D01*
X83354Y-128958D01*
X85305Y-129766D01*
G37*
G36*
X-64555Y-127226D02*
X-62445Y-127226D01*
X-60494Y-126418D01*
X-59002Y-124926D01*
X-58194Y-122975D01*
X-58194Y-120865D01*
X-59002Y-118914D01*
X-60494Y-117422D01*
X-62445Y-116614D01*
X-64555Y-116614D01*
X-66506Y-117422D01*
X-67998Y-118914D01*
X-68806Y-120865D01*
X-68806Y-122975D01*
X-67998Y-124926D01*
X-66506Y-126418D01*
X-64555Y-127226D01*
G37*
G36*
X236435Y-128496D02*
X238545Y-128496D01*
X240496Y-127688D01*
X241988Y-126196D01*
X242796Y-124245D01*
X242796Y-122135D01*
X241988Y-120184D01*
X240496Y-118692D01*
X238545Y-117884D01*
X236435Y-117884D01*
X234484Y-118692D01*
X232992Y-120184D01*
X232184Y-122135D01*
X232184Y-124245D01*
X232992Y-126196D01*
X234484Y-127688D01*
X236435Y-128496D01*
G37*
G36*
X103061Y-142466D02*
X105171Y-142466D01*
X107122Y-141658D01*
X108614Y-140166D01*
X109480Y-138075D01*
X109506Y-138034D01*
X109422Y-137618D01*
X109422Y-136105D01*
X108614Y-134154D01*
X108072Y-133612D01*
X107440Y-132690D01*
X107180Y-131506D01*
X107402Y-130313D01*
X108072Y-129302D01*
X108638Y-128736D01*
X109446Y-126785D01*
X109446Y-124675D01*
X108638Y-122724D01*
X107146Y-121232D01*
X105195Y-120424D01*
X103085Y-120424D01*
X101134Y-121232D01*
X99642Y-122724D01*
X98834Y-124675D01*
X98834Y-126785D01*
X99642Y-128736D01*
X100184Y-129278D01*
X100816Y-130200D01*
X101076Y-131384D01*
X100854Y-132577D01*
X100184Y-133588D01*
X99618Y-134154D01*
X98810Y-136105D01*
X98810Y-138215D01*
X99618Y-140166D01*
X101110Y-141658D01*
X103061Y-142466D01*
G37*
G36*
X-39155Y-145006D02*
X-37045Y-145006D01*
X-35094Y-144198D01*
X-33602Y-142706D01*
X-32794Y-140755D01*
X-32794Y-138645D01*
X-33602Y-136694D01*
X-34791Y-135505D01*
X-35423Y-134583D01*
X-35683Y-133399D01*
X-35461Y-132206D01*
X-34791Y-131195D01*
X-33602Y-130006D01*
X-32794Y-128055D01*
X-32794Y-125945D01*
X-33639Y-123905D01*
X-34117Y-123225D01*
X-34331Y-122353D01*
X-34656Y-122422D01*
X-35847Y-122190D01*
X-37045Y-121694D01*
X-39155Y-121694D01*
X-41106Y-122502D01*
X-42598Y-123994D01*
X-43406Y-125945D01*
X-43406Y-128055D01*
X-42598Y-130006D01*
X-41409Y-131195D01*
X-40777Y-132117D01*
X-40517Y-133301D01*
X-40739Y-134494D01*
X-41409Y-135505D01*
X-42598Y-136694D01*
X-43406Y-138645D01*
X-43406Y-140755D01*
X-42598Y-142706D01*
X-41106Y-144198D01*
X-39155Y-145006D01*
G37*
G36*
X119595Y-145006D02*
X121705Y-145006D01*
X123656Y-144198D01*
X125148Y-142706D01*
X125956Y-140755D01*
X125956Y-138645D01*
X125148Y-136694D01*
X123656Y-135202D01*
X121705Y-134394D01*
X119595Y-134394D01*
X117644Y-135202D01*
X116152Y-136694D01*
X115286Y-138785D01*
X115260Y-138826D01*
X115344Y-139242D01*
X115344Y-140755D01*
X116152Y-142706D01*
X117644Y-144198D01*
X119595Y-145006D01*
G37*
G36*
X293585Y-152626D02*
X295695Y-152626D01*
X297646Y-151818D01*
X299138Y-150326D01*
X299946Y-148375D01*
X299946Y-146265D01*
X299138Y-144314D01*
X297646Y-142822D01*
X295695Y-142014D01*
X293585Y-142014D01*
X291634Y-142822D01*
X290142Y-144314D01*
X289334Y-146265D01*
X289334Y-148375D01*
X290142Y-150326D01*
X291634Y-151818D01*
X293585Y-152626D01*
G37*
G36*
X71335Y-155166D02*
X73445Y-155166D01*
X75396Y-154358D01*
X76888Y-152866D01*
X77696Y-150915D01*
X77696Y-148805D01*
X76888Y-146854D01*
X75396Y-145362D01*
X73445Y-144554D01*
X71335Y-144554D01*
X69384Y-145362D01*
X67892Y-146854D01*
X67084Y-148805D01*
X67084Y-150915D01*
X67892Y-152866D01*
X69384Y-154358D01*
X71335Y-155166D01*
G37*
%LPD*%
G36*
X-237581Y-245939D02*
X-238790Y-246039D01*
X-239942Y-245660D01*
X-240856Y-244862D01*
X-243401Y-241527D01*
X-243582Y-241263D01*
X-259515Y-215098D01*
X-259667Y-214816D01*
X-272770Y-187125D01*
X-272834Y-186979D01*
X-274765Y-182275D01*
X-281137Y-174352D01*
X-289496Y-168563D01*
X-294325Y-166975D01*
X-294675Y-166836D01*
X-306219Y-161384D01*
X-306853Y-160983D01*
X-316716Y-152877D01*
X-317232Y-152333D01*
X-324817Y-142063D01*
X-325185Y-141410D01*
X-330031Y-129599D01*
X-330228Y-128875D01*
X-332043Y-116238D01*
X-332058Y-115488D01*
X-330731Y-102790D01*
X-330562Y-102059D01*
X-326174Y-90070D01*
X-325831Y-89403D01*
X-318648Y-78849D01*
X-318153Y-78285D01*
X-308610Y-69805D01*
X-308314Y-69574D01*
X-306982Y-68657D01*
X-304127Y-66690D01*
X-297734Y-58783D01*
X-293850Y-49386D01*
X-293340Y-44516D01*
X-293340Y-44516D01*
X-293321Y-44330D01*
X-293298Y-44160D01*
X-288033Y-11660D01*
X-287959Y-11324D01*
X-279067Y20376D01*
X-279016Y20540D01*
X-277289Y25583D01*
X-276987Y36240D01*
X-277785Y39083D01*
X-277896Y39809D01*
X-277693Y41005D01*
X-277039Y42027D01*
X-276039Y42713D01*
X-274850Y42954D01*
X-273265Y42954D01*
X-271314Y43762D01*
X-269822Y45254D01*
X-269014Y47205D01*
X-269014Y49315D01*
X-269822Y51266D01*
X-271314Y52758D01*
X-273265Y53566D01*
X-275375Y53566D01*
X-277326Y52758D01*
X-278661Y51423D01*
X-280192Y50595D01*
X-281405Y50588D01*
X-282525Y51055D01*
X-283374Y51921D01*
X-285662Y55452D01*
X-293855Y62274D01*
X-298181Y64066D01*
X-298175Y64079D01*
X-298539Y64242D01*
X-310266Y71013D01*
X-310897Y71497D01*
X-320472Y81072D01*
X-320956Y81703D01*
X-327727Y93431D01*
X-328032Y94166D01*
X-331536Y107246D01*
X-331640Y108034D01*
X-331640Y121576D01*
X-331536Y122365D01*
X-328032Y135445D01*
X-327727Y136180D01*
X-320956Y147907D01*
X-320472Y148538D01*
X-310897Y158113D01*
X-310266Y158598D01*
X-298538Y165368D01*
X-297803Y165673D01*
X-284723Y169177D01*
X-283935Y169281D01*
X-270393Y169281D01*
X-269604Y169177D01*
X-256525Y165673D01*
X-256147Y165545D01*
X-220970Y150974D01*
X-220970Y150974D01*
X-219476Y150355D01*
X-219476Y150355D01*
X-215128Y148554D01*
X-205788Y147371D01*
X-200082Y148180D01*
X-198555Y148006D01*
X-197534Y147352D01*
X-196848Y146351D01*
X-196606Y145163D01*
X-196606Y144154D01*
X-195798Y142204D01*
X-194306Y140711D01*
X-192356Y139904D01*
X-190245Y139904D01*
X-188295Y140711D01*
X-186802Y142204D01*
X-185994Y144154D01*
X-185994Y146265D01*
X-186802Y148215D01*
X-187187Y148600D01*
X-187938Y149838D01*
X-188066Y151045D01*
X-187712Y152205D01*
X-186935Y153136D01*
X-184148Y155364D01*
X-184142Y155356D01*
X-184011Y155467D01*
X-157291Y174468D01*
X-157002Y174651D01*
X-144451Y181602D01*
X-143071Y181982D01*
X-141875Y181778D01*
X-140853Y181125D01*
X-140167Y180124D01*
X-139926Y178935D01*
X-139926Y176745D01*
X-139118Y174794D01*
X-137626Y173302D01*
X-135675Y172494D01*
X-133565Y172494D01*
X-131614Y173302D01*
X-130122Y174794D01*
X-129314Y176745D01*
X-129314Y178855D01*
X-130122Y180806D01*
X-131614Y182298D01*
X-132398Y182623D01*
X-133033Y182980D01*
X-133849Y183878D01*
X-134251Y185022D01*
X-134174Y186233D01*
X-133631Y187318D01*
X-132708Y188105D01*
X-128319Y190536D01*
X-128011Y190684D01*
X-97728Y203252D01*
X-97405Y203365D01*
X-65903Y212457D01*
X-65569Y212534D01*
X-33247Y218035D01*
X-32907Y218074D01*
X-9569Y219387D01*
X-8299Y219186D01*
X-7277Y218533D01*
X-6591Y217532D01*
X-6350Y216343D01*
X-6350Y105515D01*
X-6344Y105430D01*
X-6341Y105415D01*
X-6262Y105322D01*
X49907Y49153D01*
X50559Y48186D01*
X50800Y46998D01*
X50800Y-31758D01*
X50577Y-32901D01*
X49907Y-33913D01*
X30103Y-53717D01*
X29136Y-54369D01*
X27948Y-54610D01*
X-111655Y-54610D01*
X-111740Y-54616D01*
X-111755Y-54619D01*
X-111848Y-54698D01*
X-132006Y-74856D01*
X-132062Y-74920D01*
X-132070Y-74933D01*
X-132080Y-75054D01*
X-132080Y-160028D01*
X-132303Y-161171D01*
X-132973Y-162183D01*
X-134997Y-164207D01*
X-135964Y-164859D01*
X-137153Y-165100D01*
X-157375Y-165100D01*
X-157460Y-165106D01*
X-157475Y-165109D01*
X-157568Y-165188D01*
X-161216Y-168836D01*
X-161272Y-168900D01*
X-161280Y-168913D01*
X-161290Y-169034D01*
X-161290Y-189238D01*
X-161513Y-190381D01*
X-162183Y-191393D01*
X-162937Y-192147D01*
X-163904Y-192799D01*
X-165093Y-193040D01*
X-170075Y-193040D01*
X-170160Y-193046D01*
X-170175Y-193049D01*
X-170268Y-193128D01*
X-175186Y-198046D01*
X-175242Y-198110D01*
X-175250Y-198123D01*
X-175260Y-198244D01*
X-175260Y-215908D01*
X-175483Y-217051D01*
X-176153Y-218063D01*
X-184527Y-226437D01*
X-185494Y-227089D01*
X-186683Y-227330D01*
X-218335Y-227330D01*
X-218420Y-227336D01*
X-218435Y-227339D01*
X-218528Y-227418D01*
X-236278Y-245168D01*
X-237581Y-245939D01*
G37*
%LPC*%
G36*
X-115355Y164874D02*
X-113245Y164874D01*
X-111294Y165682D01*
X-109802Y167174D01*
X-108994Y169125D01*
X-108994Y171235D01*
X-109802Y173186D01*
X-111294Y174678D01*
X-113245Y175486D01*
X-115355Y175486D01*
X-117306Y174678D01*
X-118798Y173186D01*
X-119606Y171235D01*
X-119606Y169125D01*
X-118798Y167174D01*
X-117306Y165682D01*
X-115355Y164874D01*
G37*
G36*
X-158253Y135678D02*
X-156142Y135678D01*
X-154192Y136486D01*
X-152700Y137978D01*
X-151892Y139929D01*
X-151892Y142039D01*
X-152590Y143725D01*
X-152822Y144843D01*
X-152599Y146036D01*
X-151929Y147047D01*
X-151910Y147066D01*
X-151102Y149017D01*
X-151102Y151127D01*
X-151910Y153078D01*
X-153402Y154570D01*
X-155353Y155378D01*
X-157463Y155378D01*
X-159414Y154570D01*
X-160906Y153078D01*
X-161714Y151127D01*
X-161714Y149017D01*
X-161016Y147331D01*
X-160784Y146213D01*
X-161007Y145020D01*
X-161676Y144009D01*
X-161696Y143990D01*
X-162504Y142039D01*
X-162504Y139929D01*
X-161696Y137978D01*
X-160203Y136486D01*
X-158253Y135678D01*
G37*
G36*
X-223305Y133124D02*
X-221195Y133124D01*
X-219244Y133932D01*
X-217752Y135424D01*
X-216944Y137375D01*
X-216944Y139485D01*
X-217752Y141436D01*
X-219244Y142928D01*
X-221195Y143736D01*
X-223305Y143736D01*
X-225256Y142928D01*
X-226748Y141436D01*
X-227556Y139485D01*
X-227556Y137375D01*
X-226748Y135424D01*
X-225256Y133932D01*
X-223305Y133124D01*
G37*
G36*
X-96416Y119032D02*
X-94305Y119032D01*
X-92354Y119840D01*
X-90862Y121333D01*
X-90054Y123283D01*
X-90054Y125394D01*
X-90929Y127506D01*
X-91161Y128624D01*
X-90938Y129816D01*
X-90268Y130828D01*
X-89406Y131691D01*
X-88598Y133641D01*
X-88598Y135752D01*
X-89406Y137702D01*
X-90898Y139194D01*
X-92848Y140002D01*
X-94959Y140002D01*
X-96909Y139194D01*
X-98402Y137702D01*
X-99210Y135752D01*
X-99210Y133641D01*
X-98335Y131528D01*
X-98103Y130411D01*
X-98326Y129218D01*
X-98996Y128207D01*
X-99858Y127344D01*
X-100666Y125394D01*
X-100666Y123283D01*
X-99858Y121333D01*
X-98366Y119840D01*
X-96416Y119032D01*
G37*
G36*
X-280514Y97963D02*
X-273814Y97963D01*
X-267624Y100527D01*
X-262886Y105265D01*
X-260322Y111455D01*
X-260322Y118155D01*
X-262886Y124345D01*
X-267624Y129083D01*
X-273814Y131647D01*
X-280514Y131647D01*
X-286704Y129083D01*
X-291442Y124345D01*
X-294006Y118155D01*
X-294006Y111455D01*
X-291442Y105265D01*
X-286704Y100527D01*
X-280514Y97963D01*
G37*
G36*
X-138215Y108588D02*
X-136105Y108588D01*
X-134154Y109396D01*
X-132662Y110888D01*
X-131854Y112839D01*
X-131854Y114949D01*
X-132662Y116900D01*
X-134154Y118392D01*
X-136105Y119200D01*
X-138215Y119200D01*
X-140166Y118392D01*
X-141658Y116900D01*
X-142466Y114949D01*
X-142466Y112839D01*
X-141658Y110888D01*
X-141168Y110398D01*
X-140566Y109543D01*
X-140414Y108923D01*
X-139911Y109029D01*
X-138720Y108797D01*
X-138215Y108588D01*
G37*
G36*
X-166155Y95024D02*
X-164045Y95024D01*
X-162094Y95832D01*
X-160602Y97324D01*
X-159794Y99275D01*
X-159794Y101385D01*
X-160602Y103336D01*
X-162223Y104957D01*
X-162855Y105879D01*
X-163115Y107063D01*
X-162893Y108256D01*
X-162223Y109267D01*
X-160602Y110888D01*
X-159794Y112839D01*
X-159794Y114949D01*
X-160602Y116900D01*
X-162094Y118392D01*
X-164045Y119200D01*
X-166155Y119200D01*
X-168106Y118392D01*
X-169598Y116900D01*
X-170406Y114949D01*
X-170406Y112839D01*
X-169598Y110888D01*
X-167977Y109267D01*
X-167345Y108345D01*
X-167085Y107161D01*
X-167307Y105968D01*
X-167977Y104957D01*
X-169598Y103336D01*
X-170406Y101385D01*
X-170406Y99275D01*
X-169598Y97324D01*
X-168106Y95832D01*
X-166155Y95024D01*
G37*
G36*
X-54143Y103914D02*
X-52033Y103914D01*
X-50082Y104722D01*
X-48590Y106214D01*
X-47782Y108165D01*
X-47782Y110275D01*
X-48590Y112226D01*
X-50082Y113718D01*
X-52033Y114526D01*
X-54143Y114526D01*
X-56094Y113718D01*
X-57586Y112226D01*
X-58394Y110275D01*
X-58394Y108165D01*
X-57586Y106214D01*
X-56094Y104722D01*
X-54143Y103914D01*
G37*
G36*
X-193600Y71120D02*
X-179780Y71120D01*
X-178054Y72846D01*
X-178054Y79554D01*
X-178177Y79677D01*
X-178829Y80644D01*
X-179070Y81833D01*
X-179070Y85807D01*
X-178847Y86951D01*
X-178177Y87963D01*
X-178054Y88086D01*
X-178054Y94794D01*
X-179780Y96520D01*
X-194176Y96520D01*
X-195320Y96743D01*
X-196331Y97413D01*
X-197629Y98711D01*
X-198241Y99588D01*
X-198521Y100769D01*
X-198317Y101965D01*
X-197664Y102987D01*
X-196663Y103673D01*
X-195474Y103914D01*
X-194525Y103914D01*
X-192574Y104722D01*
X-191082Y106214D01*
X-190274Y108165D01*
X-190274Y110275D01*
X-191082Y112226D01*
X-192574Y113718D01*
X-194525Y114526D01*
X-196635Y114526D01*
X-198586Y113718D01*
X-200078Y112226D01*
X-200533Y111127D01*
X-201126Y110208D01*
X-202116Y109506D01*
X-203301Y109246D01*
X-204493Y109468D01*
X-205504Y110138D01*
X-206544Y111178D01*
X-208495Y111986D01*
X-210605Y111986D01*
X-212556Y111178D01*
X-214048Y109686D01*
X-214856Y107735D01*
X-214856Y107272D01*
X-215070Y106151D01*
X-215732Y105134D01*
X-216738Y104456D01*
X-218906Y103558D01*
X-220398Y102066D01*
X-221206Y100115D01*
X-221206Y98005D01*
X-220398Y96054D01*
X-218906Y94562D01*
X-216955Y93754D01*
X-215808Y93754D01*
X-214664Y93531D01*
X-213653Y92861D01*
X-196219Y75427D01*
X-195567Y74461D01*
X-195326Y73272D01*
X-195326Y72846D01*
X-193600Y71120D01*
G37*
G36*
X-147105Y95024D02*
X-144995Y95024D01*
X-143044Y95832D01*
X-141552Y97324D01*
X-140744Y99275D01*
X-140744Y101385D01*
X-141552Y103336D01*
X-142042Y103826D01*
X-142644Y104681D01*
X-142796Y105301D01*
X-143299Y105195D01*
X-144490Y105427D01*
X-144995Y105636D01*
X-147105Y105636D01*
X-149056Y104828D01*
X-150548Y103336D01*
X-151356Y101385D01*
X-151356Y99275D01*
X-150548Y97324D01*
X-149056Y95832D01*
X-147105Y95024D01*
G37*
G36*
X-74715Y72164D02*
X-72605Y72164D01*
X-70654Y72972D01*
X-69162Y74464D01*
X-68354Y76415D01*
X-68354Y78525D01*
X-69162Y80476D01*
X-70654Y81968D01*
X-72605Y82776D01*
X-74715Y82776D01*
X-76666Y81968D01*
X-78158Y80476D01*
X-78966Y78525D01*
X-78966Y76415D01*
X-78158Y74464D01*
X-76666Y72972D01*
X-74715Y72164D01*
G37*
G36*
X-129377Y69624D02*
X-127267Y69624D01*
X-125316Y70432D01*
X-123824Y71924D01*
X-123016Y73875D01*
X-123016Y75985D01*
X-123824Y77936D01*
X-125316Y79428D01*
X-127267Y80236D01*
X-129377Y80236D01*
X-131328Y79428D01*
X-132820Y77936D01*
X-133628Y75985D01*
X-133628Y73875D01*
X-132820Y71924D01*
X-131328Y70432D01*
X-129377Y69624D01*
G37*
G36*
X-211875Y46764D02*
X-209765Y46764D01*
X-207814Y47572D01*
X-206322Y49064D01*
X-205514Y51015D01*
X-205514Y53125D01*
X-206322Y55076D01*
X-207814Y56568D01*
X-209765Y57376D01*
X-211875Y57376D01*
X-213826Y56568D01*
X-215318Y55076D01*
X-216126Y53125D01*
X-216126Y51015D01*
X-215318Y49064D01*
X-213826Y47572D01*
X-211875Y46764D01*
G37*
G36*
X-74715Y30254D02*
X-72605Y30254D01*
X-70654Y31062D01*
X-69162Y32554D01*
X-68354Y34505D01*
X-68354Y36615D01*
X-69162Y38566D01*
X-70654Y40058D01*
X-72605Y40866D01*
X-74715Y40866D01*
X-76666Y40058D01*
X-78158Y38566D01*
X-78966Y36615D01*
X-78966Y34505D01*
X-78158Y32554D01*
X-76666Y31062D01*
X-74715Y30254D01*
G37*
G36*
X-159805Y30254D02*
X-157695Y30254D01*
X-155744Y31062D01*
X-154252Y32554D01*
X-153444Y34505D01*
X-153444Y36615D01*
X-154252Y38566D01*
X-155744Y40058D01*
X-157695Y40866D01*
X-159805Y40866D01*
X-161756Y40058D01*
X-163248Y38566D01*
X-164056Y36615D01*
X-164056Y34505D01*
X-163248Y32554D01*
X-161756Y31062D01*
X-159805Y30254D01*
G37*
G36*
X-53125Y23904D02*
X-51015Y23904D01*
X-49064Y24712D01*
X-47572Y26204D01*
X-46764Y28155D01*
X-46764Y30265D01*
X-47572Y32216D01*
X-49064Y33708D01*
X-51015Y34516D01*
X-53125Y34516D01*
X-55076Y33708D01*
X-56568Y32216D01*
X-57376Y30265D01*
X-57376Y28155D01*
X-56568Y26204D01*
X-55076Y24712D01*
X-53125Y23904D01*
G37*
G36*
X-138918Y21492D02*
X-136807Y21492D01*
X-134857Y22299D01*
X-133364Y23792D01*
X-132556Y25742D01*
X-132556Y27853D01*
X-133364Y29803D01*
X-134857Y31296D01*
X-136807Y32104D01*
X-138918Y32104D01*
X-140868Y31296D01*
X-142360Y29803D01*
X-143168Y27853D01*
X-143168Y25742D01*
X-142360Y23792D01*
X-140868Y22299D01*
X-138918Y21492D01*
G37*
G36*
X-48118Y-39624D02*
X-38213Y-39624D01*
X-16775Y-18187D01*
X-15809Y-17535D01*
X-14620Y-17294D01*
X-12950Y-17294D01*
X-11806Y-17517D01*
X-10795Y-18187D01*
X-10717Y-18265D01*
X-10065Y-19231D01*
X-9824Y-20420D01*
X-9824Y-27442D01*
X-8931Y-28335D01*
X-1229Y-28335D01*
X287Y-26819D01*
X1165Y-26207D01*
X2345Y-25927D01*
X3541Y-26131D01*
X4563Y-26784D01*
X4745Y-27050D01*
X6383Y-28688D01*
X8046Y-28688D01*
X9212Y-28920D01*
X9251Y-28936D01*
X11069Y-28936D01*
X11074Y-28934D01*
X12241Y-28702D01*
X15616Y-28702D01*
X16783Y-28934D01*
X17995Y-29436D01*
X20105Y-29436D01*
X22056Y-28628D01*
X23548Y-27136D01*
X24356Y-25185D01*
X24356Y-23075D01*
X24002Y-22220D01*
X23772Y-21151D01*
X23975Y-19955D01*
X24629Y-18933D01*
X25629Y-18247D01*
X26818Y-18006D01*
X27725Y-18006D01*
X29676Y-17198D01*
X31168Y-15706D01*
X31976Y-13755D01*
X31976Y-11645D01*
X31883Y-11420D01*
X31652Y-10326D01*
X31865Y-9132D01*
X32526Y-8115D01*
X33532Y-7437D01*
X34679Y-6962D01*
X36172Y-5469D01*
X36980Y-3519D01*
X36980Y-1408D01*
X36172Y542D01*
X34679Y2034D01*
X32350Y2999D01*
X32093Y3047D01*
X31071Y3701D01*
X30385Y4701D01*
X30144Y5890D01*
X30144Y12202D01*
X29251Y13095D01*
X21549Y13095D01*
X20014Y11559D01*
X19797Y11221D01*
X18797Y10535D01*
X17608Y10294D01*
X10233Y10294D01*
X9620Y9867D01*
X8439Y9587D01*
X7835Y9690D01*
X8493Y9270D01*
X9179Y8269D01*
X9420Y7080D01*
X9420Y5599D01*
X10363Y4655D01*
X10996Y3733D01*
X11256Y2549D01*
X11033Y1356D01*
X10363Y345D01*
X9420Y-599D01*
X9420Y-6372D01*
X9215Y-7471D01*
X8561Y-8493D01*
X7561Y-9179D01*
X6372Y-9420D01*
X-6372Y-9420D01*
X-7471Y-9215D01*
X-8493Y-8561D01*
X-9179Y-7561D01*
X-9420Y-6372D01*
X-9420Y6372D01*
X-9215Y7471D01*
X-8561Y8493D01*
X-7561Y9179D01*
X-6372Y9420D01*
X4481Y9420D01*
X5094Y9848D01*
X6275Y10127D01*
X6879Y10024D01*
X6221Y10444D01*
X5535Y11445D01*
X5294Y12634D01*
X5294Y15913D01*
X5508Y17034D01*
X6170Y18051D01*
X7176Y18729D01*
X9356Y19632D01*
X10848Y21124D01*
X11656Y23075D01*
X11656Y25185D01*
X10848Y27136D01*
X9356Y28628D01*
X7405Y29436D01*
X5295Y29436D01*
X4479Y29098D01*
X3361Y28866D01*
X2168Y29089D01*
X1390Y29605D01*
X-6391Y29605D01*
X-7358Y28638D01*
X-8280Y28006D01*
X-9465Y27746D01*
X-10657Y27968D01*
X-11668Y28638D01*
X-12380Y29349D01*
X-12952Y29461D01*
X-13963Y30131D01*
X-14774Y30942D01*
X-16725Y31750D01*
X-18835Y31750D01*
X-20786Y30942D01*
X-22278Y29450D01*
X-23086Y27499D01*
X-23086Y25389D01*
X-22278Y23438D01*
X-21671Y22832D01*
X-21030Y21888D01*
X-20779Y20701D01*
X-21011Y19510D01*
X-21087Y19326D01*
X-21714Y18371D01*
X-22714Y17685D01*
X-23903Y17444D01*
X-29982Y17444D01*
X-30875Y16551D01*
X-30875Y8849D01*
X-30531Y8505D01*
X-29899Y7583D01*
X-29639Y6399D01*
X-29861Y5206D01*
X-30531Y4195D01*
X-30875Y3851D01*
X-30875Y-3851D01*
X-30531Y-4195D01*
X-29899Y-5117D01*
X-29639Y-6301D01*
X-29861Y-7494D01*
X-30531Y-8505D01*
X-30875Y-8849D01*
X-30875Y-16551D01*
X-29114Y-18312D01*
X-28482Y-19234D01*
X-28221Y-20419D01*
X-28444Y-21611D01*
X-29114Y-22622D01*
X-39635Y-33143D01*
X-40601Y-33795D01*
X-41790Y-34036D01*
X-44541Y-34036D01*
X-45685Y-33813D01*
X-46696Y-33143D01*
X-54747Y-25093D01*
X-55398Y-24126D01*
X-55640Y-22938D01*
X-55640Y-21790D01*
X-56447Y-19840D01*
X-57001Y-19286D01*
X-57633Y-18364D01*
X-57894Y-17179D01*
X-57671Y-15987D01*
X-57001Y-14975D01*
X-55192Y-13166D01*
X-54384Y-11215D01*
X-54384Y-9105D01*
X-55192Y-7154D01*
X-56684Y-5662D01*
X-58635Y-4854D01*
X-61112Y-4854D01*
X-61980Y-4699D01*
X-62463Y-5429D01*
X-64188Y-7154D01*
X-64996Y-9105D01*
X-64996Y-11215D01*
X-64188Y-13166D01*
X-63634Y-13720D01*
X-63002Y-14642D01*
X-62742Y-15826D01*
X-62964Y-17019D01*
X-63634Y-18030D01*
X-65444Y-19840D01*
X-66252Y-21790D01*
X-66252Y-23901D01*
X-65444Y-25851D01*
X-63951Y-27344D01*
X-62001Y-28152D01*
X-60853Y-28152D01*
X-59709Y-28374D01*
X-58698Y-29044D01*
X-48118Y-39624D01*
G37*
G36*
X-220560Y8459D02*
X-218450Y8459D01*
X-216499Y9267D01*
X-215007Y10759D01*
X-214199Y12710D01*
X-214199Y14820D01*
X-215007Y16771D01*
X-216499Y18263D01*
X-218450Y19071D01*
X-220917Y19071D01*
X-221993Y19267D01*
X-223020Y19913D01*
X-223714Y20908D01*
X-223965Y22095D01*
X-223733Y23285D01*
X-223294Y24345D01*
X-223294Y26455D01*
X-224102Y28406D01*
X-225594Y29898D01*
X-227545Y30706D01*
X-229655Y30706D01*
X-231606Y29898D01*
X-233098Y28406D01*
X-233906Y26455D01*
X-233906Y24345D01*
X-233098Y22394D01*
X-231606Y20902D01*
X-229655Y20094D01*
X-227188Y20094D01*
X-226112Y19898D01*
X-225085Y19252D01*
X-224391Y18257D01*
X-224140Y17070D01*
X-224372Y15880D01*
X-224811Y14820D01*
X-224811Y12710D01*
X-224003Y10759D01*
X-222511Y9267D01*
X-220560Y8459D01*
G37*
G36*
X-64618Y-226D02*
X-63750Y-381D01*
X-63267Y349D01*
X-61542Y2074D01*
X-60734Y4025D01*
X-60734Y5311D01*
X-60520Y6433D01*
X-59858Y7449D01*
X-58852Y8127D01*
X-57004Y8893D01*
X-55959Y9123D01*
X-55578Y9061D01*
X-55719Y9731D01*
X-55488Y10921D01*
X-54943Y12237D01*
X-54943Y14347D01*
X-55751Y16298D01*
X-57243Y17790D01*
X-59193Y18598D01*
X-61304Y18598D01*
X-63254Y17790D01*
X-64747Y16298D01*
X-65555Y14347D01*
X-65555Y13061D01*
X-65769Y11939D01*
X-66430Y10923D01*
X-67436Y10245D01*
X-69046Y9578D01*
X-70538Y8086D01*
X-71346Y6135D01*
X-71346Y4025D01*
X-70538Y2074D01*
X-69046Y582D01*
X-67095Y-226D01*
X-64618Y-226D01*
G37*
G36*
X-103925Y4854D02*
X-101815Y4854D01*
X-99864Y5662D01*
X-99310Y6216D01*
X-98388Y6848D01*
X-97204Y7108D01*
X-96011Y6886D01*
X-95000Y6216D01*
X-94446Y5662D01*
X-92495Y4854D01*
X-90385Y4854D01*
X-88434Y5662D01*
X-86942Y7154D01*
X-86134Y9105D01*
X-86134Y11215D01*
X-86942Y13166D01*
X-88434Y14658D01*
X-90385Y15466D01*
X-92495Y15466D01*
X-94446Y14658D01*
X-95000Y14104D01*
X-95922Y13472D01*
X-97106Y13212D01*
X-98299Y13434D01*
X-99310Y14104D01*
X-99864Y14658D01*
X-101815Y15466D01*
X-103925Y15466D01*
X-105876Y14658D01*
X-107368Y13166D01*
X-108176Y11215D01*
X-108176Y9105D01*
X-107368Y7154D01*
X-105876Y5662D01*
X-103925Y4854D01*
G37*
G36*
X-49315Y-2766D02*
X-47205Y-2766D01*
X-45254Y-1958D01*
X-43762Y-466D01*
X-42954Y1485D01*
X-42954Y3595D01*
X-43762Y5546D01*
X-45254Y7038D01*
X-47205Y7846D01*
X-49315Y7846D01*
X-51505Y6939D01*
X-52550Y6709D01*
X-52931Y6771D01*
X-52789Y6101D01*
X-53021Y4911D01*
X-53566Y3595D01*
X-53566Y1485D01*
X-52758Y-466D01*
X-51266Y-1958D01*
X-49315Y-2766D01*
G37*
G36*
X-127850Y-15261D02*
X-125740Y-15261D01*
X-123789Y-14453D01*
X-122297Y-12961D01*
X-121489Y-11010D01*
X-121489Y-8900D01*
X-122297Y-6949D01*
X-123789Y-5457D01*
X-125740Y-4649D01*
X-127850Y-4649D01*
X-129801Y-5457D01*
X-131293Y-6949D01*
X-132101Y-8900D01*
X-132101Y-11010D01*
X-131293Y-12961D01*
X-129801Y-14453D01*
X-127850Y-15261D01*
G37*
G36*
X-182665Y-106906D02*
X-180555Y-106906D01*
X-178604Y-106098D01*
X-177112Y-104606D01*
X-176304Y-102655D01*
X-176304Y-100545D01*
X-177112Y-98594D01*
X-178604Y-97102D01*
X-180555Y-96294D01*
X-182665Y-96294D01*
X-184616Y-97102D01*
X-186108Y-98594D01*
X-186916Y-100545D01*
X-186916Y-102655D01*
X-186108Y-104606D01*
X-184616Y-106098D01*
X-182665Y-106906D01*
G37*
G36*
X-280514Y-131647D02*
X-273814Y-131647D01*
X-267624Y-129083D01*
X-262886Y-124345D01*
X-260322Y-118155D01*
X-260322Y-111455D01*
X-262886Y-105265D01*
X-267624Y-100527D01*
X-273814Y-97963D01*
X-280514Y-97963D01*
X-286704Y-100527D01*
X-291442Y-105265D01*
X-294006Y-111455D01*
X-294006Y-118155D01*
X-291442Y-124345D01*
X-286704Y-129083D01*
X-280514Y-131647D01*
G37*
G36*
X-153455Y-150086D02*
X-151345Y-150086D01*
X-149394Y-149278D01*
X-147902Y-147786D01*
X-147094Y-145835D01*
X-147094Y-143725D01*
X-147902Y-141774D01*
X-149394Y-140282D01*
X-151345Y-139474D01*
X-153455Y-139474D01*
X-155406Y-140282D01*
X-156898Y-141774D01*
X-157706Y-143725D01*
X-157706Y-145835D01*
X-157350Y-146696D01*
X-157121Y-147716D01*
X-157262Y-148635D01*
X-156190Y-148835D01*
X-155714Y-149151D01*
X-153455Y-150086D01*
G37*
G36*
X-166155Y-160048D02*
X-164045Y-160048D01*
X-162094Y-159240D01*
X-160602Y-157748D01*
X-159794Y-155797D01*
X-159794Y-153687D01*
X-160150Y-152827D01*
X-160379Y-151806D01*
X-160238Y-150887D01*
X-161310Y-150687D01*
X-161786Y-150372D01*
X-164045Y-149436D01*
X-166155Y-149436D01*
X-168106Y-150244D01*
X-169598Y-151736D01*
X-170406Y-153687D01*
X-170406Y-155797D01*
X-169598Y-157748D01*
X-168106Y-159240D01*
X-166155Y-160048D01*
G37*
G36*
X-192469Y-212316D02*
X-190358Y-212316D01*
X-188408Y-211508D01*
X-186915Y-210016D01*
X-186108Y-208065D01*
X-186108Y-205955D01*
X-186915Y-204004D01*
X-188408Y-202512D01*
X-190358Y-201704D01*
X-192469Y-201704D01*
X-194419Y-202512D01*
X-195912Y-204004D01*
X-196720Y-205955D01*
X-196720Y-208065D01*
X-195912Y-210016D01*
X-194419Y-211508D01*
X-192469Y-212316D01*
G37*
%LPD*%
G36*
X-66731Y-222190D02*
X-67028Y-222250D01*
X-120334Y-222250D01*
X-120620Y-222194D01*
X-120873Y-222027D01*
X-128047Y-214853D01*
X-128210Y-214612D01*
X-128270Y-214314D01*
X-128270Y-163927D01*
X-128223Y-163664D01*
X-128064Y-163406D01*
X-127816Y-163230D01*
X-127520Y-163165D01*
X-127222Y-163221D01*
X-126969Y-163388D01*
X-125031Y-165326D01*
X-120368Y-165326D01*
X-120093Y-165377D01*
X-119838Y-165541D01*
X-119666Y-165791D01*
X-119606Y-166088D01*
X-119606Y-169838D01*
X-116498Y-172946D01*
X-112102Y-172946D01*
X-109759Y-170603D01*
X-109528Y-170445D01*
X-109232Y-170380D01*
X-108934Y-170435D01*
X-108681Y-170603D01*
X-106338Y-172946D01*
X-101942Y-172946D01*
X-98834Y-169838D01*
X-98834Y-165442D01*
X-101942Y-162334D01*
X-106338Y-162334D01*
X-108681Y-164677D01*
X-108912Y-164835D01*
X-109208Y-164900D01*
X-109506Y-164845D01*
X-109759Y-164677D01*
X-112102Y-162334D01*
X-116766Y-162334D01*
X-117040Y-162283D01*
X-117296Y-162119D01*
X-117467Y-161869D01*
X-117528Y-161572D01*
X-117528Y-157822D01*
X-120636Y-154714D01*
X-125031Y-154714D01*
X-126969Y-156652D01*
X-127189Y-156805D01*
X-127484Y-156875D01*
X-127783Y-156824D01*
X-128038Y-156660D01*
X-128210Y-156410D01*
X-128270Y-156113D01*
X-128270Y-131126D01*
X-128214Y-130840D01*
X-128047Y-130587D01*
X-125953Y-128493D01*
X-125712Y-128330D01*
X-125414Y-128270D01*
X-44168Y-128270D01*
X-43893Y-128321D01*
X-43638Y-128485D01*
X-43466Y-128735D01*
X-43406Y-129032D01*
X-43406Y-129198D01*
X-40298Y-132306D01*
X-35902Y-132306D01*
X-32794Y-129198D01*
X-32794Y-129032D01*
X-32743Y-128757D01*
X-32579Y-128502D01*
X-32329Y-128330D01*
X-32032Y-128270D01*
X82351Y-128270D01*
X82637Y-128326D01*
X82889Y-128493D01*
X84162Y-129766D01*
X88558Y-129766D01*
X89831Y-128493D01*
X90072Y-128330D01*
X90369Y-128270D01*
X98861Y-128270D01*
X99147Y-128326D01*
X99399Y-128493D01*
X101800Y-130894D01*
X101958Y-131125D01*
X102023Y-131421D01*
X101968Y-131719D01*
X101800Y-131972D01*
X98810Y-134962D01*
X98810Y-139358D01*
X101918Y-142466D01*
X106314Y-142466D01*
X109422Y-139358D01*
X109422Y-134962D01*
X106456Y-131996D01*
X106298Y-131765D01*
X106233Y-131469D01*
X106288Y-131171D01*
X106456Y-130918D01*
X108881Y-128493D01*
X109122Y-128330D01*
X109419Y-128270D01*
X234751Y-128270D01*
X235037Y-128326D01*
X235289Y-128493D01*
X235292Y-128496D01*
X239688Y-128496D01*
X239691Y-128493D01*
X239932Y-128330D01*
X240229Y-128270D01*
X266495Y-128270D01*
X266781Y-128326D01*
X267034Y-128493D01*
X267624Y-129083D01*
X273814Y-131647D01*
X280514Y-131647D01*
X286704Y-129083D01*
X287294Y-128493D01*
X287536Y-128330D01*
X287833Y-128270D01*
X329418Y-128270D01*
X329792Y-128368D01*
X330021Y-128566D01*
X330155Y-128838D01*
X330173Y-129141D01*
X330171Y-129151D01*
X330122Y-129332D01*
X325062Y-141663D01*
X324970Y-141827D01*
X317051Y-152549D01*
X316922Y-152685D01*
X306624Y-161148D01*
X306466Y-161248D01*
X294413Y-166940D01*
X294326Y-166975D01*
X293472Y-167255D01*
X289496Y-168563D01*
X281137Y-174352D01*
X274765Y-182275D01*
X272834Y-186979D01*
X272818Y-187015D01*
X259613Y-214923D01*
X259575Y-214994D01*
X255379Y-221884D01*
X255275Y-222018D01*
X255025Y-222190D01*
X254728Y-222250D01*
X147636Y-222250D01*
X147350Y-222194D01*
X147097Y-222027D01*
X134843Y-209773D01*
X134680Y-209532D01*
X134620Y-209234D01*
X134620Y-163918D01*
X134595Y-163813D01*
X134576Y-163786D01*
X132142Y-161352D01*
X132050Y-161295D01*
X132018Y-161290D01*
X109308Y-161290D01*
X109203Y-161315D01*
X109176Y-161334D01*
X107796Y-162714D01*
X107565Y-162872D01*
X107269Y-162937D01*
X106971Y-162882D01*
X106718Y-162714D01*
X105068Y-161064D01*
X100672Y-161064D01*
X100669Y-161067D01*
X100428Y-161230D01*
X100131Y-161290D01*
X85289Y-161290D01*
X85003Y-161234D01*
X84751Y-161067D01*
X84748Y-161064D01*
X80352Y-161064D01*
X77244Y-164172D01*
X77244Y-168568D01*
X77247Y-168571D01*
X77410Y-168812D01*
X77470Y-169109D01*
X77470Y-177601D01*
X77414Y-177887D01*
X77247Y-178139D01*
X77244Y-178142D01*
X77244Y-182538D01*
X77247Y-182541D01*
X77410Y-182782D01*
X77470Y-183079D01*
X77470Y-191571D01*
X77414Y-191857D01*
X77247Y-192109D01*
X77244Y-192112D01*
X77244Y-196508D01*
X79869Y-199133D01*
X80022Y-199353D01*
X80092Y-199648D01*
X80041Y-199947D01*
X79878Y-200202D01*
X79628Y-200374D01*
X79331Y-200434D01*
X77812Y-200434D01*
X74704Y-203542D01*
X74704Y-207938D01*
X77812Y-211046D01*
X82208Y-211046D01*
X85316Y-207938D01*
X85316Y-203542D01*
X82691Y-200917D01*
X82538Y-200697D01*
X82468Y-200402D01*
X82519Y-200103D01*
X82682Y-199848D01*
X82932Y-199676D01*
X83229Y-199616D01*
X84748Y-199616D01*
X84751Y-199613D01*
X84992Y-199450D01*
X85289Y-199390D01*
X91948Y-199390D01*
X92223Y-199441D01*
X92478Y-199605D01*
X92650Y-199855D01*
X92710Y-200152D01*
X92710Y-221488D01*
X92659Y-221763D01*
X92495Y-222018D01*
X92245Y-222190D01*
X91948Y-222250D01*
X77923Y-222250D01*
X77660Y-222203D01*
X77402Y-222044D01*
X77227Y-221796D01*
X77162Y-221500D01*
X77217Y-221202D01*
X77385Y-220949D01*
X77696Y-220638D01*
X77696Y-216242D01*
X74588Y-213134D01*
X70192Y-213134D01*
X67084Y-216242D01*
X67084Y-220638D01*
X67395Y-220949D01*
X67548Y-221169D01*
X67618Y-221464D01*
X67567Y-221763D01*
X67404Y-222018D01*
X67154Y-222190D01*
X66857Y-222250D01*
X4572Y-222250D01*
X4297Y-222199D01*
X4042Y-222035D01*
X3870Y-221785D01*
X3810Y-221488D01*
X3810Y-170268D01*
X3785Y-170163D01*
X3766Y-170136D01*
X62Y-166432D01*
X-30Y-166375D01*
X-62Y-166370D01*
X-25312Y-166370D01*
X-25417Y-166395D01*
X-25444Y-166414D01*
X-26413Y-167383D01*
X-26633Y-167536D01*
X-26928Y-167606D01*
X-27227Y-167555D01*
X-27482Y-167392D01*
X-27654Y-167142D01*
X-27714Y-166844D01*
X-27714Y-164172D01*
X-30339Y-161547D01*
X-30492Y-161327D01*
X-30562Y-161032D01*
X-30511Y-160733D01*
X-30348Y-160478D01*
X-30098Y-160306D01*
X-29801Y-160246D01*
X-28282Y-160246D01*
X-25174Y-157138D01*
X-25174Y-152742D01*
X-28282Y-149634D01*
X-32678Y-149634D01*
X-35786Y-152742D01*
X-35786Y-157138D01*
X-33161Y-159763D01*
X-33008Y-159983D01*
X-32938Y-160278D01*
X-32989Y-160577D01*
X-33152Y-160832D01*
X-33402Y-161004D01*
X-33699Y-161064D01*
X-35218Y-161064D01*
X-35221Y-161067D01*
X-35462Y-161230D01*
X-35759Y-161290D01*
X-53141Y-161290D01*
X-53427Y-161234D01*
X-53679Y-161067D01*
X-53682Y-161064D01*
X-58078Y-161064D01*
X-61186Y-164172D01*
X-61186Y-168568D01*
X-61183Y-168571D01*
X-61020Y-168812D01*
X-60960Y-169109D01*
X-60960Y-173791D01*
X-61016Y-174077D01*
X-61183Y-174329D01*
X-61186Y-174332D01*
X-61186Y-178728D01*
X-61183Y-178731D01*
X-61020Y-178972D01*
X-60960Y-179269D01*
X-60960Y-185221D01*
X-61016Y-185507D01*
X-61183Y-185759D01*
X-61186Y-185762D01*
X-61186Y-190158D01*
X-58078Y-193266D01*
X-53430Y-193266D01*
X-53144Y-193322D01*
X-52891Y-193489D01*
X-51249Y-195131D01*
X-51086Y-195372D01*
X-51026Y-195670D01*
X-51026Y-198822D01*
X-50715Y-199133D01*
X-50562Y-199353D01*
X-50492Y-199648D01*
X-50543Y-199947D01*
X-50706Y-200202D01*
X-50956Y-200374D01*
X-51253Y-200434D01*
X-55538Y-200434D01*
X-58646Y-203542D01*
X-58646Y-207938D01*
X-55538Y-211046D01*
X-51142Y-211046D01*
X-48034Y-207938D01*
X-48034Y-203542D01*
X-48345Y-203231D01*
X-48498Y-203011D01*
X-48568Y-202716D01*
X-48517Y-202417D01*
X-48354Y-202162D01*
X-48104Y-201990D01*
X-47807Y-201930D01*
X-43522Y-201930D01*
X-41941Y-200349D01*
X-41721Y-200196D01*
X-41426Y-200126D01*
X-41127Y-200177D01*
X-40872Y-200340D01*
X-40700Y-200590D01*
X-40640Y-200887D01*
X-40640Y-219394D01*
X-40696Y-219680D01*
X-40863Y-219933D01*
X-42957Y-222027D01*
X-43198Y-222190D01*
X-43496Y-222250D01*
X-54892Y-222250D01*
X-55167Y-222199D01*
X-55422Y-222035D01*
X-55594Y-221785D01*
X-55654Y-221488D01*
X-55654Y-221322D01*
X-58762Y-218214D01*
X-63158Y-218214D01*
X-66266Y-221322D01*
X-66266Y-221488D01*
X-66317Y-221763D01*
X-66481Y-222018D01*
X-66731Y-222190D01*
G37*
%LPC*%
G36*
X118452Y-145006D02*
X122848Y-145006D01*
X125956Y-141898D01*
X125956Y-137502D01*
X122848Y-134394D01*
X118452Y-134394D01*
X115344Y-137502D01*
X115344Y-141898D01*
X118452Y-145006D01*
G37*
G36*
X-40298Y-145006D02*
X-35902Y-145006D01*
X-32794Y-141898D01*
X-32794Y-137502D01*
X-35902Y-134394D01*
X-40298Y-134394D01*
X-43406Y-137502D01*
X-43406Y-141898D01*
X-40298Y-145006D01*
G37*
G36*
X-22518Y-150086D02*
X-18122Y-150086D01*
X-15014Y-146978D01*
X-15014Y-142582D01*
X-18122Y-139474D01*
X-22518Y-139474D01*
X-25626Y-142582D01*
X-25626Y-146978D01*
X-22518Y-150086D01*
G37*
G36*
X292442Y-152626D02*
X296838Y-152626D01*
X299946Y-149518D01*
X299946Y-145122D01*
X296838Y-142014D01*
X292442Y-142014D01*
X289334Y-145122D01*
X289334Y-149518D01*
X292442Y-152626D01*
G37*
G36*
X70192Y-155166D02*
X74588Y-155166D01*
X77696Y-152058D01*
X77696Y-147662D01*
X74588Y-144554D01*
X70192Y-144554D01*
X67084Y-147662D01*
X67084Y-152058D01*
X70192Y-155166D01*
G37*
G36*
X107022Y-158976D02*
X111418Y-158976D01*
X114526Y-155868D01*
X114526Y-151472D01*
X111418Y-148364D01*
X107022Y-148364D01*
X103914Y-151472D01*
X103914Y-155868D01*
X107022Y-158976D01*
G37*
G36*
X-64428Y-158976D02*
X-60032Y-158976D01*
X-56924Y-155868D01*
X-56924Y-151472D01*
X-60032Y-148364D01*
X-64428Y-148364D01*
X-67536Y-151472D01*
X-67536Y-155868D01*
X-64428Y-158976D01*
G37*
G36*
X147662Y-181836D02*
X152058Y-181836D01*
X155166Y-178728D01*
X155166Y-174332D01*
X154234Y-173400D01*
X154081Y-173181D01*
X154011Y-172886D01*
X154062Y-172587D01*
X154226Y-172331D01*
X154476Y-172160D01*
X154773Y-172099D01*
X157561Y-172099D01*
X160669Y-168991D01*
X160669Y-164596D01*
X157561Y-161487D01*
X155333Y-161487D01*
X155070Y-161441D01*
X154812Y-161281D01*
X154637Y-161034D01*
X154571Y-160738D01*
X154627Y-160439D01*
X154795Y-160187D01*
X155523Y-159459D01*
X155523Y-155063D01*
X152414Y-151955D01*
X148019Y-151955D01*
X144911Y-155063D01*
X144911Y-159459D01*
X148019Y-162567D01*
X150247Y-162567D01*
X150510Y-162614D01*
X150768Y-162773D01*
X150943Y-163020D01*
X151009Y-163317D01*
X150953Y-163615D01*
X150785Y-163868D01*
X150057Y-164596D01*
X150057Y-168991D01*
X150989Y-169923D01*
X151142Y-170143D01*
X151212Y-170438D01*
X151161Y-170737D01*
X150998Y-170992D01*
X150748Y-171164D01*
X150451Y-171224D01*
X147662Y-171224D01*
X144554Y-174332D01*
X144554Y-178728D01*
X147662Y-181836D01*
G37*
G36*
X10871Y-197444D02*
X15266Y-197444D01*
X18374Y-194336D01*
X18374Y-189941D01*
X16298Y-187864D01*
X16140Y-187633D01*
X16075Y-187337D01*
X16130Y-187039D01*
X16298Y-186786D01*
X19276Y-183808D01*
X19276Y-179412D01*
X16298Y-176434D01*
X16140Y-176203D01*
X16075Y-175907D01*
X16130Y-175609D01*
X16298Y-175356D01*
X19276Y-172378D01*
X19276Y-167982D01*
X16168Y-164874D01*
X14074Y-164874D01*
X13810Y-164827D01*
X13552Y-164668D01*
X13377Y-164420D01*
X13312Y-164124D01*
X13367Y-163826D01*
X13535Y-163573D01*
X14196Y-162912D01*
X14196Y-158517D01*
X11088Y-155408D01*
X6692Y-155408D01*
X3584Y-158517D01*
X3584Y-162912D01*
X6692Y-166020D01*
X8786Y-166020D01*
X9050Y-166067D01*
X9308Y-166227D01*
X9483Y-166474D01*
X9548Y-166770D01*
X9493Y-167068D01*
X9325Y-167321D01*
X8664Y-167982D01*
X8664Y-172378D01*
X11642Y-175356D01*
X11800Y-175587D01*
X11865Y-175883D01*
X11810Y-176181D01*
X11642Y-176434D01*
X8664Y-179412D01*
X8664Y-183808D01*
X10741Y-185885D01*
X10899Y-186115D01*
X10964Y-186411D01*
X10908Y-186709D01*
X10741Y-186962D01*
X7762Y-189941D01*
X7762Y-194336D01*
X10871Y-197444D01*
G37*
G36*
X166712Y-169136D02*
X171108Y-169136D01*
X174216Y-166028D01*
X174216Y-161632D01*
X171108Y-158524D01*
X166712Y-158524D01*
X163604Y-161632D01*
X163604Y-166028D01*
X166712Y-169136D01*
G37*
G36*
X256882Y-171676D02*
X261278Y-171676D01*
X264386Y-168568D01*
X264386Y-164172D01*
X261278Y-161064D01*
X256882Y-161064D01*
X253774Y-164172D01*
X253774Y-168568D01*
X256882Y-171676D01*
G37*
G36*
X213702Y-171676D02*
X218098Y-171676D01*
X221206Y-168568D01*
X221206Y-164172D01*
X218098Y-161064D01*
X213702Y-161064D01*
X210594Y-164172D01*
X210594Y-168568D01*
X213702Y-171676D01*
G37*
G36*
X23571Y-197444D02*
X27966Y-197444D01*
X31074Y-194336D01*
X31074Y-189941D01*
X28998Y-187864D01*
X28840Y-187633D01*
X28775Y-187337D01*
X28830Y-187039D01*
X28998Y-186786D01*
X31976Y-183808D01*
X31976Y-179412D01*
X28998Y-176434D01*
X28840Y-176203D01*
X28775Y-175907D01*
X28830Y-175609D01*
X28998Y-175356D01*
X31976Y-172378D01*
X31976Y-167982D01*
X28868Y-164874D01*
X24472Y-164874D01*
X21364Y-167982D01*
X21364Y-172378D01*
X24342Y-175356D01*
X24500Y-175587D01*
X24565Y-175883D01*
X24510Y-176181D01*
X24342Y-176434D01*
X21364Y-179412D01*
X21364Y-183808D01*
X23441Y-185885D01*
X23599Y-186115D01*
X23664Y-186411D01*
X23608Y-186709D01*
X23441Y-186962D01*
X20462Y-189941D01*
X20462Y-194336D01*
X23571Y-197444D01*
G37*
G36*
X165442Y-195806D02*
X169838Y-195806D01*
X172946Y-192698D01*
X172946Y-188302D01*
X170321Y-185677D01*
X170168Y-185457D01*
X170098Y-185162D01*
X170149Y-184863D01*
X170312Y-184608D01*
X170562Y-184436D01*
X170859Y-184376D01*
X171108Y-184376D01*
X174216Y-181268D01*
X174216Y-176872D01*
X171108Y-173764D01*
X166712Y-173764D01*
X163604Y-176872D01*
X163604Y-181268D01*
X166229Y-183893D01*
X166382Y-184113D01*
X166452Y-184408D01*
X166401Y-184707D01*
X166238Y-184962D01*
X165988Y-185134D01*
X165691Y-185194D01*
X165442Y-185194D01*
X162334Y-188302D01*
X162334Y-192698D01*
X165442Y-195806D01*
G37*
G36*
X-115228Y-185646D02*
X-110832Y-185646D01*
X-109124Y-183938D01*
X-108893Y-183780D01*
X-108597Y-183715D01*
X-108299Y-183770D01*
X-108046Y-183938D01*
X-106338Y-185646D01*
X-101942Y-185646D01*
X-98834Y-182538D01*
X-98834Y-178142D01*
X-101942Y-175034D01*
X-106338Y-175034D01*
X-108046Y-176742D01*
X-108277Y-176900D01*
X-108573Y-176965D01*
X-108871Y-176910D01*
X-109124Y-176742D01*
X-110832Y-175034D01*
X-115228Y-175034D01*
X-118336Y-178142D01*
X-118336Y-182538D01*
X-115228Y-185646D01*
G37*
G36*
X213702Y-191996D02*
X218098Y-191996D01*
X221206Y-188888D01*
X221206Y-184492D01*
X218098Y-181384D01*
X213702Y-181384D01*
X210594Y-184492D01*
X210594Y-188888D01*
X213702Y-191996D01*
G37*
G36*
X147662Y-195806D02*
X152058Y-195806D01*
X155166Y-192698D01*
X155166Y-188302D01*
X152058Y-185194D01*
X147662Y-185194D01*
X144554Y-188302D01*
X144554Y-192698D01*
X147662Y-195806D01*
G37*
G36*
X-115228Y-198346D02*
X-110832Y-198346D01*
X-109124Y-196638D01*
X-108893Y-196480D01*
X-108597Y-196415D01*
X-108299Y-196470D01*
X-108046Y-196638D01*
X-106338Y-198346D01*
X-101942Y-198346D01*
X-98834Y-195238D01*
X-98834Y-190842D01*
X-101942Y-187734D01*
X-106338Y-187734D01*
X-108046Y-189442D01*
X-108277Y-189600D01*
X-108573Y-189665D01*
X-108871Y-189610D01*
X-109124Y-189442D01*
X-110832Y-187734D01*
X-115228Y-187734D01*
X-118336Y-190842D01*
X-118336Y-195238D01*
X-115228Y-198346D01*
G37*
G36*
X245452Y-212316D02*
X249848Y-212316D01*
X252956Y-209208D01*
X252956Y-204812D01*
X249848Y-201704D01*
X245452Y-201704D01*
X242344Y-204812D01*
X242344Y-209208D01*
X245452Y-212316D01*
G37*
G36*
X213702Y-212316D02*
X218098Y-212316D01*
X221206Y-209208D01*
X221206Y-204812D01*
X218098Y-201704D01*
X213702Y-201704D01*
X210594Y-204812D01*
X210594Y-209208D01*
X213702Y-212316D01*
G37*
%LPD*%
G36*
X208928Y-282371D02*
X207743Y-282632D01*
X206551Y-282409D01*
X205539Y-281739D01*
X195654Y-271854D01*
X195590Y-271798D01*
X195577Y-271790D01*
X195456Y-271780D01*
X187953Y-271780D01*
X186809Y-271557D01*
X185797Y-270887D01*
X176604Y-261694D01*
X176540Y-261638D01*
X176527Y-261630D01*
X176406Y-261620D01*
X142233Y-261620D01*
X141089Y-261397D01*
X140077Y-260727D01*
X132154Y-252804D01*
X132090Y-252748D01*
X132077Y-252740D01*
X131956Y-252730D01*
X89005Y-252730D01*
X88920Y-252736D01*
X88905Y-252739D01*
X88812Y-252818D01*
X79633Y-261997D01*
X78666Y-262649D01*
X77478Y-262890D01*
X6343Y-262890D01*
X5199Y-262667D01*
X4187Y-261997D01*
X-3736Y-254074D01*
X-3800Y-254018D01*
X-3813Y-254010D01*
X-3934Y-254000D01*
X-54505Y-254000D01*
X-54590Y-254006D01*
X-54605Y-254009D01*
X-54698Y-254088D01*
X-61337Y-260727D01*
X-62304Y-261379D01*
X-63493Y-261620D01*
X-125738Y-261620D01*
X-126881Y-261397D01*
X-127893Y-260727D01*
X-134546Y-254074D01*
X-134610Y-254018D01*
X-134623Y-254010D01*
X-134744Y-254000D01*
X-182888Y-254000D01*
X-184031Y-253777D01*
X-185043Y-253107D01*
X-185797Y-252353D01*
X-186449Y-251386D01*
X-186690Y-250198D01*
X-186690Y-215893D01*
X-186467Y-214749D01*
X-185797Y-213737D01*
X-182503Y-210443D01*
X-181536Y-209791D01*
X-180348Y-209550D01*
X-135883Y-209550D01*
X-134739Y-209773D01*
X-133727Y-210443D01*
X-132973Y-211197D01*
X-132321Y-212164D01*
X-132080Y-213353D01*
X-132080Y-215795D01*
X-132074Y-215880D01*
X-132071Y-215895D01*
X-131992Y-215988D01*
X-123264Y-224716D01*
X-123200Y-224772D01*
X-123187Y-224780D01*
X-123066Y-224790D01*
X248188Y-224790D01*
X249690Y-225186D01*
X250605Y-225981D01*
X251138Y-227071D01*
X251204Y-228282D01*
X250791Y-229423D01*
X243582Y-241263D01*
X243401Y-241527D01*
X224813Y-265878D01*
X224606Y-266122D01*
X209910Y-281677D01*
X208928Y-282371D01*
G37*
G36*
X-105875Y-329860D02*
X-106172Y-329920D01*
X-141421Y-329920D01*
X-141526Y-329913D01*
X-148101Y-329001D01*
X-148303Y-328944D01*
X-154381Y-326277D01*
X-154508Y-326206D01*
X-179923Y-308677D01*
X-179987Y-308628D01*
X-203425Y-288531D01*
X-203483Y-288476D01*
X-224686Y-266033D01*
X-224738Y-265972D01*
X-236136Y-251040D01*
X-236227Y-250886D01*
X-236292Y-250590D01*
X-236236Y-250292D01*
X-236069Y-250039D01*
X-216123Y-230093D01*
X-215882Y-229930D01*
X-215584Y-229870D01*
X-192086Y-229870D01*
X-191800Y-229926D01*
X-191547Y-230093D01*
X-189453Y-232187D01*
X-189290Y-232428D01*
X-189230Y-232726D01*
X-189230Y-252642D01*
X-189205Y-252747D01*
X-189186Y-252774D01*
X-185482Y-256478D01*
X-185390Y-256535D01*
X-185358Y-256540D01*
X-137476Y-256540D01*
X-137190Y-256596D01*
X-136937Y-256763D01*
X-128332Y-265368D01*
X-128240Y-265425D01*
X-128208Y-265430D01*
X-93026Y-265430D01*
X-92740Y-265486D01*
X-92487Y-265653D01*
X-90393Y-267747D01*
X-90230Y-267988D01*
X-90170Y-268286D01*
X-90170Y-281624D01*
X-90226Y-281910D01*
X-90393Y-282163D01*
X-105348Y-297118D01*
X-105405Y-297210D01*
X-105410Y-297242D01*
X-105410Y-329158D01*
X-105461Y-329433D01*
X-105625Y-329688D01*
X-105875Y-329860D01*
G37*
G36*
X48755Y-329819D02*
X48260Y-329920D01*
X-58420Y-329920D01*
X-58878Y-329835D01*
X-59304Y-329562D01*
X-59589Y-329145D01*
X-59690Y-328650D01*
X-59690Y-263416D01*
X-59597Y-262939D01*
X-59318Y-262518D01*
X-53712Y-256912D01*
X-53309Y-256641D01*
X-52814Y-256540D01*
X-5606Y-256540D01*
X-5129Y-256633D01*
X-4708Y-256912D01*
X3746Y-265366D01*
X3819Y-265421D01*
X3890Y-265430D01*
X41384Y-265430D01*
X41861Y-265523D01*
X42282Y-265802D01*
X44078Y-267598D01*
X44349Y-268001D01*
X44450Y-268496D01*
X44450Y-275500D01*
X44463Y-275590D01*
X44507Y-275647D01*
X49158Y-280298D01*
X49429Y-280701D01*
X49530Y-281196D01*
X49530Y-328650D01*
X49445Y-329108D01*
X49172Y-329534D01*
X48755Y-329819D01*
G37*
G36*
X141840Y-329891D02*
X141421Y-329920D01*
X88138Y-329920D01*
X87039Y-329715D01*
X86017Y-329061D01*
X85331Y-328061D01*
X85090Y-326872D01*
X85090Y-261613D01*
X85313Y-260469D01*
X85983Y-259457D01*
X89277Y-256163D01*
X90244Y-255511D01*
X91433Y-255270D01*
X129548Y-255270D01*
X130691Y-255493D01*
X131703Y-256163D01*
X139626Y-264086D01*
X139690Y-264142D01*
X139703Y-264150D01*
X139824Y-264160D01*
X173998Y-264160D01*
X175141Y-264383D01*
X176153Y-265053D01*
X185346Y-274246D01*
X185410Y-274302D01*
X185423Y-274310D01*
X185544Y-274320D01*
X193048Y-274320D01*
X194191Y-274543D01*
X195203Y-275213D01*
X203811Y-283821D01*
X204407Y-284664D01*
X204701Y-285841D01*
X204512Y-287039D01*
X203871Y-288069D01*
X203568Y-288391D01*
X203336Y-288611D01*
X180080Y-308552D01*
X179826Y-308747D01*
X154608Y-326141D01*
X154102Y-326423D01*
X148599Y-328838D01*
X147793Y-329065D01*
X141840Y-329891D01*
G37*
G36*
X81775Y-329819D02*
X81280Y-329920D01*
X53340Y-329920D01*
X52882Y-329835D01*
X52456Y-329562D01*
X52171Y-329145D01*
X52070Y-328650D01*
X52070Y-279490D01*
X52057Y-279400D01*
X52013Y-279343D01*
X47362Y-274692D01*
X47091Y-274289D01*
X46990Y-273794D01*
X46990Y-262467D01*
X47027Y-262161D01*
X47244Y-261705D01*
X52016Y-255342D01*
X52134Y-255206D01*
X54238Y-253102D01*
X54641Y-252831D01*
X55136Y-252730D01*
X81280Y-252730D01*
X81738Y-252815D01*
X82164Y-253088D01*
X82449Y-253505D01*
X82550Y-254000D01*
X82550Y-328650D01*
X82465Y-329108D01*
X82192Y-329534D01*
X81775Y-329819D01*
G37*
G36*
X-64089Y-329679D02*
X-65278Y-329920D01*
X-99822Y-329920D01*
X-100921Y-329715D01*
X-101943Y-329061D01*
X-102629Y-328061D01*
X-102870Y-326872D01*
X-102870Y-299713D01*
X-102647Y-298569D01*
X-101977Y-297557D01*
X-87704Y-283284D01*
X-87648Y-283220D01*
X-87640Y-283207D01*
X-87630Y-283086D01*
X-87630Y-266805D01*
X-87636Y-266720D01*
X-87639Y-266705D01*
X-87718Y-266612D01*
X-95627Y-258703D01*
X-96279Y-257736D01*
X-96520Y-256548D01*
X-96520Y-252723D01*
X-96297Y-251579D01*
X-95627Y-250567D01*
X-94873Y-249813D01*
X-93906Y-249161D01*
X-92718Y-248920D01*
X-66033Y-248920D01*
X-64889Y-249143D01*
X-63877Y-249813D01*
X-63123Y-250567D01*
X-62471Y-251534D01*
X-62230Y-252723D01*
X-62230Y-326872D01*
X-62435Y-327971D01*
X-63089Y-328993D01*
X-64089Y-329679D01*
G37*
G36*
X54579Y-217069D02*
X54084Y-217170D01*
X13226Y-217170D01*
X12749Y-217077D01*
X12328Y-216798D01*
X10532Y-215002D01*
X10261Y-214599D01*
X10160Y-214104D01*
X10160Y-202456D01*
X10253Y-201979D01*
X10532Y-201558D01*
X12328Y-199762D01*
X12731Y-199491D01*
X13226Y-199390D01*
X29120Y-199390D01*
X29210Y-199377D01*
X29267Y-199333D01*
X32956Y-195644D01*
X33011Y-195571D01*
X33020Y-195500D01*
X33020Y-159276D01*
X33113Y-158799D01*
X33392Y-158378D01*
X35188Y-156582D01*
X35591Y-156311D01*
X36086Y-156210D01*
X54084Y-156210D01*
X54561Y-156303D01*
X54982Y-156582D01*
X56778Y-158378D01*
X57049Y-158781D01*
X57150Y-159276D01*
X57150Y-214104D01*
X57057Y-214581D01*
X56778Y-215002D01*
X54982Y-216798D01*
X54579Y-217069D01*
G37*
G36*
X-78771Y-217069D02*
X-79266Y-217170D01*
X-120124Y-217170D01*
X-120601Y-217077D01*
X-121022Y-216798D01*
X-124088Y-213732D01*
X-124359Y-213329D01*
X-124460Y-212834D01*
X-124460Y-202456D01*
X-124367Y-201979D01*
X-124088Y-201558D01*
X-122292Y-199762D01*
X-121889Y-199491D01*
X-121394Y-199390D01*
X-101690Y-199390D01*
X-101600Y-199377D01*
X-101543Y-199333D01*
X-97854Y-195644D01*
X-97799Y-195571D01*
X-97790Y-195500D01*
X-97790Y-156736D01*
X-97697Y-156259D01*
X-97418Y-155838D01*
X-95622Y-154042D01*
X-95219Y-153771D01*
X-94724Y-153670D01*
X-79266Y-153670D01*
X-78789Y-153763D01*
X-78368Y-154042D01*
X-76572Y-155838D01*
X-76301Y-156241D01*
X-76200Y-156736D01*
X-76200Y-214104D01*
X-76293Y-214581D01*
X-76572Y-215002D01*
X-78368Y-216798D01*
X-78771Y-217069D01*
G37*
G36*
X202611Y-215659D02*
X201422Y-215900D01*
X148583Y-215900D01*
X147439Y-215677D01*
X146427Y-215007D01*
X145673Y-214253D01*
X145021Y-213286D01*
X144780Y-212098D01*
X144780Y-201923D01*
X145003Y-200779D01*
X145673Y-199767D01*
X146427Y-199013D01*
X147394Y-198361D01*
X148583Y-198120D01*
X170075Y-198120D01*
X170160Y-198114D01*
X170175Y-198111D01*
X170268Y-198032D01*
X175186Y-193114D01*
X175242Y-193050D01*
X175250Y-193037D01*
X175260Y-192916D01*
X175260Y-163068D01*
X175465Y-161969D01*
X176119Y-160947D01*
X177119Y-160261D01*
X178308Y-160020D01*
X201422Y-160020D01*
X202521Y-160225D01*
X203543Y-160879D01*
X204229Y-161879D01*
X204470Y-163068D01*
X204470Y-212852D01*
X204265Y-213951D01*
X203611Y-214973D01*
X202611Y-215659D01*
G37*
G36*
X-1301Y-208179D02*
X-1796Y-208280D01*
X-36304Y-208280D01*
X-36781Y-208187D01*
X-37202Y-207908D01*
X-37728Y-207382D01*
X-37999Y-206979D01*
X-38100Y-206484D01*
X-38100Y-201186D01*
X-38007Y-200709D01*
X-37728Y-200288D01*
X-35932Y-198492D01*
X-35529Y-198221D01*
X-35034Y-198120D01*
X-29300Y-198120D01*
X-29210Y-198107D01*
X-29153Y-198063D01*
X-26734Y-195644D01*
X-26679Y-195571D01*
X-26670Y-195500D01*
X-26670Y-171976D01*
X-26577Y-171499D01*
X-26298Y-171078D01*
X-24502Y-169282D01*
X-24099Y-169011D01*
X-23604Y-168910D01*
X-1796Y-168910D01*
X-1319Y-169003D01*
X-898Y-169282D01*
X898Y-171078D01*
X1169Y-171481D01*
X1270Y-171976D01*
X1270Y-205214D01*
X1177Y-205691D01*
X898Y-206112D01*
X-898Y-207908D01*
X-1301Y-208179D01*
G37*
G36*
X-134651Y-206909D02*
X-135146Y-207010D01*
X-169654Y-207010D01*
X-170131Y-206917D01*
X-170552Y-206638D01*
X-172348Y-204842D01*
X-172619Y-204439D01*
X-172720Y-203944D01*
X-172720Y-199916D01*
X-172627Y-199439D01*
X-172348Y-199018D01*
X-169282Y-195952D01*
X-168879Y-195681D01*
X-168384Y-195580D01*
X-162650Y-195580D01*
X-162560Y-195567D01*
X-162503Y-195523D01*
X-158814Y-191834D01*
X-158759Y-191761D01*
X-158750Y-191690D01*
X-158750Y-171976D01*
X-158657Y-171499D01*
X-158378Y-171078D01*
X-155312Y-168012D01*
X-154909Y-167741D01*
X-154414Y-167640D01*
X-136416Y-167640D01*
X-135939Y-167733D01*
X-135518Y-168012D01*
X-132452Y-171078D01*
X-132181Y-171481D01*
X-132080Y-171976D01*
X-132080Y-203944D01*
X-132173Y-204421D01*
X-132452Y-204842D01*
X-134248Y-206638D01*
X-134651Y-206909D01*
G37*
G36*
X146855Y-222190D02*
X146558Y-222250D01*
X90486Y-222250D01*
X90200Y-222194D01*
X89947Y-222027D01*
X85313Y-217393D01*
X85150Y-217152D01*
X85090Y-216854D01*
X85090Y-208479D01*
X85146Y-208193D01*
X85313Y-207941D01*
X85316Y-207938D01*
X85316Y-203290D01*
X85372Y-203004D01*
X85539Y-202751D01*
X87407Y-200883D01*
X87648Y-200720D01*
X87946Y-200660D01*
X88584Y-200660D01*
X88870Y-200716D01*
X89123Y-200883D01*
X96458Y-208218D01*
X96550Y-208275D01*
X96582Y-208280D01*
X130722Y-208280D01*
X130827Y-208255D01*
X130854Y-208236D01*
X136937Y-202153D01*
X137178Y-201990D01*
X137476Y-201930D01*
X145962Y-201930D01*
X146067Y-201905D01*
X146113Y-201872D01*
X146534Y-201729D01*
X146833Y-201780D01*
X147088Y-201944D01*
X147260Y-202194D01*
X147320Y-202491D01*
X147320Y-221488D01*
X147269Y-221763D01*
X147105Y-222018D01*
X146855Y-222190D01*
G37*
G36*
X194236Y-96279D02*
X193048Y-96520D01*
X171443Y-96520D01*
X170299Y-96297D01*
X169287Y-95627D01*
X164723Y-91063D01*
X164071Y-90096D01*
X163830Y-88908D01*
X163830Y-66033D01*
X164053Y-64889D01*
X164723Y-63877D01*
X165477Y-63123D01*
X166444Y-62471D01*
X167633Y-62230D01*
X193048Y-62230D01*
X194191Y-62453D01*
X195203Y-63123D01*
X195957Y-63877D01*
X196609Y-64844D01*
X196850Y-66033D01*
X196850Y-92718D01*
X196627Y-93861D01*
X195957Y-94873D01*
X195203Y-95627D01*
X194236Y-96279D01*
G37*
G36*
X129466Y-205499D02*
X128278Y-205740D01*
X99053Y-205740D01*
X97909Y-205517D01*
X96897Y-204847D01*
X96143Y-204093D01*
X95491Y-203126D01*
X95250Y-201938D01*
X95250Y-198113D01*
X95473Y-196969D01*
X96143Y-195957D01*
X98167Y-193933D01*
X99134Y-193281D01*
X100323Y-193040D01*
X106575Y-193040D01*
X106660Y-193034D01*
X106675Y-193031D01*
X106768Y-192952D01*
X109146Y-190574D01*
X109202Y-190510D01*
X109210Y-190497D01*
X109220Y-190376D01*
X109220Y-166878D01*
X109425Y-165779D01*
X110079Y-164757D01*
X111079Y-164071D01*
X112268Y-163830D01*
X129032Y-163830D01*
X130131Y-164035D01*
X131153Y-164689D01*
X131839Y-165689D01*
X132080Y-166878D01*
X132080Y-201938D01*
X131857Y-203081D01*
X131187Y-204093D01*
X130433Y-204847D01*
X129466Y-205499D01*
G37*
G36*
X8872Y-222190D02*
X8574Y-222250D01*
X-44134Y-222250D01*
X-44420Y-222194D01*
X-44673Y-222027D01*
X-45497Y-221203D01*
X-45660Y-220962D01*
X-45720Y-220664D01*
X-45720Y-214861D01*
X-45592Y-214438D01*
X-41156Y-207783D01*
X-40830Y-207509D01*
X-40534Y-207444D01*
X-40236Y-207500D01*
X-39983Y-207667D01*
X-36892Y-210758D01*
X-36800Y-210815D01*
X-36768Y-210820D01*
X-88Y-210820D01*
X17Y-210795D01*
X44Y-210776D01*
X4857Y-205963D01*
X5098Y-205800D01*
X5396Y-205740D01*
X7304Y-205740D01*
X7590Y-205796D01*
X7843Y-205963D01*
X9937Y-208057D01*
X10100Y-208298D01*
X10160Y-208596D01*
X10160Y-220664D01*
X10104Y-220950D01*
X9937Y-221203D01*
X9113Y-222027D01*
X8872Y-222190D01*
G37*
G36*
X-85164Y-96279D02*
X-86353Y-96520D01*
X-106688Y-96520D01*
X-107831Y-96297D01*
X-108843Y-95627D01*
X-109597Y-94873D01*
X-110249Y-93906D01*
X-110490Y-92718D01*
X-110490Y-66033D01*
X-110267Y-64889D01*
X-109597Y-63877D01*
X-108843Y-63123D01*
X-107876Y-62471D01*
X-106688Y-62230D01*
X-91433Y-62230D01*
X-90289Y-62453D01*
X-89277Y-63123D01*
X-88523Y-63877D01*
X-87871Y-64844D01*
X-87630Y-66033D01*
X-87630Y-72285D01*
X-87624Y-72370D01*
X-87621Y-72385D01*
X-87542Y-72478D01*
X-86434Y-73586D01*
X-86370Y-73642D01*
X-86357Y-73650D01*
X-86236Y-73660D01*
X-85598Y-73660D01*
X-84499Y-73865D01*
X-83477Y-74519D01*
X-82791Y-75519D01*
X-82550Y-76708D01*
X-82550Y-92718D01*
X-82773Y-93861D01*
X-83443Y-94873D01*
X-84197Y-95627D01*
X-85164Y-96279D01*
G37*
G36*
X46916Y-102629D02*
X45728Y-102870D01*
X27933Y-102870D01*
X26789Y-102647D01*
X25777Y-101977D01*
X23753Y-99953D01*
X23101Y-98986D01*
X22860Y-97798D01*
X22860Y-76193D01*
X23083Y-75049D01*
X23753Y-74037D01*
X24507Y-73283D01*
X25474Y-72631D01*
X26663Y-72390D01*
X46998Y-72390D01*
X48141Y-72613D01*
X49153Y-73283D01*
X49907Y-74037D01*
X50559Y-75004D01*
X50800Y-76193D01*
X50800Y-97798D01*
X50577Y-98941D01*
X49907Y-99953D01*
X47883Y-101977D01*
X46916Y-102629D01*
G37*
D10*
X-14500Y-7500D03*
X-14500Y-2500D03*
X-14500Y2500D03*
X-14500Y7500D03*
D11*
X-7500Y14500D03*
X-2500Y14500D03*
X2500Y14500D03*
X7500Y14500D03*
D10*
X14500Y7500D03*
X14500Y2500D03*
X14500Y-2500D03*
X14500Y-7500D03*
D11*
X7500Y-14500D03*
X2500Y-14500D03*
X-2500Y-14500D03*
X-7500Y-14500D03*
D12*
X0Y0D03*
D13*
X10160Y-24364D03*
X10160Y-34056D03*
D14*
X-5080Y-34285D03*
X-5080Y-24135D03*
X25400Y8895D03*
X25400Y19045D03*
D15*
X-26675Y0D03*
X-36825Y0D03*
X-26675Y12700D03*
X-36825Y12700D03*
D14*
X-2540Y25405D03*
X-2540Y35555D03*
D15*
X-26675Y-12700D03*
X-36825Y-12700D03*
D16*
X28096Y190462D03*
X-32406Y190221D03*
D17*
X148499Y-296900D03*
X1270Y-298170D03*
X-146427Y-298115D03*
D18*
X-181000Y93574D02*
X-192380Y93574D01*
X-181000Y93574D02*
X-181000Y89306D01*
X-192380Y89306D01*
X-192380Y93574D01*
X-192380Y92009D02*
X-181000Y92009D01*
X-181000Y78334D02*
X-192380Y78334D01*
X-181000Y78334D02*
X-181000Y74066D01*
X-192380Y74066D01*
X-192380Y78334D01*
X-192380Y76769D02*
X-181000Y76769D01*
X-181000Y61824D02*
X-192380Y61824D01*
X-181000Y61824D02*
X-181000Y57556D01*
X-192380Y57556D01*
X-192380Y61824D01*
X-192380Y60259D02*
X-181000Y60259D01*
D19*
X-93980Y-157480D03*
X-80010Y-157480D03*
X-93980Y-168910D03*
X-80010Y-168910D03*
X-93980Y-182880D03*
X-80010Y-182880D03*
X-95250Y-198120D03*
X-80010Y-198120D03*
X-80010Y-213360D03*
X-95250Y-213360D03*
X-109220Y-213360D03*
X-109220Y-203200D03*
X-106680Y-66040D03*
X-95250Y-77470D03*
X-87630Y-91440D03*
X36830Y-160020D03*
X53340Y-160020D03*
X36830Y-172720D03*
X53340Y-172720D03*
X36830Y-186690D03*
X53340Y-186690D03*
X53340Y-213360D03*
X38100Y-213360D03*
X21590Y-213360D03*
X21590Y-203200D03*
X36830Y-200660D03*
X53340Y-200660D03*
X38100Y-80010D03*
X38100Y-88900D03*
X38100Y-99060D03*
X179070Y-163830D03*
X200660Y-163830D03*
X179070Y-179070D03*
X200660Y-179070D03*
X179070Y-194310D03*
X200660Y-194310D03*
X200660Y-212090D03*
X156210Y-201930D03*
X170180Y-201930D03*
X156210Y-212090D03*
X170180Y-212090D03*
X185420Y-212090D03*
X190500Y-201930D03*
X167640Y-66040D03*
X193040Y-66040D03*
X186690Y-92710D03*
X-150224Y-1270D03*
X-150224Y-11430D03*
X-6350Y140970D03*
X-6350Y152400D03*
X-6350Y165100D03*
X-82550Y137160D03*
X-69850Y95250D03*
X-73660Y67310D03*
X-11430Y35560D03*
D20*
X-11425Y35555D02*
X-2540Y35555D01*
X-11425Y35555D02*
X-11430Y35560D01*
D19*
X-45720Y-8890D03*
X-21590Y-31750D03*
X2540Y-34290D03*
D20*
X-36825Y0D02*
X-36825Y12700D01*
X-36825Y0D02*
X-36825Y-12700D01*
X-45715Y-8890D02*
X-45720Y-8890D01*
X-45715Y-8890D02*
X-36825Y0D01*
X-40635Y-8890D02*
X-45720Y-8890D01*
X-40635Y-8890D02*
X-36825Y-12700D01*
X-5080Y-34285D02*
X9931Y-34285D01*
X10160Y-34056D01*
X2774Y-34056D01*
X2540Y-34290D01*
X-5080Y-34285D02*
X-19055Y-34285D01*
X-21590Y-31750D01*
D19*
X-91222Y59908D03*
X-37035Y-21385D03*
D20*
X-36825Y-21175D02*
X-36825Y-12700D01*
X-36825Y-21175D02*
X-37035Y-21385D01*
D19*
X-266700Y29210D03*
X-255270Y19050D03*
X-193040Y-163830D03*
X-167640Y-163830D03*
X-193040Y-184150D03*
X-167640Y-184150D03*
X-193040Y-173990D03*
X-167640Y-173990D03*
X-180340Y-173990D03*
X-180340Y-184150D03*
X-193040Y-194310D03*
X-180340Y-194310D03*
X-114300Y-167640D03*
X-104140Y-167640D03*
X-113030Y-180340D03*
X-104140Y-180340D03*
X-113030Y-193040D03*
X-104140Y-193040D03*
X-73660Y-76200D03*
X-85090Y-57150D03*
X-33020Y-166370D03*
X-55880Y-166370D03*
X-55880Y-187960D03*
X-33020Y-187960D03*
X-44450Y-187960D03*
X-55880Y-176530D03*
X-33020Y-176530D03*
X-44450Y-176530D03*
X13970Y-170180D03*
X26670Y-170180D03*
X13970Y-181610D03*
X26670Y-181610D03*
X-45720Y-196624D03*
X-24130Y-81280D03*
X-11430Y-101600D03*
X60960Y-97790D03*
X82550Y-166370D03*
X102870Y-166370D03*
X102870Y-186690D03*
X82550Y-194310D03*
X82550Y-180340D03*
X102870Y-176530D03*
X92710Y-179070D03*
X92710Y-191770D03*
X168910Y-163830D03*
X168910Y-179070D03*
X167640Y-190500D03*
X149860Y-190500D03*
X149860Y-176530D03*
X60734Y-78740D03*
X155363Y-166793D03*
X123190Y-78740D03*
X-255270Y-207010D03*
X-236220Y-194310D03*
X-220980Y-134620D03*
X-247650Y-96520D03*
X-236220Y-167640D03*
X-246380Y-135890D03*
X-264160Y-176530D03*
X-290830Y-146050D03*
X-313690Y-120650D03*
X-298450Y-85090D03*
X-284480Y-39370D03*
X-260350Y-67310D03*
X-67310Y-269240D03*
X-82550Y-278130D03*
X-99060Y-325120D03*
X-99060Y-311150D03*
X-99060Y-299720D03*
X-67310Y-293370D03*
X-85090Y-292100D03*
X-67310Y-280670D03*
X72390Y-259080D03*
X77470Y-271780D03*
X77470Y-290830D03*
X57150Y-292100D03*
X198120Y-255270D03*
X199390Y-232410D03*
X217170Y-232410D03*
X215900Y-166370D03*
X215900Y-186690D03*
X215900Y-207010D03*
X209550Y-271780D03*
X232410Y-247650D03*
X247650Y-207010D03*
X259080Y-166370D03*
X294640Y-147320D03*
X312420Y-105410D03*
X279400Y-69850D03*
X270510Y-13970D03*
X161290Y-1270D03*
X223520Y-1270D03*
X193040Y-33020D03*
X236220Y-60960D03*
X237490Y-123190D03*
X266700Y54610D03*
X302260Y91440D03*
X297180Y143510D03*
X241300Y138430D03*
X199390Y102870D03*
X187960Y137160D03*
X124460Y172720D03*
X82550Y193040D03*
X-66040Y205740D03*
X-66040Y190500D03*
X-66040Y175260D03*
X-99060Y195580D03*
X-110490Y187960D03*
X-82550Y201930D03*
X-68580Y156210D03*
X-60960Y148590D03*
X-48260Y82550D03*
X0Y82550D03*
X36830Y49530D03*
X41910Y12700D03*
X20320Y30480D03*
X8890Y53340D03*
X-34290Y54610D03*
X-58420Y43180D03*
X-13970Y-22860D03*
X-7620Y-63500D03*
X-44450Y-57150D03*
X-97790Y-20320D03*
X-67310Y-44450D03*
X-105410Y-49530D03*
X-140970Y-67310D03*
X-142240Y-31750D03*
X-175260Y-33020D03*
X-168910Y-48260D03*
X-203200Y-78740D03*
X-217170Y-77470D03*
X-237490Y-55880D03*
X-259080Y-34290D03*
X-241300Y-2540D03*
X-209550Y-2540D03*
X-247650Y-20320D03*
X-222250Y-43180D03*
X81280Y130810D03*
X64770Y130810D03*
X95250Y120650D03*
X123190Y151130D03*
X123190Y139700D03*
X109220Y190500D03*
X133350Y-109220D03*
X132080Y-59690D03*
X100330Y-50800D03*
X125730Y-39370D03*
X91440Y-24130D03*
X118110Y-6350D03*
X92710Y12700D03*
X118110Y13970D03*
X54610Y81280D03*
X54610Y33020D03*
X27940Y81280D03*
X-259080Y146050D03*
X-295910Y144780D03*
X-311150Y110490D03*
X-283210Y74930D03*
X-222250Y118110D03*
X-251460Y102870D03*
X-257810Y72390D03*
X-233680Y149860D03*
X-220980Y-10160D03*
X-196850Y-27940D03*
X-129540Y100330D03*
X-129540Y86360D03*
X-256540Y27940D03*
D21*
X0Y0D02*
X2540Y2540D01*
X7500Y14500D02*
X20320Y27320D01*
X20320Y30480D01*
X14500Y2500D02*
X2580Y2500D01*
X2540Y2540D01*
D19*
X0Y0D03*
D22*
X7500Y10355D02*
X7500Y14500D01*
X7500Y10355D02*
X7388Y10243D01*
X7388Y7388D01*
X2540Y2540D01*
D19*
X13068Y-192138D03*
X25768Y-192138D03*
X58420Y-278277D03*
X104140Y-125730D03*
X113616Y-111760D03*
X104116Y-137160D03*
X86360Y-83820D03*
X86360Y-124460D03*
X123190Y-95250D03*
X-57150Y-71120D03*
X-59690Y-55880D03*
X-27940Y-114300D03*
X-38100Y-139700D03*
X-38100Y-127000D03*
X-222476Y-99060D03*
X-161290Y-113030D03*
X-171450Y-138430D03*
X-171450Y-125730D03*
X-219710Y-160020D03*
X-218440Y-198120D03*
X-196850Y-220980D03*
X-151130Y-101600D03*
X-123190Y-105410D03*
X-104140Y-105410D03*
X-139700Y-113030D03*
X-157480Y-74930D03*
X-130810Y-50800D03*
X-148590Y-50800D03*
X-102870Y-2540D03*
X-80010Y-29210D03*
X12700Y-104140D03*
X22860Y-57150D03*
X57150Y-54610D03*
X-25400Y-58420D03*
X-62230Y-248920D03*
X-60960Y-223520D03*
X-62230Y-153670D03*
X72390Y-218440D03*
X71120Y-238760D03*
X72390Y-149860D03*
X147320Y-40640D03*
X213360Y-85090D03*
X168910Y-43180D03*
X227330Y-33020D03*
X247650Y-90170D03*
X-73660Y-99060D03*
X41910Y-12700D03*
X43180Y-34290D03*
X71120Y-27940D03*
X71120Y-8890D03*
X57150Y-19050D03*
X17780Y116840D03*
X-21590Y116840D03*
X59690Y116840D03*
X91440Y90170D03*
X-59690Y123190D03*
X-41910Y100330D03*
X-5080Y100330D03*
X38100Y100330D03*
X72390Y71120D03*
X72390Y39370D03*
X72390Y11430D03*
X-195580Y109220D03*
X-191300Y145210D03*
X151130Y115570D03*
X224790Y22860D03*
X245110Y66040D03*
X151130Y68580D03*
X151130Y91440D03*
X151130Y44450D03*
X175260Y22860D03*
X200660Y24130D03*
X175260Y44450D03*
X175260Y67310D03*
X200660Y44450D03*
X200660Y66040D03*
X224790Y66040D03*
X224790Y44450D03*
X245110Y44450D03*
X19050Y-24130D03*
X-222250Y138430D03*
X-228600Y25400D03*
X-219505Y13765D03*
X151356Y22860D03*
X-126795Y-9955D03*
X-93904Y134696D03*
D20*
X10394Y-24130D02*
X10160Y-24364D01*
X10394Y-24130D02*
X19050Y-24130D01*
D21*
X7500Y-21236D02*
X7500Y-14500D01*
X7500Y-21236D02*
X10394Y-24130D01*
D19*
X95250Y-102870D03*
X-48260Y-104140D03*
X-181610Y-101600D03*
X-209550Y106680D03*
D21*
X-194310Y91440D01*
X-186690Y91440D01*
D19*
X-215900Y99060D03*
D21*
X-193040Y76200D01*
X-186690Y76200D01*
D19*
X92710Y105410D03*
X116840Y105410D03*
X88900Y-274320D03*
X101600Y-274320D03*
X115570Y-274320D03*
X128270Y-274320D03*
X88900Y-287020D03*
X88900Y-299720D03*
X102870Y-288290D03*
X118110Y-288290D03*
X127000Y-317500D03*
X134620Y-326138D03*
X172720Y-275590D03*
X195580Y-289560D03*
X180340Y-302260D03*
X181610Y-289560D03*
X150217Y-157261D03*
X187960Y-279656D03*
X109220Y-153670D03*
X80010Y-205740D03*
X113030Y-167640D03*
X128270Y-167640D03*
X113030Y-179070D03*
X100330Y-199390D03*
X114300Y-199390D03*
X127000Y-199390D03*
X128270Y-189230D03*
X113030Y-189230D03*
X129054Y-179070D03*
X120650Y-139700D03*
X67310Y-43180D03*
X-102870Y10160D03*
X-137862Y26798D03*
X76200Y-120650D03*
X-165100Y100330D03*
X-146050Y100330D03*
X-165100Y113894D03*
X-137160Y113894D03*
X-53088Y109220D03*
X-95360Y124338D03*
X-30480Y-154940D03*
X-53340Y-205740D03*
X-3810Y-172720D03*
X-3810Y-182880D03*
X-19050Y-182880D03*
X-19050Y-193040D03*
X-3810Y-193040D03*
X-3810Y-203200D03*
X-19050Y-203200D03*
X-33020Y-203200D03*
X-20320Y-144780D03*
X-191414Y-207010D03*
X-165100Y-154742D03*
X-153670Y-182880D03*
X-153670Y-193040D03*
X-153670Y-201930D03*
X-166370Y-201930D03*
X-136116Y-172720D03*
X-136116Y-182880D03*
X-136116Y-193040D03*
X-136116Y-203200D03*
X-152400Y-144780D03*
X-55880Y-280670D03*
X-55880Y-294640D03*
X-55880Y-309880D03*
X-55880Y-325120D03*
X-43180Y-276860D03*
X-21590Y-276860D03*
X45720Y-325120D03*
X45720Y-308610D03*
X45720Y-292100D03*
X21590Y-275590D03*
X39370Y-276860D03*
X31750Y-300990D03*
X22860Y-323850D03*
X-16510Y-325120D03*
X-34290Y-294640D03*
X8890Y-160714D03*
X-158750Y35560D03*
X-63500Y-121920D03*
X-96520Y-276860D03*
X-116840Y-276860D03*
X-113030Y-298450D03*
X-127000Y-325120D03*
X-179070Y-298450D03*
X-176530Y-278130D03*
X-201930Y-281940D03*
X-194310Y-266700D03*
X-122834Y-160020D03*
X-187960Y-287020D03*
X-110490Y-323850D03*
X-109220Y-311150D03*
X-102870Y-287020D03*
X-215900Y-234950D03*
X-231140Y-250190D03*
X-210820Y52070D03*
X-274320Y48260D03*
X-66040Y5080D03*
X-59690Y-10160D03*
X26670Y-12700D03*
D21*
X21470Y-7500D01*
X14500Y-7500D01*
D19*
X-52070Y29210D03*
X6350Y24130D03*
D21*
X2500Y20280D01*
X2500Y14500D01*
D19*
X-60249Y13292D03*
X-16510Y16510D03*
D21*
X-14500Y14500D01*
X-14500Y7500D01*
D19*
X-48260Y2540D03*
D21*
X-7500Y14500D02*
X-7500Y20518D01*
D19*
X-17780Y26444D03*
D21*
X-13426Y26444D01*
X-7500Y20518D01*
D19*
X-73660Y35560D03*
X-91440Y10160D03*
D21*
X-39370Y-36830D02*
X-17040Y-14500D01*
X-7500Y-14500D01*
D19*
X-60946Y-22846D03*
D21*
X-46961Y-36830D01*
X-39370Y-36830D01*
D19*
X-128322Y74930D03*
X-73660Y77470D03*
X31674Y-2464D03*
D21*
X31638Y-2500D01*
X14500Y-2500D01*
X14500Y7500D02*
X24005Y7500D01*
X25400Y8895D01*
X-2500Y-14500D02*
X-2500Y-21555D01*
X-5080Y-24135D01*
X-14500Y-2500D02*
X-24175Y-2500D01*
X-26675Y0D01*
X-19010Y2500D02*
X-14500Y2500D01*
X-19010Y2500D02*
X-26675Y10165D01*
X-26675Y12700D01*
X-2500Y14500D02*
X-2500Y25365D01*
X-2540Y25405D01*
X-14500Y-7500D02*
X-21475Y-7500D01*
X-26675Y-12700D01*
D19*
X-114300Y170180D03*
X-157198Y140984D03*
X-134620Y177800D03*
X-156408Y150072D03*
M02*
