G04 EAGLE Gerber RS-274X export*
G75*
%MOMM*%
%FSLAX34Y34*%
%LPD*%
%INCopper Layer 14*%
%IPPOS*%
%AMOC8*
5,1,8,0,0,1.08239X$1,22.5*%
G01*
G04 Define Apertures*
%ADD10C,3.556000*%
%ADD11C,0.756400*%
%ADD12C,0.254000*%
%ADD13C,0.508000*%
%ADD14C,0.304800*%
G36*
X-157970Y-148489D02*
X-158466Y-148590D01*
X-319339Y-148590D01*
X-319985Y-148413D01*
X-320360Y-148075D01*
X-324936Y-141879D01*
X-325089Y-141607D01*
X-330102Y-129391D01*
X-330184Y-129089D01*
X-332061Y-116019D01*
X-332067Y-115707D01*
X-330695Y-102574D01*
X-330624Y-102269D01*
X-326086Y-89869D01*
X-325943Y-89591D01*
X-318514Y-78676D01*
X-318308Y-78441D01*
X-308437Y-69670D01*
X-308314Y-69574D01*
X-307423Y-68960D01*
X-304127Y-66690D01*
X-297734Y-58783D01*
X-293850Y-49387D01*
X-293452Y-45586D01*
X-293321Y-44330D01*
X-293312Y-44259D01*
X-288014Y-11562D01*
X-287983Y-11422D01*
X-279037Y20471D01*
X-279016Y20540D01*
X-278762Y21281D01*
X-277289Y25583D01*
X-276988Y36240D01*
X-278623Y42075D01*
X-278669Y42368D01*
X-278589Y42867D01*
X-278320Y43294D01*
X-277905Y43584D01*
X-277411Y43688D01*
X-276914Y43591D01*
X-275375Y42954D01*
X-273265Y42954D01*
X-271314Y43762D01*
X-269822Y45254D01*
X-269014Y47205D01*
X-269014Y48006D01*
X-268929Y48464D01*
X-268656Y48890D01*
X-268239Y49175D01*
X-267744Y49276D01*
X-216056Y49276D01*
X-215579Y49183D01*
X-215158Y48904D01*
X-213826Y47572D01*
X-211876Y46764D01*
X-209765Y46764D01*
X-207814Y47572D01*
X-206322Y49064D01*
X-205514Y51015D01*
X-205514Y53126D01*
X-206322Y55076D01*
X-207814Y56568D01*
X-209765Y57376D01*
X-211876Y57376D01*
X-213826Y56568D01*
X-215158Y55236D01*
X-215561Y54965D01*
X-216056Y54864D01*
X-271667Y54864D01*
X-272593Y53938D01*
X-272996Y53667D01*
X-273491Y53566D01*
X-275376Y53566D01*
X-277326Y52758D01*
X-278818Y51266D01*
X-279504Y49609D01*
X-279954Y49052D01*
X-280418Y48852D01*
X-280923Y48849D01*
X-281390Y49043D01*
X-281744Y49405D01*
X-285662Y55452D01*
X-293855Y62274D01*
X-298181Y64066D01*
X-298319Y64133D01*
X-309584Y70486D01*
X-309831Y70668D01*
X-319248Y79533D01*
X-319444Y79768D01*
X-326466Y90629D01*
X-326601Y90905D01*
X-330819Y103131D01*
X-330884Y103430D01*
X-332054Y116311D01*
X-332045Y116617D01*
X-330099Y129403D01*
X-330017Y129698D01*
X-325067Y141647D01*
X-324917Y141914D01*
X-317252Y152331D01*
X-317042Y152554D01*
X-307106Y160834D01*
X-306849Y161000D01*
X-295221Y166662D01*
X-294931Y166762D01*
X-282286Y169477D01*
X-281981Y169504D01*
X-269053Y169114D01*
X-268750Y169068D01*
X-256292Y165595D01*
X-256147Y165545D01*
X-219076Y150189D01*
X-215128Y148554D01*
X-205788Y147371D01*
X-197750Y148511D01*
X-197123Y148442D01*
X-196695Y148173D01*
X-196406Y147758D01*
X-196301Y147264D01*
X-196398Y146768D01*
X-196606Y146265D01*
X-196606Y144381D01*
X-196699Y143904D01*
X-196978Y143483D01*
X-198374Y142087D01*
X-198374Y114456D01*
X-198467Y113979D01*
X-198746Y113558D01*
X-200078Y112226D01*
X-200886Y110276D01*
X-200886Y108165D01*
X-200078Y106214D01*
X-198586Y104722D01*
X-196636Y103914D01*
X-194525Y103914D01*
X-192574Y104722D01*
X-191082Y106214D01*
X-190274Y108165D01*
X-190274Y110276D01*
X-191082Y112226D01*
X-192414Y113558D01*
X-192685Y113961D01*
X-192786Y114456D01*
X-192786Y138634D01*
X-192701Y139091D01*
X-192428Y139517D01*
X-192011Y139803D01*
X-191516Y139904D01*
X-190245Y139904D01*
X-188295Y140711D01*
X-186802Y142204D01*
X-185994Y144154D01*
X-185994Y146265D01*
X-186802Y148215D01*
X-188295Y149708D01*
X-188492Y149790D01*
X-188854Y150017D01*
X-189155Y150423D01*
X-189275Y150914D01*
X-189194Y151412D01*
X-188924Y151840D01*
X-188509Y152129D01*
X-187825Y152425D01*
X-184421Y155145D01*
X-184148Y155364D01*
X-184091Y155407D01*
X-158554Y173567D01*
X-158332Y173693D01*
X-157838Y173802D01*
X-157341Y173709D01*
X-156920Y173430D01*
X-150486Y166996D01*
X-150215Y166593D01*
X-150114Y166098D01*
X-150114Y154348D01*
X-150192Y153909D01*
X-150458Y153479D01*
X-150870Y153186D01*
X-151364Y153078D01*
X-151861Y153171D01*
X-152282Y153450D01*
X-153402Y154570D01*
X-155353Y155378D01*
X-157464Y155378D01*
X-159414Y154570D01*
X-160906Y153078D01*
X-161714Y151127D01*
X-161714Y149016D01*
X-160906Y147066D01*
X-160661Y146821D01*
X-160397Y146437D01*
X-160289Y145943D01*
X-160382Y145446D01*
X-160661Y145025D01*
X-161696Y143990D01*
X-162504Y142039D01*
X-162504Y139928D01*
X-161696Y137978D01*
X-160203Y136486D01*
X-158253Y135678D01*
X-156142Y135678D01*
X-154192Y136486D01*
X-152575Y138103D01*
X-152512Y138199D01*
X-152095Y138485D01*
X-151599Y138586D01*
X-145753Y138586D01*
X-136906Y147433D01*
X-136906Y165132D01*
X-136869Y165438D01*
X-136652Y165894D01*
X-136274Y166230D01*
X-136037Y166310D01*
X-136042Y166321D01*
X-135904Y166375D01*
X-135826Y166434D01*
X-135246Y167014D01*
X-134843Y167285D01*
X-134348Y167386D01*
X-119536Y167386D01*
X-119059Y167293D01*
X-118638Y167014D01*
X-117306Y165682D01*
X-115356Y164874D01*
X-113245Y164874D01*
X-111294Y165682D01*
X-109802Y167174D01*
X-108994Y169125D01*
X-108994Y171236D01*
X-109802Y173186D01*
X-111294Y174678D01*
X-113245Y175486D01*
X-115356Y175486D01*
X-117306Y174678D01*
X-118638Y173346D01*
X-119041Y173075D01*
X-119536Y172974D01*
X-128975Y172974D01*
X-129423Y173056D01*
X-129851Y173325D01*
X-130141Y173739D01*
X-130245Y174234D01*
X-130148Y174730D01*
X-129314Y176745D01*
X-129314Y178856D01*
X-130122Y180806D01*
X-131708Y182392D01*
X-131979Y182795D01*
X-132080Y183290D01*
X-132080Y184070D01*
X-132089Y184141D01*
X-132144Y184214D01*
X-133655Y185725D01*
X-133848Y185973D01*
X-134015Y186450D01*
X-133983Y186954D01*
X-133757Y187406D01*
X-133372Y187734D01*
X-128231Y190582D01*
X-128102Y190644D01*
X-97635Y203288D01*
X-97500Y203335D01*
X-65807Y212482D01*
X-65667Y212514D01*
X-33148Y218049D01*
X-33006Y218065D01*
X-71Y219918D01*
X71Y219918D01*
X33006Y218065D01*
X33148Y218049D01*
X65667Y212514D01*
X65807Y212482D01*
X97500Y203335D01*
X97635Y203288D01*
X128102Y190644D01*
X128231Y190582D01*
X157088Y174600D01*
X157208Y174524D01*
X184091Y155407D01*
X184148Y155364D01*
X184421Y155145D01*
X187824Y152425D01*
X196467Y148693D01*
X205788Y147371D01*
X215128Y148554D01*
X219076Y150189D01*
X256147Y165545D01*
X256292Y165595D01*
X268750Y169068D01*
X269053Y169114D01*
X281981Y169504D01*
X282286Y169477D01*
X294931Y166762D01*
X295221Y166662D01*
X306849Y161000D01*
X307106Y160834D01*
X317042Y152554D01*
X317252Y152331D01*
X324917Y141914D01*
X325067Y141647D01*
X330017Y129698D01*
X330099Y129403D01*
X332045Y116617D01*
X332054Y116311D01*
X330884Y103430D01*
X330819Y103131D01*
X326601Y90905D01*
X326466Y90629D01*
X319444Y79768D01*
X319248Y79533D01*
X309831Y70668D01*
X309584Y70486D01*
X298319Y64133D01*
X298181Y64066D01*
X293855Y62274D01*
X285662Y55452D01*
X279865Y46505D01*
X276988Y36240D01*
X277289Y25583D01*
X278762Y21281D01*
X279016Y20540D01*
X279037Y20471D01*
X287983Y-11422D01*
X288014Y-11562D01*
X293312Y-44259D01*
X293321Y-44330D01*
X293452Y-45586D01*
X293850Y-49387D01*
X297734Y-58783D01*
X304127Y-66690D01*
X307423Y-68960D01*
X308314Y-69574D01*
X308437Y-69670D01*
X318308Y-78441D01*
X318514Y-78676D01*
X325943Y-89591D01*
X326086Y-89869D01*
X330624Y-102269D01*
X330695Y-102574D01*
X332067Y-115707D01*
X332061Y-116019D01*
X330184Y-129089D01*
X330102Y-129391D01*
X325089Y-141607D01*
X324936Y-141879D01*
X320360Y-148075D01*
X319834Y-148489D01*
X319339Y-148590D01*
X126768Y-148590D01*
X126310Y-148505D01*
X125884Y-148232D01*
X125599Y-147815D01*
X125498Y-147320D01*
X125498Y-142114D01*
X125595Y-141628D01*
X125956Y-140755D01*
X125956Y-138645D01*
X125148Y-136694D01*
X123656Y-135202D01*
X121706Y-134394D01*
X119595Y-134394D01*
X117644Y-135202D01*
X116152Y-136694D01*
X115344Y-138645D01*
X115344Y-140756D01*
X116152Y-142706D01*
X116998Y-143552D01*
X117269Y-143955D01*
X117370Y-144450D01*
X117370Y-147320D01*
X117285Y-147778D01*
X117012Y-148204D01*
X116595Y-148489D01*
X116100Y-148590D01*
X111074Y-148590D01*
X110588Y-148493D01*
X110275Y-148364D01*
X108165Y-148364D01*
X107852Y-148493D01*
X107366Y-148590D01*
X-12446Y-148590D01*
X-12904Y-148505D01*
X-13330Y-148232D01*
X-13615Y-147815D01*
X-13716Y-147320D01*
X-13716Y-145637D01*
X-14642Y-144711D01*
X-14913Y-144308D01*
X-15014Y-143813D01*
X-15014Y-143725D01*
X-15822Y-141774D01*
X-17314Y-140282D01*
X-19265Y-139474D01*
X-21376Y-139474D01*
X-23326Y-140282D01*
X-24818Y-141774D01*
X-25626Y-143725D01*
X-25626Y-145835D01*
X-25212Y-146834D01*
X-25116Y-147280D01*
X-25201Y-147778D01*
X-25474Y-148204D01*
X-25890Y-148489D01*
X-26386Y-148590D01*
X-145796Y-148590D01*
X-146254Y-148505D01*
X-146680Y-148232D01*
X-146965Y-147815D01*
X-147066Y-147320D01*
X-147066Y-143950D01*
X-147094Y-143813D01*
X-147094Y-143725D01*
X-147902Y-141774D01*
X-149394Y-140282D01*
X-151345Y-139474D01*
X-153456Y-139474D01*
X-155406Y-140282D01*
X-156898Y-141774D01*
X-157706Y-143725D01*
X-157706Y-145835D01*
X-157292Y-146834D01*
X-157196Y-147280D01*
X-157281Y-147778D01*
X-157554Y-148204D01*
X-157970Y-148489D01*
G37*
%LPC*%
G36*
X24256Y171158D02*
X31936Y171158D01*
X39031Y174097D01*
X44461Y179527D01*
X47400Y186622D01*
X47400Y194302D01*
X44461Y201397D01*
X39031Y206827D01*
X31936Y209766D01*
X24256Y209766D01*
X17161Y206827D01*
X11731Y201397D01*
X8792Y194302D01*
X8792Y186622D01*
X11731Y179527D01*
X17161Y174097D01*
X24256Y171158D01*
G37*
G36*
X-223306Y133124D02*
X-221195Y133124D01*
X-219244Y133932D01*
X-217752Y135424D01*
X-216944Y137375D01*
X-216944Y139486D01*
X-217752Y141436D01*
X-219244Y142928D01*
X-221195Y143736D01*
X-223306Y143736D01*
X-225256Y142928D01*
X-226748Y141436D01*
X-227556Y139486D01*
X-227556Y137375D01*
X-226748Y135424D01*
X-225256Y133932D01*
X-223306Y133124D01*
G37*
G36*
X-54144Y103914D02*
X-52033Y103914D01*
X-50082Y104722D01*
X-48590Y106214D01*
X-47782Y108165D01*
X-47782Y110276D01*
X-48590Y112226D01*
X-50082Y113718D01*
X-52033Y114526D01*
X-54144Y114526D01*
X-56205Y113672D01*
X-56381Y113551D01*
X-56875Y113443D01*
X-57372Y113535D01*
X-57793Y113815D01*
X-71111Y127132D01*
X-90124Y127132D01*
X-90601Y127225D01*
X-91022Y127504D01*
X-91547Y128029D01*
X-91806Y128404D01*
X-91918Y128896D01*
X-91830Y129394D01*
X-91554Y129818D01*
X-91135Y130100D01*
X-90898Y130198D01*
X-89406Y131691D01*
X-88598Y133641D01*
X-88598Y135752D01*
X-89406Y137702D01*
X-90898Y139195D01*
X-92848Y140002D01*
X-94959Y140002D01*
X-96909Y139195D01*
X-98402Y137702D01*
X-99210Y135752D01*
X-99210Y133641D01*
X-98402Y131691D01*
X-97717Y131006D01*
X-97458Y130631D01*
X-97346Y130138D01*
X-97434Y129641D01*
X-97710Y129217D01*
X-98129Y128934D01*
X-98366Y128836D01*
X-99858Y127344D01*
X-100666Y125394D01*
X-100666Y123283D01*
X-99858Y121333D01*
X-98366Y119840D01*
X-96416Y119032D01*
X-94305Y119032D01*
X-92355Y119840D01*
X-91022Y121172D01*
X-90620Y121444D01*
X-90124Y121544D01*
X-73952Y121544D01*
X-73475Y121451D01*
X-73054Y121172D01*
X-58303Y106422D01*
X-57847Y106333D01*
X-57426Y106054D01*
X-56094Y104722D01*
X-54144Y103914D01*
G37*
G36*
X273814Y97963D02*
X280514Y97963D01*
X286704Y100527D01*
X291442Y105265D01*
X294006Y111455D01*
X294006Y118155D01*
X291442Y124345D01*
X286704Y129083D01*
X280514Y131647D01*
X273814Y131647D01*
X267624Y129083D01*
X262886Y124345D01*
X260322Y118155D01*
X260322Y111455D01*
X262886Y105265D01*
X267624Y100527D01*
X273814Y97963D01*
G37*
G36*
X-280514Y97963D02*
X-273814Y97963D01*
X-267624Y100527D01*
X-262886Y105265D01*
X-260322Y111455D01*
X-260322Y118155D01*
X-262886Y124345D01*
X-267624Y129083D01*
X-273814Y131647D01*
X-280514Y131647D01*
X-286704Y129083D01*
X-291442Y124345D01*
X-294006Y118155D01*
X-294006Y111455D01*
X-291442Y105265D01*
X-286704Y100527D01*
X-280514Y97963D01*
G37*
G36*
X150075Y110264D02*
X152186Y110264D01*
X154136Y111072D01*
X155628Y112564D01*
X156436Y114515D01*
X156436Y116626D01*
X155628Y118576D01*
X154136Y120068D01*
X152186Y120876D01*
X150075Y120876D01*
X148124Y120068D01*
X146632Y118576D01*
X145824Y116626D01*
X145824Y114515D01*
X146632Y112564D01*
X148124Y111072D01*
X150075Y110264D01*
G37*
G36*
X-166156Y108588D02*
X-164045Y108588D01*
X-162094Y109396D01*
X-160762Y110728D01*
X-160359Y110999D01*
X-159864Y111100D01*
X-142396Y111100D01*
X-141919Y111007D01*
X-141498Y110728D01*
X-140166Y109396D01*
X-138216Y108588D01*
X-136105Y108588D01*
X-134154Y109396D01*
X-132662Y110888D01*
X-131854Y112839D01*
X-131854Y114950D01*
X-132662Y116900D01*
X-134154Y118392D01*
X-136105Y119200D01*
X-138216Y119200D01*
X-140166Y118392D01*
X-141498Y117060D01*
X-141901Y116789D01*
X-142396Y116688D01*
X-159864Y116688D01*
X-160341Y116781D01*
X-160762Y117060D01*
X-162094Y118392D01*
X-164045Y119200D01*
X-166156Y119200D01*
X-168106Y118392D01*
X-169598Y116900D01*
X-170406Y114950D01*
X-170406Y112839D01*
X-169598Y110888D01*
X-168106Y109396D01*
X-166156Y108588D01*
G37*
G36*
X-216956Y93754D02*
X-214845Y93754D01*
X-212894Y94562D01*
X-211402Y96054D01*
X-210594Y98005D01*
X-210594Y100104D01*
X-210509Y100562D01*
X-210236Y100988D01*
X-209819Y101273D01*
X-209324Y101374D01*
X-208495Y101374D01*
X-206544Y102182D01*
X-205052Y103674D01*
X-204244Y105625D01*
X-204244Y107736D01*
X-205052Y109686D01*
X-206544Y111178D01*
X-208495Y111986D01*
X-210606Y111986D01*
X-212556Y111178D01*
X-214048Y109686D01*
X-214856Y107736D01*
X-214856Y105636D01*
X-214941Y105178D01*
X-215214Y104752D01*
X-215631Y104467D01*
X-216126Y104366D01*
X-216956Y104366D01*
X-218906Y103558D01*
X-220398Y102066D01*
X-221206Y100116D01*
X-221206Y98005D01*
X-220398Y96054D01*
X-218906Y94562D01*
X-216956Y93754D01*
G37*
G36*
X91655Y100104D02*
X93766Y100104D01*
X95716Y100912D01*
X97048Y102244D01*
X97451Y102515D01*
X97946Y102616D01*
X111604Y102616D01*
X112081Y102523D01*
X112502Y102244D01*
X113834Y100912D01*
X115785Y100104D01*
X117896Y100104D01*
X119846Y100912D01*
X121338Y102404D01*
X122146Y104355D01*
X122146Y106466D01*
X121338Y108416D01*
X119846Y109908D01*
X117896Y110716D01*
X115785Y110716D01*
X113834Y109908D01*
X112502Y108576D01*
X112099Y108305D01*
X111604Y108204D01*
X97946Y108204D01*
X97469Y108297D01*
X97048Y108576D01*
X95716Y109908D01*
X93766Y110716D01*
X91655Y110716D01*
X89704Y109908D01*
X88212Y108416D01*
X87404Y106466D01*
X87404Y104355D01*
X88212Y102404D01*
X89704Y100912D01*
X91655Y100104D01*
G37*
G36*
X-166156Y95024D02*
X-164045Y95024D01*
X-162094Y95832D01*
X-160762Y97164D01*
X-160359Y97435D01*
X-159864Y97536D01*
X-151286Y97536D01*
X-150809Y97443D01*
X-150388Y97164D01*
X-149056Y95832D01*
X-147106Y95024D01*
X-144995Y95024D01*
X-143044Y95832D01*
X-141552Y97324D01*
X-140744Y99275D01*
X-140744Y101386D01*
X-141552Y103336D01*
X-143044Y104828D01*
X-144995Y105636D01*
X-147106Y105636D01*
X-149056Y104828D01*
X-150388Y103496D01*
X-150791Y103225D01*
X-151286Y103124D01*
X-159864Y103124D01*
X-160341Y103217D01*
X-160762Y103496D01*
X-162094Y104828D01*
X-164045Y105636D01*
X-166156Y105636D01*
X-168106Y104828D01*
X-169598Y103336D01*
X-170406Y101386D01*
X-170406Y99275D01*
X-169598Y97324D01*
X-168106Y95832D01*
X-166156Y95024D01*
G37*
G36*
X150075Y86134D02*
X152186Y86134D01*
X154136Y86942D01*
X155628Y88434D01*
X156436Y90385D01*
X156436Y92496D01*
X155628Y94446D01*
X154136Y95938D01*
X152186Y96746D01*
X150075Y96746D01*
X148124Y95938D01*
X146632Y94446D01*
X145824Y92496D01*
X145824Y90385D01*
X146632Y88434D01*
X148124Y86942D01*
X150075Y86134D01*
G37*
G36*
X-129378Y69624D02*
X-127267Y69624D01*
X-125316Y70432D01*
X-123824Y71924D01*
X-123009Y73892D01*
X-122748Y74290D01*
X-122331Y74575D01*
X-121835Y74676D01*
X-78896Y74676D01*
X-78419Y74583D01*
X-77998Y74304D01*
X-76666Y72972D01*
X-74716Y72164D01*
X-72605Y72164D01*
X-70654Y72972D01*
X-69162Y74464D01*
X-68354Y76415D01*
X-68354Y78526D01*
X-69162Y80476D01*
X-70654Y81968D01*
X-72605Y82776D01*
X-74716Y82776D01*
X-76666Y81968D01*
X-77998Y80636D01*
X-78401Y80365D01*
X-78896Y80264D01*
X-127356Y80264D01*
X-127493Y80236D01*
X-129378Y80236D01*
X-131328Y79428D01*
X-132820Y77936D01*
X-133628Y75986D01*
X-133628Y73875D01*
X-132820Y71924D01*
X-131328Y70432D01*
X-129378Y69624D01*
G37*
G36*
X150075Y63274D02*
X152186Y63274D01*
X154136Y64082D01*
X155628Y65574D01*
X156436Y67525D01*
X156436Y69636D01*
X155628Y71586D01*
X154136Y73078D01*
X152186Y73886D01*
X150075Y73886D01*
X148124Y73078D01*
X146632Y71586D01*
X145824Y69636D01*
X145824Y67525D01*
X146632Y65574D01*
X148124Y64082D01*
X150075Y63274D01*
G37*
G36*
X174205Y62004D02*
X176316Y62004D01*
X178266Y62812D01*
X179758Y64304D01*
X180566Y66255D01*
X180566Y68366D01*
X179758Y70316D01*
X178266Y71808D01*
X176316Y72616D01*
X174205Y72616D01*
X172254Y71808D01*
X170762Y70316D01*
X169954Y68366D01*
X169954Y66255D01*
X170762Y64304D01*
X172254Y62812D01*
X174205Y62004D01*
G37*
G36*
X223735Y60734D02*
X225846Y60734D01*
X227796Y61542D01*
X229288Y63034D01*
X230096Y64985D01*
X230096Y67096D01*
X229288Y69046D01*
X227796Y70538D01*
X225846Y71346D01*
X223735Y71346D01*
X221784Y70538D01*
X220292Y69046D01*
X219484Y67096D01*
X219484Y64985D01*
X220292Y63034D01*
X221784Y61542D01*
X223735Y60734D01*
G37*
G36*
X199605Y60734D02*
X201716Y60734D01*
X203666Y61542D01*
X205158Y63034D01*
X205966Y64985D01*
X205966Y67096D01*
X205158Y69046D01*
X203666Y70538D01*
X201716Y71346D01*
X199605Y71346D01*
X197654Y70538D01*
X196162Y69046D01*
X195354Y67096D01*
X195354Y64985D01*
X196162Y63034D01*
X197654Y61542D01*
X199605Y60734D01*
G37*
G36*
X244055Y60734D02*
X246166Y60734D01*
X248116Y61542D01*
X249608Y63034D01*
X250416Y64985D01*
X250416Y67096D01*
X249608Y69046D01*
X248116Y70538D01*
X246166Y71346D01*
X244055Y71346D01*
X242104Y70538D01*
X240612Y69046D01*
X239804Y67096D01*
X239804Y64985D01*
X240612Y63034D01*
X242104Y61542D01*
X244055Y60734D01*
G37*
G36*
X199605Y39144D02*
X201716Y39144D01*
X203666Y39952D01*
X205158Y41444D01*
X205966Y43395D01*
X205966Y45506D01*
X205158Y47456D01*
X203666Y48948D01*
X201716Y49756D01*
X199605Y49756D01*
X197654Y48948D01*
X196162Y47456D01*
X195354Y45506D01*
X195354Y43395D01*
X196162Y41444D01*
X197654Y39952D01*
X199605Y39144D01*
G37*
G36*
X174205Y39144D02*
X176316Y39144D01*
X178266Y39952D01*
X179758Y41444D01*
X180566Y43395D01*
X180566Y45506D01*
X179758Y47456D01*
X178266Y48948D01*
X176316Y49756D01*
X174205Y49756D01*
X172254Y48948D01*
X170762Y47456D01*
X169954Y45506D01*
X169954Y43395D01*
X170762Y41444D01*
X172254Y39952D01*
X174205Y39144D01*
G37*
G36*
X244055Y39144D02*
X246166Y39144D01*
X248116Y39952D01*
X249608Y41444D01*
X250416Y43395D01*
X250416Y45506D01*
X249608Y47456D01*
X248116Y48948D01*
X246166Y49756D01*
X244055Y49756D01*
X242104Y48948D01*
X240612Y47456D01*
X239804Y45506D01*
X239804Y43395D01*
X240612Y41444D01*
X242104Y39952D01*
X244055Y39144D01*
G37*
G36*
X223735Y39144D02*
X225846Y39144D01*
X227796Y39952D01*
X229288Y41444D01*
X230096Y43395D01*
X230096Y45506D01*
X229288Y47456D01*
X227796Y48948D01*
X225846Y49756D01*
X223735Y49756D01*
X221784Y48948D01*
X220292Y47456D01*
X219484Y45506D01*
X219484Y43395D01*
X220292Y41444D01*
X221784Y39952D01*
X223735Y39144D01*
G37*
G36*
X150075Y39144D02*
X152186Y39144D01*
X154136Y39952D01*
X155628Y41444D01*
X156436Y43395D01*
X156436Y45506D01*
X155628Y47456D01*
X154136Y48948D01*
X152186Y49756D01*
X150075Y49756D01*
X148124Y48948D01*
X146632Y47456D01*
X145824Y45506D01*
X145824Y43395D01*
X146632Y41444D01*
X148124Y39952D01*
X150075Y39144D01*
G37*
G36*
X-103926Y4854D02*
X-101815Y4854D01*
X-99864Y5662D01*
X-98372Y7154D01*
X-98328Y7259D01*
X-98088Y7635D01*
X-97678Y7931D01*
X-97185Y8043D01*
X-96688Y7954D01*
X-96264Y7678D01*
X-95982Y7259D01*
X-95938Y7154D01*
X-94446Y5662D01*
X-92496Y4854D01*
X-90385Y4854D01*
X-88434Y5662D01*
X-86942Y7154D01*
X-86134Y9105D01*
X-86134Y10989D01*
X-86041Y11465D01*
X-85762Y11887D01*
X-68326Y29323D01*
X-68326Y34594D01*
X-68354Y34731D01*
X-68354Y36616D01*
X-69162Y38566D01*
X-70654Y40058D01*
X-72605Y40866D01*
X-74716Y40866D01*
X-76666Y40058D01*
X-78158Y38566D01*
X-78966Y36616D01*
X-78966Y34505D01*
X-78158Y32554D01*
X-76524Y30920D01*
X-76500Y30905D01*
X-76208Y30492D01*
X-76099Y29999D01*
X-76192Y29502D01*
X-76471Y29080D01*
X-89713Y15838D01*
X-90116Y15567D01*
X-90611Y15466D01*
X-92496Y15466D01*
X-94446Y14658D01*
X-95938Y13166D01*
X-95982Y13061D01*
X-96222Y12685D01*
X-96632Y12390D01*
X-97125Y12277D01*
X-97622Y12366D01*
X-98046Y12642D01*
X-98328Y13061D01*
X-98372Y13166D01*
X-99864Y14658D01*
X-101815Y15466D01*
X-103926Y15466D01*
X-105876Y14658D01*
X-107208Y13326D01*
X-107611Y13055D01*
X-108106Y12954D01*
X-118561Y12954D01*
X-119037Y13047D01*
X-119459Y13326D01*
X-132184Y26052D01*
X-132456Y26454D01*
X-132556Y26950D01*
X-132556Y27853D01*
X-133364Y29803D01*
X-134857Y31296D01*
X-136807Y32104D01*
X-138918Y32104D01*
X-140868Y31296D01*
X-142361Y29803D01*
X-143168Y27853D01*
X-143168Y25742D01*
X-142361Y23792D01*
X-140868Y22299D01*
X-138918Y21492D01*
X-136807Y21492D01*
X-136686Y21542D01*
X-136220Y21638D01*
X-135723Y21546D01*
X-135302Y21266D01*
X-121401Y7366D01*
X-108106Y7366D01*
X-107629Y7273D01*
X-107208Y6994D01*
X-105876Y5662D01*
X-103926Y4854D01*
G37*
G36*
X-64556Y-127226D02*
X-62445Y-127226D01*
X-60494Y-126418D01*
X-59002Y-124926D01*
X-58194Y-122976D01*
X-58194Y-120865D01*
X-59002Y-118914D01*
X-60334Y-117582D01*
X-60605Y-117179D01*
X-60706Y-116684D01*
X-60706Y-72842D01*
X-60831Y-72656D01*
X-60932Y-72161D01*
X-60932Y-68057D01*
X-93457Y-35532D01*
X-145411Y-35532D01*
X-145887Y-35439D01*
X-146309Y-35160D01*
X-164474Y-16995D01*
X-164745Y-16592D01*
X-164846Y-16097D01*
X-164846Y24987D01*
X-164753Y25463D01*
X-164474Y25885D01*
X-160477Y29882D01*
X-160074Y30153D01*
X-159579Y30254D01*
X-157695Y30254D01*
X-155744Y31062D01*
X-154252Y32554D01*
X-153444Y34505D01*
X-153444Y36616D01*
X-154252Y38566D01*
X-155744Y40058D01*
X-157695Y40866D01*
X-159806Y40866D01*
X-161756Y40058D01*
X-163248Y38566D01*
X-164056Y36616D01*
X-164056Y34731D01*
X-164149Y34255D01*
X-164428Y33833D01*
X-170434Y27827D01*
X-170434Y-18937D01*
X-148251Y-41120D01*
X-96298Y-41120D01*
X-95821Y-41213D01*
X-95399Y-41492D01*
X-66892Y-69999D01*
X-66621Y-70402D01*
X-66520Y-70898D01*
X-66520Y-75072D01*
X-66395Y-75258D01*
X-66294Y-75753D01*
X-66294Y-116684D01*
X-66387Y-117161D01*
X-66666Y-117582D01*
X-67998Y-118914D01*
X-68806Y-120865D01*
X-68806Y-122976D01*
X-67998Y-124926D01*
X-66506Y-126418D01*
X-64556Y-127226D01*
G37*
G36*
X-62001Y-28152D02*
X-59890Y-28152D01*
X-57940Y-27344D01*
X-56447Y-25851D01*
X-55640Y-23901D01*
X-55640Y-21790D01*
X-56447Y-19840D01*
X-57940Y-18347D01*
X-58997Y-17909D01*
X-59365Y-17676D01*
X-59664Y-17268D01*
X-59781Y-16776D01*
X-59696Y-16278D01*
X-59423Y-15852D01*
X-59007Y-15567D01*
X-58753Y-15515D01*
X-56684Y-14658D01*
X-55192Y-13166D01*
X-54384Y-11216D01*
X-54384Y-9105D01*
X-55192Y-7154D01*
X-56524Y-5822D01*
X-56795Y-5419D01*
X-56896Y-4924D01*
X-56896Y3697D01*
X-59257Y6059D01*
X-59517Y6434D01*
X-59629Y6926D01*
X-59540Y7424D01*
X-59265Y7848D01*
X-58845Y8130D01*
X-57243Y8794D01*
X-55792Y10245D01*
X-55389Y10517D01*
X-55380Y10518D01*
X-51816Y14083D01*
X-51816Y22723D01*
X-51727Y23191D01*
X-51451Y23614D01*
X-51032Y23897D01*
X-49000Y24738D01*
X-48554Y24834D01*
X-48056Y24750D01*
X-47630Y24477D01*
X-47345Y24060D01*
X-47244Y23565D01*
X-47244Y9303D01*
X-47337Y8827D01*
X-47616Y8405D01*
X-47803Y8218D01*
X-48206Y7947D01*
X-48701Y7846D01*
X-49316Y7846D01*
X-51266Y7038D01*
X-52758Y5546D01*
X-53566Y3596D01*
X-53566Y1485D01*
X-52758Y-466D01*
X-51266Y-1958D01*
X-49316Y-2766D01*
X-47205Y-2766D01*
X-45254Y-1958D01*
X-43762Y-466D01*
X-42954Y1485D01*
X-42954Y3595D01*
X-43089Y3921D01*
X-43185Y4387D01*
X-43093Y4884D01*
X-42814Y5305D01*
X-41656Y6463D01*
X-41656Y22380D01*
X-41571Y22838D01*
X-41298Y23264D01*
X-40881Y23549D01*
X-40386Y23650D01*
X-23016Y23650D01*
X-22539Y23557D01*
X-22118Y23278D01*
X-20658Y21819D01*
X-20598Y21779D01*
X-20305Y21367D01*
X-20197Y20874D01*
X-20289Y20377D01*
X-20569Y19955D01*
X-21008Y19516D01*
X-21816Y17566D01*
X-21816Y15455D01*
X-21008Y13504D01*
X-19516Y12012D01*
X-17566Y11204D01*
X-15455Y11204D01*
X-13504Y12012D01*
X-12012Y13504D01*
X-11204Y15455D01*
X-11204Y17566D01*
X-12012Y19516D01*
X-13632Y21135D01*
X-13692Y21175D01*
X-13985Y21587D01*
X-14093Y22081D01*
X-14001Y22577D01*
X-13721Y22999D01*
X-13282Y23438D01*
X-12474Y25389D01*
X-12474Y27500D01*
X-13282Y29450D01*
X-14774Y30942D01*
X-16725Y31750D01*
X-18836Y31750D01*
X-20786Y30942D01*
X-22118Y29610D01*
X-22521Y29339D01*
X-23016Y29238D01*
X-43293Y29238D01*
X-44596Y27935D01*
X-44962Y27680D01*
X-45454Y27564D01*
X-45952Y27649D01*
X-46378Y27921D01*
X-46663Y28338D01*
X-46764Y28833D01*
X-46764Y30266D01*
X-47572Y32216D01*
X-49064Y33708D01*
X-51015Y34516D01*
X-53126Y34516D01*
X-55076Y33708D01*
X-56568Y32216D01*
X-57376Y30266D01*
X-57376Y28381D01*
X-57404Y28238D01*
X-57404Y19758D01*
X-57486Y19309D01*
X-57755Y18881D01*
X-58169Y18592D01*
X-58664Y18488D01*
X-59160Y18584D01*
X-59193Y18598D01*
X-61304Y18598D01*
X-63254Y17790D01*
X-64747Y16298D01*
X-65555Y14348D01*
X-65555Y12237D01*
X-65516Y12142D01*
X-65420Y11696D01*
X-65504Y11198D01*
X-65777Y10772D01*
X-66194Y10487D01*
X-66689Y10386D01*
X-67096Y10386D01*
X-69046Y9578D01*
X-70538Y8086D01*
X-71346Y6136D01*
X-71346Y4025D01*
X-70538Y2074D01*
X-69046Y582D01*
X-67096Y-226D01*
X-64985Y-226D01*
X-64240Y82D01*
X-63794Y178D01*
X-63296Y94D01*
X-62870Y-179D01*
X-62585Y-596D01*
X-62484Y-1091D01*
X-62484Y-4924D01*
X-62577Y-5401D01*
X-62856Y-5822D01*
X-64188Y-7154D01*
X-64996Y-9105D01*
X-64996Y-11216D01*
X-64188Y-13166D01*
X-62696Y-14658D01*
X-61638Y-15096D01*
X-61270Y-15330D01*
X-60971Y-15737D01*
X-60855Y-16229D01*
X-60940Y-16727D01*
X-61212Y-17153D01*
X-61629Y-17439D01*
X-61882Y-17490D01*
X-63951Y-18347D01*
X-65444Y-19840D01*
X-66252Y-21790D01*
X-66252Y-23901D01*
X-65444Y-25851D01*
X-63951Y-27344D01*
X-62001Y-28152D01*
G37*
G36*
X-229656Y20094D02*
X-227545Y20094D01*
X-225594Y20902D01*
X-224102Y22394D01*
X-223294Y24345D01*
X-223294Y26456D01*
X-224102Y28406D01*
X-225594Y29898D01*
X-227545Y30706D01*
X-229656Y30706D01*
X-231606Y29898D01*
X-233098Y28406D01*
X-233906Y26456D01*
X-233906Y24345D01*
X-233098Y22394D01*
X-231606Y20902D01*
X-229656Y20094D01*
G37*
G36*
X199605Y18824D02*
X201716Y18824D01*
X203666Y19632D01*
X205158Y21124D01*
X205966Y23075D01*
X205966Y25186D01*
X205158Y27136D01*
X203666Y28628D01*
X201716Y29436D01*
X199605Y29436D01*
X197654Y28628D01*
X196162Y27136D01*
X195354Y25186D01*
X195354Y23075D01*
X196162Y21124D01*
X197654Y19632D01*
X199605Y18824D01*
G37*
G36*
X5295Y18824D02*
X7406Y18824D01*
X9356Y19632D01*
X10848Y21124D01*
X11656Y23075D01*
X11656Y25186D01*
X10848Y27136D01*
X9356Y28628D01*
X7406Y29436D01*
X5295Y29436D01*
X3344Y28628D01*
X1852Y27136D01*
X1044Y25186D01*
X1044Y23075D01*
X1852Y21124D01*
X3344Y19632D01*
X5295Y18824D01*
G37*
G36*
X174205Y17554D02*
X176316Y17554D01*
X178266Y18362D01*
X179758Y19854D01*
X180566Y21805D01*
X180566Y23916D01*
X179758Y25866D01*
X178266Y27358D01*
X176316Y28166D01*
X174205Y28166D01*
X172254Y27358D01*
X170762Y25866D01*
X169954Y23916D01*
X169954Y21805D01*
X170762Y19854D01*
X172254Y18362D01*
X174205Y17554D01*
G37*
G36*
X150301Y17554D02*
X152412Y17554D01*
X154362Y18362D01*
X155854Y19854D01*
X156662Y21805D01*
X156662Y23916D01*
X155854Y25866D01*
X154362Y27358D01*
X152412Y28166D01*
X150301Y28166D01*
X148350Y27358D01*
X146858Y25866D01*
X146050Y23916D01*
X146050Y21805D01*
X146858Y19854D01*
X148350Y18362D01*
X150301Y17554D01*
G37*
G36*
X223735Y17554D02*
X225846Y17554D01*
X227796Y18362D01*
X229288Y19854D01*
X230096Y21805D01*
X230096Y23916D01*
X229288Y25866D01*
X227796Y27358D01*
X225846Y28166D01*
X223735Y28166D01*
X221784Y27358D01*
X220292Y25866D01*
X219484Y23916D01*
X219484Y21805D01*
X220292Y19854D01*
X221784Y18362D01*
X223735Y17554D01*
G37*
G36*
X-220561Y8459D02*
X-218450Y8459D01*
X-216499Y9267D01*
X-215007Y10759D01*
X-214199Y12710D01*
X-214199Y14821D01*
X-215007Y16771D01*
X-216499Y18263D01*
X-218450Y19071D01*
X-220561Y19071D01*
X-222511Y18263D01*
X-224003Y16771D01*
X-224811Y14821D01*
X-224811Y12710D01*
X-224003Y10759D01*
X-222511Y9267D01*
X-220561Y8459D01*
G37*
G36*
X25615Y-18006D02*
X27726Y-18006D01*
X29676Y-17198D01*
X31168Y-15706D01*
X31976Y-13756D01*
X31976Y-11645D01*
X31098Y-9526D01*
X31002Y-9080D01*
X31087Y-8582D01*
X31359Y-8156D01*
X31776Y-7870D01*
X32272Y-7770D01*
X32729Y-7770D01*
X34679Y-6962D01*
X36172Y-5469D01*
X36980Y-3519D01*
X36980Y-1408D01*
X36172Y542D01*
X34679Y2035D01*
X32729Y2842D01*
X30618Y2842D01*
X28668Y2035D01*
X27176Y542D01*
X26368Y-1408D01*
X26368Y-3519D01*
X27245Y-5638D01*
X27341Y-6084D01*
X27257Y-6582D01*
X26984Y-7008D01*
X26567Y-7293D01*
X26072Y-7394D01*
X25615Y-7394D01*
X23664Y-8202D01*
X22172Y-9694D01*
X21364Y-11645D01*
X21364Y-13756D01*
X22172Y-15706D01*
X23664Y-17198D01*
X25615Y-18006D01*
G37*
G36*
X-127851Y-15261D02*
X-125740Y-15261D01*
X-123789Y-14453D01*
X-122297Y-12961D01*
X-121489Y-11011D01*
X-121489Y-8900D01*
X-122297Y-6949D01*
X-123789Y-5457D01*
X-125740Y-4649D01*
X-127851Y-4649D01*
X-129801Y-5457D01*
X-131293Y-6949D01*
X-132101Y-8900D01*
X-132101Y-11011D01*
X-131293Y-12961D01*
X-129801Y-14453D01*
X-127851Y-15261D01*
G37*
G36*
X17995Y-29436D02*
X20106Y-29436D01*
X22056Y-28628D01*
X23548Y-27136D01*
X24356Y-25186D01*
X24356Y-23075D01*
X23548Y-21124D01*
X22056Y-19632D01*
X20106Y-18824D01*
X17995Y-18824D01*
X16044Y-19632D01*
X14552Y-21124D01*
X13744Y-23075D01*
X13744Y-25186D01*
X14552Y-27136D01*
X16044Y-28628D01*
X17995Y-29436D01*
G37*
G36*
X75145Y-125956D02*
X77256Y-125956D01*
X79206Y-125148D01*
X80698Y-123656D01*
X81506Y-121706D01*
X81506Y-119595D01*
X80698Y-117644D01*
X79366Y-116312D01*
X79095Y-115909D01*
X78994Y-115414D01*
X78994Y-79153D01*
X79087Y-78677D01*
X79366Y-78255D01*
X86614Y-71007D01*
X86614Y-58533D01*
X72988Y-44907D01*
X72717Y-44504D01*
X72616Y-44009D01*
X72616Y-42125D01*
X71808Y-40174D01*
X70316Y-38682D01*
X68366Y-37874D01*
X66255Y-37874D01*
X64304Y-38682D01*
X62812Y-40174D01*
X62004Y-42125D01*
X62004Y-44236D01*
X62812Y-46186D01*
X64304Y-47678D01*
X66255Y-48486D01*
X68139Y-48486D01*
X68615Y-48579D01*
X69037Y-48858D01*
X80654Y-60475D01*
X80925Y-60878D01*
X81026Y-61373D01*
X81026Y-68167D01*
X80933Y-68643D01*
X80654Y-69065D01*
X73406Y-76313D01*
X73406Y-115414D01*
X73313Y-115891D01*
X73034Y-116312D01*
X71702Y-117644D01*
X70894Y-119595D01*
X70894Y-121706D01*
X71702Y-123656D01*
X73194Y-125148D01*
X75145Y-125956D01*
G37*
G36*
X191985Y-71346D02*
X194096Y-71346D01*
X196046Y-70538D01*
X197538Y-69046D01*
X198346Y-67096D01*
X198346Y-64985D01*
X197538Y-63034D01*
X196046Y-61542D01*
X194096Y-60734D01*
X191985Y-60734D01*
X190034Y-61542D01*
X188542Y-63034D01*
X187734Y-64985D01*
X187734Y-67096D01*
X188542Y-69046D01*
X190034Y-70538D01*
X191985Y-71346D01*
G37*
G36*
X166585Y-71346D02*
X168696Y-71346D01*
X170646Y-70538D01*
X172138Y-69046D01*
X172946Y-67096D01*
X172946Y-64985D01*
X172138Y-63034D01*
X170646Y-61542D01*
X168696Y-60734D01*
X166585Y-60734D01*
X164634Y-61542D01*
X163142Y-63034D01*
X162334Y-64985D01*
X162334Y-67096D01*
X163142Y-69046D01*
X164634Y-70538D01*
X166585Y-71346D01*
G37*
G36*
X-107736Y-71346D02*
X-105625Y-71346D01*
X-103674Y-70538D01*
X-102182Y-69046D01*
X-101374Y-67096D01*
X-101374Y-64985D01*
X-102182Y-63034D01*
X-103674Y-61542D01*
X-105625Y-60734D01*
X-107736Y-60734D01*
X-109686Y-61542D01*
X-111178Y-63034D01*
X-111986Y-64985D01*
X-111986Y-67096D01*
X-111178Y-69046D01*
X-109686Y-70538D01*
X-107736Y-71346D01*
G37*
G36*
X-96306Y-82776D02*
X-94195Y-82776D01*
X-92244Y-81968D01*
X-90752Y-80476D01*
X-89944Y-78526D01*
X-89944Y-76415D01*
X-90752Y-74464D01*
X-92244Y-72972D01*
X-94195Y-72164D01*
X-96306Y-72164D01*
X-98256Y-72972D01*
X-99748Y-74464D01*
X-100556Y-76415D01*
X-100556Y-78526D01*
X-99748Y-80476D01*
X-98256Y-81968D01*
X-96306Y-82776D01*
G37*
G36*
X37045Y-104366D02*
X39156Y-104366D01*
X41106Y-103558D01*
X42598Y-102066D01*
X43406Y-100116D01*
X43406Y-98005D01*
X42598Y-96054D01*
X41422Y-94878D01*
X41159Y-94494D01*
X41050Y-94000D01*
X41143Y-93503D01*
X41422Y-93082D01*
X42598Y-91906D01*
X43406Y-89956D01*
X43406Y-87845D01*
X42598Y-85894D01*
X42057Y-85353D01*
X41794Y-84969D01*
X41685Y-84475D01*
X41778Y-83978D01*
X42057Y-83557D01*
X42598Y-83016D01*
X43406Y-81066D01*
X43406Y-78955D01*
X42598Y-77004D01*
X41106Y-75512D01*
X39156Y-74704D01*
X37045Y-74704D01*
X35094Y-75512D01*
X33602Y-77004D01*
X32794Y-78955D01*
X32794Y-81066D01*
X33602Y-83016D01*
X34143Y-83557D01*
X34407Y-83941D01*
X34515Y-84435D01*
X34422Y-84932D01*
X34143Y-85353D01*
X33602Y-85894D01*
X32794Y-87845D01*
X32794Y-89956D01*
X33602Y-91906D01*
X34778Y-93082D01*
X35042Y-93466D01*
X35150Y-93960D01*
X35057Y-94457D01*
X34778Y-94878D01*
X33602Y-96054D01*
X32794Y-98005D01*
X32794Y-100116D01*
X33602Y-102066D01*
X35094Y-103558D01*
X37045Y-104366D01*
G37*
G36*
X-88686Y-96746D02*
X-86575Y-96746D01*
X-84624Y-95938D01*
X-83132Y-94446D01*
X-82324Y-92496D01*
X-82324Y-90385D01*
X-83132Y-88434D01*
X-84624Y-86942D01*
X-86575Y-86134D01*
X-88686Y-86134D01*
X-90636Y-86942D01*
X-92128Y-88434D01*
X-92936Y-90385D01*
X-92936Y-92496D01*
X-92128Y-94446D01*
X-90636Y-95938D01*
X-88686Y-96746D01*
G37*
G36*
X185635Y-98016D02*
X187746Y-98016D01*
X189696Y-97208D01*
X191188Y-95716D01*
X191996Y-93766D01*
X191996Y-91655D01*
X191188Y-89704D01*
X189696Y-88212D01*
X187746Y-87404D01*
X185635Y-87404D01*
X183684Y-88212D01*
X182192Y-89704D01*
X181384Y-91655D01*
X181384Y-93766D01*
X182192Y-95716D01*
X183684Y-97208D01*
X185635Y-98016D01*
G37*
G36*
X-182666Y-106906D02*
X-180555Y-106906D01*
X-178604Y-106098D01*
X-177112Y-104606D01*
X-176304Y-102656D01*
X-176304Y-100545D01*
X-177112Y-98594D01*
X-178604Y-97102D01*
X-180555Y-96294D01*
X-182666Y-96294D01*
X-184616Y-97102D01*
X-186108Y-98594D01*
X-186916Y-100545D01*
X-186916Y-102656D01*
X-186108Y-104606D01*
X-184616Y-106098D01*
X-182666Y-106906D01*
G37*
G36*
X94195Y-108176D02*
X96306Y-108176D01*
X98256Y-107368D01*
X99748Y-105876D01*
X100556Y-103926D01*
X100556Y-101815D01*
X99748Y-99864D01*
X98256Y-98372D01*
X96306Y-97564D01*
X94195Y-97564D01*
X92244Y-98372D01*
X90752Y-99864D01*
X89944Y-101815D01*
X89944Y-103926D01*
X90752Y-105876D01*
X92244Y-107368D01*
X94195Y-108176D01*
G37*
G36*
X273814Y-131647D02*
X280514Y-131647D01*
X286704Y-129083D01*
X291442Y-124345D01*
X294006Y-118155D01*
X294006Y-111455D01*
X291442Y-105265D01*
X286704Y-100527D01*
X280514Y-97963D01*
X273814Y-97963D01*
X267624Y-100527D01*
X262886Y-105265D01*
X260322Y-111455D01*
X260322Y-118155D01*
X262886Y-124345D01*
X267624Y-129083D01*
X273814Y-131647D01*
G37*
G36*
X-280514Y-131647D02*
X-273814Y-131647D01*
X-267624Y-129083D01*
X-262886Y-124345D01*
X-260322Y-118155D01*
X-260322Y-111455D01*
X-262886Y-105265D01*
X-267624Y-100527D01*
X-273814Y-97963D01*
X-280514Y-97963D01*
X-286704Y-100527D01*
X-291442Y-105265D01*
X-294006Y-111455D01*
X-294006Y-118155D01*
X-291442Y-124345D01*
X-286704Y-129083D01*
X-280514Y-131647D01*
G37*
G36*
X-49316Y-109446D02*
X-47205Y-109446D01*
X-45254Y-108638D01*
X-43762Y-107146D01*
X-42954Y-105196D01*
X-42954Y-103085D01*
X-43762Y-101134D01*
X-45254Y-99642D01*
X-47205Y-98834D01*
X-49316Y-98834D01*
X-51266Y-99642D01*
X-52758Y-101134D01*
X-53566Y-103085D01*
X-53566Y-105196D01*
X-52758Y-107146D01*
X-51266Y-108638D01*
X-49316Y-109446D01*
G37*
%LPD*%
G36*
X81775Y-329819D02*
X81280Y-329920D01*
X53340Y-329920D01*
X52882Y-329835D01*
X52456Y-329562D01*
X52171Y-329145D01*
X52070Y-328650D01*
X52070Y-279490D01*
X52057Y-279400D01*
X52013Y-279343D01*
X47362Y-274692D01*
X47091Y-274289D01*
X46990Y-273794D01*
X46990Y-266790D01*
X46977Y-266700D01*
X46933Y-266643D01*
X43244Y-262954D01*
X43171Y-262899D01*
X43100Y-262890D01*
X10414Y-262890D01*
X9956Y-262805D01*
X9530Y-262532D01*
X9245Y-262115D01*
X9144Y-261620D01*
X9144Y-220490D01*
X9222Y-220051D01*
X9488Y-219621D01*
X9900Y-219329D01*
X10394Y-219220D01*
X10891Y-219313D01*
X11312Y-219592D01*
X11366Y-219646D01*
X11439Y-219701D01*
X11510Y-219710D01*
X55790Y-219710D01*
X55880Y-219697D01*
X55937Y-219653D01*
X59626Y-215964D01*
X59681Y-215891D01*
X59690Y-215820D01*
X59690Y-144780D01*
X59775Y-144322D01*
X60048Y-143896D01*
X60465Y-143611D01*
X60960Y-143510D01*
X116100Y-143510D01*
X116558Y-143595D01*
X116984Y-143868D01*
X117269Y-144285D01*
X117370Y-144780D01*
X117370Y-158964D01*
X117277Y-159441D01*
X116998Y-159862D01*
X115942Y-160918D01*
X115539Y-161189D01*
X115044Y-161290D01*
X111074Y-161290D01*
X110644Y-161215D01*
X110212Y-160953D01*
X109916Y-160543D01*
X109804Y-160050D01*
X109893Y-159553D01*
X110169Y-159129D01*
X110588Y-158847D01*
X112226Y-158168D01*
X113718Y-156676D01*
X114526Y-154726D01*
X114526Y-152615D01*
X113718Y-150664D01*
X112226Y-149172D01*
X110276Y-148364D01*
X108165Y-148364D01*
X106214Y-149172D01*
X104882Y-150504D01*
X104479Y-150775D01*
X103984Y-150876D01*
X77583Y-150876D01*
X70866Y-157593D01*
X70866Y-201817D01*
X74332Y-205283D01*
X74603Y-205686D01*
X74704Y-206181D01*
X74704Y-206796D01*
X75512Y-208746D01*
X77004Y-210238D01*
X78955Y-211046D01*
X81066Y-211046D01*
X83016Y-210238D01*
X84508Y-208746D01*
X85316Y-206796D01*
X85316Y-204685D01*
X84508Y-202734D01*
X83016Y-201242D01*
X81066Y-200434D01*
X78955Y-200434D01*
X78629Y-200569D01*
X78163Y-200665D01*
X77666Y-200573D01*
X77245Y-200294D01*
X76826Y-199875D01*
X76555Y-199472D01*
X76454Y-198977D01*
X76454Y-160433D01*
X76547Y-159957D01*
X76826Y-159535D01*
X79525Y-156836D01*
X79928Y-156565D01*
X80423Y-156464D01*
X103984Y-156464D01*
X104461Y-156557D01*
X104882Y-156836D01*
X106214Y-158168D01*
X108165Y-158976D01*
X108510Y-158976D01*
X109095Y-159119D01*
X109488Y-159436D01*
X109727Y-159882D01*
X109773Y-160385D01*
X109618Y-160866D01*
X109289Y-161249D01*
X109164Y-161346D01*
X106744Y-163766D01*
X106689Y-163839D01*
X106680Y-163910D01*
X106680Y-188704D01*
X106587Y-189181D01*
X106308Y-189602D01*
X105782Y-190128D01*
X105379Y-190399D01*
X104884Y-190500D01*
X99150Y-190500D01*
X99060Y-190513D01*
X99003Y-190557D01*
X92774Y-196786D01*
X92719Y-196859D01*
X92710Y-196930D01*
X92710Y-203110D01*
X92723Y-203200D01*
X92767Y-203257D01*
X97726Y-208216D01*
X97799Y-208271D01*
X97870Y-208280D01*
X134366Y-208280D01*
X134824Y-208365D01*
X135250Y-208638D01*
X135535Y-209055D01*
X135636Y-209550D01*
X135636Y-251950D01*
X135558Y-252389D01*
X135292Y-252819D01*
X134880Y-253111D01*
X134386Y-253220D01*
X133889Y-253127D01*
X133468Y-252848D01*
X133414Y-252794D01*
X133341Y-252739D01*
X133270Y-252730D01*
X88990Y-252730D01*
X88900Y-252743D01*
X88843Y-252787D01*
X82614Y-259016D01*
X82559Y-259089D01*
X82550Y-259160D01*
X82550Y-328650D01*
X82465Y-329108D01*
X82192Y-329534D01*
X81775Y-329819D01*
G37*
G36*
X-63005Y-329819D02*
X-63500Y-329920D01*
X-101600Y-329920D01*
X-102058Y-329835D01*
X-102484Y-329562D01*
X-102769Y-329145D01*
X-102870Y-328650D01*
X-102870Y-298976D01*
X-102777Y-298499D01*
X-102498Y-298078D01*
X-87694Y-283274D01*
X-87639Y-283201D01*
X-87630Y-283130D01*
X-87630Y-266790D01*
X-87643Y-266700D01*
X-87687Y-266643D01*
X-91376Y-262954D01*
X-91449Y-262899D01*
X-91520Y-262890D01*
X-124206Y-262890D01*
X-124664Y-262805D01*
X-125090Y-262532D01*
X-125375Y-262115D01*
X-125476Y-261620D01*
X-125476Y-219220D01*
X-125398Y-218781D01*
X-125132Y-218351D01*
X-124720Y-218059D01*
X-124226Y-217950D01*
X-123729Y-218043D01*
X-123308Y-218322D01*
X-121984Y-219646D01*
X-121911Y-219701D01*
X-121840Y-219710D01*
X-77560Y-219710D01*
X-77470Y-219697D01*
X-77413Y-219653D01*
X-73724Y-215964D01*
X-73669Y-215891D01*
X-73660Y-215820D01*
X-73660Y-149116D01*
X-73567Y-148639D01*
X-73288Y-148218D01*
X-68952Y-143882D01*
X-68549Y-143611D01*
X-68054Y-143510D01*
X-26896Y-143510D01*
X-26438Y-143595D01*
X-26012Y-143868D01*
X-25727Y-144285D01*
X-25626Y-144780D01*
X-25626Y-145836D01*
X-24818Y-147786D01*
X-23232Y-149372D01*
X-22961Y-149775D01*
X-22860Y-150270D01*
X-22860Y-153086D01*
X-22935Y-153516D01*
X-23197Y-153948D01*
X-23607Y-154244D01*
X-24100Y-154356D01*
X-24597Y-154267D01*
X-25021Y-153991D01*
X-25303Y-153572D01*
X-25982Y-151934D01*
X-27474Y-150442D01*
X-29425Y-149634D01*
X-31536Y-149634D01*
X-33486Y-150442D01*
X-34818Y-151774D01*
X-35221Y-152045D01*
X-35716Y-152146D01*
X-55357Y-152146D01*
X-68834Y-165623D01*
X-68834Y-203087D01*
X-63387Y-208534D01*
X-58576Y-208534D01*
X-58099Y-208627D01*
X-57678Y-208906D01*
X-56346Y-210238D01*
X-54396Y-211046D01*
X-52285Y-211046D01*
X-50334Y-210238D01*
X-48842Y-208746D01*
X-48034Y-206796D01*
X-48034Y-204685D01*
X-48842Y-202734D01*
X-50334Y-201242D01*
X-52285Y-200434D01*
X-54396Y-200434D01*
X-56346Y-201242D01*
X-57678Y-202574D01*
X-58081Y-202845D01*
X-58576Y-202946D01*
X-60547Y-202946D01*
X-61023Y-202853D01*
X-61445Y-202574D01*
X-62874Y-201145D01*
X-63145Y-200742D01*
X-63246Y-200247D01*
X-63246Y-168463D01*
X-63153Y-167987D01*
X-62874Y-167565D01*
X-53415Y-158106D01*
X-53012Y-157835D01*
X-52517Y-157734D01*
X-35716Y-157734D01*
X-35239Y-157827D01*
X-34818Y-158106D01*
X-33486Y-159438D01*
X-31536Y-160246D01*
X-29425Y-160246D01*
X-27474Y-159438D01*
X-25982Y-157946D01*
X-25303Y-156308D01*
X-25070Y-155940D01*
X-24662Y-155641D01*
X-24170Y-155524D01*
X-23672Y-155609D01*
X-23246Y-155881D01*
X-22961Y-156298D01*
X-22860Y-156794D01*
X-22860Y-164574D01*
X-22953Y-165051D01*
X-23232Y-165472D01*
X-29146Y-171386D01*
X-29201Y-171459D01*
X-29210Y-171530D01*
X-29210Y-193784D01*
X-29303Y-194261D01*
X-29582Y-194682D01*
X-30108Y-195208D01*
X-30511Y-195479D01*
X-31006Y-195580D01*
X-35470Y-195580D01*
X-35560Y-195593D01*
X-35617Y-195637D01*
X-40576Y-200596D01*
X-40631Y-200669D01*
X-40640Y-200740D01*
X-40640Y-208190D01*
X-40627Y-208280D01*
X-40583Y-208337D01*
X-38164Y-210756D01*
X-38091Y-210811D01*
X-38020Y-210820D01*
X2286Y-210820D01*
X2744Y-210905D01*
X3170Y-211178D01*
X3455Y-211595D01*
X3556Y-212090D01*
X3556Y-258300D01*
X3478Y-258739D01*
X3212Y-259169D01*
X2800Y-259461D01*
X2306Y-259570D01*
X1809Y-259477D01*
X1388Y-259198D01*
X-3746Y-254064D01*
X-3819Y-254009D01*
X-3890Y-254000D01*
X-54520Y-254000D01*
X-54610Y-254013D01*
X-54667Y-254057D01*
X-62166Y-261556D01*
X-62221Y-261629D01*
X-62230Y-261700D01*
X-62230Y-328650D01*
X-62315Y-329108D01*
X-62588Y-329534D01*
X-63005Y-329819D01*
G37*
G36*
X-131820Y-256921D02*
X-132314Y-257030D01*
X-132811Y-256937D01*
X-133232Y-256658D01*
X-135826Y-254064D01*
X-135899Y-254009D01*
X-135970Y-254000D01*
X-183624Y-254000D01*
X-184101Y-253907D01*
X-184522Y-253628D01*
X-186318Y-251832D01*
X-186589Y-251429D01*
X-186690Y-250934D01*
X-186690Y-231230D01*
X-186703Y-231140D01*
X-186747Y-231083D01*
X-190436Y-227394D01*
X-190509Y-227339D01*
X-190580Y-227330D01*
X-218350Y-227330D01*
X-218440Y-227343D01*
X-218497Y-227387D01*
X-237713Y-246603D01*
X-238256Y-246924D01*
X-238760Y-246966D01*
X-239240Y-246808D01*
X-239621Y-246476D01*
X-243456Y-241452D01*
X-243531Y-241341D01*
X-259561Y-215017D01*
X-259625Y-214899D01*
X-272808Y-187040D01*
X-272834Y-186979D01*
X-274765Y-182275D01*
X-281137Y-174352D01*
X-289496Y-168563D01*
X-293126Y-167370D01*
X-293126Y-167370D01*
X-294325Y-166975D01*
X-294471Y-166917D01*
X-306411Y-161279D01*
X-306675Y-161111D01*
X-316876Y-152727D01*
X-317091Y-152501D01*
X-322236Y-145535D01*
X-322368Y-145312D01*
X-322484Y-144820D01*
X-322399Y-144322D01*
X-322127Y-143896D01*
X-321710Y-143611D01*
X-321215Y-143510D01*
X-162560Y-143510D01*
X-162102Y-143595D01*
X-161676Y-143868D01*
X-161391Y-144285D01*
X-161290Y-144780D01*
X-161290Y-148676D01*
X-161372Y-149125D01*
X-161641Y-149553D01*
X-162055Y-149842D01*
X-162550Y-149946D01*
X-163046Y-149850D01*
X-164045Y-149436D01*
X-166156Y-149436D01*
X-168106Y-150244D01*
X-169382Y-151520D01*
X-169785Y-151791D01*
X-170280Y-151892D01*
X-198113Y-151892D01*
X-208432Y-162211D01*
X-208432Y-198113D01*
X-196486Y-210058D01*
X-196395Y-210058D01*
X-195919Y-210151D01*
X-195497Y-210430D01*
X-194419Y-211508D01*
X-192469Y-212316D01*
X-190358Y-212316D01*
X-188408Y-211508D01*
X-186915Y-210016D01*
X-186108Y-208066D01*
X-186108Y-205955D01*
X-186915Y-204004D01*
X-188408Y-202512D01*
X-190358Y-201704D01*
X-192469Y-201704D01*
X-194337Y-202478D01*
X-194802Y-202574D01*
X-195299Y-202481D01*
X-195721Y-202202D01*
X-201964Y-195959D01*
X-202235Y-195557D01*
X-202336Y-195061D01*
X-202336Y-165262D01*
X-202243Y-164785D01*
X-201964Y-164364D01*
X-195959Y-158360D01*
X-195557Y-158089D01*
X-195061Y-157988D01*
X-169884Y-157988D01*
X-169407Y-158081D01*
X-168986Y-158360D01*
X-168106Y-159240D01*
X-166156Y-160048D01*
X-164045Y-160048D01*
X-163046Y-159634D01*
X-162600Y-159538D01*
X-162102Y-159623D01*
X-161676Y-159896D01*
X-161391Y-160312D01*
X-161290Y-160808D01*
X-161290Y-189974D01*
X-161383Y-190451D01*
X-161662Y-190872D01*
X-163458Y-192668D01*
X-163861Y-192939D01*
X-164356Y-193040D01*
X-170090Y-193040D01*
X-170180Y-193053D01*
X-170237Y-193097D01*
X-175196Y-198056D01*
X-175251Y-198129D01*
X-175260Y-198200D01*
X-175260Y-205650D01*
X-175247Y-205740D01*
X-175203Y-205797D01*
X-171514Y-209486D01*
X-171441Y-209541D01*
X-171370Y-209550D01*
X-132606Y-209550D01*
X-132129Y-209643D01*
X-131708Y-209922D01*
X-131436Y-210194D01*
X-131165Y-210597D01*
X-131064Y-211092D01*
X-131064Y-255760D01*
X-131142Y-256199D01*
X-131408Y-256629D01*
X-131820Y-256921D01*
G37*
G36*
X208243Y-283294D02*
X207749Y-283403D01*
X207252Y-283310D01*
X206831Y-283031D01*
X195644Y-271844D01*
X195571Y-271789D01*
X195500Y-271780D01*
X187216Y-271780D01*
X186739Y-271687D01*
X186318Y-271408D01*
X175324Y-260414D01*
X175251Y-260359D01*
X175180Y-260350D01*
X142494Y-260350D01*
X142036Y-260265D01*
X141610Y-259992D01*
X141325Y-259575D01*
X141224Y-259080D01*
X141224Y-216680D01*
X141302Y-216241D01*
X141568Y-215811D01*
X141980Y-215519D01*
X142474Y-215410D01*
X142971Y-215503D01*
X143392Y-215782D01*
X145986Y-218376D01*
X146059Y-218431D01*
X146130Y-218440D01*
X203110Y-218440D01*
X203200Y-218427D01*
X203257Y-218383D01*
X206946Y-214694D01*
X207001Y-214621D01*
X207010Y-214550D01*
X207010Y-161816D01*
X207103Y-161339D01*
X207382Y-160918D01*
X220608Y-147692D01*
X221011Y-147421D01*
X221506Y-147320D01*
X318401Y-147320D01*
X318658Y-147346D01*
X319122Y-147545D01*
X319473Y-147909D01*
X319654Y-148381D01*
X319636Y-148886D01*
X319422Y-149345D01*
X317091Y-152501D01*
X316876Y-152727D01*
X306675Y-161111D01*
X306411Y-161279D01*
X294471Y-166917D01*
X294325Y-166975D01*
X293126Y-167370D01*
X293126Y-167370D01*
X289496Y-168563D01*
X281137Y-174352D01*
X274765Y-182275D01*
X272834Y-186979D01*
X272808Y-187040D01*
X259625Y-214899D01*
X259561Y-215017D01*
X243531Y-241341D01*
X243456Y-241452D01*
X224754Y-265951D01*
X224668Y-266053D01*
X208652Y-283005D01*
X208243Y-283294D01*
G37*
G36*
X-105875Y-329860D02*
X-106172Y-329920D01*
X-141421Y-329920D01*
X-141526Y-329913D01*
X-148101Y-329001D01*
X-148303Y-328944D01*
X-154381Y-326277D01*
X-154508Y-326206D01*
X-179923Y-308677D01*
X-179987Y-308628D01*
X-203425Y-288531D01*
X-203483Y-288476D01*
X-224686Y-266033D01*
X-224738Y-265972D01*
X-236136Y-251040D01*
X-236227Y-250886D01*
X-236292Y-250590D01*
X-236236Y-250292D01*
X-236069Y-250039D01*
X-216123Y-230093D01*
X-215882Y-229930D01*
X-215584Y-229870D01*
X-192086Y-229870D01*
X-191800Y-229926D01*
X-191547Y-230093D01*
X-189453Y-232187D01*
X-189290Y-232428D01*
X-189230Y-232726D01*
X-189230Y-252642D01*
X-189205Y-252747D01*
X-189186Y-252774D01*
X-185482Y-256478D01*
X-185390Y-256535D01*
X-185358Y-256540D01*
X-137476Y-256540D01*
X-137190Y-256596D01*
X-136937Y-256763D01*
X-128332Y-265368D01*
X-128240Y-265425D01*
X-128208Y-265430D01*
X-93026Y-265430D01*
X-92740Y-265486D01*
X-92487Y-265653D01*
X-90393Y-267747D01*
X-90230Y-267988D01*
X-90170Y-268286D01*
X-90170Y-281624D01*
X-90226Y-281910D01*
X-90393Y-282163D01*
X-105348Y-297118D01*
X-105405Y-297210D01*
X-105410Y-297242D01*
X-105410Y-329158D01*
X-105461Y-329433D01*
X-105625Y-329688D01*
X-105875Y-329860D01*
G37*
G36*
X48755Y-329819D02*
X48260Y-329920D01*
X-58420Y-329920D01*
X-58878Y-329835D01*
X-59304Y-329562D01*
X-59589Y-329145D01*
X-59690Y-328650D01*
X-59690Y-263416D01*
X-59597Y-262939D01*
X-59318Y-262518D01*
X-53712Y-256912D01*
X-53309Y-256641D01*
X-52814Y-256540D01*
X-5606Y-256540D01*
X-5129Y-256633D01*
X-4708Y-256912D01*
X3746Y-265366D01*
X3819Y-265421D01*
X3890Y-265430D01*
X41384Y-265430D01*
X41861Y-265523D01*
X42282Y-265802D01*
X44078Y-267598D01*
X44349Y-268001D01*
X44450Y-268496D01*
X44450Y-275500D01*
X44463Y-275590D01*
X44507Y-275647D01*
X49158Y-280298D01*
X49429Y-280701D01*
X49530Y-281196D01*
X49530Y-328650D01*
X49445Y-329108D01*
X49172Y-329534D01*
X48755Y-329819D01*
G37*
G36*
X141840Y-329891D02*
X141421Y-329920D01*
X88138Y-329920D01*
X87039Y-329715D01*
X86017Y-329061D01*
X85331Y-328061D01*
X85090Y-326872D01*
X85090Y-261613D01*
X85313Y-260469D01*
X85983Y-259457D01*
X89277Y-256163D01*
X90244Y-255511D01*
X91433Y-255270D01*
X129548Y-255270D01*
X130691Y-255493D01*
X131703Y-256163D01*
X139626Y-264086D01*
X139690Y-264142D01*
X139703Y-264150D01*
X139824Y-264160D01*
X173998Y-264160D01*
X175141Y-264383D01*
X176153Y-265053D01*
X185346Y-274246D01*
X185410Y-274302D01*
X185423Y-274310D01*
X185544Y-274320D01*
X193048Y-274320D01*
X194191Y-274543D01*
X195203Y-275213D01*
X203811Y-283821D01*
X204407Y-284664D01*
X204701Y-285841D01*
X204512Y-287039D01*
X203871Y-288069D01*
X203568Y-288391D01*
X203336Y-288611D01*
X180080Y-308552D01*
X179826Y-308747D01*
X154608Y-326141D01*
X154102Y-326423D01*
X148599Y-328838D01*
X147793Y-329065D01*
X141840Y-329891D01*
G37*
G36*
X10946Y-197223D02*
X10454Y-197339D01*
X9956Y-197255D01*
X9530Y-196982D01*
X9245Y-196565D01*
X9144Y-196070D01*
X9144Y-167201D01*
X9233Y-166734D01*
X9509Y-166310D01*
X9928Y-166028D01*
X11896Y-165213D01*
X13388Y-163720D01*
X14196Y-161770D01*
X14196Y-159659D01*
X13388Y-157709D01*
X11896Y-156216D01*
X9946Y-155408D01*
X7835Y-155408D01*
X5884Y-156216D01*
X4392Y-157709D01*
X3584Y-159659D01*
X3584Y-161543D01*
X3556Y-161687D01*
X3556Y-168130D01*
X3478Y-168569D01*
X3212Y-168999D01*
X2800Y-169291D01*
X2306Y-169400D01*
X1809Y-169307D01*
X1388Y-169028D01*
X-1206Y-166434D01*
X-1279Y-166379D01*
X-1350Y-166370D01*
X-12446Y-166370D01*
X-12904Y-166285D01*
X-13330Y-166012D01*
X-13615Y-165595D01*
X-13716Y-165100D01*
X-13716Y-145637D01*
X-14642Y-144711D01*
X-14913Y-144308D01*
X-15014Y-143813D01*
X-15014Y-143725D01*
X-15822Y-141774D01*
X-16998Y-140598D01*
X-17253Y-140232D01*
X-17369Y-139740D01*
X-17285Y-139242D01*
X-17012Y-138816D01*
X-16595Y-138531D01*
X-16100Y-138430D01*
X70594Y-138430D01*
X71071Y-138523D01*
X71492Y-138802D01*
X75828Y-143138D01*
X76099Y-143541D01*
X76200Y-144036D01*
X76200Y-149334D01*
X76107Y-149811D01*
X75828Y-150232D01*
X69914Y-156146D01*
X69859Y-156219D01*
X69840Y-156369D01*
X69765Y-156668D01*
X69492Y-157094D01*
X69075Y-157379D01*
X68580Y-157480D01*
X60216Y-157480D01*
X59739Y-157387D01*
X59318Y-157108D01*
X55944Y-153734D01*
X55871Y-153679D01*
X55800Y-153670D01*
X34380Y-153670D01*
X34290Y-153683D01*
X34233Y-153727D01*
X30544Y-157416D01*
X30489Y-157489D01*
X30480Y-157560D01*
X30480Y-193784D01*
X30387Y-194261D01*
X30108Y-194682D01*
X28312Y-196478D01*
X27909Y-196749D01*
X27414Y-196850D01*
X11520Y-196850D01*
X11430Y-196863D01*
X11373Y-196907D01*
X11312Y-196968D01*
X10946Y-197223D01*
G37*
G36*
X-22619Y-166269D02*
X-23114Y-166370D01*
X-24013Y-166370D01*
X-24524Y-166263D01*
X-24937Y-165971D01*
X-25204Y-165542D01*
X-25282Y-165042D01*
X-24625Y-150583D01*
X-24544Y-150192D01*
X-24275Y-149764D01*
X-23861Y-149475D01*
X-23366Y-149370D01*
X-22870Y-149467D01*
X-22628Y-149567D01*
X-22230Y-149828D01*
X-21945Y-150245D01*
X-21844Y-150741D01*
X-21844Y-165100D01*
X-21929Y-165558D01*
X-22202Y-165984D01*
X-22619Y-166269D01*
G37*
G36*
X168879Y-195479D02*
X168384Y-195580D01*
X142494Y-195580D01*
X142036Y-195495D01*
X141610Y-195222D01*
X141325Y-194805D01*
X141224Y-194310D01*
X141224Y-170731D01*
X141317Y-170254D01*
X141596Y-169833D01*
X148490Y-162939D01*
X148893Y-162667D01*
X149388Y-162567D01*
X151272Y-162567D01*
X153222Y-161759D01*
X154715Y-160266D01*
X155523Y-158316D01*
X155523Y-156205D01*
X154715Y-154255D01*
X153222Y-152763D01*
X151272Y-151955D01*
X149161Y-151955D01*
X147211Y-152763D01*
X145718Y-154255D01*
X144911Y-156205D01*
X144911Y-158089D01*
X144818Y-158566D01*
X144539Y-158987D01*
X137970Y-165556D01*
X137613Y-165807D01*
X137122Y-165927D01*
X136623Y-165846D01*
X136195Y-165577D01*
X135906Y-165163D01*
X135881Y-165105D01*
X135833Y-165043D01*
X132144Y-161354D01*
X132071Y-161299D01*
X132000Y-161290D01*
X126768Y-161290D01*
X126310Y-161205D01*
X125884Y-160932D01*
X125599Y-160515D01*
X125498Y-160020D01*
X125498Y-144780D01*
X125583Y-144322D01*
X125856Y-143896D01*
X126273Y-143611D01*
X126768Y-143510D01*
X223520Y-143510D01*
X223978Y-143595D01*
X224404Y-143868D01*
X224689Y-144285D01*
X224790Y-144780D01*
X224790Y-150604D01*
X224697Y-151081D01*
X224418Y-151502D01*
X215002Y-160918D01*
X214599Y-161189D01*
X214104Y-161290D01*
X207536Y-161290D01*
X207059Y-161197D01*
X206638Y-160918D01*
X203264Y-157544D01*
X203191Y-157489D01*
X203120Y-157480D01*
X176620Y-157480D01*
X176530Y-157493D01*
X176473Y-157537D01*
X172784Y-161226D01*
X172729Y-161299D01*
X172720Y-161370D01*
X172720Y-191244D01*
X172627Y-191721D01*
X172348Y-192142D01*
X169282Y-195208D01*
X168879Y-195479D01*
G37*
G36*
X-123674Y-197223D02*
X-124166Y-197339D01*
X-124664Y-197255D01*
X-125090Y-196982D01*
X-125375Y-196565D01*
X-125476Y-196070D01*
X-125476Y-169680D01*
X-125383Y-169203D01*
X-125104Y-168782D01*
X-121735Y-165413D01*
X-121323Y-165137D01*
X-119828Y-164518D01*
X-118335Y-163026D01*
X-117528Y-161076D01*
X-117528Y-158965D01*
X-118335Y-157014D01*
X-119828Y-155522D01*
X-121778Y-154714D01*
X-123889Y-154714D01*
X-125839Y-155522D01*
X-127332Y-157014D01*
X-128140Y-158965D01*
X-128140Y-161075D01*
X-127633Y-162299D01*
X-127536Y-162765D01*
X-127629Y-163262D01*
X-127908Y-163683D01*
X-131074Y-166850D01*
X-131458Y-167113D01*
X-131952Y-167221D01*
X-132449Y-167129D01*
X-132870Y-166850D01*
X-134556Y-165164D01*
X-134629Y-165109D01*
X-134700Y-165100D01*
X-145796Y-165100D01*
X-146254Y-165015D01*
X-146680Y-164742D01*
X-146965Y-164325D01*
X-147066Y-163830D01*
X-147066Y-147071D01*
X-147015Y-146714D01*
X-146779Y-146267D01*
X-146388Y-145947D01*
X-145903Y-145805D01*
X-75037Y-139816D01*
X-74472Y-139897D01*
X-74046Y-140170D01*
X-73761Y-140587D01*
X-73660Y-141082D01*
X-73660Y-153144D01*
X-73738Y-153583D01*
X-74004Y-154013D01*
X-74416Y-154305D01*
X-74910Y-154414D01*
X-75407Y-154321D01*
X-75828Y-154042D01*
X-78676Y-151194D01*
X-78749Y-151139D01*
X-78820Y-151130D01*
X-97700Y-151130D01*
X-97790Y-151143D01*
X-97847Y-151187D01*
X-100266Y-153606D01*
X-100321Y-153679D01*
X-100330Y-153750D01*
X-100330Y-193784D01*
X-100423Y-194261D01*
X-100702Y-194682D01*
X-102498Y-196478D01*
X-102901Y-196749D01*
X-103396Y-196850D01*
X-123100Y-196850D01*
X-123190Y-196863D01*
X-123247Y-196907D01*
X-123308Y-196968D01*
X-123674Y-197223D01*
G37*
G36*
X-162028Y-170807D02*
X-162520Y-170923D01*
X-163018Y-170839D01*
X-163444Y-170566D01*
X-163729Y-170149D01*
X-163830Y-169654D01*
X-163830Y-160808D01*
X-163741Y-160340D01*
X-163465Y-159917D01*
X-163046Y-159634D01*
X-162094Y-159240D01*
X-160602Y-157748D01*
X-159794Y-155798D01*
X-159794Y-153687D01*
X-160602Y-151736D01*
X-162094Y-150244D01*
X-163046Y-149850D01*
X-163444Y-149589D01*
X-163729Y-149172D01*
X-163830Y-148676D01*
X-163830Y-148487D01*
X-163779Y-148131D01*
X-163543Y-147684D01*
X-163152Y-147364D01*
X-162667Y-147222D01*
X-158244Y-146848D01*
X-157670Y-146933D01*
X-157246Y-147208D01*
X-156964Y-147627D01*
X-156898Y-147786D01*
X-155566Y-149118D01*
X-155295Y-149521D01*
X-155194Y-150016D01*
X-155194Y-163866D01*
X-155227Y-164152D01*
X-155436Y-164612D01*
X-155808Y-164954D01*
X-156061Y-165044D01*
X-156060Y-165046D01*
X-156205Y-165109D01*
X-156267Y-165157D01*
X-161662Y-170552D01*
X-162028Y-170807D01*
G37*
G36*
X54579Y-217069D02*
X54084Y-217170D01*
X13226Y-217170D01*
X12749Y-217077D01*
X12328Y-216798D01*
X10532Y-215002D01*
X10261Y-214599D01*
X10160Y-214104D01*
X10160Y-202456D01*
X10253Y-201979D01*
X10532Y-201558D01*
X12328Y-199762D01*
X12731Y-199491D01*
X13226Y-199390D01*
X29120Y-199390D01*
X29210Y-199377D01*
X29267Y-199333D01*
X32956Y-195644D01*
X33011Y-195571D01*
X33020Y-195500D01*
X33020Y-159276D01*
X33113Y-158799D01*
X33392Y-158378D01*
X35188Y-156582D01*
X35591Y-156311D01*
X36086Y-156210D01*
X54084Y-156210D01*
X54561Y-156303D01*
X54982Y-156582D01*
X56778Y-158378D01*
X57049Y-158781D01*
X57150Y-159276D01*
X57150Y-214104D01*
X57057Y-214581D01*
X56778Y-215002D01*
X54982Y-216798D01*
X54579Y-217069D01*
G37*
G36*
X-78771Y-217069D02*
X-79266Y-217170D01*
X-120124Y-217170D01*
X-120601Y-217077D01*
X-121022Y-216798D01*
X-124088Y-213732D01*
X-124359Y-213329D01*
X-124460Y-212834D01*
X-124460Y-202456D01*
X-124367Y-201979D01*
X-124088Y-201558D01*
X-122292Y-199762D01*
X-121889Y-199491D01*
X-121394Y-199390D01*
X-101690Y-199390D01*
X-101600Y-199377D01*
X-101543Y-199333D01*
X-97854Y-195644D01*
X-97799Y-195571D01*
X-97790Y-195500D01*
X-97790Y-156736D01*
X-97697Y-156259D01*
X-97418Y-155838D01*
X-95622Y-154042D01*
X-95219Y-153771D01*
X-94724Y-153670D01*
X-79266Y-153670D01*
X-78789Y-153763D01*
X-78368Y-154042D01*
X-76572Y-155838D01*
X-76301Y-156241D01*
X-76200Y-156736D01*
X-76200Y-214104D01*
X-76293Y-214581D01*
X-76572Y-215002D01*
X-78368Y-216798D01*
X-78771Y-217069D01*
G37*
G36*
X202611Y-215659D02*
X201422Y-215900D01*
X148583Y-215900D01*
X147439Y-215677D01*
X146427Y-215007D01*
X145673Y-214253D01*
X145021Y-213286D01*
X144780Y-212098D01*
X144780Y-201923D01*
X145003Y-200779D01*
X145673Y-199767D01*
X146427Y-199013D01*
X147394Y-198361D01*
X148583Y-198120D01*
X170075Y-198120D01*
X170160Y-198114D01*
X170175Y-198111D01*
X170268Y-198032D01*
X175186Y-193114D01*
X175242Y-193050D01*
X175250Y-193037D01*
X175260Y-192916D01*
X175260Y-163068D01*
X175465Y-161969D01*
X176119Y-160947D01*
X177119Y-160261D01*
X178308Y-160020D01*
X201422Y-160020D01*
X202521Y-160225D01*
X203543Y-160879D01*
X204229Y-161879D01*
X204470Y-163068D01*
X204470Y-212852D01*
X204265Y-213951D01*
X203611Y-214973D01*
X202611Y-215659D01*
G37*
G36*
X-1301Y-208179D02*
X-1796Y-208280D01*
X-36304Y-208280D01*
X-36781Y-208187D01*
X-37202Y-207908D01*
X-37728Y-207382D01*
X-37999Y-206979D01*
X-38100Y-206484D01*
X-38100Y-201186D01*
X-38007Y-200709D01*
X-37728Y-200288D01*
X-35932Y-198492D01*
X-35529Y-198221D01*
X-35034Y-198120D01*
X-29300Y-198120D01*
X-29210Y-198107D01*
X-29153Y-198063D01*
X-26734Y-195644D01*
X-26679Y-195571D01*
X-26670Y-195500D01*
X-26670Y-171976D01*
X-26577Y-171499D01*
X-26298Y-171078D01*
X-24502Y-169282D01*
X-24099Y-169011D01*
X-23604Y-168910D01*
X-1796Y-168910D01*
X-1319Y-169003D01*
X-898Y-169282D01*
X898Y-171078D01*
X1169Y-171481D01*
X1270Y-171976D01*
X1270Y-205214D01*
X1177Y-205691D01*
X898Y-206112D01*
X-898Y-207908D01*
X-1301Y-208179D01*
G37*
G36*
X-134651Y-206909D02*
X-135146Y-207010D01*
X-169654Y-207010D01*
X-170131Y-206917D01*
X-170552Y-206638D01*
X-172348Y-204842D01*
X-172619Y-204439D01*
X-172720Y-203944D01*
X-172720Y-199916D01*
X-172627Y-199439D01*
X-172348Y-199018D01*
X-169282Y-195952D01*
X-168879Y-195681D01*
X-168384Y-195580D01*
X-162650Y-195580D01*
X-162560Y-195567D01*
X-162503Y-195523D01*
X-158814Y-191834D01*
X-158759Y-191761D01*
X-158750Y-191690D01*
X-158750Y-171976D01*
X-158657Y-171499D01*
X-158378Y-171078D01*
X-155312Y-168012D01*
X-154909Y-167741D01*
X-154414Y-167640D01*
X-136416Y-167640D01*
X-135939Y-167733D01*
X-135518Y-168012D01*
X-132452Y-171078D01*
X-132181Y-171481D01*
X-132080Y-171976D01*
X-132080Y-203944D01*
X-132173Y-204421D01*
X-132452Y-204842D01*
X-134248Y-206638D01*
X-134651Y-206909D01*
G37*
G36*
X129466Y-205499D02*
X128278Y-205740D01*
X99053Y-205740D01*
X97909Y-205517D01*
X96897Y-204847D01*
X96143Y-204093D01*
X95491Y-203126D01*
X95250Y-201938D01*
X95250Y-198113D01*
X95473Y-196969D01*
X96143Y-195957D01*
X98167Y-193933D01*
X99134Y-193281D01*
X100323Y-193040D01*
X106575Y-193040D01*
X106660Y-193034D01*
X106675Y-193031D01*
X106768Y-192952D01*
X109146Y-190574D01*
X109202Y-190510D01*
X109210Y-190497D01*
X109220Y-190376D01*
X109220Y-166878D01*
X109425Y-165779D01*
X110079Y-164757D01*
X111079Y-164071D01*
X112268Y-163830D01*
X129032Y-163830D01*
X130131Y-164035D01*
X131153Y-164689D01*
X131839Y-165689D01*
X132080Y-166878D01*
X132080Y-201938D01*
X131857Y-203081D01*
X131187Y-204093D01*
X130433Y-204847D01*
X129466Y-205499D01*
G37*
D10*
X28096Y190462D03*
X-32406Y190221D03*
X148499Y-296900D03*
X1270Y-298170D03*
X-146427Y-298115D03*
D11*
X-93980Y-157480D03*
X-80010Y-157480D03*
X-93980Y-168910D03*
X-80010Y-168910D03*
X-93980Y-182880D03*
X-80010Y-182880D03*
X-95250Y-198120D03*
X-80010Y-198120D03*
X-80010Y-213360D03*
X-95250Y-213360D03*
X-109220Y-213360D03*
X-109220Y-203200D03*
X-106680Y-66040D03*
X-95250Y-77470D03*
X-87630Y-91440D03*
X36830Y-160020D03*
X53340Y-160020D03*
X36830Y-172720D03*
X53340Y-172720D03*
X36830Y-186690D03*
X53340Y-186690D03*
X53340Y-213360D03*
X38100Y-213360D03*
X21590Y-213360D03*
X21590Y-203200D03*
X36830Y-200660D03*
X53340Y-200660D03*
X38100Y-80010D03*
X38100Y-88900D03*
X38100Y-99060D03*
X179070Y-163830D03*
X200660Y-163830D03*
X179070Y-179070D03*
X200660Y-179070D03*
X179070Y-194310D03*
X200660Y-194310D03*
X200660Y-212090D03*
X156210Y-201930D03*
X170180Y-201930D03*
X156210Y-212090D03*
X170180Y-212090D03*
X185420Y-212090D03*
X190500Y-201930D03*
X167640Y-66040D03*
X193040Y-66040D03*
X186690Y-92710D03*
X-150224Y-1270D03*
X-150224Y-11430D03*
X-6350Y140970D03*
X-6350Y152400D03*
X-6350Y165100D03*
X-82550Y137160D03*
X-69850Y95250D03*
X-73660Y67310D03*
X-11430Y35560D03*
X-45720Y-8890D03*
X-21590Y-31750D03*
X2540Y-34290D03*
X-91222Y59908D03*
X-37035Y-21385D03*
X-266700Y29210D03*
X-255270Y19050D03*
X-193040Y-163830D03*
X-167640Y-163830D03*
X-193040Y-184150D03*
X-167640Y-184150D03*
X-193040Y-173990D03*
X-167640Y-173990D03*
X-180340Y-173990D03*
X-180340Y-184150D03*
X-193040Y-194310D03*
X-180340Y-194310D03*
X-114300Y-167640D03*
X-104140Y-167640D03*
X-113030Y-180340D03*
X-104140Y-180340D03*
X-113030Y-193040D03*
X-104140Y-193040D03*
X-73660Y-76200D03*
X-85090Y-57150D03*
X-33020Y-166370D03*
X-55880Y-166370D03*
X-55880Y-187960D03*
X-33020Y-187960D03*
X-44450Y-187960D03*
X-55880Y-176530D03*
X-33020Y-176530D03*
X-44450Y-176530D03*
X13970Y-170180D03*
X26670Y-170180D03*
X13970Y-181610D03*
X26670Y-181610D03*
X-45720Y-196624D03*
X-24130Y-81280D03*
X-11430Y-101600D03*
X60960Y-97790D03*
X82550Y-166370D03*
X102870Y-166370D03*
X102870Y-186690D03*
X82550Y-194310D03*
X82550Y-180340D03*
X102870Y-176530D03*
X92710Y-179070D03*
X92710Y-191770D03*
X168910Y-163830D03*
X168910Y-179070D03*
X167640Y-190500D03*
X149860Y-190500D03*
X149860Y-176530D03*
X60734Y-78740D03*
X155363Y-166793D03*
X123190Y-78740D03*
X-255270Y-207010D03*
X-236220Y-194310D03*
X-220980Y-134620D03*
X-247650Y-96520D03*
X-236220Y-167640D03*
X-246380Y-135890D03*
X-264160Y-176530D03*
X-290830Y-146050D03*
X-313690Y-120650D03*
X-298450Y-85090D03*
X-284480Y-39370D03*
X-260350Y-67310D03*
X-67310Y-269240D03*
X-82550Y-278130D03*
X-99060Y-325120D03*
X-99060Y-311150D03*
X-99060Y-299720D03*
X-67310Y-293370D03*
X-85090Y-292100D03*
X-67310Y-280670D03*
X72390Y-259080D03*
X77470Y-271780D03*
X77470Y-290830D03*
X57150Y-292100D03*
X198120Y-255270D03*
X199390Y-232410D03*
X217170Y-232410D03*
X215900Y-166370D03*
X215900Y-186690D03*
X215900Y-207010D03*
X209550Y-271780D03*
X232410Y-247650D03*
X247650Y-207010D03*
X259080Y-166370D03*
X294640Y-147320D03*
X312420Y-105410D03*
X279400Y-69850D03*
X270510Y-13970D03*
X161290Y-1270D03*
X223520Y-1270D03*
X193040Y-33020D03*
X236220Y-60960D03*
X237490Y-123190D03*
X266700Y54610D03*
X302260Y91440D03*
X297180Y143510D03*
X241300Y138430D03*
X199390Y102870D03*
X187960Y137160D03*
X124460Y172720D03*
X82550Y193040D03*
X-66040Y205740D03*
X-66040Y190500D03*
X-66040Y175260D03*
X-99060Y195580D03*
X-110490Y187960D03*
X-82550Y201930D03*
X-68580Y156210D03*
X-60960Y148590D03*
X-48260Y82550D03*
X0Y82550D03*
X36830Y49530D03*
X41910Y12700D03*
X20320Y30480D03*
X8890Y53340D03*
X-34290Y54610D03*
X-58420Y43180D03*
X-13970Y-22860D03*
X-7620Y-63500D03*
X-44450Y-57150D03*
X-97790Y-20320D03*
X-67310Y-44450D03*
X-105410Y-49530D03*
X-140970Y-67310D03*
X-142240Y-31750D03*
X-175260Y-33020D03*
X-168910Y-48260D03*
X-203200Y-78740D03*
X-217170Y-77470D03*
X-237490Y-55880D03*
X-259080Y-34290D03*
X-241300Y-2540D03*
X-209550Y-2540D03*
X-247650Y-20320D03*
X-222250Y-43180D03*
X81280Y130810D03*
X64770Y130810D03*
X95250Y120650D03*
X123190Y151130D03*
X123190Y139700D03*
X109220Y190500D03*
X133350Y-109220D03*
X132080Y-59690D03*
X100330Y-50800D03*
X125730Y-39370D03*
X91440Y-24130D03*
X118110Y-6350D03*
X92710Y12700D03*
X118110Y13970D03*
X54610Y81280D03*
X54610Y33020D03*
X27940Y81280D03*
X-259080Y146050D03*
X-295910Y144780D03*
X-311150Y110490D03*
X-283210Y74930D03*
X-222250Y118110D03*
X-251460Y102870D03*
X-257810Y72390D03*
X-233680Y149860D03*
X-220980Y-10160D03*
X-196850Y-27940D03*
X-129540Y100330D03*
X-129540Y86360D03*
X-256540Y27940D03*
X0Y0D03*
X13068Y-192138D03*
X25768Y-192138D03*
X58420Y-278277D03*
X104140Y-125730D03*
X113616Y-111760D03*
X104116Y-137160D03*
X86360Y-83820D03*
X86360Y-124460D03*
X123190Y-95250D03*
X-57150Y-71120D03*
X-59690Y-55880D03*
X-27940Y-114300D03*
X-38100Y-139700D03*
X-38100Y-127000D03*
X-222476Y-99060D03*
X-161290Y-113030D03*
X-171450Y-138430D03*
X-171450Y-125730D03*
X-219710Y-160020D03*
X-218440Y-198120D03*
X-196850Y-220980D03*
X-151130Y-101600D03*
X-123190Y-105410D03*
X-104140Y-105410D03*
X-139700Y-113030D03*
X-157480Y-74930D03*
X-130810Y-50800D03*
X-148590Y-50800D03*
X-102870Y-2540D03*
X-80010Y-29210D03*
X12700Y-104140D03*
X22860Y-57150D03*
X57150Y-54610D03*
X-25400Y-58420D03*
X-62230Y-248920D03*
X-60960Y-223520D03*
X-62230Y-153670D03*
X72390Y-218440D03*
X71120Y-238760D03*
X72390Y-149860D03*
X147320Y-40640D03*
X213360Y-85090D03*
X168910Y-43180D03*
X227330Y-33020D03*
X247650Y-90170D03*
X-73660Y-99060D03*
X41910Y-12700D03*
X43180Y-34290D03*
X71120Y-27940D03*
X71120Y-8890D03*
X57150Y-19050D03*
X17780Y116840D03*
X-21590Y116840D03*
X59690Y116840D03*
X91440Y90170D03*
X-59690Y123190D03*
X-41910Y100330D03*
X-5080Y100330D03*
X38100Y100330D03*
X72390Y71120D03*
X72390Y39370D03*
X72390Y11430D03*
X-195580Y109220D03*
X-191300Y145210D03*
D12*
X-195580Y140930D01*
X-195580Y109220D01*
D11*
X151130Y115570D03*
X224790Y22860D03*
X245110Y66040D03*
X151130Y68580D03*
X151130Y91440D03*
X151130Y44450D03*
X175260Y22860D03*
X200660Y24130D03*
X175260Y44450D03*
X175260Y67310D03*
X200660Y44450D03*
X200660Y66040D03*
X224790Y66040D03*
X224790Y44450D03*
X245110Y44450D03*
X19050Y-24130D03*
X-222250Y138430D03*
X-228600Y25400D03*
X-219505Y13765D03*
X151356Y22860D03*
X-126795Y-9955D03*
X-93904Y134696D03*
X95250Y-102870D03*
X-48260Y-104140D03*
X-181610Y-101600D03*
X-209550Y106680D03*
X-215900Y99060D03*
X92710Y105410D03*
D12*
X116840Y105410D01*
D11*
X116840Y105410D03*
X88900Y-274320D03*
X101600Y-274320D03*
X115570Y-274320D03*
X128270Y-274320D03*
X88900Y-287020D03*
X88900Y-299720D03*
X102870Y-288290D03*
X118110Y-288290D03*
X127000Y-317500D03*
X134620Y-326138D03*
X172720Y-275590D03*
X195580Y-289560D03*
X180340Y-302260D03*
X181610Y-289560D03*
X150217Y-157261D03*
D12*
X138430Y-264160D02*
X128270Y-274320D01*
X138430Y-264160D02*
X138430Y-169047D01*
X150217Y-157261D01*
D11*
X187960Y-279656D03*
X109220Y-153670D03*
D12*
X78740Y-153670D01*
X73660Y-158750D01*
X73660Y-200660D01*
X78740Y-205740D01*
X80010Y-205740D01*
D11*
X80010Y-205740D03*
X113030Y-167640D03*
X128270Y-167640D03*
X113030Y-179070D03*
X100330Y-199390D03*
X114300Y-199390D03*
X127000Y-199390D03*
X128270Y-189230D03*
X113030Y-189230D03*
X129054Y-179070D03*
D13*
X121434Y-171450D02*
X121434Y-140484D01*
X121434Y-171450D02*
X129054Y-179070D01*
X121434Y-140484D02*
X120650Y-139700D01*
D11*
X120650Y-139700D03*
D12*
X83820Y-59690D02*
X67310Y-43180D01*
D11*
X67310Y-43180D03*
X-102870Y10160D03*
D12*
X-120244Y10160D01*
D11*
X-137862Y26798D03*
D12*
X-136882Y26798D02*
X-120244Y10160D01*
X-136882Y26798D02*
X-137862Y26798D01*
D11*
X76200Y-120650D03*
D12*
X76200Y-77470D01*
X83820Y-69850D01*
X83820Y-59690D01*
D11*
X-165100Y100330D03*
D12*
X-146050Y100330D01*
D11*
X-146050Y100330D03*
X-165100Y113894D03*
X-137160Y113894D03*
D12*
X-165100Y113894D01*
D11*
X-53088Y109220D03*
D12*
X-57150Y109220D01*
D11*
X-95360Y124338D03*
D12*
X-72268Y124338D01*
X-57150Y109220D01*
D11*
X-30480Y-154940D03*
D12*
X-66040Y-201930D02*
X-62230Y-205740D01*
X-53340Y-205740D01*
D11*
X-53340Y-205740D03*
D12*
X-54200Y-154940D02*
X-30480Y-154940D01*
X-66040Y-166780D02*
X-66040Y-201930D01*
X-66040Y-166780D02*
X-54200Y-154940D01*
D11*
X-3810Y-172720D03*
X-3810Y-182880D03*
X-19050Y-182880D03*
X-19050Y-193040D03*
X-3810Y-193040D03*
X-3810Y-203200D03*
X-19050Y-203200D03*
X-33020Y-203200D03*
D13*
X-19050Y-182880D02*
X-17780Y-181610D01*
X-17780Y-147320D01*
X-20320Y-144780D01*
D11*
X-20320Y-144780D03*
X-191414Y-207010D03*
D14*
X-205384Y-163474D02*
X-196850Y-154940D01*
X-205384Y-163474D02*
X-205384Y-196850D01*
X-195224Y-207010D02*
X-191414Y-207010D01*
X-195224Y-207010D02*
X-205384Y-196850D01*
D11*
X-165100Y-154742D03*
D14*
X-165298Y-154940D01*
X-196850Y-154940D01*
D11*
X-153670Y-182880D03*
X-153670Y-193040D03*
X-153670Y-201930D03*
X-166370Y-201930D03*
X-136116Y-172720D03*
X-136116Y-182880D03*
X-136116Y-193040D03*
X-136116Y-203200D03*
D13*
X-153670Y-182880D02*
X-151130Y-180340D01*
X-151130Y-146050D01*
X-152400Y-144780D01*
D11*
X-152400Y-144780D03*
X-55880Y-280670D03*
X-55880Y-294640D03*
X-55880Y-309880D03*
X-55880Y-325120D03*
X-43180Y-276860D03*
X-21590Y-276860D03*
X45720Y-325120D03*
X45720Y-308610D03*
X45720Y-292100D03*
X21590Y-275590D03*
X39370Y-276860D03*
X31750Y-300990D03*
X22860Y-323850D03*
X-16510Y-325120D03*
X-34290Y-294640D03*
X8890Y-160714D03*
D12*
X6350Y-163254D01*
X6350Y-273050D01*
X3810Y-275590D01*
X21590Y-275590D01*
D11*
X-158750Y35560D03*
D12*
X-167640Y26670D01*
X-167640Y-17780D01*
X-147094Y-38326D01*
D11*
X-63500Y-121920D03*
D12*
X-63500Y-74070D01*
X-63726Y-73844D01*
X-63726Y-69214D01*
X-94614Y-38326D01*
X-147094Y-38326D01*
D11*
X-96520Y-276860D03*
X-116840Y-276860D03*
X-113030Y-298450D03*
X-127000Y-325120D03*
X-179070Y-298450D03*
X-176530Y-278130D03*
X-201930Y-281940D03*
X-194310Y-266700D03*
X-122834Y-160020D03*
D12*
X-122834Y-162560D01*
X-128270Y-167997D01*
X-128270Y-265430D01*
X-116840Y-276860D01*
D11*
X-187960Y-287020D03*
X-110490Y-323850D03*
X-109220Y-311150D03*
X-102870Y-287020D03*
X-215900Y-234950D03*
X-231140Y-250190D03*
X-210820Y52070D03*
D12*
X-270510Y52070D01*
X-274320Y48260D01*
D11*
X-274320Y48260D03*
X-66040Y5080D03*
D12*
X-62230Y5080D01*
X-59690Y2540D01*
X-59690Y-10160D01*
D11*
X-59690Y-10160D03*
X26670Y-12700D03*
D12*
X-54610Y15240D02*
X-54610Y26670D01*
X-52070Y29210D01*
D11*
X-52070Y29210D03*
X6350Y24130D03*
D12*
X-54610Y15240D02*
X-56439Y13411D01*
D11*
X-60249Y13292D03*
D12*
X-60130Y13411D02*
X-56439Y13411D01*
X-60130Y13411D02*
X-60249Y13292D01*
D11*
X-16510Y16510D03*
X-48260Y2540D03*
D12*
X-48260Y3810D01*
X-44450Y7620D01*
X-44450Y24130D01*
D11*
X-17780Y26444D03*
D12*
X-42136Y26444D02*
X-44450Y24130D01*
X-42136Y26444D02*
X-17780Y26444D01*
D11*
X-73660Y35560D03*
D12*
X-71120Y33020D01*
X-71120Y30480D01*
X-91440Y10160D01*
D11*
X-91440Y10160D03*
X-60946Y-22846D03*
X-128322Y74930D03*
D12*
X-125782Y77470D01*
X-73660Y77470D01*
D11*
X-73660Y77470D03*
X31674Y-2464D03*
X-114300Y170180D03*
D12*
X-139700Y148590D02*
X-146910Y141380D01*
X-139700Y148590D02*
X-139700Y167640D01*
X-137160Y170180D01*
X-114300Y170180D01*
D11*
X-157198Y140984D03*
D12*
X-156802Y141380D02*
X-146910Y141380D01*
X-156802Y141380D02*
X-157198Y140984D01*
D11*
X-134620Y177800D03*
X-156408Y150072D03*
D12*
X-148378Y150072D01*
X-147320Y151130D01*
X-147320Y172720D01*
X-142240Y177800D01*
X-134620Y177800D01*
M02*
