G04 EAGLE Gerber RS-274X export*
G75*
%MOMM*%
%FSLAX34Y34*%
%LPD*%
%INSilkscreen Bottom*%
%IPPOS*%
%AMOC8*
5,1,8,0,0,1.08239X$1,22.5*%
G01*
G04 Define Apertures*
%ADD10C,0.152400*%
%ADD11C,0.127000*%
G36*
X-168618Y86360D02*
X-172309Y86360D01*
X-172661Y86370D01*
X-173003Y86398D01*
X-173334Y86446D01*
X-173654Y86512D01*
X-173964Y86598D01*
X-174263Y86703D01*
X-174552Y86827D01*
X-174831Y86969D01*
X-175096Y87130D01*
X-175346Y87307D01*
X-175580Y87502D01*
X-175799Y87713D01*
X-176002Y87940D01*
X-176190Y88185D01*
X-176362Y88446D01*
X-176519Y88724D01*
X-176658Y89016D01*
X-176779Y89320D01*
X-176881Y89636D01*
X-176965Y89964D01*
X-177030Y90304D01*
X-177077Y90656D01*
X-177105Y91020D01*
X-177114Y91396D01*
X-177093Y91959D01*
X-177029Y92489D01*
X-176922Y92985D01*
X-176773Y93449D01*
X-176582Y93879D01*
X-176348Y94276D01*
X-176071Y94640D01*
X-175752Y94971D01*
X-175393Y95266D01*
X-174999Y95521D01*
X-174569Y95737D01*
X-174103Y95914D01*
X-173602Y96052D01*
X-173064Y96150D01*
X-172491Y96209D01*
X-171882Y96228D01*
X-168618Y96228D01*
X-168618Y86360D01*
G37*
%LPC*%
G36*
X-169956Y87432D02*
X-169956Y95157D01*
X-171854Y95157D01*
X-172316Y95142D01*
X-172750Y95097D01*
X-173156Y95021D01*
X-173534Y94916D01*
X-173884Y94781D01*
X-174205Y94615D01*
X-174499Y94419D01*
X-174764Y94194D01*
X-175000Y93939D01*
X-175204Y93658D01*
X-175377Y93349D01*
X-175518Y93013D01*
X-175628Y92649D01*
X-175706Y92259D01*
X-175753Y91841D01*
X-175769Y91396D01*
X-175762Y91096D01*
X-175742Y90807D01*
X-175707Y90527D01*
X-175659Y90258D01*
X-175597Y89998D01*
X-175521Y89749D01*
X-175431Y89510D01*
X-175328Y89281D01*
X-175212Y89063D01*
X-175083Y88859D01*
X-174943Y88667D01*
X-174791Y88489D01*
X-174627Y88324D01*
X-174451Y88172D01*
X-174263Y88033D01*
X-174064Y87908D01*
X-173854Y87796D01*
X-173636Y87699D01*
X-173410Y87618D01*
X-173175Y87551D01*
X-172932Y87499D01*
X-172682Y87461D01*
X-172422Y87439D01*
X-172155Y87432D01*
X-169956Y87432D01*
G37*
%LPD*%
G36*
X-172982Y70980D02*
X-173340Y70990D01*
X-173688Y71022D01*
X-174024Y71074D01*
X-174350Y71146D01*
X-174664Y71240D01*
X-174968Y71354D01*
X-175260Y71489D01*
X-175542Y71645D01*
X-175810Y71821D01*
X-176062Y72016D01*
X-176299Y72230D01*
X-176521Y72463D01*
X-176727Y72715D01*
X-176918Y72986D01*
X-177094Y73276D01*
X-177254Y73585D01*
X-176161Y74132D01*
X-175884Y73651D01*
X-175575Y73234D01*
X-175409Y73049D01*
X-175234Y72881D01*
X-175051Y72729D01*
X-174860Y72593D01*
X-174662Y72472D01*
X-174455Y72368D01*
X-174240Y72280D01*
X-174017Y72208D01*
X-173786Y72152D01*
X-173547Y72112D01*
X-173300Y72088D01*
X-173045Y72080D01*
X-172651Y72097D01*
X-172278Y72148D01*
X-171925Y72235D01*
X-171594Y72355D01*
X-171284Y72510D01*
X-170994Y72700D01*
X-170725Y72924D01*
X-170478Y73183D01*
X-170255Y73469D01*
X-170063Y73779D01*
X-169899Y74110D01*
X-169766Y74463D01*
X-169662Y74839D01*
X-169588Y75237D01*
X-169544Y75657D01*
X-169529Y76100D01*
X-169543Y76546D01*
X-169586Y76968D01*
X-169657Y77366D01*
X-169756Y77739D01*
X-169884Y78088D01*
X-170041Y78413D01*
X-170226Y78713D01*
X-170439Y78989D01*
X-170678Y79236D01*
X-170940Y79450D01*
X-171225Y79631D01*
X-171532Y79779D01*
X-171862Y79895D01*
X-172215Y79977D01*
X-172590Y80026D01*
X-172989Y80043D01*
X-173245Y80036D01*
X-173493Y80014D01*
X-173731Y79979D01*
X-173961Y79929D01*
X-174182Y79865D01*
X-174394Y79787D01*
X-174598Y79694D01*
X-174792Y79588D01*
X-174976Y79467D01*
X-175146Y79335D01*
X-175303Y79189D01*
X-175448Y79031D01*
X-175579Y78860D01*
X-175698Y78676D01*
X-175803Y78480D01*
X-175895Y78271D01*
X-177163Y78691D01*
X-177030Y78985D01*
X-176879Y79260D01*
X-176711Y79516D01*
X-176526Y79754D01*
X-176322Y79973D01*
X-176102Y80174D01*
X-175864Y80356D01*
X-175608Y80519D01*
X-175336Y80664D01*
X-175047Y80789D01*
X-174742Y80895D01*
X-174421Y80981D01*
X-174084Y81049D01*
X-173730Y81097D01*
X-173360Y81126D01*
X-172975Y81135D01*
X-172426Y81115D01*
X-171908Y81052D01*
X-171421Y80947D01*
X-170965Y80801D01*
X-170539Y80613D01*
X-170143Y80383D01*
X-169779Y80111D01*
X-169445Y79798D01*
X-169146Y79447D01*
X-168887Y79065D01*
X-168668Y78651D01*
X-168489Y78204D01*
X-168349Y77726D01*
X-168250Y77216D01*
X-168190Y76674D01*
X-168170Y76100D01*
X-168179Y75712D01*
X-168206Y75338D01*
X-168250Y74977D01*
X-168313Y74630D01*
X-168393Y74295D01*
X-168491Y73974D01*
X-168607Y73666D01*
X-168741Y73372D01*
X-168892Y73092D01*
X-169059Y72829D01*
X-169242Y72582D01*
X-169441Y72353D01*
X-169657Y72139D01*
X-169889Y71943D01*
X-170137Y71763D01*
X-170401Y71600D01*
X-170679Y71454D01*
X-170970Y71329D01*
X-171274Y71222D01*
X-171590Y71135D01*
X-171919Y71067D01*
X-172261Y71019D01*
X-172615Y70990D01*
X-172982Y70980D01*
G37*
G36*
X-172337Y54470D02*
X-172667Y54477D01*
X-172991Y54497D01*
X-173308Y54532D01*
X-173620Y54579D01*
X-173926Y54641D01*
X-174225Y54716D01*
X-174519Y54805D01*
X-174806Y54908D01*
X-175353Y55149D01*
X-175856Y55436D01*
X-176314Y55767D01*
X-176729Y56144D01*
X-176729Y59548D01*
X-172547Y59548D01*
X-172547Y58427D01*
X-175496Y58427D01*
X-175496Y56648D01*
X-175217Y56409D01*
X-174898Y56196D01*
X-174539Y56010D01*
X-174141Y55850D01*
X-173714Y55721D01*
X-173271Y55629D01*
X-172813Y55574D01*
X-172337Y55556D01*
X-171925Y55572D01*
X-171536Y55623D01*
X-171170Y55708D01*
X-170826Y55826D01*
X-170506Y55978D01*
X-170209Y56164D01*
X-169934Y56384D01*
X-169683Y56638D01*
X-169458Y56920D01*
X-169263Y57228D01*
X-169098Y57560D01*
X-168963Y57917D01*
X-168858Y58298D01*
X-168783Y58704D01*
X-168738Y59134D01*
X-168723Y59590D01*
X-168738Y60046D01*
X-168780Y60475D01*
X-168850Y60879D01*
X-168949Y61256D01*
X-169076Y61606D01*
X-169232Y61930D01*
X-169415Y62228D01*
X-169627Y62500D01*
X-169865Y62742D01*
X-170129Y62952D01*
X-170418Y63129D01*
X-170732Y63275D01*
X-171071Y63388D01*
X-171435Y63468D01*
X-171825Y63517D01*
X-172239Y63533D01*
X-172509Y63527D01*
X-172767Y63509D01*
X-173013Y63479D01*
X-173249Y63437D01*
X-173473Y63382D01*
X-173686Y63316D01*
X-173887Y63238D01*
X-174078Y63148D01*
X-174258Y63044D01*
X-174427Y62927D01*
X-174587Y62795D01*
X-174737Y62649D01*
X-174877Y62488D01*
X-175007Y62314D01*
X-175237Y61922D01*
X-176512Y62300D01*
X-176366Y62594D01*
X-176206Y62868D01*
X-176031Y63121D01*
X-175841Y63352D01*
X-175637Y63564D01*
X-175418Y63754D01*
X-175184Y63923D01*
X-174936Y64072D01*
X-174670Y64202D01*
X-174386Y64314D01*
X-174082Y64409D01*
X-173759Y64487D01*
X-173417Y64548D01*
X-173055Y64591D01*
X-172674Y64617D01*
X-172274Y64625D01*
X-171708Y64605D01*
X-171173Y64543D01*
X-170672Y64440D01*
X-170203Y64296D01*
X-169767Y64111D01*
X-169363Y63885D01*
X-168992Y63617D01*
X-168653Y63309D01*
X-168351Y62963D01*
X-168090Y62582D01*
X-167868Y62169D01*
X-167687Y61721D01*
X-167546Y61239D01*
X-167445Y60723D01*
X-167385Y60173D01*
X-167365Y59590D01*
X-167374Y59204D01*
X-167402Y58831D01*
X-167448Y58471D01*
X-167513Y58123D01*
X-167596Y57789D01*
X-167698Y57467D01*
X-167818Y57158D01*
X-167956Y56862D01*
X-168113Y56580D01*
X-168285Y56316D01*
X-168475Y56069D01*
X-168681Y55838D01*
X-168903Y55625D01*
X-169142Y55428D01*
X-169397Y55249D01*
X-169669Y55086D01*
X-169956Y54942D01*
X-170256Y54817D01*
X-170569Y54711D01*
X-170896Y54624D01*
X-171237Y54557D01*
X-171590Y54508D01*
X-171957Y54480D01*
X-172337Y54470D01*
G37*
D10*
X-16764Y16764D02*
X-12097Y16764D01*
X16764Y16764D02*
X16764Y12097D01*
X16764Y-16764D02*
X12097Y-16764D01*
X-16764Y-16764D02*
X-16764Y-12097D01*
X-16764Y12097D02*
X-16764Y16764D01*
X12097Y16764D02*
X16764Y16764D01*
X16764Y-12097D02*
X16764Y-16764D01*
X-12097Y-16764D02*
X-16764Y-16764D01*
D11*
X3874Y-23710D02*
X3874Y-34710D01*
X16446Y-34710D02*
X16446Y-23710D01*
X1280Y-23710D02*
X1280Y-34710D01*
X-11440Y-34710D02*
X-11440Y-23710D01*
X31760Y8470D02*
X31760Y19470D01*
X19040Y19470D02*
X19040Y8470D01*
X-26250Y6360D02*
X-37250Y6360D01*
X-37250Y-6360D02*
X-26250Y-6360D01*
X-26250Y19060D02*
X-37250Y19060D01*
X-37250Y6340D02*
X-26250Y6340D01*
X3820Y24980D02*
X3820Y35980D01*
X-8900Y35980D02*
X-8900Y24980D01*
X-26250Y-6340D02*
X-37250Y-6340D01*
X-37250Y-19060D02*
X-26250Y-19060D01*
M02*
