G04 EAGLE Gerber RS-274X export*
G75*
%MOMM*%
%FSLAX34Y34*%
%LPD*%
%INSilkscreen Top*%
%IPPOS*%
%AMOC8*
5,1,8,0,0,1.08239X$1,22.5*%
G01*
G04 Define Apertures*
%ADD10C,0.127000*%
%ADD11C,0.200000*%
%ADD12C,0.120000*%
%ADD13C,0.500000*%
%ADD14R,0.250000X0.250000*%
%ADD15C,0.152400*%
%ADD16C,0.254000*%
G36*
X-5852Y62230D02*
X-7190Y62230D01*
X-7190Y72098D01*
X-2546Y72098D01*
X-2141Y72087D01*
X-1760Y72052D01*
X-1403Y71993D01*
X-1069Y71912D01*
X-759Y71807D01*
X-473Y71679D01*
X-211Y71527D01*
X28Y71352D01*
X240Y71157D01*
X425Y70943D01*
X580Y70711D01*
X708Y70460D01*
X807Y70192D01*
X878Y69905D01*
X921Y69599D01*
X935Y69276D01*
X925Y69006D01*
X895Y68748D01*
X845Y68500D01*
X775Y68264D01*
X684Y68038D01*
X574Y67823D01*
X444Y67620D01*
X294Y67427D01*
X126Y67248D01*
X-57Y67087D01*
X-255Y66943D01*
X-344Y66890D01*
X-469Y66816D01*
X-697Y66706D01*
X-941Y66614D01*
X-1200Y66539D01*
X-1475Y66481D01*
X-282Y64672D01*
X1327Y62230D01*
X-214Y62230D01*
X-2777Y66327D01*
X-5852Y66327D01*
X-5852Y62230D01*
G37*
%LPC*%
G36*
X-2623Y67385D02*
X-2366Y67393D01*
X-2124Y67416D01*
X-1897Y67454D01*
X-1686Y67508D01*
X-1489Y67578D01*
X-1307Y67663D01*
X-1140Y67763D01*
X-988Y67879D01*
X-852Y68008D01*
X-735Y68150D01*
X-636Y68305D01*
X-554Y68471D01*
X-491Y68650D01*
X-446Y68842D01*
X-419Y69046D01*
X-410Y69262D01*
X-419Y69471D01*
X-447Y69667D01*
X-492Y69850D01*
X-556Y70021D01*
X-638Y70179D01*
X-739Y70324D01*
X-858Y70456D01*
X-995Y70575D01*
X-1149Y70681D01*
X-1319Y70773D01*
X-1506Y70850D01*
X-1708Y70914D01*
X-1927Y70963D01*
X-2162Y70999D01*
X-2412Y71020D01*
X-2679Y71027D01*
X-5852Y71027D01*
X-5852Y67385D01*
X-2623Y67385D01*
G37*
%LPD*%
G36*
X14565Y62090D02*
X14152Y62109D01*
X13776Y62168D01*
X13436Y62265D01*
X13133Y62402D01*
X12861Y62581D01*
X12615Y62809D01*
X12397Y63084D01*
X12205Y63407D01*
X12191Y63407D01*
X12163Y62745D01*
X12121Y62230D01*
X10902Y62230D01*
X10934Y62810D01*
X10944Y63792D01*
X10944Y72624D01*
X12205Y72624D01*
X12205Y69661D01*
X12177Y68589D01*
X12205Y68589D01*
X12394Y68928D01*
X12612Y69215D01*
X12858Y69450D01*
X13133Y69633D01*
X13439Y69771D01*
X13780Y69869D01*
X14155Y69928D01*
X14565Y69948D01*
X14912Y69933D01*
X15235Y69888D01*
X15535Y69812D01*
X15811Y69707D01*
X16063Y69571D01*
X16291Y69405D01*
X16496Y69208D01*
X16677Y68982D01*
X16835Y68724D01*
X16972Y68436D01*
X17088Y68117D01*
X17184Y67766D01*
X17257Y67385D01*
X17310Y66972D01*
X17342Y66529D01*
X17352Y66054D01*
X17342Y65574D01*
X17309Y65125D01*
X17254Y64707D01*
X17178Y64320D01*
X17080Y63964D01*
X16960Y63638D01*
X16819Y63344D01*
X16656Y63081D01*
X16471Y62849D01*
X16264Y62647D01*
X16035Y62477D01*
X15785Y62338D01*
X15512Y62229D01*
X15218Y62152D01*
X14903Y62105D01*
X14565Y62090D01*
G37*
%LPC*%
G36*
X14229Y63021D02*
X14459Y63032D01*
X14672Y63065D01*
X14869Y63120D01*
X15049Y63197D01*
X15213Y63296D01*
X15360Y63417D01*
X15491Y63560D01*
X15605Y63725D01*
X15704Y63915D01*
X15790Y64132D01*
X15863Y64377D01*
X15923Y64649D01*
X15969Y64949D01*
X16002Y65276D01*
X16022Y65630D01*
X16029Y66012D01*
X16022Y66395D01*
X16003Y66751D01*
X15970Y67077D01*
X15924Y67376D01*
X15865Y67646D01*
X15792Y67889D01*
X15707Y68103D01*
X15609Y68288D01*
X15495Y68449D01*
X15366Y68589D01*
X15220Y68707D01*
X15057Y68803D01*
X14878Y68878D01*
X14683Y68932D01*
X14471Y68964D01*
X14243Y68975D01*
X13986Y68963D01*
X13747Y68929D01*
X13526Y68872D01*
X13323Y68793D01*
X13138Y68690D01*
X12971Y68565D01*
X12822Y68417D01*
X12691Y68246D01*
X12577Y68051D01*
X12479Y67829D01*
X12395Y67580D01*
X12326Y67304D01*
X12273Y67002D01*
X12235Y66673D01*
X12212Y66317D01*
X12205Y65935D01*
X12212Y65574D01*
X12234Y65238D01*
X12272Y64926D01*
X12324Y64638D01*
X12391Y64375D01*
X12473Y64137D01*
X12569Y63922D01*
X12681Y63732D01*
X12809Y63566D01*
X12956Y63421D01*
X13122Y63299D01*
X13306Y63199D01*
X13509Y63121D01*
X13730Y63066D01*
X13970Y63033D01*
X14229Y63021D01*
G37*
%LPD*%
G36*
X54440Y62090D02*
X54027Y62109D01*
X53651Y62168D01*
X53311Y62265D01*
X53008Y62402D01*
X52736Y62581D01*
X52490Y62809D01*
X52272Y63084D01*
X52080Y63407D01*
X52066Y63407D01*
X52038Y62745D01*
X51996Y62230D01*
X50777Y62230D01*
X50809Y62810D01*
X50819Y63792D01*
X50819Y72624D01*
X52080Y72624D01*
X52080Y69661D01*
X52052Y68589D01*
X52080Y68589D01*
X52269Y68928D01*
X52487Y69215D01*
X52733Y69450D01*
X53008Y69633D01*
X53314Y69771D01*
X53655Y69869D01*
X54030Y69928D01*
X54440Y69948D01*
X54787Y69933D01*
X55110Y69888D01*
X55410Y69812D01*
X55686Y69707D01*
X55938Y69571D01*
X56166Y69405D01*
X56371Y69208D01*
X56552Y68982D01*
X56710Y68724D01*
X56847Y68436D01*
X56963Y68117D01*
X57059Y67766D01*
X57132Y67385D01*
X57185Y66972D01*
X57217Y66529D01*
X57227Y66054D01*
X57217Y65574D01*
X57184Y65125D01*
X57129Y64707D01*
X57053Y64320D01*
X56955Y63964D01*
X56835Y63638D01*
X56694Y63344D01*
X56531Y63081D01*
X56346Y62849D01*
X56139Y62647D01*
X55910Y62477D01*
X55660Y62338D01*
X55387Y62229D01*
X55093Y62152D01*
X54778Y62105D01*
X54440Y62090D01*
G37*
%LPC*%
G36*
X54104Y63021D02*
X54334Y63032D01*
X54547Y63065D01*
X54744Y63120D01*
X54924Y63197D01*
X55088Y63296D01*
X55235Y63417D01*
X55366Y63560D01*
X55480Y63725D01*
X55579Y63915D01*
X55665Y64132D01*
X55738Y64377D01*
X55798Y64649D01*
X55844Y64949D01*
X55877Y65276D01*
X55897Y65630D01*
X55904Y66012D01*
X55897Y66395D01*
X55878Y66751D01*
X55845Y67077D01*
X55799Y67376D01*
X55740Y67646D01*
X55667Y67889D01*
X55582Y68103D01*
X55484Y68288D01*
X55370Y68449D01*
X55241Y68589D01*
X55095Y68707D01*
X54932Y68803D01*
X54753Y68878D01*
X54558Y68932D01*
X54346Y68964D01*
X54118Y68975D01*
X53861Y68963D01*
X53622Y68929D01*
X53401Y68872D01*
X53198Y68793D01*
X53013Y68690D01*
X52846Y68565D01*
X52697Y68417D01*
X52566Y68246D01*
X52452Y68051D01*
X52354Y67829D01*
X52270Y67580D01*
X52201Y67304D01*
X52148Y67002D01*
X52110Y66673D01*
X52087Y66317D01*
X52080Y65935D01*
X52087Y65574D01*
X52109Y65238D01*
X52147Y64926D01*
X52199Y64638D01*
X52266Y64375D01*
X52348Y64137D01*
X52444Y63922D01*
X52556Y63732D01*
X52684Y63566D01*
X52831Y63421D01*
X52997Y63299D01*
X53181Y63199D01*
X53384Y63121D01*
X53605Y63066D01*
X53845Y63033D01*
X54104Y63021D01*
G37*
%LPD*%
G36*
X-47440Y62090D02*
X-47843Y62106D01*
X-48220Y62153D01*
X-48571Y62232D01*
X-48897Y62343D01*
X-49198Y62485D01*
X-49473Y62659D01*
X-49723Y62865D01*
X-49948Y63102D01*
X-50146Y63369D01*
X-50319Y63664D01*
X-50464Y63988D01*
X-50583Y64339D01*
X-50676Y64719D01*
X-50742Y65126D01*
X-50782Y65562D01*
X-50795Y66026D01*
X-50782Y66501D01*
X-50742Y66945D01*
X-50676Y67359D01*
X-50583Y67742D01*
X-50463Y68094D01*
X-50318Y68416D01*
X-50145Y68707D01*
X-49946Y68968D01*
X-49720Y69197D01*
X-49468Y69397D01*
X-49190Y69565D01*
X-48884Y69703D01*
X-48553Y69810D01*
X-48195Y69887D01*
X-47810Y69933D01*
X-47398Y69948D01*
X-46978Y69933D01*
X-46587Y69888D01*
X-46225Y69814D01*
X-45891Y69709D01*
X-45586Y69575D01*
X-45309Y69410D01*
X-45061Y69216D01*
X-44842Y68992D01*
X-44650Y68737D01*
X-44483Y68448D01*
X-44343Y68127D01*
X-44227Y67773D01*
X-44138Y67385D01*
X-44074Y66965D01*
X-44035Y66512D01*
X-44023Y66026D01*
X-44036Y65545D01*
X-44077Y65095D01*
X-44146Y64677D01*
X-44241Y64291D01*
X-44365Y63936D01*
X-44515Y63614D01*
X-44693Y63323D01*
X-44898Y63063D01*
X-45129Y62835D01*
X-45385Y62638D01*
X-45666Y62470D01*
X-45971Y62333D01*
X-46302Y62227D01*
X-46656Y62151D01*
X-47036Y62105D01*
X-47440Y62090D01*
G37*
%LPC*%
G36*
X-47454Y63021D02*
X-47181Y63033D01*
X-46928Y63067D01*
X-46695Y63124D01*
X-46482Y63204D01*
X-46289Y63306D01*
X-46117Y63431D01*
X-45965Y63579D01*
X-45833Y63750D01*
X-45719Y63945D01*
X-45620Y64165D01*
X-45536Y64411D01*
X-45468Y64683D01*
X-45415Y64980D01*
X-45377Y65303D01*
X-45354Y65652D01*
X-45346Y66026D01*
X-45354Y66405D01*
X-45375Y66757D01*
X-45412Y67082D01*
X-45463Y67380D01*
X-45528Y67652D01*
X-45608Y67897D01*
X-45703Y68115D01*
X-45812Y68306D01*
X-45938Y68472D01*
X-46085Y68617D01*
X-46250Y68739D01*
X-46436Y68839D01*
X-46642Y68917D01*
X-46867Y68972D01*
X-47112Y69006D01*
X-47377Y69017D01*
X-47644Y69005D01*
X-47892Y68971D01*
X-48121Y68915D01*
X-48331Y68835D01*
X-48521Y68734D01*
X-48693Y68609D01*
X-48845Y68462D01*
X-48978Y68292D01*
X-49093Y68098D01*
X-49194Y67878D01*
X-49279Y67633D01*
X-49348Y67363D01*
X-49402Y67067D01*
X-49441Y66745D01*
X-49464Y66399D01*
X-49471Y66026D01*
X-49464Y65663D01*
X-49441Y65323D01*
X-49403Y65007D01*
X-49350Y64714D01*
X-49281Y64444D01*
X-49198Y64197D01*
X-49099Y63974D01*
X-48985Y63774D01*
X-48854Y63598D01*
X-48707Y63445D01*
X-48541Y63316D01*
X-48359Y63210D01*
X-48159Y63127D01*
X-47941Y63068D01*
X-47707Y63033D01*
X-47454Y63021D01*
G37*
%LPD*%
G36*
X-16378Y62090D02*
X-16780Y62106D01*
X-17157Y62153D01*
X-17509Y62232D01*
X-17835Y62343D01*
X-18135Y62485D01*
X-18411Y62659D01*
X-18661Y62865D01*
X-18885Y63102D01*
X-19084Y63369D01*
X-19256Y63664D01*
X-19402Y63988D01*
X-19521Y64339D01*
X-19614Y64719D01*
X-19680Y65126D01*
X-19719Y65562D01*
X-19733Y66026D01*
X-19719Y66501D01*
X-19680Y66945D01*
X-19613Y67359D01*
X-19520Y67742D01*
X-19401Y68094D01*
X-19255Y68416D01*
X-19083Y68707D01*
X-18883Y68968D01*
X-18658Y69197D01*
X-18406Y69397D01*
X-18127Y69565D01*
X-17822Y69703D01*
X-17490Y69810D01*
X-17132Y69887D01*
X-16747Y69933D01*
X-16336Y69948D01*
X-15916Y69933D01*
X-15525Y69888D01*
X-15162Y69814D01*
X-14828Y69709D01*
X-14523Y69575D01*
X-14247Y69410D01*
X-13999Y69216D01*
X-13779Y68992D01*
X-13587Y68737D01*
X-13421Y68448D01*
X-13280Y68127D01*
X-13165Y67773D01*
X-13075Y67385D01*
X-13011Y66965D01*
X-12973Y66512D01*
X-12960Y66026D01*
X-12974Y65545D01*
X-13015Y65095D01*
X-13083Y64677D01*
X-13179Y64291D01*
X-13302Y63936D01*
X-13453Y63614D01*
X-13630Y63323D01*
X-13836Y63063D01*
X-14067Y62835D01*
X-14323Y62638D01*
X-14603Y62470D01*
X-14909Y62333D01*
X-15239Y62227D01*
X-15594Y62151D01*
X-15974Y62105D01*
X-16378Y62090D01*
G37*
%LPC*%
G36*
X-16392Y63021D02*
X-16118Y63033D01*
X-15865Y63067D01*
X-15632Y63124D01*
X-15419Y63204D01*
X-15227Y63306D01*
X-15054Y63431D01*
X-14902Y63579D01*
X-14771Y63750D01*
X-14656Y63945D01*
X-14558Y64165D01*
X-14474Y64411D01*
X-14405Y64683D01*
X-14352Y64980D01*
X-14314Y65303D01*
X-14291Y65652D01*
X-14284Y66026D01*
X-14291Y66405D01*
X-14313Y66757D01*
X-14349Y67082D01*
X-14400Y67380D01*
X-14466Y67652D01*
X-14546Y67897D01*
X-14640Y68115D01*
X-14750Y68306D01*
X-14876Y68472D01*
X-15022Y68617D01*
X-15188Y68739D01*
X-15374Y68839D01*
X-15579Y68917D01*
X-15805Y68972D01*
X-16050Y69006D01*
X-16315Y69017D01*
X-16582Y69005D01*
X-16830Y68971D01*
X-17059Y68915D01*
X-17268Y68835D01*
X-17459Y68734D01*
X-17630Y68609D01*
X-17782Y68462D01*
X-17915Y68292D01*
X-18031Y68098D01*
X-18131Y67878D01*
X-18216Y67633D01*
X-18286Y67363D01*
X-18340Y67067D01*
X-18378Y66745D01*
X-18401Y66399D01*
X-18409Y66026D01*
X-18401Y65663D01*
X-18379Y65323D01*
X-18341Y65007D01*
X-18287Y64714D01*
X-18219Y64444D01*
X-18135Y64197D01*
X-18036Y63974D01*
X-17922Y63774D01*
X-17792Y63598D01*
X-17644Y63445D01*
X-17479Y63316D01*
X-17296Y63210D01*
X-17096Y63127D01*
X-16879Y63068D01*
X-16644Y63033D01*
X-16392Y63021D01*
G37*
%LPD*%
G36*
X5966Y62090D02*
X5564Y62106D01*
X5187Y62153D01*
X4835Y62232D01*
X4509Y62343D01*
X4208Y62485D01*
X3933Y62659D01*
X3683Y62865D01*
X3459Y63102D01*
X3260Y63369D01*
X3088Y63664D01*
X2942Y63988D01*
X2823Y64339D01*
X2730Y64719D01*
X2664Y65126D01*
X2624Y65562D01*
X2611Y66026D01*
X2624Y66501D01*
X2664Y66945D01*
X2730Y67359D01*
X2823Y67742D01*
X2943Y68094D01*
X3089Y68416D01*
X3261Y68707D01*
X3460Y68968D01*
X3686Y69197D01*
X3938Y69397D01*
X4217Y69565D01*
X4522Y69703D01*
X4854Y69810D01*
X5212Y69887D01*
X5597Y69933D01*
X6008Y69948D01*
X6428Y69933D01*
X6819Y69888D01*
X7182Y69814D01*
X7515Y69709D01*
X7821Y69575D01*
X8097Y69410D01*
X8345Y69216D01*
X8564Y68992D01*
X8756Y68737D01*
X8923Y68448D01*
X9064Y68127D01*
X9179Y67773D01*
X9269Y67385D01*
X9333Y66965D01*
X9371Y66512D01*
X9384Y66026D01*
X9370Y65545D01*
X9329Y65095D01*
X9261Y64677D01*
X9165Y64291D01*
X9042Y63936D01*
X8891Y63614D01*
X8713Y63323D01*
X8508Y63063D01*
X8277Y62835D01*
X8021Y62638D01*
X7740Y62470D01*
X7435Y62333D01*
X7105Y62227D01*
X6750Y62151D01*
X6370Y62105D01*
X5966Y62090D01*
G37*
%LPC*%
G36*
X5952Y63021D02*
X6225Y63033D01*
X6479Y63067D01*
X6712Y63124D01*
X6925Y63204D01*
X7117Y63306D01*
X7289Y63431D01*
X7441Y63579D01*
X7573Y63750D01*
X7687Y63945D01*
X7786Y64165D01*
X7870Y64411D01*
X7938Y64683D01*
X7992Y64980D01*
X8030Y65303D01*
X8052Y65652D01*
X8060Y66026D01*
X8053Y66405D01*
X8031Y66757D01*
X7995Y67082D01*
X7944Y67380D01*
X7878Y67652D01*
X7798Y67897D01*
X7703Y68115D01*
X7594Y68306D01*
X7468Y68472D01*
X7322Y68617D01*
X7156Y68739D01*
X6970Y68839D01*
X6764Y68917D01*
X6539Y68972D01*
X6294Y69006D01*
X6029Y69017D01*
X5762Y69005D01*
X5514Y68971D01*
X5285Y68915D01*
X5076Y68835D01*
X4885Y68734D01*
X4714Y68609D01*
X4562Y68462D01*
X4429Y68292D01*
X4313Y68098D01*
X4213Y67878D01*
X4128Y67633D01*
X4058Y67363D01*
X4004Y67067D01*
X3966Y66745D01*
X3943Y66399D01*
X3935Y66026D01*
X3942Y65663D01*
X3965Y65323D01*
X4003Y65007D01*
X4056Y64714D01*
X4125Y64444D01*
X4209Y64197D01*
X4307Y63974D01*
X4422Y63774D01*
X4552Y63598D01*
X4700Y63445D01*
X4865Y63316D01*
X5048Y63210D01*
X5248Y63127D01*
X5465Y63068D01*
X5700Y63033D01*
X5952Y63021D01*
G37*
%LPD*%
G36*
X21903Y62090D02*
X21501Y62106D01*
X21124Y62153D01*
X20773Y62232D01*
X20447Y62343D01*
X20146Y62485D01*
X19871Y62659D01*
X19621Y62865D01*
X19396Y63102D01*
X19197Y63369D01*
X19025Y63664D01*
X18880Y63988D01*
X18760Y64339D01*
X18668Y64719D01*
X18602Y65126D01*
X18562Y65562D01*
X18549Y66026D01*
X18562Y66501D01*
X18602Y66945D01*
X18668Y67359D01*
X18761Y67742D01*
X18880Y68094D01*
X19026Y68416D01*
X19199Y68707D01*
X19398Y68968D01*
X19623Y69197D01*
X19875Y69397D01*
X20154Y69565D01*
X20459Y69703D01*
X20791Y69810D01*
X21149Y69887D01*
X21534Y69933D01*
X21945Y69948D01*
X22365Y69933D01*
X22757Y69888D01*
X23119Y69814D01*
X23453Y69709D01*
X23758Y69575D01*
X24035Y69410D01*
X24283Y69216D01*
X24502Y68992D01*
X24694Y68737D01*
X24860Y68448D01*
X25001Y68127D01*
X25116Y67773D01*
X25206Y67385D01*
X25270Y66965D01*
X25308Y66512D01*
X25321Y66026D01*
X25308Y65545D01*
X25267Y65095D01*
X25198Y64677D01*
X25102Y64291D01*
X24979Y63936D01*
X24829Y63614D01*
X24651Y63323D01*
X24446Y63063D01*
X24215Y62835D01*
X23959Y62638D01*
X23678Y62470D01*
X23372Y62333D01*
X23042Y62227D01*
X22687Y62151D01*
X22308Y62105D01*
X21903Y62090D01*
G37*
%LPC*%
G36*
X21889Y63021D02*
X22163Y63033D01*
X22416Y63067D01*
X22649Y63124D01*
X22862Y63204D01*
X23055Y63306D01*
X23227Y63431D01*
X23379Y63579D01*
X23511Y63750D01*
X23625Y63945D01*
X23724Y64165D01*
X23807Y64411D01*
X23876Y64683D01*
X23929Y64980D01*
X23967Y65303D01*
X23990Y65652D01*
X23998Y66026D01*
X23990Y66405D01*
X23968Y66757D01*
X23932Y67082D01*
X23881Y67380D01*
X23816Y67652D01*
X23736Y67897D01*
X23641Y68115D01*
X23532Y68306D01*
X23405Y68472D01*
X23259Y68617D01*
X23093Y68739D01*
X22908Y68839D01*
X22702Y68917D01*
X22477Y68972D01*
X22231Y69006D01*
X21966Y69017D01*
X21699Y69005D01*
X21451Y68971D01*
X21223Y68915D01*
X21013Y68835D01*
X20823Y68734D01*
X20651Y68609D01*
X20499Y68462D01*
X20366Y68292D01*
X20250Y68098D01*
X20150Y67878D01*
X20065Y67633D01*
X19996Y67363D01*
X19942Y67067D01*
X19903Y66745D01*
X19880Y66399D01*
X19872Y66026D01*
X19880Y65663D01*
X19903Y65323D01*
X19941Y65007D01*
X19994Y64714D01*
X20062Y64444D01*
X20146Y64197D01*
X20245Y63974D01*
X20359Y63774D01*
X20489Y63598D01*
X20637Y63445D01*
X20802Y63316D01*
X20985Y63210D01*
X21185Y63127D01*
X21402Y63068D01*
X21637Y63033D01*
X21889Y63021D01*
G37*
%LPD*%
G36*
X44783Y62090D02*
X44507Y62099D01*
X44248Y62128D01*
X44007Y62175D01*
X43784Y62241D01*
X43578Y62325D01*
X43390Y62429D01*
X43220Y62551D01*
X43067Y62692D01*
X42933Y62850D01*
X42816Y63021D01*
X42717Y63207D01*
X42637Y63407D01*
X42574Y63620D01*
X42529Y63848D01*
X42502Y64090D01*
X42493Y64345D01*
X42505Y64631D01*
X42541Y64899D01*
X42602Y65151D01*
X42687Y65385D01*
X42795Y65603D01*
X42928Y65803D01*
X43086Y65986D01*
X43267Y66152D01*
X43475Y66301D01*
X43713Y66431D01*
X43981Y66542D01*
X44278Y66635D01*
X44605Y66710D01*
X44962Y66767D01*
X45348Y66805D01*
X45764Y66824D01*
X47466Y66852D01*
X47466Y67266D01*
X47460Y67489D01*
X47441Y67695D01*
X47411Y67885D01*
X47368Y68059D01*
X47313Y68216D01*
X47245Y68357D01*
X47165Y68481D01*
X47074Y68589D01*
X46968Y68683D01*
X46849Y68764D01*
X46716Y68833D01*
X46569Y68889D01*
X46408Y68933D01*
X46233Y68964D01*
X46044Y68982D01*
X45841Y68989D01*
X45446Y68971D01*
X45109Y68917D01*
X44830Y68827D01*
X44608Y68701D01*
X44435Y68536D01*
X44300Y68329D01*
X44204Y68078D01*
X44146Y67784D01*
X42829Y67903D01*
X42879Y68151D01*
X42947Y68382D01*
X43034Y68598D01*
X43140Y68798D01*
X43265Y68982D01*
X43408Y69149D01*
X43570Y69301D01*
X43750Y69437D01*
X43950Y69557D01*
X44168Y69661D01*
X44404Y69748D01*
X44660Y69820D01*
X44934Y69876D01*
X45227Y69916D01*
X45539Y69940D01*
X45869Y69948D01*
X46215Y69938D01*
X46539Y69907D01*
X46841Y69856D01*
X47121Y69784D01*
X47379Y69692D01*
X47614Y69580D01*
X47828Y69447D01*
X48019Y69293D01*
X48188Y69120D01*
X48335Y68929D01*
X48459Y68720D01*
X48560Y68492D01*
X48639Y68246D01*
X48695Y67982D01*
X48729Y67700D01*
X48740Y67399D01*
X48740Y64135D01*
X48750Y63872D01*
X48777Y63644D01*
X48823Y63450D01*
X48888Y63291D01*
X48978Y63167D01*
X49101Y63078D01*
X49258Y63025D01*
X49448Y63007D01*
X49642Y63020D01*
X49861Y63056D01*
X49861Y62272D01*
X49622Y62223D01*
X49380Y62188D01*
X49135Y62167D01*
X48888Y62160D01*
X48561Y62183D01*
X48283Y62252D01*
X48052Y62367D01*
X47868Y62528D01*
X47726Y62738D01*
X47619Y63000D01*
X47546Y63314D01*
X47508Y63680D01*
X47466Y63680D01*
X47214Y63277D01*
X46943Y62938D01*
X46652Y62663D01*
X46342Y62451D01*
X46004Y62293D01*
X45632Y62180D01*
X45225Y62112D01*
X44783Y62090D01*
G37*
%LPC*%
G36*
X45070Y63035D02*
X45408Y63055D01*
X45725Y63114D01*
X46024Y63213D01*
X46303Y63351D01*
X46559Y63523D01*
X46786Y63724D01*
X46984Y63955D01*
X47154Y64216D01*
X47290Y64492D01*
X47388Y64773D01*
X47446Y65058D01*
X47466Y65347D01*
X47466Y65970D01*
X46086Y65942D01*
X45668Y65925D01*
X45304Y65889D01*
X44994Y65834D01*
X44738Y65760D01*
X44522Y65664D01*
X44332Y65546D01*
X44170Y65405D01*
X44034Y65242D01*
X43927Y65053D01*
X43850Y64837D01*
X43804Y64594D01*
X43789Y64324D01*
X43810Y64033D01*
X43872Y63778D01*
X43976Y63557D01*
X44121Y63372D01*
X44306Y63225D01*
X44525Y63119D01*
X44780Y63056D01*
X45070Y63035D01*
G37*
%LPD*%
G36*
X-58446Y62230D02*
X-59783Y62230D01*
X-59783Y72098D01*
X-58446Y72098D01*
X-58446Y67154D01*
X-53690Y72098D01*
X-52114Y72098D01*
X-56317Y67812D01*
X-51554Y62230D01*
X-53214Y62230D01*
X-57157Y66993D01*
X-58446Y66012D01*
X-58446Y62230D01*
G37*
G36*
X-34017Y62230D02*
X-35278Y62230D01*
X-35278Y72624D01*
X-34017Y72624D01*
X-34017Y69920D01*
X-34042Y69038D01*
X-34073Y68512D01*
X-34052Y68512D01*
X-33839Y68859D01*
X-33605Y69156D01*
X-33350Y69403D01*
X-33075Y69601D01*
X-32771Y69753D01*
X-32428Y69861D01*
X-32048Y69927D01*
X-31629Y69948D01*
X-31331Y69939D01*
X-31053Y69910D01*
X-30796Y69862D01*
X-30558Y69795D01*
X-30341Y69709D01*
X-30144Y69603D01*
X-29968Y69479D01*
X-29812Y69335D01*
X-29674Y69169D01*
X-29556Y68977D01*
X-29455Y68759D01*
X-29373Y68515D01*
X-29309Y68245D01*
X-29263Y67949D01*
X-29236Y67627D01*
X-29227Y67280D01*
X-29227Y62230D01*
X-30494Y62230D01*
X-30494Y67035D01*
X-30504Y67408D01*
X-30531Y67731D01*
X-30577Y68002D01*
X-30641Y68222D01*
X-30727Y68403D01*
X-30836Y68559D01*
X-30968Y68689D01*
X-31125Y68793D01*
X-31309Y68872D01*
X-31526Y68929D01*
X-31775Y68963D01*
X-32056Y68975D01*
X-32273Y68965D01*
X-32479Y68936D01*
X-32674Y68888D01*
X-32857Y68821D01*
X-33030Y68734D01*
X-33192Y68628D01*
X-33342Y68503D01*
X-33482Y68358D01*
X-33607Y68198D01*
X-33716Y68023D01*
X-33808Y67836D01*
X-33883Y67635D01*
X-33942Y67421D01*
X-33984Y67193D01*
X-34009Y66953D01*
X-34017Y66698D01*
X-34017Y62230D01*
G37*
G36*
X-39850Y62090D02*
X-40193Y62097D01*
X-40517Y62119D01*
X-40820Y62155D01*
X-41103Y62206D01*
X-41365Y62272D01*
X-41608Y62352D01*
X-41830Y62447D01*
X-42032Y62556D01*
X-42215Y62680D01*
X-42381Y62821D01*
X-42531Y62978D01*
X-42664Y63152D01*
X-42781Y63342D01*
X-42881Y63548D01*
X-42963Y63770D01*
X-43030Y64009D01*
X-41916Y64226D01*
X-41814Y63942D01*
X-41669Y63698D01*
X-41481Y63495D01*
X-41251Y63333D01*
X-40974Y63209D01*
X-40648Y63120D01*
X-40274Y63067D01*
X-39850Y63049D01*
X-39402Y63068D01*
X-39019Y63123D01*
X-38700Y63215D01*
X-38446Y63344D01*
X-38251Y63509D01*
X-38175Y63606D01*
X-38112Y63711D01*
X-38063Y63826D01*
X-38029Y63950D01*
X-38008Y64084D01*
X-38001Y64226D01*
X-38020Y64440D01*
X-38078Y64632D01*
X-38174Y64804D01*
X-38309Y64954D01*
X-38487Y65088D01*
X-38712Y65210D01*
X-38984Y65320D01*
X-39304Y65417D01*
X-40207Y65655D01*
X-40711Y65794D01*
X-41136Y65932D01*
X-41483Y66069D01*
X-41751Y66205D01*
X-41968Y66347D01*
X-42160Y66503D01*
X-42327Y66674D01*
X-42469Y66860D01*
X-42583Y67063D01*
X-42664Y67288D01*
X-42712Y67536D01*
X-42728Y67805D01*
X-42717Y68056D01*
X-42682Y68292D01*
X-42624Y68513D01*
X-42544Y68718D01*
X-42440Y68908D01*
X-42313Y69082D01*
X-42163Y69241D01*
X-41990Y69384D01*
X-41794Y69512D01*
X-41578Y69622D01*
X-41340Y69715D01*
X-41082Y69791D01*
X-40802Y69851D01*
X-40501Y69893D01*
X-40179Y69919D01*
X-39836Y69927D01*
X-39530Y69920D01*
X-39241Y69900D01*
X-38968Y69865D01*
X-38711Y69817D01*
X-38470Y69755D01*
X-38245Y69679D01*
X-38036Y69589D01*
X-37843Y69486D01*
X-37667Y69367D01*
X-37508Y69232D01*
X-37365Y69080D01*
X-37240Y68912D01*
X-37132Y68726D01*
X-37040Y68525D01*
X-36966Y68306D01*
X-36908Y68071D01*
X-38043Y67931D01*
X-38118Y68169D01*
X-38236Y68377D01*
X-38399Y68556D01*
X-38607Y68705D01*
X-38856Y68823D01*
X-39143Y68907D01*
X-39470Y68958D01*
X-39836Y68975D01*
X-40235Y68958D01*
X-40578Y68910D01*
X-40865Y68829D01*
X-41097Y68716D01*
X-41274Y68569D01*
X-41401Y68390D01*
X-41477Y68177D01*
X-41496Y68058D01*
X-41503Y67931D01*
X-41492Y67777D01*
X-41461Y67637D01*
X-41408Y67511D01*
X-41335Y67399D01*
X-41241Y67298D01*
X-41126Y67204D01*
X-40992Y67119D01*
X-40837Y67042D01*
X-40627Y66961D01*
X-40326Y66867D01*
X-39451Y66635D01*
X-38589Y66393D01*
X-38263Y66279D01*
X-38008Y66170D01*
X-37799Y66060D01*
X-37613Y65945D01*
X-37450Y65824D01*
X-37311Y65697D01*
X-37190Y65562D01*
X-37084Y65418D01*
X-36993Y65263D01*
X-36915Y65098D01*
X-36854Y64922D01*
X-36810Y64735D01*
X-36784Y64535D01*
X-36775Y64324D01*
X-36788Y64064D01*
X-36826Y63819D01*
X-36889Y63589D01*
X-36977Y63375D01*
X-37091Y63176D01*
X-37230Y62993D01*
X-37395Y62824D01*
X-37584Y62671D01*
X-37796Y62535D01*
X-38029Y62417D01*
X-38282Y62317D01*
X-38555Y62235D01*
X-38848Y62172D01*
X-39162Y62126D01*
X-39496Y62099D01*
X-39850Y62090D01*
G37*
G36*
X41416Y62230D02*
X35092Y62230D01*
X35092Y72098D01*
X36429Y72098D01*
X36429Y63323D01*
X41416Y63323D01*
X41416Y62230D01*
G37*
G36*
X28552Y62118D02*
X28368Y62125D01*
X28197Y62145D01*
X28038Y62178D01*
X27890Y62225D01*
X27754Y62286D01*
X27630Y62359D01*
X27518Y62446D01*
X27417Y62547D01*
X27328Y62661D01*
X27252Y62788D01*
X27187Y62929D01*
X27133Y63083D01*
X27092Y63251D01*
X27062Y63432D01*
X27045Y63626D01*
X27039Y63834D01*
X27039Y68891D01*
X26163Y68891D01*
X26163Y69808D01*
X27088Y69808D01*
X27459Y71503D01*
X28300Y71503D01*
X28300Y69808D01*
X29700Y69808D01*
X29700Y68891D01*
X28300Y68891D01*
X28300Y64107D01*
X28311Y63854D01*
X28344Y63642D01*
X28400Y63471D01*
X28478Y63340D01*
X28584Y63244D01*
X28722Y63175D01*
X28894Y63133D01*
X29098Y63119D01*
X29406Y63144D01*
X29826Y63218D01*
X29826Y62286D01*
X29513Y62213D01*
X29196Y62160D01*
X28876Y62128D01*
X28552Y62118D01*
G37*
G36*
X-22830Y62230D02*
X-24090Y62230D01*
X-24090Y68043D01*
X-24101Y68884D01*
X-24133Y69808D01*
X-22942Y69808D01*
X-22886Y68260D01*
X-22858Y68260D01*
X-22702Y68709D01*
X-22534Y69080D01*
X-22355Y69374D01*
X-22164Y69591D01*
X-21948Y69747D01*
X-21692Y69859D01*
X-21395Y69926D01*
X-21058Y69948D01*
X-20804Y69931D01*
X-20547Y69878D01*
X-20547Y68723D01*
X-20841Y68775D01*
X-21219Y68793D01*
X-21409Y68782D01*
X-21588Y68750D01*
X-21755Y68698D01*
X-21911Y68624D01*
X-22054Y68529D01*
X-22187Y68412D01*
X-22307Y68275D01*
X-22417Y68117D01*
X-22513Y67939D01*
X-22597Y67742D01*
X-22668Y67528D01*
X-22727Y67295D01*
X-22772Y67043D01*
X-22804Y66774D01*
X-22823Y66486D01*
X-22830Y66180D01*
X-22830Y62230D01*
G37*
G36*
X-26052Y62230D02*
X-27313Y62230D01*
X-27313Y69808D01*
X-26052Y69808D01*
X-26052Y62230D01*
G37*
G36*
X-26052Y71419D02*
X-27313Y71419D01*
X-27313Y72624D01*
X-26052Y72624D01*
X-26052Y71419D01*
G37*
G36*
X-210209Y-11271D02*
X-211522Y-9011D01*
X-212889Y-11253D01*
X-213931Y-10623D01*
X-212276Y-8450D01*
X-214728Y-7811D01*
X-214334Y-6637D01*
X-211995Y-7575D01*
X-212100Y-4973D01*
X-210909Y-4973D01*
X-211023Y-7557D01*
X-208711Y-6655D01*
X-208317Y-7811D01*
X-210787Y-8450D01*
X-209166Y-10640D01*
X-210209Y-11271D01*
G37*
D10*
X23960Y134740D02*
X23960Y134090D01*
X23960Y162440D02*
X23960Y163090D01*
X-29040Y134740D02*
X-29040Y134090D01*
X-29040Y162440D02*
X-29040Y163090D01*
X-29040Y134090D02*
X23960Y134090D01*
X23960Y163090D02*
X-29040Y163090D01*
D11*
X39460Y148590D02*
X39462Y148653D01*
X39468Y148715D01*
X39478Y148777D01*
X39491Y148839D01*
X39509Y148899D01*
X39530Y148958D01*
X39555Y149016D01*
X39584Y149072D01*
X39616Y149126D01*
X39651Y149178D01*
X39689Y149227D01*
X39731Y149275D01*
X39775Y149319D01*
X39823Y149361D01*
X39872Y149399D01*
X39924Y149434D01*
X39978Y149466D01*
X40034Y149495D01*
X40092Y149520D01*
X40151Y149541D01*
X40211Y149559D01*
X40273Y149572D01*
X40335Y149582D01*
X40397Y149588D01*
X40460Y149590D01*
X40523Y149588D01*
X40585Y149582D01*
X40647Y149572D01*
X40709Y149559D01*
X40769Y149541D01*
X40828Y149520D01*
X40886Y149495D01*
X40942Y149466D01*
X40996Y149434D01*
X41048Y149399D01*
X41097Y149361D01*
X41145Y149319D01*
X41189Y149275D01*
X41231Y149227D01*
X41269Y149178D01*
X41304Y149126D01*
X41336Y149072D01*
X41365Y149016D01*
X41390Y148958D01*
X41411Y148899D01*
X41429Y148839D01*
X41442Y148777D01*
X41452Y148715D01*
X41458Y148653D01*
X41460Y148590D01*
X41458Y148527D01*
X41452Y148465D01*
X41442Y148403D01*
X41429Y148341D01*
X41411Y148281D01*
X41390Y148222D01*
X41365Y148164D01*
X41336Y148108D01*
X41304Y148054D01*
X41269Y148002D01*
X41231Y147953D01*
X41189Y147905D01*
X41145Y147861D01*
X41097Y147819D01*
X41048Y147781D01*
X40996Y147746D01*
X40942Y147714D01*
X40886Y147685D01*
X40828Y147660D01*
X40769Y147639D01*
X40709Y147621D01*
X40647Y147608D01*
X40585Y147598D01*
X40523Y147592D01*
X40460Y147590D01*
X40397Y147592D01*
X40335Y147598D01*
X40273Y147608D01*
X40211Y147621D01*
X40151Y147639D01*
X40092Y147660D01*
X40034Y147685D01*
X39978Y147714D01*
X39924Y147746D01*
X39872Y147781D01*
X39823Y147819D01*
X39775Y147861D01*
X39731Y147905D01*
X39689Y147953D01*
X39651Y148002D01*
X39616Y148054D01*
X39584Y148108D01*
X39555Y148164D01*
X39530Y148222D01*
X39509Y148281D01*
X39491Y148341D01*
X39478Y148403D01*
X39468Y148465D01*
X39462Y148527D01*
X39460Y148590D01*
D10*
X-42760Y137224D02*
X-53760Y137224D01*
X-53760Y149796D02*
X-42760Y149796D01*
X-43600Y137170D02*
X-32600Y137170D01*
X-32600Y124450D02*
X-43600Y124450D01*
X-42760Y162570D02*
X-53760Y162570D01*
X-53760Y149850D02*
X-42760Y149850D01*
X63436Y148046D02*
X63436Y137046D01*
X50864Y137046D02*
X50864Y148046D01*
X78676Y147740D02*
X78676Y136740D01*
X66104Y136740D02*
X66104Y147740D01*
D12*
X73520Y168011D02*
X56020Y168011D01*
X56020Y152029D02*
X73520Y152029D01*
D13*
X136257Y134228D03*
D12*
X131217Y136128D02*
X114217Y136128D01*
X114217Y167324D02*
X131217Y167324D01*
D10*
X105830Y167630D02*
X94830Y167630D01*
X94830Y180350D02*
X105830Y180350D01*
X117690Y120714D02*
X128690Y120714D01*
X128690Y133286D02*
X117690Y133286D01*
X156220Y144360D02*
X156220Y155360D01*
X143500Y155360D02*
X143500Y144360D01*
X156220Y162140D02*
X156220Y173140D01*
X143500Y173140D02*
X143500Y162140D01*
D14*
X245110Y13990D03*
D10*
X238750Y-3390D02*
X238750Y-14390D01*
X251470Y-14390D02*
X251470Y-3390D01*
D11*
X175180Y-63500D02*
X175182Y-63437D01*
X175188Y-63375D01*
X175198Y-63313D01*
X175211Y-63251D01*
X175229Y-63191D01*
X175250Y-63132D01*
X175275Y-63074D01*
X175304Y-63018D01*
X175336Y-62964D01*
X175371Y-62912D01*
X175409Y-62863D01*
X175451Y-62815D01*
X175495Y-62771D01*
X175543Y-62729D01*
X175592Y-62691D01*
X175644Y-62656D01*
X175698Y-62624D01*
X175754Y-62595D01*
X175812Y-62570D01*
X175871Y-62549D01*
X175931Y-62531D01*
X175993Y-62518D01*
X176055Y-62508D01*
X176117Y-62502D01*
X176180Y-62500D01*
X176243Y-62502D01*
X176305Y-62508D01*
X176367Y-62518D01*
X176429Y-62531D01*
X176489Y-62549D01*
X176548Y-62570D01*
X176606Y-62595D01*
X176662Y-62624D01*
X176716Y-62656D01*
X176768Y-62691D01*
X176817Y-62729D01*
X176865Y-62771D01*
X176909Y-62815D01*
X176951Y-62863D01*
X176989Y-62912D01*
X177024Y-62964D01*
X177056Y-63018D01*
X177085Y-63074D01*
X177110Y-63132D01*
X177131Y-63191D01*
X177149Y-63251D01*
X177162Y-63313D01*
X177172Y-63375D01*
X177178Y-63437D01*
X177180Y-63500D01*
X177178Y-63563D01*
X177172Y-63625D01*
X177162Y-63687D01*
X177149Y-63749D01*
X177131Y-63809D01*
X177110Y-63868D01*
X177085Y-63926D01*
X177056Y-63982D01*
X177024Y-64036D01*
X176989Y-64088D01*
X176951Y-64137D01*
X176909Y-64185D01*
X176865Y-64229D01*
X176817Y-64271D01*
X176768Y-64309D01*
X176716Y-64344D01*
X176662Y-64376D01*
X176606Y-64405D01*
X176548Y-64430D01*
X176489Y-64451D01*
X176429Y-64469D01*
X176367Y-64482D01*
X176305Y-64492D01*
X176243Y-64498D01*
X176180Y-64500D01*
X176117Y-64498D01*
X176055Y-64492D01*
X175993Y-64482D01*
X175931Y-64469D01*
X175871Y-64451D01*
X175812Y-64430D01*
X175754Y-64405D01*
X175698Y-64376D01*
X175644Y-64344D01*
X175592Y-64309D01*
X175543Y-64271D01*
X175495Y-64229D01*
X175451Y-64185D01*
X175409Y-64137D01*
X175371Y-64088D01*
X175336Y-64036D01*
X175304Y-63982D01*
X175275Y-63926D01*
X175250Y-63868D01*
X175229Y-63809D01*
X175211Y-63749D01*
X175198Y-63687D01*
X175188Y-63625D01*
X175182Y-63563D01*
X175180Y-63500D01*
D10*
X176330Y-87950D02*
X176330Y-127950D01*
X125930Y-127950D02*
X125930Y-87950D01*
X170244Y-67730D02*
X170244Y-56730D01*
X182816Y-56730D02*
X182816Y-67730D01*
D12*
X179690Y-111663D02*
X193690Y-111663D01*
X179690Y-111663D02*
X179690Y-82440D01*
X193690Y-82440D02*
X193690Y-111663D01*
D10*
X186690Y-91440D02*
X179690Y-82440D01*
X186690Y-91440D02*
X193690Y-82440D01*
X168060Y-157490D02*
X157060Y-157490D01*
X157060Y-144770D02*
X168060Y-144770D01*
X142660Y-158760D02*
X131660Y-158760D01*
X131660Y-146040D02*
X142660Y-146040D01*
X124950Y-166853D02*
X90950Y-166853D01*
X90950Y-191287D02*
X124950Y-191287D01*
X180404Y-138850D02*
X180404Y-127850D01*
X192976Y-127850D02*
X192976Y-138850D01*
X-222366Y19850D02*
X-222366Y27750D01*
X-222366Y19850D02*
X-214466Y19850D01*
X-130266Y19850D02*
X-122366Y19850D01*
X-122366Y27750D01*
X-122366Y111950D02*
X-122366Y119850D01*
X-130266Y119850D01*
X-214466Y119850D02*
X-222366Y119850D01*
X-222366Y111950D01*
D11*
X-210866Y-150D02*
X-210864Y-87D01*
X-210858Y-25D01*
X-210848Y37D01*
X-210835Y99D01*
X-210817Y159D01*
X-210796Y218D01*
X-210771Y276D01*
X-210742Y332D01*
X-210710Y386D01*
X-210675Y438D01*
X-210637Y487D01*
X-210595Y535D01*
X-210551Y579D01*
X-210503Y621D01*
X-210454Y659D01*
X-210402Y694D01*
X-210348Y726D01*
X-210292Y755D01*
X-210234Y780D01*
X-210175Y801D01*
X-210115Y819D01*
X-210053Y832D01*
X-209991Y842D01*
X-209929Y848D01*
X-209866Y850D01*
X-209803Y848D01*
X-209741Y842D01*
X-209679Y832D01*
X-209617Y819D01*
X-209557Y801D01*
X-209498Y780D01*
X-209440Y755D01*
X-209384Y726D01*
X-209330Y694D01*
X-209278Y659D01*
X-209229Y621D01*
X-209181Y579D01*
X-209137Y535D01*
X-209095Y487D01*
X-209057Y438D01*
X-209022Y386D01*
X-208990Y332D01*
X-208961Y276D01*
X-208936Y218D01*
X-208915Y159D01*
X-208897Y99D01*
X-208884Y37D01*
X-208874Y-25D01*
X-208868Y-87D01*
X-208866Y-150D01*
X-208868Y-213D01*
X-208874Y-275D01*
X-208884Y-337D01*
X-208897Y-399D01*
X-208915Y-459D01*
X-208936Y-518D01*
X-208961Y-576D01*
X-208990Y-632D01*
X-209022Y-686D01*
X-209057Y-738D01*
X-209095Y-787D01*
X-209137Y-835D01*
X-209181Y-879D01*
X-209229Y-921D01*
X-209278Y-959D01*
X-209330Y-994D01*
X-209384Y-1026D01*
X-209440Y-1055D01*
X-209498Y-1080D01*
X-209557Y-1101D01*
X-209617Y-1119D01*
X-209679Y-1132D01*
X-209741Y-1142D01*
X-209803Y-1148D01*
X-209866Y-1150D01*
X-209929Y-1148D01*
X-209991Y-1142D01*
X-210053Y-1132D01*
X-210115Y-1119D01*
X-210175Y-1101D01*
X-210234Y-1080D01*
X-210292Y-1055D01*
X-210348Y-1026D01*
X-210402Y-994D01*
X-210454Y-959D01*
X-210503Y-921D01*
X-210551Y-879D01*
X-210595Y-835D01*
X-210637Y-787D01*
X-210675Y-738D01*
X-210710Y-686D01*
X-210742Y-632D01*
X-210771Y-576D01*
X-210796Y-518D01*
X-210817Y-459D01*
X-210835Y-399D01*
X-210848Y-337D01*
X-210858Y-275D01*
X-210864Y-213D01*
X-210866Y-150D01*
D10*
X-86780Y134556D02*
X-75780Y134556D01*
X-75780Y121984D02*
X-86780Y121984D01*
X-237070Y19114D02*
X-248070Y19114D01*
X-248070Y31686D02*
X-237070Y31686D01*
X-142660Y-7556D02*
X-131660Y-7556D01*
X-131660Y5016D02*
X-142660Y5016D01*
X-201510Y144856D02*
X-212510Y144856D01*
X-212510Y132284D02*
X-201510Y132284D01*
X-86780Y121856D02*
X-75780Y121856D01*
X-75780Y109284D02*
X-86780Y109284D01*
D12*
X-105781Y104000D02*
X-105781Y86500D01*
X-89799Y86500D02*
X-89799Y104000D01*
D10*
X-86780Y93916D02*
X-75780Y93916D01*
X-75780Y81344D02*
X-86780Y81344D01*
X-86780Y109156D02*
X-75780Y109156D01*
X-75780Y96584D02*
X-86780Y96584D01*
X-78804Y77890D02*
X-78804Y66890D01*
X-91376Y66890D02*
X-91376Y77890D01*
X-91504Y77890D02*
X-91504Y66890D01*
X-104076Y66890D02*
X-104076Y77890D01*
X-237480Y47410D02*
X-237480Y36410D01*
X-250200Y36410D02*
X-250200Y47410D01*
X-166434Y-2120D02*
X-166434Y-13120D01*
X-179006Y-13120D02*
X-179006Y-2120D01*
X-165110Y-2120D02*
X-165110Y-13120D01*
X-152390Y-13120D02*
X-152390Y-2120D01*
X-193890Y-58356D02*
X-204890Y-58356D01*
X-204890Y-45784D02*
X-193890Y-45784D01*
X-210818Y-34776D02*
X-210818Y-23776D01*
X-223390Y-23776D02*
X-223390Y-34776D01*
D14*
X-254500Y55185D03*
D10*
X-252720Y46836D02*
X-252720Y35836D01*
X-265440Y35836D02*
X-265440Y46836D01*
D11*
X34210Y-66040D02*
X34212Y-65977D01*
X34218Y-65915D01*
X34228Y-65853D01*
X34241Y-65791D01*
X34259Y-65731D01*
X34280Y-65672D01*
X34305Y-65614D01*
X34334Y-65558D01*
X34366Y-65504D01*
X34401Y-65452D01*
X34439Y-65403D01*
X34481Y-65355D01*
X34525Y-65311D01*
X34573Y-65269D01*
X34622Y-65231D01*
X34674Y-65196D01*
X34728Y-65164D01*
X34784Y-65135D01*
X34842Y-65110D01*
X34901Y-65089D01*
X34961Y-65071D01*
X35023Y-65058D01*
X35085Y-65048D01*
X35147Y-65042D01*
X35210Y-65040D01*
X35273Y-65042D01*
X35335Y-65048D01*
X35397Y-65058D01*
X35459Y-65071D01*
X35519Y-65089D01*
X35578Y-65110D01*
X35636Y-65135D01*
X35692Y-65164D01*
X35746Y-65196D01*
X35798Y-65231D01*
X35847Y-65269D01*
X35895Y-65311D01*
X35939Y-65355D01*
X35981Y-65403D01*
X36019Y-65452D01*
X36054Y-65504D01*
X36086Y-65558D01*
X36115Y-65614D01*
X36140Y-65672D01*
X36161Y-65731D01*
X36179Y-65791D01*
X36192Y-65853D01*
X36202Y-65915D01*
X36208Y-65977D01*
X36210Y-66040D01*
X36208Y-66103D01*
X36202Y-66165D01*
X36192Y-66227D01*
X36179Y-66289D01*
X36161Y-66349D01*
X36140Y-66408D01*
X36115Y-66466D01*
X36086Y-66522D01*
X36054Y-66576D01*
X36019Y-66628D01*
X35981Y-66677D01*
X35939Y-66725D01*
X35895Y-66769D01*
X35847Y-66811D01*
X35798Y-66849D01*
X35746Y-66884D01*
X35692Y-66916D01*
X35636Y-66945D01*
X35578Y-66970D01*
X35519Y-66991D01*
X35459Y-67009D01*
X35397Y-67022D01*
X35335Y-67032D01*
X35273Y-67038D01*
X35210Y-67040D01*
X35147Y-67038D01*
X35085Y-67032D01*
X35023Y-67022D01*
X34961Y-67009D01*
X34901Y-66991D01*
X34842Y-66970D01*
X34784Y-66945D01*
X34728Y-66916D01*
X34674Y-66884D01*
X34622Y-66849D01*
X34573Y-66811D01*
X34525Y-66769D01*
X34481Y-66725D01*
X34439Y-66677D01*
X34401Y-66628D01*
X34366Y-66576D01*
X34334Y-66522D01*
X34305Y-66466D01*
X34280Y-66408D01*
X34259Y-66349D01*
X34241Y-66289D01*
X34228Y-66227D01*
X34218Y-66165D01*
X34212Y-66103D01*
X34210Y-66040D01*
D10*
X35360Y-90490D02*
X35360Y-130490D01*
X-15040Y-130490D02*
X-15040Y-90490D01*
X47840Y-72454D02*
X58840Y-72454D01*
X58840Y-85026D02*
X47840Y-85026D01*
D12*
X52720Y-123093D02*
X38720Y-123093D01*
X38720Y-93870D01*
X52720Y-93870D02*
X52720Y-123093D01*
D10*
X45720Y-102870D02*
X38720Y-93870D01*
X45720Y-102870D02*
X52720Y-93870D01*
X27090Y-161300D02*
X16090Y-161300D01*
X16090Y-148580D02*
X27090Y-148580D01*
X1690Y-161300D02*
X-9310Y-161300D01*
X-9310Y-148580D02*
X1690Y-148580D01*
X-9670Y-169393D02*
X-43670Y-169393D01*
X-43670Y-193827D02*
X-9670Y-193827D01*
X39434Y-145200D02*
X39434Y-134200D01*
X52006Y-134200D02*
X52006Y-145200D01*
D11*
X-99140Y-64770D02*
X-99138Y-64707D01*
X-99132Y-64645D01*
X-99122Y-64583D01*
X-99109Y-64521D01*
X-99091Y-64461D01*
X-99070Y-64402D01*
X-99045Y-64344D01*
X-99016Y-64288D01*
X-98984Y-64234D01*
X-98949Y-64182D01*
X-98911Y-64133D01*
X-98869Y-64085D01*
X-98825Y-64041D01*
X-98777Y-63999D01*
X-98728Y-63961D01*
X-98676Y-63926D01*
X-98622Y-63894D01*
X-98566Y-63865D01*
X-98508Y-63840D01*
X-98449Y-63819D01*
X-98389Y-63801D01*
X-98327Y-63788D01*
X-98265Y-63778D01*
X-98203Y-63772D01*
X-98140Y-63770D01*
X-98077Y-63772D01*
X-98015Y-63778D01*
X-97953Y-63788D01*
X-97891Y-63801D01*
X-97831Y-63819D01*
X-97772Y-63840D01*
X-97714Y-63865D01*
X-97658Y-63894D01*
X-97604Y-63926D01*
X-97552Y-63961D01*
X-97503Y-63999D01*
X-97455Y-64041D01*
X-97411Y-64085D01*
X-97369Y-64133D01*
X-97331Y-64182D01*
X-97296Y-64234D01*
X-97264Y-64288D01*
X-97235Y-64344D01*
X-97210Y-64402D01*
X-97189Y-64461D01*
X-97171Y-64521D01*
X-97158Y-64583D01*
X-97148Y-64645D01*
X-97142Y-64707D01*
X-97140Y-64770D01*
X-97142Y-64833D01*
X-97148Y-64895D01*
X-97158Y-64957D01*
X-97171Y-65019D01*
X-97189Y-65079D01*
X-97210Y-65138D01*
X-97235Y-65196D01*
X-97264Y-65252D01*
X-97296Y-65306D01*
X-97331Y-65358D01*
X-97369Y-65407D01*
X-97411Y-65455D01*
X-97455Y-65499D01*
X-97503Y-65541D01*
X-97552Y-65579D01*
X-97604Y-65614D01*
X-97658Y-65646D01*
X-97714Y-65675D01*
X-97772Y-65700D01*
X-97831Y-65721D01*
X-97891Y-65739D01*
X-97953Y-65752D01*
X-98015Y-65762D01*
X-98077Y-65768D01*
X-98140Y-65770D01*
X-98203Y-65768D01*
X-98265Y-65762D01*
X-98327Y-65752D01*
X-98389Y-65739D01*
X-98449Y-65721D01*
X-98508Y-65700D01*
X-98566Y-65675D01*
X-98622Y-65646D01*
X-98676Y-65614D01*
X-98728Y-65579D01*
X-98777Y-65541D01*
X-98825Y-65499D01*
X-98869Y-65455D01*
X-98911Y-65407D01*
X-98949Y-65358D01*
X-98984Y-65306D01*
X-99016Y-65252D01*
X-99045Y-65196D01*
X-99070Y-65138D01*
X-99091Y-65079D01*
X-99109Y-65019D01*
X-99122Y-64957D01*
X-99132Y-64895D01*
X-99138Y-64833D01*
X-99140Y-64770D01*
D10*
X-97990Y-89220D02*
X-97990Y-129220D01*
X-148390Y-129220D02*
X-148390Y-89220D01*
X-93130Y-61024D02*
X-82130Y-61024D01*
X-82130Y-73596D02*
X-93130Y-73596D01*
D12*
X-94630Y-112933D02*
X-80630Y-112933D01*
X-94630Y-112933D02*
X-94630Y-83710D01*
X-80630Y-83710D02*
X-80630Y-112933D01*
D10*
X-87630Y-92710D02*
X-94630Y-83710D01*
X-87630Y-92710D02*
X-80630Y-83710D01*
X-103720Y-162570D02*
X-114720Y-162570D01*
X-114720Y-149850D02*
X-103720Y-149850D01*
X-130390Y-162570D02*
X-141390Y-162570D01*
X-141390Y-149850D02*
X-130390Y-149850D01*
X-144290Y-170663D02*
X-178290Y-170663D01*
X-178290Y-195097D02*
X-144290Y-195097D01*
X-93916Y-140120D02*
X-93916Y-129120D01*
X-81344Y-129120D02*
X-81344Y-140120D01*
D14*
X-253980Y8890D03*
D10*
X-249770Y1280D02*
X-260770Y1280D01*
X-260770Y-11440D02*
X-249770Y-11440D01*
X-119870Y-199597D02*
X-85870Y-199597D01*
D12*
X-85870Y-166163D02*
X-119870Y-166163D01*
D10*
X13480Y-198327D02*
X47480Y-198327D01*
D12*
X47480Y-164893D02*
X13480Y-164893D01*
D10*
X156990Y-195787D02*
X190990Y-195787D01*
D12*
X190990Y-162353D02*
X156990Y-162353D01*
D10*
X101907Y139933D02*
X101907Y161933D01*
X80973Y161933D02*
X80973Y139933D01*
X147750Y141277D02*
X169750Y141277D01*
X169750Y120343D02*
X147750Y120343D01*
D15*
X91133Y113382D02*
X91133Y-14634D01*
X231087Y-14634D01*
X231087Y113382D01*
X91133Y113382D01*
D10*
X-222354Y-2476D02*
X-233354Y-2476D01*
X-233354Y10096D02*
X-222354Y10096D01*
X114130Y-327540D02*
X114130Y-328190D01*
X114130Y-299840D02*
X114130Y-299190D01*
X61130Y-327540D02*
X61130Y-328190D01*
X61130Y-299840D02*
X61130Y-299190D01*
X61130Y-328190D02*
X114130Y-328190D01*
X114130Y-299190D02*
X61130Y-299190D01*
D11*
X129630Y-313690D02*
X129632Y-313627D01*
X129638Y-313565D01*
X129648Y-313503D01*
X129661Y-313441D01*
X129679Y-313381D01*
X129700Y-313322D01*
X129725Y-313264D01*
X129754Y-313208D01*
X129786Y-313154D01*
X129821Y-313102D01*
X129859Y-313053D01*
X129901Y-313005D01*
X129945Y-312961D01*
X129993Y-312919D01*
X130042Y-312881D01*
X130094Y-312846D01*
X130148Y-312814D01*
X130204Y-312785D01*
X130262Y-312760D01*
X130321Y-312739D01*
X130381Y-312721D01*
X130443Y-312708D01*
X130505Y-312698D01*
X130567Y-312692D01*
X130630Y-312690D01*
X130693Y-312692D01*
X130755Y-312698D01*
X130817Y-312708D01*
X130879Y-312721D01*
X130939Y-312739D01*
X130998Y-312760D01*
X131056Y-312785D01*
X131112Y-312814D01*
X131166Y-312846D01*
X131218Y-312881D01*
X131267Y-312919D01*
X131315Y-312961D01*
X131359Y-313005D01*
X131401Y-313053D01*
X131439Y-313102D01*
X131474Y-313154D01*
X131506Y-313208D01*
X131535Y-313264D01*
X131560Y-313322D01*
X131581Y-313381D01*
X131599Y-313441D01*
X131612Y-313503D01*
X131622Y-313565D01*
X131628Y-313627D01*
X131630Y-313690D01*
X131628Y-313753D01*
X131622Y-313815D01*
X131612Y-313877D01*
X131599Y-313939D01*
X131581Y-313999D01*
X131560Y-314058D01*
X131535Y-314116D01*
X131506Y-314172D01*
X131474Y-314226D01*
X131439Y-314278D01*
X131401Y-314327D01*
X131359Y-314375D01*
X131315Y-314419D01*
X131267Y-314461D01*
X131218Y-314499D01*
X131166Y-314534D01*
X131112Y-314566D01*
X131056Y-314595D01*
X130998Y-314620D01*
X130939Y-314641D01*
X130879Y-314659D01*
X130817Y-314672D01*
X130755Y-314682D01*
X130693Y-314688D01*
X130630Y-314690D01*
X130567Y-314688D01*
X130505Y-314682D01*
X130443Y-314672D01*
X130381Y-314659D01*
X130321Y-314641D01*
X130262Y-314620D01*
X130204Y-314595D01*
X130148Y-314566D01*
X130094Y-314534D01*
X130042Y-314499D01*
X129993Y-314461D01*
X129945Y-314419D01*
X129901Y-314375D01*
X129859Y-314327D01*
X129821Y-314278D01*
X129786Y-314226D01*
X129754Y-314172D01*
X129725Y-314116D01*
X129700Y-314058D01*
X129679Y-313999D01*
X129661Y-313939D01*
X129648Y-313877D01*
X129638Y-313815D01*
X129632Y-313753D01*
X129630Y-313690D01*
D10*
X-33190Y-328040D02*
X-33190Y-328690D01*
X-33190Y-300340D02*
X-33190Y-299690D01*
X-86190Y-328040D02*
X-86190Y-328690D01*
X-86190Y-300340D02*
X-86190Y-299690D01*
X-86190Y-328690D02*
X-33190Y-328690D01*
X-33190Y-299690D02*
X-86190Y-299690D01*
D11*
X-17690Y-314190D02*
X-17688Y-314127D01*
X-17682Y-314065D01*
X-17672Y-314003D01*
X-17659Y-313941D01*
X-17641Y-313881D01*
X-17620Y-313822D01*
X-17595Y-313764D01*
X-17566Y-313708D01*
X-17534Y-313654D01*
X-17499Y-313602D01*
X-17461Y-313553D01*
X-17419Y-313505D01*
X-17375Y-313461D01*
X-17327Y-313419D01*
X-17278Y-313381D01*
X-17226Y-313346D01*
X-17172Y-313314D01*
X-17116Y-313285D01*
X-17058Y-313260D01*
X-16999Y-313239D01*
X-16939Y-313221D01*
X-16877Y-313208D01*
X-16815Y-313198D01*
X-16753Y-313192D01*
X-16690Y-313190D01*
X-16627Y-313192D01*
X-16565Y-313198D01*
X-16503Y-313208D01*
X-16441Y-313221D01*
X-16381Y-313239D01*
X-16322Y-313260D01*
X-16264Y-313285D01*
X-16208Y-313314D01*
X-16154Y-313346D01*
X-16102Y-313381D01*
X-16053Y-313419D01*
X-16005Y-313461D01*
X-15961Y-313505D01*
X-15919Y-313553D01*
X-15881Y-313602D01*
X-15846Y-313654D01*
X-15814Y-313708D01*
X-15785Y-313764D01*
X-15760Y-313822D01*
X-15739Y-313881D01*
X-15721Y-313941D01*
X-15708Y-314003D01*
X-15698Y-314065D01*
X-15692Y-314127D01*
X-15690Y-314190D01*
X-15692Y-314253D01*
X-15698Y-314315D01*
X-15708Y-314377D01*
X-15721Y-314439D01*
X-15739Y-314499D01*
X-15760Y-314558D01*
X-15785Y-314616D01*
X-15814Y-314672D01*
X-15846Y-314726D01*
X-15881Y-314778D01*
X-15919Y-314827D01*
X-15961Y-314875D01*
X-16005Y-314919D01*
X-16053Y-314961D01*
X-16102Y-314999D01*
X-16154Y-315034D01*
X-16208Y-315066D01*
X-16264Y-315095D01*
X-16322Y-315120D01*
X-16381Y-315141D01*
X-16441Y-315159D01*
X-16503Y-315172D01*
X-16565Y-315182D01*
X-16627Y-315188D01*
X-16690Y-315190D01*
X-16753Y-315188D01*
X-16815Y-315182D01*
X-16877Y-315172D01*
X-16939Y-315159D01*
X-16999Y-315141D01*
X-17058Y-315120D01*
X-17116Y-315095D01*
X-17172Y-315066D01*
X-17226Y-315034D01*
X-17278Y-314999D01*
X-17327Y-314961D01*
X-17375Y-314919D01*
X-17419Y-314875D01*
X-17461Y-314827D01*
X-17499Y-314778D01*
X-17534Y-314726D01*
X-17566Y-314672D01*
X-17595Y-314616D01*
X-17620Y-314558D01*
X-17641Y-314499D01*
X-17659Y-314439D01*
X-17672Y-314377D01*
X-17682Y-314315D01*
X-17688Y-314253D01*
X-17690Y-314190D01*
D10*
X-219087Y-266346D02*
X-219610Y-266733D01*
X-196820Y-249869D02*
X-196298Y-249483D01*
X-250613Y-223742D02*
X-251135Y-224128D01*
X-228346Y-207265D02*
X-227823Y-206878D01*
X-251135Y-224128D02*
X-219610Y-266733D01*
X-196298Y-249483D02*
X-227823Y-206878D01*
D11*
X-199139Y-271371D02*
X-199137Y-271308D01*
X-199131Y-271246D01*
X-199121Y-271184D01*
X-199108Y-271122D01*
X-199090Y-271062D01*
X-199069Y-271003D01*
X-199044Y-270945D01*
X-199015Y-270889D01*
X-198983Y-270835D01*
X-198948Y-270783D01*
X-198910Y-270734D01*
X-198868Y-270686D01*
X-198824Y-270642D01*
X-198776Y-270600D01*
X-198727Y-270562D01*
X-198675Y-270527D01*
X-198621Y-270495D01*
X-198565Y-270466D01*
X-198507Y-270441D01*
X-198448Y-270420D01*
X-198388Y-270402D01*
X-198326Y-270389D01*
X-198264Y-270379D01*
X-198202Y-270373D01*
X-198139Y-270371D01*
X-198076Y-270373D01*
X-198014Y-270379D01*
X-197952Y-270389D01*
X-197890Y-270402D01*
X-197830Y-270420D01*
X-197771Y-270441D01*
X-197713Y-270466D01*
X-197657Y-270495D01*
X-197603Y-270527D01*
X-197551Y-270562D01*
X-197502Y-270600D01*
X-197454Y-270642D01*
X-197410Y-270686D01*
X-197368Y-270734D01*
X-197330Y-270783D01*
X-197295Y-270835D01*
X-197263Y-270889D01*
X-197234Y-270945D01*
X-197209Y-271003D01*
X-197188Y-271062D01*
X-197170Y-271122D01*
X-197157Y-271184D01*
X-197147Y-271246D01*
X-197141Y-271308D01*
X-197139Y-271371D01*
X-197141Y-271434D01*
X-197147Y-271496D01*
X-197157Y-271558D01*
X-197170Y-271620D01*
X-197188Y-271680D01*
X-197209Y-271739D01*
X-197234Y-271797D01*
X-197263Y-271853D01*
X-197295Y-271907D01*
X-197330Y-271959D01*
X-197368Y-272008D01*
X-197410Y-272056D01*
X-197454Y-272100D01*
X-197502Y-272142D01*
X-197551Y-272180D01*
X-197603Y-272215D01*
X-197657Y-272247D01*
X-197713Y-272276D01*
X-197771Y-272301D01*
X-197830Y-272322D01*
X-197890Y-272340D01*
X-197952Y-272353D01*
X-198014Y-272363D01*
X-198076Y-272369D01*
X-198139Y-272371D01*
X-198202Y-272369D01*
X-198264Y-272363D01*
X-198326Y-272353D01*
X-198388Y-272340D01*
X-198448Y-272322D01*
X-198507Y-272301D01*
X-198565Y-272276D01*
X-198621Y-272247D01*
X-198675Y-272215D01*
X-198727Y-272180D01*
X-198776Y-272142D01*
X-198824Y-272100D01*
X-198868Y-272056D01*
X-198910Y-272008D01*
X-198948Y-271959D01*
X-198983Y-271907D01*
X-199015Y-271853D01*
X-199044Y-271797D01*
X-199069Y-271739D01*
X-199090Y-271680D01*
X-199108Y-271620D01*
X-199121Y-271558D01*
X-199131Y-271496D01*
X-199137Y-271434D01*
X-199139Y-271371D01*
D15*
X145680Y-253220D02*
X145680Y-217220D01*
X194680Y-217220D02*
X194680Y-253220D01*
D16*
X150618Y-278120D02*
X150620Y-278073D01*
X150626Y-278026D01*
X150636Y-277980D01*
X150649Y-277935D01*
X150667Y-277891D01*
X150688Y-277849D01*
X150712Y-277809D01*
X150740Y-277771D01*
X150770Y-277735D01*
X150804Y-277702D01*
X150840Y-277672D01*
X150879Y-277645D01*
X150920Y-277622D01*
X150962Y-277602D01*
X151006Y-277586D01*
X151052Y-277573D01*
X151098Y-277564D01*
X151145Y-277559D01*
X151192Y-277558D01*
X151239Y-277561D01*
X151285Y-277568D01*
X151331Y-277579D01*
X151376Y-277593D01*
X151419Y-277611D01*
X151461Y-277633D01*
X151501Y-277659D01*
X151538Y-277687D01*
X151573Y-277718D01*
X151605Y-277753D01*
X151635Y-277790D01*
X151661Y-277829D01*
X151683Y-277870D01*
X151703Y-277913D01*
X151718Y-277958D01*
X151730Y-278003D01*
X151738Y-278050D01*
X151742Y-278096D01*
X151742Y-278144D01*
X151738Y-278190D01*
X151730Y-278237D01*
X151718Y-278282D01*
X151703Y-278327D01*
X151683Y-278370D01*
X151661Y-278411D01*
X151635Y-278450D01*
X151605Y-278487D01*
X151573Y-278522D01*
X151538Y-278553D01*
X151501Y-278581D01*
X151461Y-278607D01*
X151419Y-278629D01*
X151376Y-278647D01*
X151331Y-278661D01*
X151285Y-278672D01*
X151239Y-278679D01*
X151192Y-278682D01*
X151145Y-278681D01*
X151098Y-278676D01*
X151052Y-278667D01*
X151006Y-278654D01*
X150962Y-278638D01*
X150920Y-278618D01*
X150879Y-278595D01*
X150840Y-278568D01*
X150804Y-278538D01*
X150770Y-278505D01*
X150740Y-278469D01*
X150712Y-278431D01*
X150688Y-278391D01*
X150667Y-278349D01*
X150649Y-278305D01*
X150636Y-278260D01*
X150626Y-278214D01*
X150620Y-278167D01*
X150618Y-278120D01*
D15*
X133720Y-255220D02*
X133720Y-219220D01*
X84720Y-219220D02*
X84720Y-255220D01*
D16*
X127658Y-194320D02*
X127660Y-194273D01*
X127666Y-194226D01*
X127676Y-194180D01*
X127689Y-194135D01*
X127707Y-194091D01*
X127728Y-194049D01*
X127752Y-194009D01*
X127780Y-193971D01*
X127810Y-193935D01*
X127844Y-193902D01*
X127880Y-193872D01*
X127919Y-193845D01*
X127960Y-193822D01*
X128002Y-193802D01*
X128046Y-193786D01*
X128092Y-193773D01*
X128138Y-193764D01*
X128185Y-193759D01*
X128232Y-193758D01*
X128279Y-193761D01*
X128325Y-193768D01*
X128371Y-193779D01*
X128416Y-193793D01*
X128459Y-193811D01*
X128501Y-193833D01*
X128541Y-193859D01*
X128578Y-193887D01*
X128613Y-193918D01*
X128645Y-193953D01*
X128675Y-193990D01*
X128701Y-194029D01*
X128723Y-194070D01*
X128743Y-194113D01*
X128758Y-194158D01*
X128770Y-194203D01*
X128778Y-194250D01*
X128782Y-194296D01*
X128782Y-194344D01*
X128778Y-194390D01*
X128770Y-194437D01*
X128758Y-194482D01*
X128743Y-194527D01*
X128723Y-194570D01*
X128701Y-194611D01*
X128675Y-194650D01*
X128645Y-194687D01*
X128613Y-194722D01*
X128578Y-194753D01*
X128541Y-194781D01*
X128501Y-194807D01*
X128459Y-194829D01*
X128416Y-194847D01*
X128371Y-194861D01*
X128325Y-194872D01*
X128279Y-194879D01*
X128232Y-194882D01*
X128185Y-194881D01*
X128138Y-194876D01*
X128092Y-194867D01*
X128046Y-194854D01*
X128002Y-194838D01*
X127960Y-194818D01*
X127919Y-194795D01*
X127880Y-194768D01*
X127844Y-194738D01*
X127810Y-194705D01*
X127780Y-194669D01*
X127752Y-194631D01*
X127728Y-194591D01*
X127707Y-194549D01*
X127689Y-194505D01*
X127676Y-194460D01*
X127666Y-194414D01*
X127660Y-194367D01*
X127658Y-194320D01*
D15*
X8520Y-217111D02*
X8520Y-253111D01*
X57520Y-253111D02*
X57520Y-217111D01*
D16*
X13458Y-278011D02*
X13460Y-277964D01*
X13466Y-277917D01*
X13476Y-277871D01*
X13489Y-277826D01*
X13507Y-277782D01*
X13528Y-277740D01*
X13552Y-277700D01*
X13580Y-277662D01*
X13610Y-277626D01*
X13644Y-277593D01*
X13680Y-277563D01*
X13719Y-277536D01*
X13760Y-277513D01*
X13802Y-277493D01*
X13846Y-277477D01*
X13892Y-277464D01*
X13938Y-277455D01*
X13985Y-277450D01*
X14032Y-277449D01*
X14079Y-277452D01*
X14125Y-277459D01*
X14171Y-277470D01*
X14216Y-277484D01*
X14259Y-277502D01*
X14301Y-277524D01*
X14341Y-277550D01*
X14378Y-277578D01*
X14413Y-277609D01*
X14445Y-277644D01*
X14475Y-277681D01*
X14501Y-277720D01*
X14523Y-277761D01*
X14543Y-277804D01*
X14558Y-277849D01*
X14570Y-277894D01*
X14578Y-277941D01*
X14582Y-277987D01*
X14582Y-278035D01*
X14578Y-278081D01*
X14570Y-278128D01*
X14558Y-278173D01*
X14543Y-278218D01*
X14523Y-278261D01*
X14501Y-278302D01*
X14475Y-278341D01*
X14445Y-278378D01*
X14413Y-278413D01*
X14378Y-278444D01*
X14341Y-278472D01*
X14301Y-278498D01*
X14259Y-278520D01*
X14216Y-278538D01*
X14171Y-278552D01*
X14125Y-278563D01*
X14079Y-278570D01*
X14032Y-278573D01*
X13985Y-278572D01*
X13938Y-278567D01*
X13892Y-278558D01*
X13846Y-278545D01*
X13802Y-278529D01*
X13760Y-278509D01*
X13719Y-278486D01*
X13680Y-278459D01*
X13644Y-278429D01*
X13610Y-278396D01*
X13580Y-278360D01*
X13552Y-278322D01*
X13528Y-278282D01*
X13507Y-278240D01*
X13489Y-278196D01*
X13476Y-278151D01*
X13466Y-278105D01*
X13460Y-278058D01*
X13458Y-278011D01*
D15*
X370Y-255220D02*
X370Y-219220D01*
X-48630Y-219220D02*
X-48630Y-255220D01*
D16*
X-5692Y-194320D02*
X-5690Y-194273D01*
X-5684Y-194226D01*
X-5674Y-194180D01*
X-5661Y-194135D01*
X-5643Y-194091D01*
X-5622Y-194049D01*
X-5598Y-194009D01*
X-5570Y-193971D01*
X-5540Y-193935D01*
X-5506Y-193902D01*
X-5470Y-193872D01*
X-5431Y-193845D01*
X-5390Y-193822D01*
X-5348Y-193802D01*
X-5304Y-193786D01*
X-5258Y-193773D01*
X-5212Y-193764D01*
X-5165Y-193759D01*
X-5118Y-193758D01*
X-5071Y-193761D01*
X-5025Y-193768D01*
X-4979Y-193779D01*
X-4934Y-193793D01*
X-4891Y-193811D01*
X-4849Y-193833D01*
X-4809Y-193859D01*
X-4772Y-193887D01*
X-4737Y-193918D01*
X-4705Y-193953D01*
X-4675Y-193990D01*
X-4649Y-194029D01*
X-4627Y-194070D01*
X-4607Y-194113D01*
X-4592Y-194158D01*
X-4580Y-194203D01*
X-4572Y-194250D01*
X-4568Y-194296D01*
X-4568Y-194344D01*
X-4572Y-194390D01*
X-4580Y-194437D01*
X-4592Y-194482D01*
X-4607Y-194527D01*
X-4627Y-194570D01*
X-4649Y-194611D01*
X-4675Y-194650D01*
X-4705Y-194687D01*
X-4737Y-194722D01*
X-4772Y-194753D01*
X-4809Y-194781D01*
X-4849Y-194807D01*
X-4891Y-194829D01*
X-4934Y-194847D01*
X-4979Y-194861D01*
X-5025Y-194872D01*
X-5071Y-194879D01*
X-5118Y-194882D01*
X-5165Y-194881D01*
X-5212Y-194876D01*
X-5258Y-194867D01*
X-5304Y-194854D01*
X-5348Y-194838D01*
X-5390Y-194818D01*
X-5431Y-194795D01*
X-5470Y-194768D01*
X-5506Y-194738D01*
X-5540Y-194705D01*
X-5570Y-194669D01*
X-5598Y-194631D01*
X-5622Y-194591D01*
X-5643Y-194549D01*
X-5661Y-194505D01*
X-5674Y-194460D01*
X-5684Y-194414D01*
X-5690Y-194367D01*
X-5692Y-194320D01*
D15*
X-123560Y-215950D02*
X-123560Y-251950D01*
X-74560Y-251950D02*
X-74560Y-215950D01*
D16*
X-118622Y-276850D02*
X-118620Y-276803D01*
X-118614Y-276756D01*
X-118604Y-276710D01*
X-118591Y-276665D01*
X-118573Y-276621D01*
X-118552Y-276579D01*
X-118528Y-276539D01*
X-118500Y-276501D01*
X-118470Y-276465D01*
X-118436Y-276432D01*
X-118400Y-276402D01*
X-118361Y-276375D01*
X-118320Y-276352D01*
X-118278Y-276332D01*
X-118234Y-276316D01*
X-118188Y-276303D01*
X-118142Y-276294D01*
X-118095Y-276289D01*
X-118048Y-276288D01*
X-118001Y-276291D01*
X-117955Y-276298D01*
X-117909Y-276309D01*
X-117864Y-276323D01*
X-117821Y-276341D01*
X-117779Y-276363D01*
X-117739Y-276389D01*
X-117702Y-276417D01*
X-117667Y-276448D01*
X-117635Y-276483D01*
X-117605Y-276520D01*
X-117579Y-276559D01*
X-117557Y-276600D01*
X-117537Y-276643D01*
X-117522Y-276688D01*
X-117510Y-276733D01*
X-117502Y-276780D01*
X-117498Y-276826D01*
X-117498Y-276874D01*
X-117502Y-276920D01*
X-117510Y-276967D01*
X-117522Y-277012D01*
X-117537Y-277057D01*
X-117557Y-277100D01*
X-117579Y-277141D01*
X-117605Y-277180D01*
X-117635Y-277217D01*
X-117667Y-277252D01*
X-117702Y-277283D01*
X-117739Y-277311D01*
X-117779Y-277337D01*
X-117821Y-277359D01*
X-117864Y-277377D01*
X-117909Y-277391D01*
X-117955Y-277402D01*
X-118001Y-277409D01*
X-118048Y-277412D01*
X-118095Y-277411D01*
X-118142Y-277406D01*
X-118188Y-277397D01*
X-118234Y-277384D01*
X-118278Y-277368D01*
X-118320Y-277348D01*
X-118361Y-277325D01*
X-118400Y-277298D01*
X-118436Y-277268D01*
X-118470Y-277235D01*
X-118500Y-277199D01*
X-118528Y-277161D01*
X-118552Y-277121D01*
X-118573Y-277079D01*
X-118591Y-277035D01*
X-118604Y-276990D01*
X-118614Y-276944D01*
X-118620Y-276897D01*
X-118622Y-276850D01*
D15*
X-132980Y-253950D02*
X-132980Y-217950D01*
X-181980Y-217950D02*
X-181980Y-253950D01*
D16*
X-139042Y-193050D02*
X-139040Y-193003D01*
X-139034Y-192956D01*
X-139024Y-192910D01*
X-139011Y-192865D01*
X-138993Y-192821D01*
X-138972Y-192779D01*
X-138948Y-192739D01*
X-138920Y-192701D01*
X-138890Y-192665D01*
X-138856Y-192632D01*
X-138820Y-192602D01*
X-138781Y-192575D01*
X-138740Y-192552D01*
X-138698Y-192532D01*
X-138654Y-192516D01*
X-138608Y-192503D01*
X-138562Y-192494D01*
X-138515Y-192489D01*
X-138468Y-192488D01*
X-138421Y-192491D01*
X-138375Y-192498D01*
X-138329Y-192509D01*
X-138284Y-192523D01*
X-138241Y-192541D01*
X-138199Y-192563D01*
X-138159Y-192589D01*
X-138122Y-192617D01*
X-138087Y-192648D01*
X-138055Y-192683D01*
X-138025Y-192720D01*
X-137999Y-192759D01*
X-137977Y-192800D01*
X-137957Y-192843D01*
X-137942Y-192888D01*
X-137930Y-192933D01*
X-137922Y-192980D01*
X-137918Y-193026D01*
X-137918Y-193074D01*
X-137922Y-193120D01*
X-137930Y-193167D01*
X-137942Y-193212D01*
X-137957Y-193257D01*
X-137977Y-193300D01*
X-137999Y-193341D01*
X-138025Y-193380D01*
X-138055Y-193417D01*
X-138087Y-193452D01*
X-138122Y-193483D01*
X-138159Y-193511D01*
X-138199Y-193537D01*
X-138241Y-193559D01*
X-138284Y-193577D01*
X-138329Y-193591D01*
X-138375Y-193602D01*
X-138421Y-193609D01*
X-138468Y-193612D01*
X-138515Y-193611D01*
X-138562Y-193606D01*
X-138608Y-193597D01*
X-138654Y-193584D01*
X-138698Y-193568D01*
X-138740Y-193548D01*
X-138781Y-193525D01*
X-138820Y-193498D01*
X-138856Y-193468D01*
X-138890Y-193435D01*
X-138920Y-193399D01*
X-138948Y-193361D01*
X-138972Y-193321D01*
X-138993Y-193279D01*
X-139011Y-193235D01*
X-139024Y-193190D01*
X-139034Y-193144D01*
X-139040Y-193097D01*
X-139042Y-193050D01*
D10*
X-58840Y-86424D02*
X-47840Y-86424D01*
X-47840Y-98996D02*
X-58840Y-98996D01*
X-57214Y-103720D02*
X-57214Y-114720D01*
X-69786Y-114720D02*
X-69786Y-103720D01*
X-57140Y-127850D02*
X-57140Y-138850D01*
X-69860Y-138850D02*
X-69860Y-127850D01*
D11*
X-48600Y-152000D02*
X-48598Y-151937D01*
X-48592Y-151875D01*
X-48582Y-151813D01*
X-48569Y-151751D01*
X-48551Y-151691D01*
X-48530Y-151632D01*
X-48505Y-151574D01*
X-48476Y-151518D01*
X-48444Y-151464D01*
X-48409Y-151412D01*
X-48371Y-151363D01*
X-48329Y-151315D01*
X-48285Y-151271D01*
X-48237Y-151229D01*
X-48188Y-151191D01*
X-48136Y-151156D01*
X-48082Y-151124D01*
X-48026Y-151095D01*
X-47968Y-151070D01*
X-47909Y-151049D01*
X-47849Y-151031D01*
X-47787Y-151018D01*
X-47725Y-151008D01*
X-47663Y-151002D01*
X-47600Y-151000D01*
X-47537Y-151002D01*
X-47475Y-151008D01*
X-47413Y-151018D01*
X-47351Y-151031D01*
X-47291Y-151049D01*
X-47232Y-151070D01*
X-47174Y-151095D01*
X-47118Y-151124D01*
X-47064Y-151156D01*
X-47012Y-151191D01*
X-46963Y-151229D01*
X-46915Y-151271D01*
X-46871Y-151315D01*
X-46829Y-151363D01*
X-46791Y-151412D01*
X-46756Y-151464D01*
X-46724Y-151518D01*
X-46695Y-151574D01*
X-46670Y-151632D01*
X-46649Y-151691D01*
X-46631Y-151751D01*
X-46618Y-151813D01*
X-46608Y-151875D01*
X-46602Y-151937D01*
X-46600Y-152000D01*
X-46602Y-152063D01*
X-46608Y-152125D01*
X-46618Y-152187D01*
X-46631Y-152249D01*
X-46649Y-152309D01*
X-46670Y-152368D01*
X-46695Y-152426D01*
X-46724Y-152482D01*
X-46756Y-152536D01*
X-46791Y-152588D01*
X-46829Y-152637D01*
X-46871Y-152685D01*
X-46915Y-152729D01*
X-46963Y-152771D01*
X-47012Y-152809D01*
X-47064Y-152844D01*
X-47118Y-152876D01*
X-47174Y-152905D01*
X-47232Y-152930D01*
X-47291Y-152951D01*
X-47351Y-152969D01*
X-47413Y-152982D01*
X-47475Y-152992D01*
X-47537Y-152998D01*
X-47600Y-153000D01*
X-47663Y-152998D01*
X-47725Y-152992D01*
X-47787Y-152982D01*
X-47849Y-152969D01*
X-47909Y-152951D01*
X-47968Y-152930D01*
X-48026Y-152905D01*
X-48082Y-152876D01*
X-48136Y-152844D01*
X-48188Y-152809D01*
X-48237Y-152771D01*
X-48285Y-152729D01*
X-48329Y-152685D01*
X-48371Y-152637D01*
X-48409Y-152588D01*
X-48444Y-152536D01*
X-48476Y-152482D01*
X-48505Y-152426D01*
X-48530Y-152368D01*
X-48551Y-152309D01*
X-48569Y-152249D01*
X-48582Y-152187D01*
X-48592Y-152125D01*
X-48598Y-152063D01*
X-48600Y-152000D01*
D10*
X-53700Y-135000D02*
X-53700Y-119000D01*
X-22500Y-119000D02*
X-22500Y-135000D01*
X-37680Y-86370D02*
X-48680Y-86370D01*
X-48680Y-73650D02*
X-37680Y-73650D01*
X-37680Y-60950D02*
X-48680Y-60950D01*
X-48680Y-73670D02*
X-37680Y-73670D01*
X-38931Y-98996D02*
X-27931Y-98996D01*
X-27931Y-86424D02*
X-38931Y-86424D01*
X-181190Y-86424D02*
X-192190Y-86424D01*
X-192190Y-98996D02*
X-181190Y-98996D01*
X-196914Y-102450D02*
X-196914Y-113450D01*
X-209486Y-113450D02*
X-209486Y-102450D01*
X-196840Y-127850D02*
X-196840Y-138850D01*
X-209560Y-138850D02*
X-209560Y-127850D01*
D11*
X-181950Y-150730D02*
X-181948Y-150667D01*
X-181942Y-150605D01*
X-181932Y-150543D01*
X-181919Y-150481D01*
X-181901Y-150421D01*
X-181880Y-150362D01*
X-181855Y-150304D01*
X-181826Y-150248D01*
X-181794Y-150194D01*
X-181759Y-150142D01*
X-181721Y-150093D01*
X-181679Y-150045D01*
X-181635Y-150001D01*
X-181587Y-149959D01*
X-181538Y-149921D01*
X-181486Y-149886D01*
X-181432Y-149854D01*
X-181376Y-149825D01*
X-181318Y-149800D01*
X-181259Y-149779D01*
X-181199Y-149761D01*
X-181137Y-149748D01*
X-181075Y-149738D01*
X-181013Y-149732D01*
X-180950Y-149730D01*
X-180887Y-149732D01*
X-180825Y-149738D01*
X-180763Y-149748D01*
X-180701Y-149761D01*
X-180641Y-149779D01*
X-180582Y-149800D01*
X-180524Y-149825D01*
X-180468Y-149854D01*
X-180414Y-149886D01*
X-180362Y-149921D01*
X-180313Y-149959D01*
X-180265Y-150001D01*
X-180221Y-150045D01*
X-180179Y-150093D01*
X-180141Y-150142D01*
X-180106Y-150194D01*
X-180074Y-150248D01*
X-180045Y-150304D01*
X-180020Y-150362D01*
X-179999Y-150421D01*
X-179981Y-150481D01*
X-179968Y-150543D01*
X-179958Y-150605D01*
X-179952Y-150667D01*
X-179950Y-150730D01*
X-179952Y-150793D01*
X-179958Y-150855D01*
X-179968Y-150917D01*
X-179981Y-150979D01*
X-179999Y-151039D01*
X-180020Y-151098D01*
X-180045Y-151156D01*
X-180074Y-151212D01*
X-180106Y-151266D01*
X-180141Y-151318D01*
X-180179Y-151367D01*
X-180221Y-151415D01*
X-180265Y-151459D01*
X-180313Y-151501D01*
X-180362Y-151539D01*
X-180414Y-151574D01*
X-180468Y-151606D01*
X-180524Y-151635D01*
X-180582Y-151660D01*
X-180641Y-151681D01*
X-180701Y-151699D01*
X-180763Y-151712D01*
X-180825Y-151722D01*
X-180887Y-151728D01*
X-180950Y-151730D01*
X-181013Y-151728D01*
X-181075Y-151722D01*
X-181137Y-151712D01*
X-181199Y-151699D01*
X-181259Y-151681D01*
X-181318Y-151660D01*
X-181376Y-151635D01*
X-181432Y-151606D01*
X-181486Y-151574D01*
X-181538Y-151539D01*
X-181587Y-151501D01*
X-181635Y-151459D01*
X-181679Y-151415D01*
X-181721Y-151367D01*
X-181759Y-151318D01*
X-181794Y-151266D01*
X-181826Y-151212D01*
X-181855Y-151156D01*
X-181880Y-151098D01*
X-181901Y-151039D01*
X-181919Y-150979D01*
X-181932Y-150917D01*
X-181942Y-150855D01*
X-181948Y-150793D01*
X-181950Y-150730D01*
D10*
X-187050Y-133730D02*
X-187050Y-117730D01*
X-155850Y-117730D02*
X-155850Y-133730D01*
X-171030Y-86370D02*
X-182030Y-86370D01*
X-182030Y-73650D02*
X-171030Y-73650D01*
X-171030Y-60950D02*
X-182030Y-60950D01*
X-182030Y-73670D02*
X-171030Y-73670D01*
X-171870Y-98996D02*
X-160870Y-98996D01*
X-160870Y-86424D02*
X-171870Y-86424D01*
X84364Y-88964D02*
X95364Y-88964D01*
X95364Y-101536D02*
X84364Y-101536D01*
X82486Y-103720D02*
X82486Y-114720D01*
X69914Y-114720D02*
X69914Y-103720D01*
X82560Y-126580D02*
X82560Y-137580D01*
X69840Y-137580D02*
X69840Y-126580D01*
D11*
X93640Y-149460D02*
X93642Y-149397D01*
X93648Y-149335D01*
X93658Y-149273D01*
X93671Y-149211D01*
X93689Y-149151D01*
X93710Y-149092D01*
X93735Y-149034D01*
X93764Y-148978D01*
X93796Y-148924D01*
X93831Y-148872D01*
X93869Y-148823D01*
X93911Y-148775D01*
X93955Y-148731D01*
X94003Y-148689D01*
X94052Y-148651D01*
X94104Y-148616D01*
X94158Y-148584D01*
X94214Y-148555D01*
X94272Y-148530D01*
X94331Y-148509D01*
X94391Y-148491D01*
X94453Y-148478D01*
X94515Y-148468D01*
X94577Y-148462D01*
X94640Y-148460D01*
X94703Y-148462D01*
X94765Y-148468D01*
X94827Y-148478D01*
X94889Y-148491D01*
X94949Y-148509D01*
X95008Y-148530D01*
X95066Y-148555D01*
X95122Y-148584D01*
X95176Y-148616D01*
X95228Y-148651D01*
X95277Y-148689D01*
X95325Y-148731D01*
X95369Y-148775D01*
X95411Y-148823D01*
X95449Y-148872D01*
X95484Y-148924D01*
X95516Y-148978D01*
X95545Y-149034D01*
X95570Y-149092D01*
X95591Y-149151D01*
X95609Y-149211D01*
X95622Y-149273D01*
X95632Y-149335D01*
X95638Y-149397D01*
X95640Y-149460D01*
X95638Y-149523D01*
X95632Y-149585D01*
X95622Y-149647D01*
X95609Y-149709D01*
X95591Y-149769D01*
X95570Y-149828D01*
X95545Y-149886D01*
X95516Y-149942D01*
X95484Y-149996D01*
X95449Y-150048D01*
X95411Y-150097D01*
X95369Y-150145D01*
X95325Y-150189D01*
X95277Y-150231D01*
X95228Y-150269D01*
X95176Y-150304D01*
X95122Y-150336D01*
X95066Y-150365D01*
X95008Y-150390D01*
X94949Y-150411D01*
X94889Y-150429D01*
X94827Y-150442D01*
X94765Y-150452D01*
X94703Y-150458D01*
X94640Y-150460D01*
X94577Y-150458D01*
X94515Y-150452D01*
X94453Y-150442D01*
X94391Y-150429D01*
X94331Y-150411D01*
X94272Y-150390D01*
X94214Y-150365D01*
X94158Y-150336D01*
X94104Y-150304D01*
X94052Y-150269D01*
X94003Y-150231D01*
X93955Y-150189D01*
X93911Y-150145D01*
X93869Y-150097D01*
X93831Y-150048D01*
X93796Y-149996D01*
X93764Y-149942D01*
X93735Y-149886D01*
X93710Y-149828D01*
X93689Y-149769D01*
X93671Y-149709D01*
X93658Y-149647D01*
X93648Y-149585D01*
X93642Y-149523D01*
X93640Y-149460D01*
D10*
X88540Y-132460D02*
X88540Y-116460D01*
X119740Y-116460D02*
X119740Y-132460D01*
X105830Y-88910D02*
X94830Y-88910D01*
X94830Y-76190D02*
X105830Y-76190D01*
X105830Y-63490D02*
X94830Y-63490D01*
X94830Y-76210D02*
X105830Y-76210D01*
X103720Y-101536D02*
X114720Y-101536D01*
X114720Y-88964D02*
X103720Y-88964D01*
M02*
