G04 EAGLE Gerber RS-274X export*
G75*
%MOMM*%
%FSLAX34Y34*%
%LPD*%
%INSolderpaste Top*%
%IPPOS*%
%AMOC8*
5,1,8,0,0,1.08239X$1,22.5*%
G01*
G04 Define Apertures*
%ADD10C,0.319500*%
%ADD11R,0.560000X0.629100*%
%ADD12R,0.535100X0.644000*%
%ADD13R,0.629100X0.560000*%
%ADD14R,0.900000X0.970200*%
%ADD15R,0.932600X0.970200*%
%ADD16R,1.172300X0.591500*%
%ADD17R,0.644000X0.535100*%
%ADD18R,0.800000X0.800000*%
%ADD19C,0.150000*%
%ADD20R,0.463600X1.037600*%
%ADD21R,1.164600X1.815300*%
%ADD22R,0.280000X1.470000*%
%ADD23R,1.470000X0.280000*%
%ADD24R,0.970200X0.900000*%
%ADD25R,0.970200X0.932600*%
%ADD26R,0.939800X1.066800*%
%ADD27R,1.164600X2.715300*%
%ADD28R,1.465300X1.164600*%
%ADD29R,1.164600X1.465300*%
%ADD30R,3.251200X5.003800*%
%ADD31C,0.284478*%
%ADD32R,2.760000X2.680000*%
%ADD33R,0.610000X1.270000*%
%ADD34R,0.610000X1.020000*%
%ADD35C,0.145000*%
D10*
X9557Y157643D02*
X28863Y157643D01*
X28863Y139537D01*
X9557Y139537D01*
X9557Y157643D01*
X9557Y142572D02*
X28863Y142572D01*
X28863Y145607D02*
X9557Y145607D01*
X9557Y148642D02*
X28863Y148642D01*
X28863Y151677D02*
X9557Y151677D01*
X9557Y154712D02*
X28863Y154712D01*
X-14637Y157643D02*
X-33943Y157643D01*
X-14637Y157643D02*
X-14637Y139537D01*
X-33943Y139537D01*
X-33943Y157643D01*
X-33943Y142572D02*
X-14637Y142572D01*
X-14637Y145607D02*
X-33943Y145607D01*
X-33943Y148642D02*
X-14637Y148642D01*
X-14637Y151677D02*
X-33943Y151677D01*
X-33943Y154712D02*
X-14637Y154712D01*
D11*
X-43414Y143510D03*
X-53106Y143510D03*
D12*
X-43175Y130810D03*
X-33025Y130810D03*
X-53335Y156210D03*
X-43185Y156210D03*
D13*
X57150Y147392D03*
X57150Y137700D03*
X72390Y147086D03*
X72390Y137394D03*
D14*
X56919Y160020D03*
D15*
X72458Y160020D03*
D16*
X135215Y142226D03*
X135215Y151726D03*
X135215Y161226D03*
X110219Y161226D03*
X110219Y151726D03*
X110219Y142226D03*
D12*
X105405Y173990D03*
X95255Y173990D03*
D11*
X128036Y127000D03*
X118344Y127000D03*
D17*
X149860Y154935D03*
X149860Y144785D03*
X149860Y172715D03*
X149860Y162565D03*
D18*
X245110Y7740D03*
X245110Y22740D03*
D17*
X245110Y-13965D03*
X245110Y-3815D03*
D19*
X167930Y-74100D02*
X167930Y-92300D01*
X167930Y-74100D02*
X172430Y-74100D01*
X172430Y-92300D01*
X167930Y-92300D01*
X167930Y-90875D02*
X172430Y-90875D01*
X172430Y-89450D02*
X167930Y-89450D01*
X167930Y-88025D02*
X172430Y-88025D01*
X172430Y-86600D02*
X167930Y-86600D01*
X167930Y-85175D02*
X172430Y-85175D01*
X172430Y-83750D02*
X167930Y-83750D01*
X167930Y-82325D02*
X172430Y-82325D01*
X172430Y-80900D02*
X167930Y-80900D01*
X167930Y-79475D02*
X172430Y-79475D01*
X172430Y-78050D02*
X167930Y-78050D01*
X167930Y-76625D02*
X172430Y-76625D01*
X172430Y-75200D02*
X167930Y-75200D01*
X155230Y-74100D02*
X155230Y-92300D01*
X155230Y-74100D02*
X159730Y-74100D01*
X159730Y-92300D01*
X155230Y-92300D01*
X155230Y-90875D02*
X159730Y-90875D01*
X159730Y-89450D02*
X155230Y-89450D01*
X155230Y-88025D02*
X159730Y-88025D01*
X159730Y-86600D02*
X155230Y-86600D01*
X155230Y-85175D02*
X159730Y-85175D01*
X159730Y-83750D02*
X155230Y-83750D01*
X155230Y-82325D02*
X159730Y-82325D01*
X159730Y-80900D02*
X155230Y-80900D01*
X155230Y-79475D02*
X159730Y-79475D01*
X159730Y-78050D02*
X155230Y-78050D01*
X155230Y-76625D02*
X159730Y-76625D01*
X159730Y-75200D02*
X155230Y-75200D01*
X142530Y-74100D02*
X142530Y-92300D01*
X142530Y-74100D02*
X147030Y-74100D01*
X147030Y-92300D01*
X142530Y-92300D01*
X142530Y-90875D02*
X147030Y-90875D01*
X147030Y-89450D02*
X142530Y-89450D01*
X142530Y-88025D02*
X147030Y-88025D01*
X147030Y-86600D02*
X142530Y-86600D01*
X142530Y-85175D02*
X147030Y-85175D01*
X147030Y-83750D02*
X142530Y-83750D01*
X142530Y-82325D02*
X147030Y-82325D01*
X147030Y-80900D02*
X142530Y-80900D01*
X142530Y-79475D02*
X147030Y-79475D01*
X147030Y-78050D02*
X142530Y-78050D01*
X142530Y-76625D02*
X147030Y-76625D01*
X147030Y-75200D02*
X142530Y-75200D01*
X129830Y-74100D02*
X129830Y-92300D01*
X129830Y-74100D02*
X134330Y-74100D01*
X134330Y-92300D01*
X129830Y-92300D01*
X129830Y-90875D02*
X134330Y-90875D01*
X134330Y-89450D02*
X129830Y-89450D01*
X129830Y-88025D02*
X134330Y-88025D01*
X134330Y-86600D02*
X129830Y-86600D01*
X129830Y-85175D02*
X134330Y-85175D01*
X134330Y-83750D02*
X129830Y-83750D01*
X129830Y-82325D02*
X134330Y-82325D01*
X134330Y-80900D02*
X129830Y-80900D01*
X129830Y-79475D02*
X134330Y-79475D01*
X134330Y-78050D02*
X129830Y-78050D01*
X129830Y-76625D02*
X134330Y-76625D01*
X134330Y-75200D02*
X129830Y-75200D01*
X129830Y-123600D02*
X129830Y-141800D01*
X129830Y-123600D02*
X134330Y-123600D01*
X134330Y-141800D01*
X129830Y-141800D01*
X129830Y-140375D02*
X134330Y-140375D01*
X134330Y-138950D02*
X129830Y-138950D01*
X129830Y-137525D02*
X134330Y-137525D01*
X134330Y-136100D02*
X129830Y-136100D01*
X129830Y-134675D02*
X134330Y-134675D01*
X134330Y-133250D02*
X129830Y-133250D01*
X129830Y-131825D02*
X134330Y-131825D01*
X134330Y-130400D02*
X129830Y-130400D01*
X129830Y-128975D02*
X134330Y-128975D01*
X134330Y-127550D02*
X129830Y-127550D01*
X129830Y-126125D02*
X134330Y-126125D01*
X134330Y-124700D02*
X129830Y-124700D01*
X142530Y-123600D02*
X142530Y-141800D01*
X142530Y-123600D02*
X147030Y-123600D01*
X147030Y-141800D01*
X142530Y-141800D01*
X142530Y-140375D02*
X147030Y-140375D01*
X147030Y-138950D02*
X142530Y-138950D01*
X142530Y-137525D02*
X147030Y-137525D01*
X147030Y-136100D02*
X142530Y-136100D01*
X142530Y-134675D02*
X147030Y-134675D01*
X147030Y-133250D02*
X142530Y-133250D01*
X142530Y-131825D02*
X147030Y-131825D01*
X147030Y-130400D02*
X142530Y-130400D01*
X142530Y-128975D02*
X147030Y-128975D01*
X147030Y-127550D02*
X142530Y-127550D01*
X142530Y-126125D02*
X147030Y-126125D01*
X147030Y-124700D02*
X142530Y-124700D01*
X155230Y-123600D02*
X155230Y-141800D01*
X155230Y-123600D02*
X159730Y-123600D01*
X159730Y-141800D01*
X155230Y-141800D01*
X155230Y-140375D02*
X159730Y-140375D01*
X159730Y-138950D02*
X155230Y-138950D01*
X155230Y-137525D02*
X159730Y-137525D01*
X159730Y-136100D02*
X155230Y-136100D01*
X155230Y-134675D02*
X159730Y-134675D01*
X159730Y-133250D02*
X155230Y-133250D01*
X155230Y-131825D02*
X159730Y-131825D01*
X159730Y-130400D02*
X155230Y-130400D01*
X155230Y-128975D02*
X159730Y-128975D01*
X159730Y-127550D02*
X155230Y-127550D01*
X155230Y-126125D02*
X159730Y-126125D01*
X159730Y-124700D02*
X155230Y-124700D01*
X167930Y-123600D02*
X167930Y-141800D01*
X167930Y-123600D02*
X172430Y-123600D01*
X172430Y-141800D01*
X167930Y-141800D01*
X167930Y-140375D02*
X172430Y-140375D01*
X172430Y-138950D02*
X167930Y-138950D01*
X167930Y-137525D02*
X172430Y-137525D01*
X172430Y-136100D02*
X167930Y-136100D01*
X167930Y-134675D02*
X172430Y-134675D01*
X172430Y-133250D02*
X167930Y-133250D01*
X167930Y-131825D02*
X172430Y-131825D01*
X172430Y-130400D02*
X167930Y-130400D01*
X167930Y-128975D02*
X172430Y-128975D01*
X172430Y-127550D02*
X167930Y-127550D01*
X167930Y-126125D02*
X172430Y-126125D01*
X172430Y-124700D02*
X167930Y-124700D01*
D13*
X176530Y-67076D03*
X176530Y-57384D03*
D20*
X186690Y-103335D03*
X186690Y-79545D03*
D12*
X167635Y-151130D03*
X157485Y-151130D03*
X142235Y-152400D03*
X132085Y-152400D03*
D21*
X93196Y-179070D03*
X122704Y-179070D03*
D13*
X186690Y-138196D03*
X186690Y-128504D03*
D22*
X-209866Y13150D03*
X-204866Y13150D03*
X-199866Y13150D03*
X-194866Y13150D03*
X-189866Y13150D03*
X-184866Y13150D03*
X-179866Y13150D03*
X-174866Y13150D03*
X-169866Y13150D03*
X-164866Y13150D03*
X-159866Y13150D03*
X-154866Y13150D03*
X-149866Y13150D03*
X-144866Y13150D03*
X-139866Y13150D03*
X-134866Y13150D03*
D23*
X-115666Y32350D03*
X-115666Y37350D03*
X-115666Y42350D03*
X-115666Y47350D03*
X-115666Y52350D03*
X-115666Y57350D03*
X-115666Y62350D03*
X-115666Y67350D03*
X-115666Y72350D03*
X-115666Y77350D03*
X-115666Y82350D03*
X-115666Y87350D03*
X-115666Y92350D03*
X-115666Y97350D03*
X-115666Y102350D03*
X-115666Y107350D03*
D22*
X-134866Y126550D03*
X-139866Y126550D03*
X-144866Y126550D03*
X-149866Y126550D03*
X-154866Y126550D03*
X-159866Y126550D03*
X-164866Y126550D03*
X-169866Y126550D03*
X-174866Y126550D03*
X-179866Y126550D03*
X-184866Y126550D03*
X-189866Y126550D03*
X-194866Y126550D03*
X-199866Y126550D03*
X-204866Y126550D03*
X-209866Y126550D03*
D23*
X-229066Y107350D03*
X-229066Y102350D03*
X-229066Y97350D03*
X-229066Y92350D03*
X-229066Y87350D03*
X-229066Y82350D03*
X-229066Y77350D03*
X-229066Y72350D03*
X-229066Y67350D03*
X-229066Y62350D03*
X-229066Y57350D03*
X-229066Y52350D03*
X-229066Y47350D03*
X-229066Y42350D03*
X-229066Y37350D03*
X-229066Y32350D03*
D11*
X-86126Y128270D03*
X-76434Y128270D03*
X-237724Y25400D03*
X-247416Y25400D03*
X-132314Y-1270D03*
X-142006Y-1270D03*
X-211856Y138570D03*
X-202164Y138570D03*
X-86126Y115570D03*
X-76434Y115570D03*
D24*
X-97790Y87399D03*
D25*
X-97790Y102938D03*
D11*
X-86126Y87630D03*
X-76434Y87630D03*
X-86126Y102870D03*
X-76434Y102870D03*
D13*
X-85090Y77236D03*
X-85090Y67544D03*
X-97790Y77236D03*
X-97790Y67544D03*
D17*
X-243840Y46985D03*
X-243840Y36835D03*
D13*
X-172720Y-2774D03*
X-172720Y-12466D03*
D17*
X-158750Y-12695D03*
X-158750Y-2545D03*
D26*
X-205317Y-18838D03*
X-205317Y-38396D03*
X-188553Y-38396D03*
X-188553Y-18838D03*
D11*
X-194544Y-52070D03*
X-204236Y-52070D03*
D13*
X-217104Y-24430D03*
X-217104Y-34122D03*
D18*
X-260750Y55185D03*
X-245750Y55185D03*
D17*
X-259080Y46411D03*
X-259080Y36261D03*
D19*
X26960Y-76640D02*
X26960Y-94840D01*
X26960Y-76640D02*
X31460Y-76640D01*
X31460Y-94840D01*
X26960Y-94840D01*
X26960Y-93415D02*
X31460Y-93415D01*
X31460Y-91990D02*
X26960Y-91990D01*
X26960Y-90565D02*
X31460Y-90565D01*
X31460Y-89140D02*
X26960Y-89140D01*
X26960Y-87715D02*
X31460Y-87715D01*
X31460Y-86290D02*
X26960Y-86290D01*
X26960Y-84865D02*
X31460Y-84865D01*
X31460Y-83440D02*
X26960Y-83440D01*
X26960Y-82015D02*
X31460Y-82015D01*
X31460Y-80590D02*
X26960Y-80590D01*
X26960Y-79165D02*
X31460Y-79165D01*
X31460Y-77740D02*
X26960Y-77740D01*
X14260Y-76640D02*
X14260Y-94840D01*
X14260Y-76640D02*
X18760Y-76640D01*
X18760Y-94840D01*
X14260Y-94840D01*
X14260Y-93415D02*
X18760Y-93415D01*
X18760Y-91990D02*
X14260Y-91990D01*
X14260Y-90565D02*
X18760Y-90565D01*
X18760Y-89140D02*
X14260Y-89140D01*
X14260Y-87715D02*
X18760Y-87715D01*
X18760Y-86290D02*
X14260Y-86290D01*
X14260Y-84865D02*
X18760Y-84865D01*
X18760Y-83440D02*
X14260Y-83440D01*
X14260Y-82015D02*
X18760Y-82015D01*
X18760Y-80590D02*
X14260Y-80590D01*
X14260Y-79165D02*
X18760Y-79165D01*
X18760Y-77740D02*
X14260Y-77740D01*
X1560Y-76640D02*
X1560Y-94840D01*
X1560Y-76640D02*
X6060Y-76640D01*
X6060Y-94840D01*
X1560Y-94840D01*
X1560Y-93415D02*
X6060Y-93415D01*
X6060Y-91990D02*
X1560Y-91990D01*
X1560Y-90565D02*
X6060Y-90565D01*
X6060Y-89140D02*
X1560Y-89140D01*
X1560Y-87715D02*
X6060Y-87715D01*
X6060Y-86290D02*
X1560Y-86290D01*
X1560Y-84865D02*
X6060Y-84865D01*
X6060Y-83440D02*
X1560Y-83440D01*
X1560Y-82015D02*
X6060Y-82015D01*
X6060Y-80590D02*
X1560Y-80590D01*
X1560Y-79165D02*
X6060Y-79165D01*
X6060Y-77740D02*
X1560Y-77740D01*
X-11140Y-76640D02*
X-11140Y-94840D01*
X-11140Y-76640D02*
X-6640Y-76640D01*
X-6640Y-94840D01*
X-11140Y-94840D01*
X-11140Y-93415D02*
X-6640Y-93415D01*
X-6640Y-91990D02*
X-11140Y-91990D01*
X-11140Y-90565D02*
X-6640Y-90565D01*
X-6640Y-89140D02*
X-11140Y-89140D01*
X-11140Y-87715D02*
X-6640Y-87715D01*
X-6640Y-86290D02*
X-11140Y-86290D01*
X-11140Y-84865D02*
X-6640Y-84865D01*
X-6640Y-83440D02*
X-11140Y-83440D01*
X-11140Y-82015D02*
X-6640Y-82015D01*
X-6640Y-80590D02*
X-11140Y-80590D01*
X-11140Y-79165D02*
X-6640Y-79165D01*
X-6640Y-77740D02*
X-11140Y-77740D01*
X-11140Y-126140D02*
X-11140Y-144340D01*
X-11140Y-126140D02*
X-6640Y-126140D01*
X-6640Y-144340D01*
X-11140Y-144340D01*
X-11140Y-142915D02*
X-6640Y-142915D01*
X-6640Y-141490D02*
X-11140Y-141490D01*
X-11140Y-140065D02*
X-6640Y-140065D01*
X-6640Y-138640D02*
X-11140Y-138640D01*
X-11140Y-137215D02*
X-6640Y-137215D01*
X-6640Y-135790D02*
X-11140Y-135790D01*
X-11140Y-134365D02*
X-6640Y-134365D01*
X-6640Y-132940D02*
X-11140Y-132940D01*
X-11140Y-131515D02*
X-6640Y-131515D01*
X-6640Y-130090D02*
X-11140Y-130090D01*
X-11140Y-128665D02*
X-6640Y-128665D01*
X-6640Y-127240D02*
X-11140Y-127240D01*
X1560Y-126140D02*
X1560Y-144340D01*
X1560Y-126140D02*
X6060Y-126140D01*
X6060Y-144340D01*
X1560Y-144340D01*
X1560Y-142915D02*
X6060Y-142915D01*
X6060Y-141490D02*
X1560Y-141490D01*
X1560Y-140065D02*
X6060Y-140065D01*
X6060Y-138640D02*
X1560Y-138640D01*
X1560Y-137215D02*
X6060Y-137215D01*
X6060Y-135790D02*
X1560Y-135790D01*
X1560Y-134365D02*
X6060Y-134365D01*
X6060Y-132940D02*
X1560Y-132940D01*
X1560Y-131515D02*
X6060Y-131515D01*
X6060Y-130090D02*
X1560Y-130090D01*
X1560Y-128665D02*
X6060Y-128665D01*
X6060Y-127240D02*
X1560Y-127240D01*
X14260Y-126140D02*
X14260Y-144340D01*
X14260Y-126140D02*
X18760Y-126140D01*
X18760Y-144340D01*
X14260Y-144340D01*
X14260Y-142915D02*
X18760Y-142915D01*
X18760Y-141490D02*
X14260Y-141490D01*
X14260Y-140065D02*
X18760Y-140065D01*
X18760Y-138640D02*
X14260Y-138640D01*
X14260Y-137215D02*
X18760Y-137215D01*
X18760Y-135790D02*
X14260Y-135790D01*
X14260Y-134365D02*
X18760Y-134365D01*
X18760Y-132940D02*
X14260Y-132940D01*
X14260Y-131515D02*
X18760Y-131515D01*
X18760Y-130090D02*
X14260Y-130090D01*
X14260Y-128665D02*
X18760Y-128665D01*
X18760Y-127240D02*
X14260Y-127240D01*
X26960Y-126140D02*
X26960Y-144340D01*
X26960Y-126140D02*
X31460Y-126140D01*
X31460Y-144340D01*
X26960Y-144340D01*
X26960Y-142915D02*
X31460Y-142915D01*
X31460Y-141490D02*
X26960Y-141490D01*
X26960Y-140065D02*
X31460Y-140065D01*
X31460Y-138640D02*
X26960Y-138640D01*
X26960Y-137215D02*
X31460Y-137215D01*
X31460Y-135790D02*
X26960Y-135790D01*
X26960Y-134365D02*
X31460Y-134365D01*
X31460Y-132940D02*
X26960Y-132940D01*
X26960Y-131515D02*
X31460Y-131515D01*
X31460Y-130090D02*
X26960Y-130090D01*
X26960Y-128665D02*
X31460Y-128665D01*
X31460Y-127240D02*
X26960Y-127240D01*
D11*
X48494Y-78740D03*
X58186Y-78740D03*
D20*
X45720Y-114765D03*
X45720Y-90975D03*
D12*
X26665Y-154940D03*
X16515Y-154940D03*
X1265Y-154940D03*
X-8885Y-154940D03*
D21*
X-41424Y-181610D03*
X-11916Y-181610D03*
D13*
X45720Y-144546D03*
X45720Y-134854D03*
D19*
X-106390Y-93570D02*
X-106390Y-75370D01*
X-101890Y-75370D01*
X-101890Y-93570D01*
X-106390Y-93570D01*
X-106390Y-92145D02*
X-101890Y-92145D01*
X-101890Y-90720D02*
X-106390Y-90720D01*
X-106390Y-89295D02*
X-101890Y-89295D01*
X-101890Y-87870D02*
X-106390Y-87870D01*
X-106390Y-86445D02*
X-101890Y-86445D01*
X-101890Y-85020D02*
X-106390Y-85020D01*
X-106390Y-83595D02*
X-101890Y-83595D01*
X-101890Y-82170D02*
X-106390Y-82170D01*
X-106390Y-80745D02*
X-101890Y-80745D01*
X-101890Y-79320D02*
X-106390Y-79320D01*
X-106390Y-77895D02*
X-101890Y-77895D01*
X-101890Y-76470D02*
X-106390Y-76470D01*
X-119090Y-75370D02*
X-119090Y-93570D01*
X-119090Y-75370D02*
X-114590Y-75370D01*
X-114590Y-93570D01*
X-119090Y-93570D01*
X-119090Y-92145D02*
X-114590Y-92145D01*
X-114590Y-90720D02*
X-119090Y-90720D01*
X-119090Y-89295D02*
X-114590Y-89295D01*
X-114590Y-87870D02*
X-119090Y-87870D01*
X-119090Y-86445D02*
X-114590Y-86445D01*
X-114590Y-85020D02*
X-119090Y-85020D01*
X-119090Y-83595D02*
X-114590Y-83595D01*
X-114590Y-82170D02*
X-119090Y-82170D01*
X-119090Y-80745D02*
X-114590Y-80745D01*
X-114590Y-79320D02*
X-119090Y-79320D01*
X-119090Y-77895D02*
X-114590Y-77895D01*
X-114590Y-76470D02*
X-119090Y-76470D01*
X-131790Y-75370D02*
X-131790Y-93570D01*
X-131790Y-75370D02*
X-127290Y-75370D01*
X-127290Y-93570D01*
X-131790Y-93570D01*
X-131790Y-92145D02*
X-127290Y-92145D01*
X-127290Y-90720D02*
X-131790Y-90720D01*
X-131790Y-89295D02*
X-127290Y-89295D01*
X-127290Y-87870D02*
X-131790Y-87870D01*
X-131790Y-86445D02*
X-127290Y-86445D01*
X-127290Y-85020D02*
X-131790Y-85020D01*
X-131790Y-83595D02*
X-127290Y-83595D01*
X-127290Y-82170D02*
X-131790Y-82170D01*
X-131790Y-80745D02*
X-127290Y-80745D01*
X-127290Y-79320D02*
X-131790Y-79320D01*
X-131790Y-77895D02*
X-127290Y-77895D01*
X-127290Y-76470D02*
X-131790Y-76470D01*
X-144490Y-75370D02*
X-144490Y-93570D01*
X-144490Y-75370D02*
X-139990Y-75370D01*
X-139990Y-93570D01*
X-144490Y-93570D01*
X-144490Y-92145D02*
X-139990Y-92145D01*
X-139990Y-90720D02*
X-144490Y-90720D01*
X-144490Y-89295D02*
X-139990Y-89295D01*
X-139990Y-87870D02*
X-144490Y-87870D01*
X-144490Y-86445D02*
X-139990Y-86445D01*
X-139990Y-85020D02*
X-144490Y-85020D01*
X-144490Y-83595D02*
X-139990Y-83595D01*
X-139990Y-82170D02*
X-144490Y-82170D01*
X-144490Y-80745D02*
X-139990Y-80745D01*
X-139990Y-79320D02*
X-144490Y-79320D01*
X-144490Y-77895D02*
X-139990Y-77895D01*
X-139990Y-76470D02*
X-144490Y-76470D01*
X-144490Y-124870D02*
X-144490Y-143070D01*
X-144490Y-124870D02*
X-139990Y-124870D01*
X-139990Y-143070D01*
X-144490Y-143070D01*
X-144490Y-141645D02*
X-139990Y-141645D01*
X-139990Y-140220D02*
X-144490Y-140220D01*
X-144490Y-138795D02*
X-139990Y-138795D01*
X-139990Y-137370D02*
X-144490Y-137370D01*
X-144490Y-135945D02*
X-139990Y-135945D01*
X-139990Y-134520D02*
X-144490Y-134520D01*
X-144490Y-133095D02*
X-139990Y-133095D01*
X-139990Y-131670D02*
X-144490Y-131670D01*
X-144490Y-130245D02*
X-139990Y-130245D01*
X-139990Y-128820D02*
X-144490Y-128820D01*
X-144490Y-127395D02*
X-139990Y-127395D01*
X-139990Y-125970D02*
X-144490Y-125970D01*
X-131790Y-124870D02*
X-131790Y-143070D01*
X-131790Y-124870D02*
X-127290Y-124870D01*
X-127290Y-143070D01*
X-131790Y-143070D01*
X-131790Y-141645D02*
X-127290Y-141645D01*
X-127290Y-140220D02*
X-131790Y-140220D01*
X-131790Y-138795D02*
X-127290Y-138795D01*
X-127290Y-137370D02*
X-131790Y-137370D01*
X-131790Y-135945D02*
X-127290Y-135945D01*
X-127290Y-134520D02*
X-131790Y-134520D01*
X-131790Y-133095D02*
X-127290Y-133095D01*
X-127290Y-131670D02*
X-131790Y-131670D01*
X-131790Y-130245D02*
X-127290Y-130245D01*
X-127290Y-128820D02*
X-131790Y-128820D01*
X-131790Y-127395D02*
X-127290Y-127395D01*
X-127290Y-125970D02*
X-131790Y-125970D01*
X-119090Y-124870D02*
X-119090Y-143070D01*
X-119090Y-124870D02*
X-114590Y-124870D01*
X-114590Y-143070D01*
X-119090Y-143070D01*
X-119090Y-141645D02*
X-114590Y-141645D01*
X-114590Y-140220D02*
X-119090Y-140220D01*
X-119090Y-138795D02*
X-114590Y-138795D01*
X-114590Y-137370D02*
X-119090Y-137370D01*
X-119090Y-135945D02*
X-114590Y-135945D01*
X-114590Y-134520D02*
X-119090Y-134520D01*
X-119090Y-133095D02*
X-114590Y-133095D01*
X-114590Y-131670D02*
X-119090Y-131670D01*
X-119090Y-130245D02*
X-114590Y-130245D01*
X-114590Y-128820D02*
X-119090Y-128820D01*
X-119090Y-127395D02*
X-114590Y-127395D01*
X-114590Y-125970D02*
X-119090Y-125970D01*
X-106390Y-124870D02*
X-106390Y-143070D01*
X-106390Y-124870D02*
X-101890Y-124870D01*
X-101890Y-143070D01*
X-106390Y-143070D01*
X-106390Y-141645D02*
X-101890Y-141645D01*
X-101890Y-140220D02*
X-106390Y-140220D01*
X-106390Y-138795D02*
X-101890Y-138795D01*
X-101890Y-137370D02*
X-106390Y-137370D01*
X-106390Y-135945D02*
X-101890Y-135945D01*
X-101890Y-134520D02*
X-106390Y-134520D01*
X-106390Y-133095D02*
X-101890Y-133095D01*
X-101890Y-131670D02*
X-106390Y-131670D01*
X-106390Y-130245D02*
X-101890Y-130245D01*
X-101890Y-128820D02*
X-106390Y-128820D01*
X-106390Y-127395D02*
X-101890Y-127395D01*
X-101890Y-125970D02*
X-106390Y-125970D01*
D11*
X-92476Y-67310D03*
X-82784Y-67310D03*
D20*
X-87630Y-104605D03*
X-87630Y-80815D03*
D12*
X-104145Y-156210D03*
X-114295Y-156210D03*
X-130815Y-156210D03*
X-140965Y-156210D03*
D21*
X-176044Y-182880D03*
X-146536Y-182880D03*
D13*
X-87630Y-139466D03*
X-87630Y-129774D03*
D18*
X-260230Y8890D03*
X-245230Y8890D03*
D12*
X-260345Y-5080D03*
X-250195Y-5080D03*
D27*
X-88116Y-182880D03*
X-117624Y-182880D03*
X45234Y-181610D03*
X15726Y-181610D03*
X188744Y-179070D03*
X159236Y-179070D03*
D28*
X91440Y159687D03*
X91440Y142179D03*
D29*
X149996Y130810D03*
X167504Y130810D03*
D30*
X104859Y49374D03*
X217361Y49374D03*
D11*
X-223008Y3810D03*
X-232700Y3810D03*
D10*
X99727Y-304637D02*
X119033Y-304637D01*
X119033Y-322743D01*
X99727Y-322743D01*
X99727Y-304637D01*
X99727Y-319708D02*
X119033Y-319708D01*
X119033Y-316673D02*
X99727Y-316673D01*
X99727Y-313638D02*
X119033Y-313638D01*
X119033Y-310603D02*
X99727Y-310603D01*
X99727Y-307568D02*
X119033Y-307568D01*
X75533Y-304637D02*
X56227Y-304637D01*
X75533Y-304637D02*
X75533Y-322743D01*
X56227Y-322743D01*
X56227Y-304637D01*
X56227Y-319708D02*
X75533Y-319708D01*
X75533Y-316673D02*
X56227Y-316673D01*
X56227Y-313638D02*
X75533Y-313638D01*
X75533Y-310603D02*
X56227Y-310603D01*
X56227Y-307568D02*
X75533Y-307568D01*
X-28287Y-305137D02*
X-47593Y-305137D01*
X-28287Y-305137D02*
X-28287Y-323243D01*
X-47593Y-323243D01*
X-47593Y-305137D01*
X-47593Y-320208D02*
X-28287Y-320208D01*
X-28287Y-317173D02*
X-47593Y-317173D01*
X-47593Y-314138D02*
X-28287Y-314138D01*
X-28287Y-311103D02*
X-47593Y-311103D01*
X-47593Y-308068D02*
X-28287Y-308068D01*
X-71787Y-305137D02*
X-91093Y-305137D01*
X-71787Y-305137D02*
X-71787Y-323243D01*
X-91093Y-323243D01*
X-91093Y-305137D01*
X-91093Y-320208D02*
X-71787Y-320208D01*
X-71787Y-317173D02*
X-91093Y-317173D01*
X-91093Y-314138D02*
X-71787Y-314138D01*
X-71787Y-311103D02*
X-91093Y-311103D01*
X-91093Y-308068D02*
X-71787Y-308068D01*
X-197760Y-256663D02*
X-209244Y-241145D01*
X-197760Y-256663D02*
X-212314Y-267433D01*
X-223798Y-251915D01*
X-209244Y-241145D01*
X-208213Y-264398D02*
X-214560Y-264398D01*
X-216806Y-261363D02*
X-204111Y-261363D01*
X-200010Y-258328D02*
X-219052Y-258328D01*
X-221298Y-255293D02*
X-198774Y-255293D01*
X-201020Y-252258D02*
X-223544Y-252258D01*
X-220160Y-249223D02*
X-203266Y-249223D01*
X-205512Y-246188D02*
X-216059Y-246188D01*
X-211958Y-243153D02*
X-207758Y-243153D01*
X-223635Y-221696D02*
X-235119Y-206178D01*
X-223635Y-221696D02*
X-238189Y-232466D01*
X-249673Y-216948D01*
X-235119Y-206178D01*
X-234088Y-229431D02*
X-240435Y-229431D01*
X-242681Y-226396D02*
X-229986Y-226396D01*
X-225885Y-223361D02*
X-244927Y-223361D01*
X-247173Y-220326D02*
X-224649Y-220326D01*
X-226895Y-217291D02*
X-249419Y-217291D01*
X-246035Y-214256D02*
X-229141Y-214256D01*
X-231387Y-211221D02*
X-241934Y-211221D01*
X-237833Y-208186D02*
X-233633Y-208186D01*
D31*
X-102553Y167597D02*
X-102553Y178977D01*
X-102553Y167597D02*
X-106821Y167597D01*
X-106821Y178977D01*
X-102553Y178977D01*
X-102553Y170300D02*
X-106821Y170300D01*
X-106821Y173003D02*
X-102553Y173003D01*
X-102553Y175706D02*
X-106821Y175706D01*
X-106821Y178409D02*
X-102553Y178409D01*
X-122326Y174650D02*
X-122326Y186030D01*
X-122326Y174650D02*
X-126594Y174650D01*
X-126594Y186030D01*
X-122326Y186030D01*
X-122326Y177353D02*
X-126594Y177353D01*
X-126594Y180056D02*
X-122326Y180056D01*
X-122326Y182759D02*
X-126594Y182759D01*
X-126594Y185462D02*
X-122326Y185462D01*
X-81686Y179680D02*
X-81686Y168300D01*
X-85954Y168300D01*
X-85954Y179680D01*
X-81686Y179680D01*
X-81686Y171003D02*
X-85954Y171003D01*
X-85954Y173706D02*
X-81686Y173706D01*
X-81686Y176409D02*
X-85954Y176409D01*
X-85954Y179112D02*
X-81686Y179112D01*
D32*
X170180Y-229320D03*
D33*
X176530Y-262920D03*
X163830Y-262920D03*
X151130Y-262920D03*
X189230Y-262920D03*
D34*
X189230Y-208270D03*
X176530Y-208270D03*
X163830Y-208270D03*
X151130Y-208270D03*
D32*
X109220Y-243120D03*
D33*
X102870Y-209520D03*
X115570Y-209520D03*
X128270Y-209520D03*
X90170Y-209520D03*
D34*
X90170Y-264170D03*
X102870Y-264170D03*
X115570Y-264170D03*
X128270Y-264170D03*
D32*
X33020Y-229211D03*
D33*
X39370Y-262811D03*
X26670Y-262811D03*
X13970Y-262811D03*
X52070Y-262811D03*
D34*
X52070Y-208161D03*
X39370Y-208161D03*
X26670Y-208161D03*
X13970Y-208161D03*
D32*
X-24130Y-243120D03*
D33*
X-30480Y-209520D03*
X-17780Y-209520D03*
X-5080Y-209520D03*
X-43180Y-209520D03*
D34*
X-43180Y-264170D03*
X-30480Y-264170D03*
X-17780Y-264170D03*
X-5080Y-264170D03*
D32*
X-99060Y-228050D03*
D33*
X-92710Y-261650D03*
X-105410Y-261650D03*
X-118110Y-261650D03*
X-80010Y-261650D03*
D34*
X-80010Y-207000D03*
X-92710Y-207000D03*
X-105410Y-207000D03*
X-118110Y-207000D03*
D32*
X-157480Y-241850D03*
D33*
X-163830Y-208250D03*
X-151130Y-208250D03*
X-138430Y-208250D03*
X-176530Y-208250D03*
D34*
X-176530Y-262900D03*
X-163830Y-262900D03*
X-151130Y-262900D03*
X-138430Y-262900D03*
D11*
X-58186Y-92710D03*
X-48494Y-92710D03*
D13*
X-63500Y-104374D03*
X-63500Y-114066D03*
D17*
X-63500Y-128275D03*
X-63500Y-138425D03*
D35*
X-45425Y-134225D02*
X-45425Y-144875D01*
X-49775Y-144875D01*
X-49775Y-134225D01*
X-45425Y-134225D01*
X-45425Y-143498D02*
X-49775Y-143498D01*
X-49775Y-142121D02*
X-45425Y-142121D01*
X-45425Y-140744D02*
X-49775Y-140744D01*
X-49775Y-139367D02*
X-45425Y-139367D01*
X-45425Y-137990D02*
X-49775Y-137990D01*
X-49775Y-136613D02*
X-45425Y-136613D01*
X-45425Y-135236D02*
X-49775Y-135236D01*
X-35925Y-134225D02*
X-35925Y-144875D01*
X-40275Y-144875D01*
X-40275Y-134225D01*
X-35925Y-134225D01*
X-35925Y-143498D02*
X-40275Y-143498D01*
X-40275Y-142121D02*
X-35925Y-142121D01*
X-35925Y-140744D02*
X-40275Y-140744D01*
X-40275Y-139367D02*
X-35925Y-139367D01*
X-35925Y-137990D02*
X-40275Y-137990D01*
X-40275Y-136613D02*
X-35925Y-136613D01*
X-35925Y-135236D02*
X-40275Y-135236D01*
X-26425Y-134225D02*
X-26425Y-144875D01*
X-30775Y-144875D01*
X-30775Y-134225D01*
X-26425Y-134225D01*
X-26425Y-143498D02*
X-30775Y-143498D01*
X-30775Y-142121D02*
X-26425Y-142121D01*
X-26425Y-140744D02*
X-30775Y-140744D01*
X-30775Y-139367D02*
X-26425Y-139367D01*
X-26425Y-137990D02*
X-30775Y-137990D01*
X-30775Y-136613D02*
X-26425Y-136613D01*
X-26425Y-135236D02*
X-30775Y-135236D01*
X-45425Y-119775D02*
X-45425Y-109125D01*
X-45425Y-119775D02*
X-49775Y-119775D01*
X-49775Y-109125D01*
X-45425Y-109125D01*
X-45425Y-118398D02*
X-49775Y-118398D01*
X-49775Y-117021D02*
X-45425Y-117021D01*
X-45425Y-115644D02*
X-49775Y-115644D01*
X-49775Y-114267D02*
X-45425Y-114267D01*
X-45425Y-112890D02*
X-49775Y-112890D01*
X-49775Y-111513D02*
X-45425Y-111513D01*
X-45425Y-110136D02*
X-49775Y-110136D01*
X-35925Y-109125D02*
X-35925Y-119775D01*
X-40275Y-119775D01*
X-40275Y-109125D01*
X-35925Y-109125D01*
X-35925Y-118398D02*
X-40275Y-118398D01*
X-40275Y-117021D02*
X-35925Y-117021D01*
X-35925Y-115644D02*
X-40275Y-115644D01*
X-40275Y-114267D02*
X-35925Y-114267D01*
X-35925Y-112890D02*
X-40275Y-112890D01*
X-40275Y-111513D02*
X-35925Y-111513D01*
X-35925Y-110136D02*
X-40275Y-110136D01*
X-26425Y-109125D02*
X-26425Y-119775D01*
X-30775Y-119775D01*
X-30775Y-109125D01*
X-26425Y-109125D01*
X-26425Y-118398D02*
X-30775Y-118398D01*
X-30775Y-117021D02*
X-26425Y-117021D01*
X-26425Y-115644D02*
X-30775Y-115644D01*
X-30775Y-114267D02*
X-26425Y-114267D01*
X-26425Y-112890D02*
X-30775Y-112890D01*
X-30775Y-111513D02*
X-26425Y-111513D01*
X-26425Y-110136D02*
X-30775Y-110136D01*
D12*
X-38105Y-80010D03*
X-48255Y-80010D03*
X-48255Y-67310D03*
X-38105Y-67310D03*
D11*
X-28585Y-92710D03*
X-38277Y-92710D03*
X-191536Y-92710D03*
X-181844Y-92710D03*
D13*
X-203200Y-103104D03*
X-203200Y-112796D03*
D17*
X-203200Y-128275D03*
X-203200Y-138425D03*
D35*
X-178775Y-143605D02*
X-178775Y-132955D01*
X-178775Y-143605D02*
X-183125Y-143605D01*
X-183125Y-132955D01*
X-178775Y-132955D01*
X-178775Y-142228D02*
X-183125Y-142228D01*
X-183125Y-140851D02*
X-178775Y-140851D01*
X-178775Y-139474D02*
X-183125Y-139474D01*
X-183125Y-138097D02*
X-178775Y-138097D01*
X-178775Y-136720D02*
X-183125Y-136720D01*
X-183125Y-135343D02*
X-178775Y-135343D01*
X-178775Y-133966D02*
X-183125Y-133966D01*
X-169275Y-132955D02*
X-169275Y-143605D01*
X-173625Y-143605D01*
X-173625Y-132955D01*
X-169275Y-132955D01*
X-169275Y-142228D02*
X-173625Y-142228D01*
X-173625Y-140851D02*
X-169275Y-140851D01*
X-169275Y-139474D02*
X-173625Y-139474D01*
X-173625Y-138097D02*
X-169275Y-138097D01*
X-169275Y-136720D02*
X-173625Y-136720D01*
X-173625Y-135343D02*
X-169275Y-135343D01*
X-169275Y-133966D02*
X-173625Y-133966D01*
X-159775Y-132955D02*
X-159775Y-143605D01*
X-164125Y-143605D01*
X-164125Y-132955D01*
X-159775Y-132955D01*
X-159775Y-142228D02*
X-164125Y-142228D01*
X-164125Y-140851D02*
X-159775Y-140851D01*
X-159775Y-139474D02*
X-164125Y-139474D01*
X-164125Y-138097D02*
X-159775Y-138097D01*
X-159775Y-136720D02*
X-164125Y-136720D01*
X-164125Y-135343D02*
X-159775Y-135343D01*
X-159775Y-133966D02*
X-164125Y-133966D01*
X-178775Y-118505D02*
X-178775Y-107855D01*
X-178775Y-118505D02*
X-183125Y-118505D01*
X-183125Y-107855D01*
X-178775Y-107855D01*
X-178775Y-117128D02*
X-183125Y-117128D01*
X-183125Y-115751D02*
X-178775Y-115751D01*
X-178775Y-114374D02*
X-183125Y-114374D01*
X-183125Y-112997D02*
X-178775Y-112997D01*
X-178775Y-111620D02*
X-183125Y-111620D01*
X-183125Y-110243D02*
X-178775Y-110243D01*
X-178775Y-108866D02*
X-183125Y-108866D01*
X-169275Y-107855D02*
X-169275Y-118505D01*
X-173625Y-118505D01*
X-173625Y-107855D01*
X-169275Y-107855D01*
X-169275Y-117128D02*
X-173625Y-117128D01*
X-173625Y-115751D02*
X-169275Y-115751D01*
X-169275Y-114374D02*
X-173625Y-114374D01*
X-173625Y-112997D02*
X-169275Y-112997D01*
X-169275Y-111620D02*
X-173625Y-111620D01*
X-173625Y-110243D02*
X-169275Y-110243D01*
X-169275Y-108866D02*
X-173625Y-108866D01*
X-159775Y-107855D02*
X-159775Y-118505D01*
X-164125Y-118505D01*
X-164125Y-107855D01*
X-159775Y-107855D01*
X-159775Y-117128D02*
X-164125Y-117128D01*
X-164125Y-115751D02*
X-159775Y-115751D01*
X-159775Y-114374D02*
X-164125Y-114374D01*
X-164125Y-112997D02*
X-159775Y-112997D01*
X-159775Y-111620D02*
X-164125Y-111620D01*
X-164125Y-110243D02*
X-159775Y-110243D01*
X-159775Y-108866D02*
X-164125Y-108866D01*
D12*
X-171455Y-80010D03*
X-181605Y-80010D03*
X-181605Y-67310D03*
X-171455Y-67310D03*
D11*
X-161524Y-92710D03*
X-171216Y-92710D03*
X85018Y-95250D03*
X94710Y-95250D03*
D13*
X76200Y-104374D03*
X76200Y-114066D03*
D17*
X76200Y-127005D03*
X76200Y-137155D03*
D35*
X96815Y-142335D02*
X96815Y-131685D01*
X96815Y-142335D02*
X92465Y-142335D01*
X92465Y-131685D01*
X96815Y-131685D01*
X96815Y-140958D02*
X92465Y-140958D01*
X92465Y-139581D02*
X96815Y-139581D01*
X96815Y-138204D02*
X92465Y-138204D01*
X92465Y-136827D02*
X96815Y-136827D01*
X96815Y-135450D02*
X92465Y-135450D01*
X92465Y-134073D02*
X96815Y-134073D01*
X96815Y-132696D02*
X92465Y-132696D01*
X106315Y-131685D02*
X106315Y-142335D01*
X101965Y-142335D01*
X101965Y-131685D01*
X106315Y-131685D01*
X106315Y-140958D02*
X101965Y-140958D01*
X101965Y-139581D02*
X106315Y-139581D01*
X106315Y-138204D02*
X101965Y-138204D01*
X101965Y-136827D02*
X106315Y-136827D01*
X106315Y-135450D02*
X101965Y-135450D01*
X101965Y-134073D02*
X106315Y-134073D01*
X106315Y-132696D02*
X101965Y-132696D01*
X115815Y-131685D02*
X115815Y-142335D01*
X111465Y-142335D01*
X111465Y-131685D01*
X115815Y-131685D01*
X115815Y-140958D02*
X111465Y-140958D01*
X111465Y-139581D02*
X115815Y-139581D01*
X115815Y-138204D02*
X111465Y-138204D01*
X111465Y-136827D02*
X115815Y-136827D01*
X115815Y-135450D02*
X111465Y-135450D01*
X111465Y-134073D02*
X115815Y-134073D01*
X115815Y-132696D02*
X111465Y-132696D01*
X96815Y-117235D02*
X96815Y-106585D01*
X96815Y-117235D02*
X92465Y-117235D01*
X92465Y-106585D01*
X96815Y-106585D01*
X96815Y-115858D02*
X92465Y-115858D01*
X92465Y-114481D02*
X96815Y-114481D01*
X96815Y-113104D02*
X92465Y-113104D01*
X92465Y-111727D02*
X96815Y-111727D01*
X96815Y-110350D02*
X92465Y-110350D01*
X92465Y-108973D02*
X96815Y-108973D01*
X96815Y-107596D02*
X92465Y-107596D01*
X106315Y-106585D02*
X106315Y-117235D01*
X101965Y-117235D01*
X101965Y-106585D01*
X106315Y-106585D01*
X106315Y-115858D02*
X101965Y-115858D01*
X101965Y-114481D02*
X106315Y-114481D01*
X106315Y-113104D02*
X101965Y-113104D01*
X101965Y-111727D02*
X106315Y-111727D01*
X106315Y-110350D02*
X101965Y-110350D01*
X101965Y-108973D02*
X106315Y-108973D01*
X106315Y-107596D02*
X101965Y-107596D01*
X115815Y-106585D02*
X115815Y-117235D01*
X111465Y-117235D01*
X111465Y-106585D01*
X115815Y-106585D01*
X115815Y-115858D02*
X111465Y-115858D01*
X111465Y-114481D02*
X115815Y-114481D01*
X115815Y-113104D02*
X111465Y-113104D01*
X111465Y-111727D02*
X115815Y-111727D01*
X115815Y-110350D02*
X111465Y-110350D01*
X111465Y-108973D02*
X115815Y-108973D01*
X115815Y-107596D02*
X111465Y-107596D01*
D12*
X105405Y-82550D03*
X95255Y-82550D03*
X95255Y-69850D03*
X105405Y-69850D03*
D11*
X114066Y-95250D03*
X104374Y-95250D03*
M02*
