G04 EAGLE Gerber RS-274X export*
G75*
%MOMM*%
%FSLAX34Y34*%
%LPD*%
%IN*%
%IPPOS*%
%AMOC8*
5,1,8,0,0,1.08239X$1,22.5*%
G01*
G04 Define Apertures*
%ADD10C,0.254000*%
D10*
X-311195Y-65390D02*
X-313098Y-66755D01*
X-317149Y-70070D01*
X-320896Y-73725D01*
X-324309Y-77693D01*
X-327365Y-81943D01*
X-330038Y-86444D01*
X-332308Y-91160D01*
X-334159Y-96056D01*
X-335576Y-101095D01*
X-336549Y-106238D01*
X-337070Y-111446D01*
X-337135Y-116680D01*
X-336743Y-121900D01*
X-335898Y-127066D01*
X-334606Y-132138D01*
X-332877Y-137078D01*
X-330723Y-141849D01*
X-328162Y-146414D01*
X-325213Y-150739D01*
X-321899Y-154790D01*
X-318244Y-158537D01*
X-314276Y-161951D01*
X-310026Y-165006D01*
X-305525Y-167679D01*
X-300809Y-169949D01*
X-295913Y-171800D01*
X-293717Y-172619D01*
X-291349Y-173733D01*
X-289087Y-175049D01*
X-286948Y-176557D01*
X-284948Y-178246D01*
X-283104Y-180102D01*
X-281428Y-182112D01*
X-279934Y-184261D01*
X-278632Y-186532D01*
X-277534Y-188907D01*
X-275298Y-194210D01*
X-263861Y-217750D01*
X-250415Y-240204D01*
X-235064Y-261400D01*
X-217923Y-281178D01*
X-199124Y-299387D01*
X-178810Y-315888D01*
X-157135Y-330556D01*
X-156421Y-330981D01*
X-154100Y-332189D01*
X-151682Y-333191D01*
X-149186Y-333978D01*
X-146631Y-334544D01*
X-144036Y-334886D01*
X-141421Y-335000D01*
X141421Y-335000D01*
X142252Y-334989D01*
X144862Y-334802D01*
X147447Y-334389D01*
X149985Y-333752D01*
X152458Y-332896D01*
X154848Y-331828D01*
X157135Y-330556D01*
X162008Y-327494D01*
X183398Y-312414D01*
X203392Y-295526D01*
X221838Y-276960D01*
X238596Y-256857D01*
X253538Y-235370D01*
X266550Y-212663D01*
X277534Y-188907D01*
X278508Y-186776D01*
X279788Y-184493D01*
X281263Y-182331D01*
X282920Y-180306D01*
X284748Y-178432D01*
X286731Y-176725D01*
X288857Y-175198D01*
X291107Y-173861D01*
X293465Y-172726D01*
X295913Y-171800D01*
X298123Y-171025D01*
X302943Y-168985D01*
X307567Y-166532D01*
X311960Y-163685D01*
X316087Y-160466D01*
X319919Y-156900D01*
X323425Y-153014D01*
X326579Y-148836D01*
X329357Y-144400D01*
X331738Y-139738D01*
X333703Y-134887D01*
X335238Y-129883D01*
X336332Y-124764D01*
X336974Y-119569D01*
X337162Y-114338D01*
X336893Y-109111D01*
X336169Y-103927D01*
X334997Y-98826D01*
X333384Y-93846D01*
X331343Y-89026D01*
X328890Y-84402D01*
X326044Y-80009D01*
X322825Y-75881D01*
X319259Y-72050D01*
X315372Y-68544D01*
X311195Y-65390D01*
X309319Y-63986D01*
X307359Y-62251D01*
X305559Y-60352D01*
X303931Y-58303D01*
X302487Y-56119D01*
X301240Y-53819D01*
X300198Y-51418D01*
X299368Y-48936D01*
X298759Y-46391D01*
X298373Y-43802D01*
X296386Y-28576D01*
X291212Y-2921D01*
X283822Y22185D01*
X283593Y22883D01*
X282915Y25411D01*
X282461Y27988D01*
X282233Y30595D01*
X282233Y33213D01*
X282461Y35820D01*
X282915Y38397D01*
X283593Y40925D01*
X284488Y43385D01*
X285594Y45756D01*
X286903Y48023D01*
X288404Y50167D01*
X290086Y52172D01*
X291937Y54022D01*
X293941Y55705D01*
X296085Y57206D01*
X298352Y58514D01*
X300724Y59620D01*
X300125Y59372D01*
X304869Y61584D01*
X309402Y64202D01*
X313690Y67204D01*
X317699Y70568D01*
X321401Y74270D01*
X324765Y78279D01*
X327767Y82567D01*
X330385Y87100D01*
X332597Y91844D01*
X334387Y96763D01*
X335742Y101819D01*
X336651Y106974D01*
X337107Y112188D01*
X337107Y117422D01*
X336651Y122637D01*
X335742Y127791D01*
X334387Y132847D01*
X332597Y137766D01*
X330385Y142510D01*
X327767Y147043D01*
X324765Y151331D01*
X321401Y155340D01*
X317699Y159042D01*
X313690Y162406D01*
X309402Y165409D01*
X304869Y168026D01*
X300125Y170238D01*
X295206Y172028D01*
X290150Y173383D01*
X284995Y174292D01*
X279781Y174748D01*
X274547Y174748D01*
X269332Y174292D01*
X264178Y173383D01*
X259122Y172028D01*
X254203Y170238D01*
X217532Y155048D01*
X216980Y154826D01*
X214503Y153980D01*
X211962Y153353D01*
X209376Y152950D01*
X206765Y152773D01*
X204148Y152825D01*
X201546Y153105D01*
X198978Y153611D01*
X196464Y154338D01*
X194023Y155282D01*
X191674Y156435D01*
X189433Y157788D01*
X187320Y159332D01*
X177865Y166587D01*
X156133Y181169D01*
X133212Y193802D01*
X109277Y204390D01*
X84511Y212851D01*
X59102Y219121D01*
X33242Y223153D01*
X7130Y224915D01*
X-19036Y224395D01*
X-45058Y221597D01*
X-70737Y216541D01*
X-95877Y209267D01*
X-120288Y199829D01*
X-143783Y188299D01*
X-166184Y174766D01*
X-187320Y159332D01*
X-187789Y158964D01*
X-189933Y157463D01*
X-192199Y156154D01*
X-194571Y155048D01*
X-197031Y154153D01*
X-199559Y153476D01*
X-202136Y153021D01*
X-204743Y152793D01*
X-207360Y152793D01*
X-209968Y153021D01*
X-212545Y153476D01*
X-215073Y154153D01*
X-217532Y155048D01*
X-254203Y170238D01*
X-259122Y172028D01*
X-264178Y173383D01*
X-269332Y174292D01*
X-274547Y174748D01*
X-279781Y174748D01*
X-284995Y174292D01*
X-290150Y173383D01*
X-295206Y172028D01*
X-300125Y170238D01*
X-304869Y168026D01*
X-309402Y165409D01*
X-313690Y162406D01*
X-317699Y159042D01*
X-321401Y155340D01*
X-324765Y151331D01*
X-327767Y147043D01*
X-330385Y142510D01*
X-332597Y137766D01*
X-334387Y132847D01*
X-335742Y127791D01*
X-336651Y122637D01*
X-337107Y117422D01*
X-337107Y112188D01*
X-336651Y106974D01*
X-335742Y101819D01*
X-334387Y96763D01*
X-332597Y91844D01*
X-330385Y87100D01*
X-327767Y82567D01*
X-324765Y78279D01*
X-321401Y74270D01*
X-317699Y70568D01*
X-313690Y67204D01*
X-309402Y64202D01*
X-304869Y61584D01*
X-300125Y59372D01*
X-300724Y59620D01*
X-300049Y59331D01*
X-297705Y58167D01*
X-295471Y56804D01*
X-293365Y55251D01*
X-291401Y53520D01*
X-289597Y51624D01*
X-287964Y49579D01*
X-286516Y47399D01*
X-285263Y45101D01*
X-284215Y42703D01*
X-283381Y40222D01*
X-282765Y37679D01*
X-282374Y35091D01*
X-282210Y32479D01*
X-282274Y29862D01*
X-282566Y27262D01*
X-283083Y24696D01*
X-283822Y22185D01*
X-288423Y7536D01*
X-294519Y-17916D01*
X-298373Y-43802D01*
X-298708Y-46121D01*
X-299294Y-48672D01*
X-300101Y-51162D01*
X-301121Y-53572D01*
X-302347Y-55884D01*
X-303771Y-58080D01*
X-305380Y-60144D01*
X-307163Y-62060D01*
X-309106Y-63813D01*
X-311195Y-65390D01*
X288164Y-115237D02*
X288164Y-114373D01*
X288096Y-113511D01*
X287961Y-112657D01*
X287759Y-111817D01*
X287492Y-110995D01*
X287161Y-110196D01*
X286769Y-109426D01*
X286317Y-108689D01*
X285809Y-107990D01*
X285248Y-107332D01*
X284636Y-106721D01*
X283979Y-106160D01*
X283280Y-105652D01*
X282543Y-105200D01*
X281773Y-104808D01*
X280974Y-104477D01*
X280152Y-104210D01*
X279312Y-104008D01*
X278458Y-103873D01*
X277596Y-103805D01*
X276732Y-103805D01*
X275870Y-103873D01*
X275016Y-104008D01*
X274176Y-104210D01*
X273354Y-104477D01*
X272555Y-104808D01*
X271785Y-105200D01*
X271048Y-105652D01*
X270349Y-106160D01*
X269691Y-106721D01*
X269080Y-107332D01*
X268519Y-107990D01*
X268011Y-108689D01*
X267559Y-109426D01*
X267167Y-110196D01*
X266836Y-110995D01*
X266569Y-111817D01*
X266367Y-112657D01*
X266232Y-113511D01*
X266164Y-114373D01*
X266164Y-115237D01*
X266232Y-116099D01*
X266367Y-116953D01*
X266569Y-117793D01*
X266836Y-118615D01*
X267167Y-119414D01*
X267559Y-120184D01*
X268011Y-120921D01*
X268519Y-121620D01*
X269080Y-122278D01*
X269691Y-122889D01*
X270349Y-123450D01*
X271048Y-123958D01*
X271785Y-124410D01*
X272555Y-124802D01*
X273354Y-125133D01*
X274176Y-125400D01*
X275016Y-125602D01*
X275870Y-125737D01*
X276732Y-125805D01*
X277596Y-125805D01*
X278458Y-125737D01*
X279312Y-125602D01*
X280152Y-125400D01*
X280974Y-125133D01*
X281773Y-124802D01*
X282543Y-124410D01*
X283280Y-123958D01*
X283979Y-123450D01*
X284636Y-122889D01*
X285248Y-122278D01*
X285809Y-121620D01*
X286317Y-120921D01*
X286769Y-120184D01*
X287161Y-119414D01*
X287492Y-118615D01*
X287759Y-117793D01*
X287961Y-116953D01*
X288096Y-116099D01*
X288164Y-115237D01*
X-266164Y-115237D02*
X-266164Y-114373D01*
X-266232Y-113511D01*
X-266367Y-112657D01*
X-266569Y-111817D01*
X-266836Y-110995D01*
X-267167Y-110196D01*
X-267559Y-109426D01*
X-268011Y-108689D01*
X-268519Y-107990D01*
X-269080Y-107332D01*
X-269691Y-106721D01*
X-270349Y-106160D01*
X-271048Y-105652D01*
X-271785Y-105200D01*
X-272555Y-104808D01*
X-273354Y-104477D01*
X-274176Y-104210D01*
X-275016Y-104008D01*
X-275870Y-103873D01*
X-276732Y-103805D01*
X-277596Y-103805D01*
X-278458Y-103873D01*
X-279312Y-104008D01*
X-280152Y-104210D01*
X-280974Y-104477D01*
X-281773Y-104808D01*
X-282543Y-105200D01*
X-283280Y-105652D01*
X-283979Y-106160D01*
X-284636Y-106721D01*
X-285248Y-107332D01*
X-285809Y-107990D01*
X-286317Y-108689D01*
X-286769Y-109426D01*
X-287161Y-110196D01*
X-287492Y-110995D01*
X-287759Y-111817D01*
X-287961Y-112657D01*
X-288096Y-113511D01*
X-288164Y-114373D01*
X-288164Y-115237D01*
X-288096Y-116099D01*
X-287961Y-116953D01*
X-287759Y-117793D01*
X-287492Y-118615D01*
X-287161Y-119414D01*
X-286769Y-120184D01*
X-286317Y-120921D01*
X-285809Y-121620D01*
X-285248Y-122278D01*
X-284636Y-122889D01*
X-283979Y-123450D01*
X-283280Y-123958D01*
X-282543Y-124410D01*
X-281773Y-124802D01*
X-280974Y-125133D01*
X-280152Y-125400D01*
X-279312Y-125602D01*
X-278458Y-125737D01*
X-277596Y-125805D01*
X-276732Y-125805D01*
X-275870Y-125737D01*
X-275016Y-125602D01*
X-274176Y-125400D01*
X-273354Y-125133D01*
X-272555Y-124802D01*
X-271785Y-124410D01*
X-271048Y-123958D01*
X-270349Y-123450D01*
X-269691Y-122889D01*
X-269080Y-122278D01*
X-268519Y-121620D01*
X-268011Y-120921D01*
X-267559Y-120184D01*
X-267167Y-119414D01*
X-266836Y-118615D01*
X-266569Y-117793D01*
X-266367Y-116953D01*
X-266232Y-116099D01*
X-266164Y-115237D01*
X288164Y114373D02*
X288164Y115237D01*
X288096Y116099D01*
X287961Y116953D01*
X287759Y117793D01*
X287492Y118615D01*
X287161Y119414D01*
X286769Y120184D01*
X286317Y120921D01*
X285809Y121620D01*
X285248Y122278D01*
X284636Y122889D01*
X283979Y123450D01*
X283280Y123958D01*
X282543Y124410D01*
X281773Y124802D01*
X280974Y125133D01*
X280152Y125400D01*
X279312Y125602D01*
X278458Y125737D01*
X277596Y125805D01*
X276732Y125805D01*
X275870Y125737D01*
X275016Y125602D01*
X274176Y125400D01*
X273354Y125133D01*
X272555Y124802D01*
X271785Y124410D01*
X271048Y123958D01*
X270349Y123450D01*
X269691Y122889D01*
X269080Y122278D01*
X268519Y121620D01*
X268011Y120921D01*
X267559Y120184D01*
X267167Y119414D01*
X266836Y118615D01*
X266569Y117793D01*
X266367Y116953D01*
X266232Y116099D01*
X266164Y115237D01*
X266164Y114373D01*
X266232Y113511D01*
X266367Y112657D01*
X266569Y111817D01*
X266836Y110995D01*
X267167Y110196D01*
X267559Y109426D01*
X268011Y108689D01*
X268519Y107990D01*
X269080Y107332D01*
X269691Y106721D01*
X270349Y106160D01*
X271048Y105652D01*
X271785Y105200D01*
X272555Y104808D01*
X273354Y104477D01*
X274176Y104210D01*
X275016Y104008D01*
X275870Y103873D01*
X276732Y103805D01*
X277596Y103805D01*
X278458Y103873D01*
X279312Y104008D01*
X280152Y104210D01*
X280974Y104477D01*
X281773Y104808D01*
X282543Y105200D01*
X283280Y105652D01*
X283979Y106160D01*
X284636Y106721D01*
X285248Y107332D01*
X285809Y107990D01*
X286317Y108689D01*
X286769Y109426D01*
X287161Y110196D01*
X287492Y110995D01*
X287759Y111817D01*
X287961Y112657D01*
X288096Y113511D01*
X288164Y114373D01*
X-266164Y114373D02*
X-266164Y115237D01*
X-266232Y116099D01*
X-266367Y116953D01*
X-266569Y117793D01*
X-266836Y118615D01*
X-267167Y119414D01*
X-267559Y120184D01*
X-268011Y120921D01*
X-268519Y121620D01*
X-269080Y122278D01*
X-269691Y122889D01*
X-270349Y123450D01*
X-271048Y123958D01*
X-271785Y124410D01*
X-272555Y124802D01*
X-273354Y125133D01*
X-274176Y125400D01*
X-275016Y125602D01*
X-275870Y125737D01*
X-276732Y125805D01*
X-277596Y125805D01*
X-278458Y125737D01*
X-279312Y125602D01*
X-280152Y125400D01*
X-280974Y125133D01*
X-281773Y124802D01*
X-282543Y124410D01*
X-283280Y123958D01*
X-283979Y123450D01*
X-284636Y122889D01*
X-285248Y122278D01*
X-285809Y121620D01*
X-286317Y120921D01*
X-286769Y120184D01*
X-287161Y119414D01*
X-287492Y118615D01*
X-287759Y117793D01*
X-287961Y116953D01*
X-288096Y116099D01*
X-288164Y115237D01*
X-288164Y114373D01*
X-288096Y113511D01*
X-287961Y112657D01*
X-287759Y111817D01*
X-287492Y110995D01*
X-287161Y110196D01*
X-286769Y109426D01*
X-286317Y108689D01*
X-285809Y107990D01*
X-285248Y107332D01*
X-284636Y106721D01*
X-283979Y106160D01*
X-283280Y105652D01*
X-282543Y105200D01*
X-281773Y104808D01*
X-280974Y104477D01*
X-280152Y104210D01*
X-279312Y104008D01*
X-278458Y103873D01*
X-277596Y103805D01*
X-276732Y103805D01*
X-275870Y103873D01*
X-275016Y104008D01*
X-274176Y104210D01*
X-273354Y104477D01*
X-272555Y104808D01*
X-271785Y105200D01*
X-271048Y105652D01*
X-270349Y106160D01*
X-269691Y106721D01*
X-269080Y107332D01*
X-268519Y107990D01*
X-268011Y108689D01*
X-267559Y109426D01*
X-267167Y110196D01*
X-266836Y110995D01*
X-266569Y111817D01*
X-266367Y112657D01*
X-266232Y113511D01*
X-266164Y114373D01*
M02*
