G04 EAGLE Gerber RS-274X export*
G75*
%MOMM*%
%FSLAX34Y34*%
%LPD*%
%INSoldermask Top*%
%IPPOS*%
%AMOC8*
5,1,8,0,0,1.08239X$1,22.5*%
G01*
G04 Define Apertures*
%ADD10C,0.513303*%
%ADD11R,0.763200X0.832300*%
%ADD12R,0.738300X0.847200*%
%ADD13R,0.832300X0.763200*%
%ADD14R,1.103200X1.173400*%
%ADD15R,1.135800X1.173400*%
%ADD16R,1.375500X0.794700*%
%ADD17R,0.847200X0.738300*%
%ADD18R,1.003200X1.003200*%
%ADD19C,0.353406*%
%ADD20R,0.666800X1.240800*%
%ADD21R,1.367800X2.018500*%
%ADD22R,0.483200X1.673200*%
%ADD23R,1.673200X0.483200*%
%ADD24R,1.173400X1.103200*%
%ADD25R,1.173400X1.135800*%
%ADD26R,1.143000X1.270000*%
%ADD27P,5.71848X8X202.5*%
%ADD28P,5.71848X8X112.5*%
%ADD29R,1.367800X2.918500*%
%ADD30R,1.668500X1.367800*%
%ADD31R,1.367800X1.668500*%
%ADD32R,3.454400X5.207000*%
%ADD33C,0.484631*%
%ADD34R,0.813200X1.473200*%
%ADD35R,4.013200X4.113200*%
%ADD36R,0.813200X1.223200*%
%ADD37C,0.344606*%
%ADD38C,0.959600*%
D10*
X9510Y157690D02*
X28910Y157690D01*
X28910Y139490D01*
X9510Y139490D01*
X9510Y157690D01*
X9510Y144366D02*
X28910Y144366D01*
X28910Y149242D02*
X9510Y149242D01*
X9510Y154118D02*
X28910Y154118D01*
X-14590Y157690D02*
X-33990Y157690D01*
X-14590Y157690D02*
X-14590Y139490D01*
X-33990Y139490D01*
X-33990Y157690D01*
X-33990Y144366D02*
X-14590Y144366D01*
X-14590Y149242D02*
X-33990Y149242D01*
X-33990Y154118D02*
X-14590Y154118D01*
D11*
X-43414Y143510D03*
X-53106Y143510D03*
D12*
X-43175Y130810D03*
X-33025Y130810D03*
X-53335Y156210D03*
X-43185Y156210D03*
D13*
X57150Y147392D03*
X57150Y137700D03*
X72390Y147086D03*
X72390Y137394D03*
D14*
X56919Y160020D03*
D15*
X72458Y160020D03*
D16*
X135215Y142226D03*
X135215Y151726D03*
X135215Y161226D03*
X110219Y161226D03*
X110219Y151726D03*
X110219Y142226D03*
D12*
X105405Y173990D03*
X95255Y173990D03*
D11*
X128036Y127000D03*
X118344Y127000D03*
D17*
X149860Y154935D03*
X149860Y144785D03*
X149860Y172715D03*
X149860Y162565D03*
D18*
X245110Y7740D03*
X245110Y22740D03*
D17*
X245110Y-13965D03*
X245110Y-3815D03*
D19*
X167931Y-74101D02*
X167931Y-92299D01*
X167931Y-74101D02*
X172429Y-74101D01*
X172429Y-92299D01*
X167931Y-92299D01*
X167931Y-88942D02*
X172429Y-88942D01*
X172429Y-85585D02*
X167931Y-85585D01*
X167931Y-82228D02*
X172429Y-82228D01*
X172429Y-78871D02*
X167931Y-78871D01*
X167931Y-75514D02*
X172429Y-75514D01*
X155231Y-74101D02*
X155231Y-92299D01*
X155231Y-74101D02*
X159729Y-74101D01*
X159729Y-92299D01*
X155231Y-92299D01*
X155231Y-88942D02*
X159729Y-88942D01*
X159729Y-85585D02*
X155231Y-85585D01*
X155231Y-82228D02*
X159729Y-82228D01*
X159729Y-78871D02*
X155231Y-78871D01*
X155231Y-75514D02*
X159729Y-75514D01*
X142531Y-74101D02*
X142531Y-92299D01*
X142531Y-74101D02*
X147029Y-74101D01*
X147029Y-92299D01*
X142531Y-92299D01*
X142531Y-88942D02*
X147029Y-88942D01*
X147029Y-85585D02*
X142531Y-85585D01*
X142531Y-82228D02*
X147029Y-82228D01*
X147029Y-78871D02*
X142531Y-78871D01*
X142531Y-75514D02*
X147029Y-75514D01*
X129831Y-74101D02*
X129831Y-92299D01*
X129831Y-74101D02*
X134329Y-74101D01*
X134329Y-92299D01*
X129831Y-92299D01*
X129831Y-88942D02*
X134329Y-88942D01*
X134329Y-85585D02*
X129831Y-85585D01*
X129831Y-82228D02*
X134329Y-82228D01*
X134329Y-78871D02*
X129831Y-78871D01*
X129831Y-75514D02*
X134329Y-75514D01*
X129831Y-123601D02*
X129831Y-141799D01*
X129831Y-123601D02*
X134329Y-123601D01*
X134329Y-141799D01*
X129831Y-141799D01*
X129831Y-138442D02*
X134329Y-138442D01*
X134329Y-135085D02*
X129831Y-135085D01*
X129831Y-131728D02*
X134329Y-131728D01*
X134329Y-128371D02*
X129831Y-128371D01*
X129831Y-125014D02*
X134329Y-125014D01*
X142531Y-123601D02*
X142531Y-141799D01*
X142531Y-123601D02*
X147029Y-123601D01*
X147029Y-141799D01*
X142531Y-141799D01*
X142531Y-138442D02*
X147029Y-138442D01*
X147029Y-135085D02*
X142531Y-135085D01*
X142531Y-131728D02*
X147029Y-131728D01*
X147029Y-128371D02*
X142531Y-128371D01*
X142531Y-125014D02*
X147029Y-125014D01*
X155231Y-123601D02*
X155231Y-141799D01*
X155231Y-123601D02*
X159729Y-123601D01*
X159729Y-141799D01*
X155231Y-141799D01*
X155231Y-138442D02*
X159729Y-138442D01*
X159729Y-135085D02*
X155231Y-135085D01*
X155231Y-131728D02*
X159729Y-131728D01*
X159729Y-128371D02*
X155231Y-128371D01*
X155231Y-125014D02*
X159729Y-125014D01*
X167931Y-123601D02*
X167931Y-141799D01*
X167931Y-123601D02*
X172429Y-123601D01*
X172429Y-141799D01*
X167931Y-141799D01*
X167931Y-138442D02*
X172429Y-138442D01*
X172429Y-135085D02*
X167931Y-135085D01*
X167931Y-131728D02*
X172429Y-131728D01*
X172429Y-128371D02*
X167931Y-128371D01*
X167931Y-125014D02*
X172429Y-125014D01*
D13*
X176530Y-67076D03*
X176530Y-57384D03*
D20*
X186690Y-103335D03*
X186690Y-79545D03*
D12*
X167635Y-151130D03*
X157485Y-151130D03*
X142235Y-152400D03*
X132085Y-152400D03*
D21*
X93196Y-179070D03*
X122704Y-179070D03*
D13*
X186690Y-138196D03*
X186690Y-128504D03*
D22*
X-209866Y13150D03*
X-204866Y13150D03*
X-199866Y13150D03*
X-194866Y13150D03*
X-189866Y13150D03*
X-184866Y13150D03*
X-179866Y13150D03*
X-174866Y13150D03*
X-169866Y13150D03*
X-164866Y13150D03*
X-159866Y13150D03*
X-154866Y13150D03*
X-149866Y13150D03*
X-144866Y13150D03*
X-139866Y13150D03*
X-134866Y13150D03*
D23*
X-115666Y32350D03*
X-115666Y37350D03*
X-115666Y42350D03*
X-115666Y47350D03*
X-115666Y52350D03*
X-115666Y57350D03*
X-115666Y62350D03*
X-115666Y67350D03*
X-115666Y72350D03*
X-115666Y77350D03*
X-115666Y82350D03*
X-115666Y87350D03*
X-115666Y92350D03*
X-115666Y97350D03*
X-115666Y102350D03*
X-115666Y107350D03*
D22*
X-134866Y126550D03*
X-139866Y126550D03*
X-144866Y126550D03*
X-149866Y126550D03*
X-154866Y126550D03*
X-159866Y126550D03*
X-164866Y126550D03*
X-169866Y126550D03*
X-174866Y126550D03*
X-179866Y126550D03*
X-184866Y126550D03*
X-189866Y126550D03*
X-194866Y126550D03*
X-199866Y126550D03*
X-204866Y126550D03*
X-209866Y126550D03*
D23*
X-229066Y107350D03*
X-229066Y102350D03*
X-229066Y97350D03*
X-229066Y92350D03*
X-229066Y87350D03*
X-229066Y82350D03*
X-229066Y77350D03*
X-229066Y72350D03*
X-229066Y67350D03*
X-229066Y62350D03*
X-229066Y57350D03*
X-229066Y52350D03*
X-229066Y47350D03*
X-229066Y42350D03*
X-229066Y37350D03*
X-229066Y32350D03*
D11*
X-86126Y128270D03*
X-76434Y128270D03*
X-237724Y25400D03*
X-247416Y25400D03*
X-132314Y-1270D03*
X-142006Y-1270D03*
X-211856Y138570D03*
X-202164Y138570D03*
X-86126Y115570D03*
X-76434Y115570D03*
D24*
X-97790Y87399D03*
D25*
X-97790Y102938D03*
D11*
X-86126Y87630D03*
X-76434Y87630D03*
X-86126Y102870D03*
X-76434Y102870D03*
D13*
X-85090Y77236D03*
X-85090Y67544D03*
X-97790Y77236D03*
X-97790Y67544D03*
D17*
X-243840Y46985D03*
X-243840Y36835D03*
D13*
X-172720Y-2774D03*
X-172720Y-12466D03*
D17*
X-158750Y-12695D03*
X-158750Y-2545D03*
D26*
X-205317Y-18838D03*
X-205317Y-38396D03*
X-188553Y-38396D03*
X-188553Y-18838D03*
D11*
X-194544Y-52070D03*
X-204236Y-52070D03*
D13*
X-217104Y-24430D03*
X-217104Y-34122D03*
D18*
X-260750Y55185D03*
X-245750Y55185D03*
D17*
X-259080Y46411D03*
X-259080Y36261D03*
D19*
X26961Y-76641D02*
X26961Y-94839D01*
X26961Y-76641D02*
X31459Y-76641D01*
X31459Y-94839D01*
X26961Y-94839D01*
X26961Y-91482D02*
X31459Y-91482D01*
X31459Y-88125D02*
X26961Y-88125D01*
X26961Y-84768D02*
X31459Y-84768D01*
X31459Y-81411D02*
X26961Y-81411D01*
X26961Y-78054D02*
X31459Y-78054D01*
X14261Y-76641D02*
X14261Y-94839D01*
X14261Y-76641D02*
X18759Y-76641D01*
X18759Y-94839D01*
X14261Y-94839D01*
X14261Y-91482D02*
X18759Y-91482D01*
X18759Y-88125D02*
X14261Y-88125D01*
X14261Y-84768D02*
X18759Y-84768D01*
X18759Y-81411D02*
X14261Y-81411D01*
X14261Y-78054D02*
X18759Y-78054D01*
X1561Y-76641D02*
X1561Y-94839D01*
X1561Y-76641D02*
X6059Y-76641D01*
X6059Y-94839D01*
X1561Y-94839D01*
X1561Y-91482D02*
X6059Y-91482D01*
X6059Y-88125D02*
X1561Y-88125D01*
X1561Y-84768D02*
X6059Y-84768D01*
X6059Y-81411D02*
X1561Y-81411D01*
X1561Y-78054D02*
X6059Y-78054D01*
X-11139Y-76641D02*
X-11139Y-94839D01*
X-11139Y-76641D02*
X-6641Y-76641D01*
X-6641Y-94839D01*
X-11139Y-94839D01*
X-11139Y-91482D02*
X-6641Y-91482D01*
X-6641Y-88125D02*
X-11139Y-88125D01*
X-11139Y-84768D02*
X-6641Y-84768D01*
X-6641Y-81411D02*
X-11139Y-81411D01*
X-11139Y-78054D02*
X-6641Y-78054D01*
X-11139Y-126141D02*
X-11139Y-144339D01*
X-11139Y-126141D02*
X-6641Y-126141D01*
X-6641Y-144339D01*
X-11139Y-144339D01*
X-11139Y-140982D02*
X-6641Y-140982D01*
X-6641Y-137625D02*
X-11139Y-137625D01*
X-11139Y-134268D02*
X-6641Y-134268D01*
X-6641Y-130911D02*
X-11139Y-130911D01*
X-11139Y-127554D02*
X-6641Y-127554D01*
X1561Y-126141D02*
X1561Y-144339D01*
X1561Y-126141D02*
X6059Y-126141D01*
X6059Y-144339D01*
X1561Y-144339D01*
X1561Y-140982D02*
X6059Y-140982D01*
X6059Y-137625D02*
X1561Y-137625D01*
X1561Y-134268D02*
X6059Y-134268D01*
X6059Y-130911D02*
X1561Y-130911D01*
X1561Y-127554D02*
X6059Y-127554D01*
X14261Y-126141D02*
X14261Y-144339D01*
X14261Y-126141D02*
X18759Y-126141D01*
X18759Y-144339D01*
X14261Y-144339D01*
X14261Y-140982D02*
X18759Y-140982D01*
X18759Y-137625D02*
X14261Y-137625D01*
X14261Y-134268D02*
X18759Y-134268D01*
X18759Y-130911D02*
X14261Y-130911D01*
X14261Y-127554D02*
X18759Y-127554D01*
X26961Y-126141D02*
X26961Y-144339D01*
X26961Y-126141D02*
X31459Y-126141D01*
X31459Y-144339D01*
X26961Y-144339D01*
X26961Y-140982D02*
X31459Y-140982D01*
X31459Y-137625D02*
X26961Y-137625D01*
X26961Y-134268D02*
X31459Y-134268D01*
X31459Y-130911D02*
X26961Y-130911D01*
X26961Y-127554D02*
X31459Y-127554D01*
D11*
X48494Y-78740D03*
X58186Y-78740D03*
D20*
X45720Y-114765D03*
X45720Y-90975D03*
D12*
X26665Y-154940D03*
X16515Y-154940D03*
X1265Y-154940D03*
X-8885Y-154940D03*
D21*
X-41424Y-181610D03*
X-11916Y-181610D03*
D13*
X45720Y-144546D03*
X45720Y-134854D03*
D19*
X-106389Y-93569D02*
X-106389Y-75371D01*
X-101891Y-75371D01*
X-101891Y-93569D01*
X-106389Y-93569D01*
X-106389Y-90212D02*
X-101891Y-90212D01*
X-101891Y-86855D02*
X-106389Y-86855D01*
X-106389Y-83498D02*
X-101891Y-83498D01*
X-101891Y-80141D02*
X-106389Y-80141D01*
X-106389Y-76784D02*
X-101891Y-76784D01*
X-119089Y-75371D02*
X-119089Y-93569D01*
X-119089Y-75371D02*
X-114591Y-75371D01*
X-114591Y-93569D01*
X-119089Y-93569D01*
X-119089Y-90212D02*
X-114591Y-90212D01*
X-114591Y-86855D02*
X-119089Y-86855D01*
X-119089Y-83498D02*
X-114591Y-83498D01*
X-114591Y-80141D02*
X-119089Y-80141D01*
X-119089Y-76784D02*
X-114591Y-76784D01*
X-131789Y-75371D02*
X-131789Y-93569D01*
X-131789Y-75371D02*
X-127291Y-75371D01*
X-127291Y-93569D01*
X-131789Y-93569D01*
X-131789Y-90212D02*
X-127291Y-90212D01*
X-127291Y-86855D02*
X-131789Y-86855D01*
X-131789Y-83498D02*
X-127291Y-83498D01*
X-127291Y-80141D02*
X-131789Y-80141D01*
X-131789Y-76784D02*
X-127291Y-76784D01*
X-144489Y-75371D02*
X-144489Y-93569D01*
X-144489Y-75371D02*
X-139991Y-75371D01*
X-139991Y-93569D01*
X-144489Y-93569D01*
X-144489Y-90212D02*
X-139991Y-90212D01*
X-139991Y-86855D02*
X-144489Y-86855D01*
X-144489Y-83498D02*
X-139991Y-83498D01*
X-139991Y-80141D02*
X-144489Y-80141D01*
X-144489Y-76784D02*
X-139991Y-76784D01*
X-144489Y-124871D02*
X-144489Y-143069D01*
X-144489Y-124871D02*
X-139991Y-124871D01*
X-139991Y-143069D01*
X-144489Y-143069D01*
X-144489Y-139712D02*
X-139991Y-139712D01*
X-139991Y-136355D02*
X-144489Y-136355D01*
X-144489Y-132998D02*
X-139991Y-132998D01*
X-139991Y-129641D02*
X-144489Y-129641D01*
X-144489Y-126284D02*
X-139991Y-126284D01*
X-131789Y-124871D02*
X-131789Y-143069D01*
X-131789Y-124871D02*
X-127291Y-124871D01*
X-127291Y-143069D01*
X-131789Y-143069D01*
X-131789Y-139712D02*
X-127291Y-139712D01*
X-127291Y-136355D02*
X-131789Y-136355D01*
X-131789Y-132998D02*
X-127291Y-132998D01*
X-127291Y-129641D02*
X-131789Y-129641D01*
X-131789Y-126284D02*
X-127291Y-126284D01*
X-119089Y-124871D02*
X-119089Y-143069D01*
X-119089Y-124871D02*
X-114591Y-124871D01*
X-114591Y-143069D01*
X-119089Y-143069D01*
X-119089Y-139712D02*
X-114591Y-139712D01*
X-114591Y-136355D02*
X-119089Y-136355D01*
X-119089Y-132998D02*
X-114591Y-132998D01*
X-114591Y-129641D02*
X-119089Y-129641D01*
X-119089Y-126284D02*
X-114591Y-126284D01*
X-106389Y-124871D02*
X-106389Y-143069D01*
X-106389Y-124871D02*
X-101891Y-124871D01*
X-101891Y-143069D01*
X-106389Y-143069D01*
X-106389Y-139712D02*
X-101891Y-139712D01*
X-101891Y-136355D02*
X-106389Y-136355D01*
X-106389Y-132998D02*
X-101891Y-132998D01*
X-101891Y-129641D02*
X-106389Y-129641D01*
X-106389Y-126284D02*
X-101891Y-126284D01*
D11*
X-92476Y-67310D03*
X-82784Y-67310D03*
D20*
X-87630Y-104605D03*
X-87630Y-80815D03*
D12*
X-104145Y-156210D03*
X-114295Y-156210D03*
X-130815Y-156210D03*
X-140965Y-156210D03*
D21*
X-176044Y-182880D03*
X-146536Y-182880D03*
D13*
X-87630Y-139466D03*
X-87630Y-129774D03*
D18*
X-260230Y8890D03*
X-245230Y8890D03*
D12*
X-260345Y-5080D03*
X-250195Y-5080D03*
D27*
X28096Y190462D03*
X-32406Y190221D03*
D28*
X148499Y-296900D03*
X1270Y-298170D03*
X-146427Y-298115D03*
D29*
X-88116Y-182880D03*
X-117624Y-182880D03*
X45234Y-181610D03*
X15726Y-181610D03*
X188744Y-179070D03*
X159236Y-179070D03*
D30*
X91440Y159687D03*
X91440Y142179D03*
D31*
X149996Y130810D03*
X167504Y130810D03*
D32*
X104859Y49374D03*
X217361Y49374D03*
D11*
X-223008Y3810D03*
X-232700Y3810D03*
D10*
X99680Y-304590D02*
X119080Y-304590D01*
X119080Y-322790D01*
X99680Y-322790D01*
X99680Y-304590D01*
X99680Y-317914D02*
X119080Y-317914D01*
X119080Y-313038D02*
X99680Y-313038D01*
X99680Y-308162D02*
X119080Y-308162D01*
X75580Y-304590D02*
X56180Y-304590D01*
X75580Y-304590D02*
X75580Y-322790D01*
X56180Y-322790D01*
X56180Y-304590D01*
X56180Y-317914D02*
X75580Y-317914D01*
X75580Y-313038D02*
X56180Y-313038D01*
X56180Y-308162D02*
X75580Y-308162D01*
X-28240Y-305090D02*
X-47640Y-305090D01*
X-28240Y-305090D02*
X-28240Y-323290D01*
X-47640Y-323290D01*
X-47640Y-305090D01*
X-47640Y-318414D02*
X-28240Y-318414D01*
X-28240Y-313538D02*
X-47640Y-313538D01*
X-47640Y-308662D02*
X-28240Y-308662D01*
X-71740Y-305090D02*
X-91140Y-305090D01*
X-71740Y-305090D02*
X-71740Y-323290D01*
X-91140Y-323290D01*
X-91140Y-305090D01*
X-91140Y-318414D02*
X-71740Y-318414D01*
X-71740Y-313538D02*
X-91140Y-313538D01*
X-91140Y-308662D02*
X-71740Y-308662D01*
X-197695Y-256673D02*
X-209234Y-241079D01*
X-197695Y-256673D02*
X-212324Y-267499D01*
X-223863Y-251905D01*
X-209234Y-241079D01*
X-205735Y-262623D02*
X-215932Y-262623D01*
X-219540Y-257747D02*
X-199146Y-257747D01*
X-200508Y-252871D02*
X-223148Y-252871D01*
X-218579Y-247995D02*
X-204116Y-247995D01*
X-207724Y-243119D02*
X-211991Y-243119D01*
X-223570Y-221706D02*
X-235109Y-206112D01*
X-223570Y-221706D02*
X-238199Y-232532D01*
X-249738Y-216938D01*
X-235109Y-206112D01*
X-231610Y-227656D02*
X-241807Y-227656D01*
X-245415Y-222780D02*
X-225021Y-222780D01*
X-226383Y-217904D02*
X-249023Y-217904D01*
X-244454Y-213028D02*
X-229991Y-213028D01*
X-233599Y-208152D02*
X-237866Y-208152D01*
D33*
X-102538Y167582D02*
X-102538Y178992D01*
X-102538Y167582D02*
X-106836Y167582D01*
X-106836Y178992D01*
X-102538Y178992D01*
X-102538Y172186D02*
X-106836Y172186D01*
X-106836Y176790D02*
X-102538Y176790D01*
X-122311Y174635D02*
X-122311Y186045D01*
X-122311Y174635D02*
X-126609Y174635D01*
X-126609Y186045D01*
X-122311Y186045D01*
X-122311Y179239D02*
X-126609Y179239D01*
X-126609Y183843D02*
X-122311Y183843D01*
X-81671Y179695D02*
X-81671Y168285D01*
X-85969Y168285D01*
X-85969Y179695D01*
X-81671Y179695D01*
X-81671Y172889D02*
X-85969Y172889D01*
X-85969Y177493D02*
X-81671Y177493D01*
D34*
X176530Y-262920D03*
X163830Y-262920D03*
X151130Y-262920D03*
X189230Y-262920D03*
D35*
X170180Y-229320D03*
D36*
X189230Y-208270D03*
X176530Y-208270D03*
X163830Y-208270D03*
X151130Y-208270D03*
D34*
X102870Y-209520D03*
X115570Y-209520D03*
X128270Y-209520D03*
X90170Y-209520D03*
D35*
X109220Y-243120D03*
D36*
X90170Y-264170D03*
X102870Y-264170D03*
X115570Y-264170D03*
X128270Y-264170D03*
D34*
X39370Y-262811D03*
X26670Y-262811D03*
X13970Y-262811D03*
X52070Y-262811D03*
D35*
X33020Y-229211D03*
D36*
X52070Y-208161D03*
X39370Y-208161D03*
X26670Y-208161D03*
X13970Y-208161D03*
D34*
X-30480Y-209520D03*
X-17780Y-209520D03*
X-5080Y-209520D03*
X-43180Y-209520D03*
D35*
X-24130Y-243120D03*
D36*
X-43180Y-264170D03*
X-30480Y-264170D03*
X-17780Y-264170D03*
X-5080Y-264170D03*
D34*
X-92710Y-261650D03*
X-105410Y-261650D03*
X-118110Y-261650D03*
X-80010Y-261650D03*
D35*
X-99060Y-228050D03*
D36*
X-80010Y-207000D03*
X-92710Y-207000D03*
X-105410Y-207000D03*
X-118110Y-207000D03*
D34*
X-163830Y-208250D03*
X-151130Y-208250D03*
X-138430Y-208250D03*
X-176530Y-208250D03*
D35*
X-157480Y-241850D03*
D36*
X-176530Y-262900D03*
X-163830Y-262900D03*
X-151130Y-262900D03*
X-138430Y-262900D03*
D11*
X-58186Y-92710D03*
X-48494Y-92710D03*
D13*
X-63500Y-104374D03*
X-63500Y-114066D03*
D17*
X-63500Y-128275D03*
X-63500Y-138425D03*
D37*
X-45407Y-134207D02*
X-45407Y-144893D01*
X-49793Y-144893D01*
X-49793Y-134207D01*
X-45407Y-134207D01*
X-45407Y-141619D02*
X-49793Y-141619D01*
X-49793Y-138345D02*
X-45407Y-138345D01*
X-45407Y-135071D02*
X-49793Y-135071D01*
X-35907Y-134207D02*
X-35907Y-144893D01*
X-40293Y-144893D01*
X-40293Y-134207D01*
X-35907Y-134207D01*
X-35907Y-141619D02*
X-40293Y-141619D01*
X-40293Y-138345D02*
X-35907Y-138345D01*
X-35907Y-135071D02*
X-40293Y-135071D01*
X-26407Y-134207D02*
X-26407Y-144893D01*
X-30793Y-144893D01*
X-30793Y-134207D01*
X-26407Y-134207D01*
X-26407Y-141619D02*
X-30793Y-141619D01*
X-30793Y-138345D02*
X-26407Y-138345D01*
X-26407Y-135071D02*
X-30793Y-135071D01*
X-45407Y-119793D02*
X-45407Y-109107D01*
X-45407Y-119793D02*
X-49793Y-119793D01*
X-49793Y-109107D01*
X-45407Y-109107D01*
X-45407Y-116519D02*
X-49793Y-116519D01*
X-49793Y-113245D02*
X-45407Y-113245D01*
X-45407Y-109971D02*
X-49793Y-109971D01*
X-35907Y-109107D02*
X-35907Y-119793D01*
X-40293Y-119793D01*
X-40293Y-109107D01*
X-35907Y-109107D01*
X-35907Y-116519D02*
X-40293Y-116519D01*
X-40293Y-113245D02*
X-35907Y-113245D01*
X-35907Y-109971D02*
X-40293Y-109971D01*
X-26407Y-109107D02*
X-26407Y-119793D01*
X-30793Y-119793D01*
X-30793Y-109107D01*
X-26407Y-109107D01*
X-26407Y-116519D02*
X-30793Y-116519D01*
X-30793Y-113245D02*
X-26407Y-113245D01*
X-26407Y-109971D02*
X-30793Y-109971D01*
D12*
X-38105Y-80010D03*
X-48255Y-80010D03*
X-48255Y-67310D03*
X-38105Y-67310D03*
D11*
X-28585Y-92710D03*
X-38277Y-92710D03*
X-191536Y-92710D03*
X-181844Y-92710D03*
D13*
X-203200Y-103104D03*
X-203200Y-112796D03*
D17*
X-203200Y-128275D03*
X-203200Y-138425D03*
D37*
X-178757Y-143623D02*
X-178757Y-132937D01*
X-178757Y-143623D02*
X-183143Y-143623D01*
X-183143Y-132937D01*
X-178757Y-132937D01*
X-178757Y-140349D02*
X-183143Y-140349D01*
X-183143Y-137075D02*
X-178757Y-137075D01*
X-178757Y-133801D02*
X-183143Y-133801D01*
X-169257Y-132937D02*
X-169257Y-143623D01*
X-173643Y-143623D01*
X-173643Y-132937D01*
X-169257Y-132937D01*
X-169257Y-140349D02*
X-173643Y-140349D01*
X-173643Y-137075D02*
X-169257Y-137075D01*
X-169257Y-133801D02*
X-173643Y-133801D01*
X-159757Y-132937D02*
X-159757Y-143623D01*
X-164143Y-143623D01*
X-164143Y-132937D01*
X-159757Y-132937D01*
X-159757Y-140349D02*
X-164143Y-140349D01*
X-164143Y-137075D02*
X-159757Y-137075D01*
X-159757Y-133801D02*
X-164143Y-133801D01*
X-178757Y-118523D02*
X-178757Y-107837D01*
X-178757Y-118523D02*
X-183143Y-118523D01*
X-183143Y-107837D01*
X-178757Y-107837D01*
X-178757Y-115249D02*
X-183143Y-115249D01*
X-183143Y-111975D02*
X-178757Y-111975D01*
X-178757Y-108701D02*
X-183143Y-108701D01*
X-169257Y-107837D02*
X-169257Y-118523D01*
X-173643Y-118523D01*
X-173643Y-107837D01*
X-169257Y-107837D01*
X-169257Y-115249D02*
X-173643Y-115249D01*
X-173643Y-111975D02*
X-169257Y-111975D01*
X-169257Y-108701D02*
X-173643Y-108701D01*
X-159757Y-107837D02*
X-159757Y-118523D01*
X-164143Y-118523D01*
X-164143Y-107837D01*
X-159757Y-107837D01*
X-159757Y-115249D02*
X-164143Y-115249D01*
X-164143Y-111975D02*
X-159757Y-111975D01*
X-159757Y-108701D02*
X-164143Y-108701D01*
D12*
X-171455Y-80010D03*
X-181605Y-80010D03*
X-181605Y-67310D03*
X-171455Y-67310D03*
D11*
X-161524Y-92710D03*
X-171216Y-92710D03*
X85018Y-95250D03*
X94710Y-95250D03*
D13*
X76200Y-104374D03*
X76200Y-114066D03*
D17*
X76200Y-127005D03*
X76200Y-137155D03*
D37*
X96833Y-142353D02*
X96833Y-131667D01*
X96833Y-142353D02*
X92447Y-142353D01*
X92447Y-131667D01*
X96833Y-131667D01*
X96833Y-139079D02*
X92447Y-139079D01*
X92447Y-135805D02*
X96833Y-135805D01*
X96833Y-132531D02*
X92447Y-132531D01*
X106333Y-131667D02*
X106333Y-142353D01*
X101947Y-142353D01*
X101947Y-131667D01*
X106333Y-131667D01*
X106333Y-139079D02*
X101947Y-139079D01*
X101947Y-135805D02*
X106333Y-135805D01*
X106333Y-132531D02*
X101947Y-132531D01*
X115833Y-131667D02*
X115833Y-142353D01*
X111447Y-142353D01*
X111447Y-131667D01*
X115833Y-131667D01*
X115833Y-139079D02*
X111447Y-139079D01*
X111447Y-135805D02*
X115833Y-135805D01*
X115833Y-132531D02*
X111447Y-132531D01*
X96833Y-117253D02*
X96833Y-106567D01*
X96833Y-117253D02*
X92447Y-117253D01*
X92447Y-106567D01*
X96833Y-106567D01*
X96833Y-113979D02*
X92447Y-113979D01*
X92447Y-110705D02*
X96833Y-110705D01*
X96833Y-107431D02*
X92447Y-107431D01*
X106333Y-106567D02*
X106333Y-117253D01*
X101947Y-117253D01*
X101947Y-106567D01*
X106333Y-106567D01*
X106333Y-113979D02*
X101947Y-113979D01*
X101947Y-110705D02*
X106333Y-110705D01*
X106333Y-107431D02*
X101947Y-107431D01*
X115833Y-106567D02*
X115833Y-117253D01*
X111447Y-117253D01*
X111447Y-106567D01*
X115833Y-106567D01*
X115833Y-113979D02*
X111447Y-113979D01*
X111447Y-110705D02*
X115833Y-110705D01*
X115833Y-107431D02*
X111447Y-107431D01*
D12*
X105405Y-82550D03*
X95255Y-82550D03*
X95255Y-69850D03*
X105405Y-69850D03*
D11*
X114066Y-95250D03*
X104374Y-95250D03*
D38*
X-93980Y-157480D03*
X-80010Y-157480D03*
X-93980Y-168910D03*
X-80010Y-168910D03*
X-93980Y-182880D03*
X-80010Y-182880D03*
X-95250Y-198120D03*
X-80010Y-198120D03*
X-80010Y-213360D03*
X-95250Y-213360D03*
X-109220Y-213360D03*
X-109220Y-203200D03*
X-106680Y-66040D03*
X-95250Y-77470D03*
X-87630Y-91440D03*
X36830Y-160020D03*
X53340Y-160020D03*
X36830Y-172720D03*
X53340Y-172720D03*
X36830Y-186690D03*
X53340Y-186690D03*
X53340Y-213360D03*
X38100Y-213360D03*
X21590Y-213360D03*
X21590Y-203200D03*
X36830Y-200660D03*
X53340Y-200660D03*
X38100Y-80010D03*
X38100Y-88900D03*
X38100Y-99060D03*
X179070Y-163830D03*
X200660Y-163830D03*
X179070Y-179070D03*
X200660Y-179070D03*
X179070Y-194310D03*
X200660Y-194310D03*
X200660Y-212090D03*
X156210Y-201930D03*
X170180Y-201930D03*
X156210Y-212090D03*
X170180Y-212090D03*
X185420Y-212090D03*
X190500Y-201930D03*
X167640Y-66040D03*
X193040Y-66040D03*
X186690Y-92710D03*
X-150224Y-1270D03*
X-150224Y-11430D03*
X-6350Y140970D03*
X-6350Y152400D03*
X-6350Y165100D03*
X-82550Y137160D03*
X-69850Y95250D03*
X-73660Y67310D03*
X-11430Y35560D03*
X-45720Y-8890D03*
X-21590Y-31750D03*
X2540Y-34290D03*
X-91222Y59908D03*
X-37035Y-21385D03*
X-266700Y29210D03*
X-255270Y19050D03*
X-193040Y-163830D03*
X-167640Y-163830D03*
X-193040Y-184150D03*
X-167640Y-184150D03*
X-193040Y-173990D03*
X-167640Y-173990D03*
X-180340Y-173990D03*
X-180340Y-184150D03*
X-193040Y-194310D03*
X-180340Y-194310D03*
X-114300Y-167640D03*
X-104140Y-167640D03*
X-113030Y-180340D03*
X-104140Y-180340D03*
X-113030Y-193040D03*
X-104140Y-193040D03*
X-73660Y-76200D03*
X-85090Y-57150D03*
X-33020Y-166370D03*
X-55880Y-166370D03*
X-55880Y-187960D03*
X-33020Y-187960D03*
X-44450Y-187960D03*
X-55880Y-176530D03*
X-33020Y-176530D03*
X-44450Y-176530D03*
X13970Y-170180D03*
X26670Y-170180D03*
X13970Y-181610D03*
X26670Y-181610D03*
X-45720Y-196624D03*
X-24130Y-81280D03*
X-11430Y-101600D03*
X60960Y-97790D03*
X82550Y-166370D03*
X102870Y-166370D03*
X102870Y-186690D03*
X82550Y-194310D03*
X82550Y-180340D03*
X102870Y-176530D03*
X92710Y-179070D03*
X92710Y-191770D03*
X168910Y-163830D03*
X168910Y-179070D03*
X167640Y-190500D03*
X149860Y-190500D03*
X149860Y-176530D03*
X60734Y-78740D03*
X155363Y-166793D03*
X123190Y-78740D03*
X-255270Y-207010D03*
X-236220Y-194310D03*
X-220980Y-134620D03*
X-247650Y-96520D03*
X-236220Y-167640D03*
X-246380Y-135890D03*
X-264160Y-176530D03*
X-290830Y-146050D03*
X-313690Y-120650D03*
X-298450Y-85090D03*
X-284480Y-39370D03*
X-260350Y-67310D03*
X-67310Y-269240D03*
X-82550Y-278130D03*
X-99060Y-325120D03*
X-99060Y-311150D03*
X-99060Y-299720D03*
X-67310Y-293370D03*
X-85090Y-292100D03*
X-67310Y-280670D03*
X72390Y-259080D03*
X77470Y-271780D03*
X77470Y-290830D03*
X57150Y-292100D03*
X198120Y-255270D03*
X199390Y-232410D03*
X217170Y-232410D03*
X215900Y-166370D03*
X215900Y-186690D03*
X215900Y-207010D03*
X209550Y-271780D03*
X232410Y-247650D03*
X247650Y-207010D03*
X259080Y-166370D03*
X294640Y-147320D03*
X312420Y-105410D03*
X279400Y-69850D03*
X270510Y-13970D03*
X161290Y-1270D03*
X223520Y-1270D03*
X193040Y-33020D03*
X236220Y-60960D03*
X237490Y-123190D03*
X266700Y54610D03*
X302260Y91440D03*
X297180Y143510D03*
X241300Y138430D03*
X199390Y102870D03*
X187960Y137160D03*
X124460Y172720D03*
X82550Y193040D03*
X-66040Y205740D03*
X-66040Y190500D03*
X-66040Y175260D03*
X-99060Y195580D03*
X-110490Y187960D03*
X-82550Y201930D03*
X-68580Y156210D03*
X-60960Y148590D03*
X-48260Y82550D03*
X0Y82550D03*
X36830Y49530D03*
X41910Y12700D03*
X20320Y30480D03*
X8890Y53340D03*
X-34290Y54610D03*
X-58420Y43180D03*
X-13970Y-22860D03*
X-7620Y-63500D03*
X-44450Y-57150D03*
X-97790Y-20320D03*
X-67310Y-44450D03*
X-105410Y-49530D03*
X-140970Y-67310D03*
X-142240Y-31750D03*
X-175260Y-33020D03*
X-168910Y-48260D03*
X-203200Y-78740D03*
X-217170Y-77470D03*
X-237490Y-55880D03*
X-259080Y-34290D03*
X-241300Y-2540D03*
X-209550Y-2540D03*
X-247650Y-20320D03*
X-222250Y-43180D03*
X81280Y130810D03*
X64770Y130810D03*
X95250Y120650D03*
X123190Y151130D03*
X123190Y139700D03*
X109220Y190500D03*
X133350Y-109220D03*
X132080Y-59690D03*
X100330Y-50800D03*
X125730Y-39370D03*
X91440Y-24130D03*
X118110Y-6350D03*
X92710Y12700D03*
X118110Y13970D03*
X54610Y81280D03*
X54610Y33020D03*
X27940Y81280D03*
X-259080Y146050D03*
X-295910Y144780D03*
X-311150Y110490D03*
X-283210Y74930D03*
X-222250Y118110D03*
X-251460Y102870D03*
X-257810Y72390D03*
X-233680Y149860D03*
X-220980Y-10160D03*
X-196850Y-27940D03*
X-129540Y100330D03*
X-129540Y86360D03*
X-256540Y27940D03*
X0Y0D03*
X13068Y-192138D03*
X25768Y-192138D03*
X58420Y-278277D03*
X104140Y-125730D03*
X113616Y-111760D03*
X104116Y-137160D03*
X86360Y-83820D03*
X86360Y-124460D03*
X123190Y-95250D03*
X-57150Y-71120D03*
X-59690Y-55880D03*
X-27940Y-114300D03*
X-38100Y-139700D03*
X-38100Y-127000D03*
X-222476Y-99060D03*
X-161290Y-113030D03*
X-171450Y-138430D03*
X-171450Y-125730D03*
X-219710Y-160020D03*
X-218440Y-198120D03*
X-196850Y-220980D03*
X-151130Y-101600D03*
X-123190Y-105410D03*
X-104140Y-105410D03*
X-139700Y-113030D03*
X-157480Y-74930D03*
X-130810Y-50800D03*
X-148590Y-50800D03*
X-102870Y-2540D03*
X-80010Y-29210D03*
X12700Y-104140D03*
X22860Y-57150D03*
X57150Y-54610D03*
X-25400Y-58420D03*
X-62230Y-248920D03*
X-60960Y-223520D03*
X-62230Y-153670D03*
X72390Y-218440D03*
X71120Y-238760D03*
X72390Y-149860D03*
X147320Y-40640D03*
X213360Y-85090D03*
X168910Y-43180D03*
X227330Y-33020D03*
X247650Y-90170D03*
X-73660Y-99060D03*
X41910Y-12700D03*
X43180Y-34290D03*
X71120Y-27940D03*
X71120Y-8890D03*
X57150Y-19050D03*
X17780Y116840D03*
X-21590Y116840D03*
X59690Y116840D03*
X91440Y90170D03*
X-59690Y123190D03*
X-41910Y100330D03*
X-5080Y100330D03*
X38100Y100330D03*
X72390Y71120D03*
X72390Y39370D03*
X72390Y11430D03*
X-195580Y109220D03*
X-191300Y145210D03*
X151130Y115570D03*
X224790Y22860D03*
X245110Y66040D03*
X151130Y68580D03*
X151130Y91440D03*
X151130Y44450D03*
X175260Y22860D03*
X200660Y24130D03*
X175260Y44450D03*
X175260Y67310D03*
X200660Y44450D03*
X200660Y66040D03*
X224790Y66040D03*
X224790Y44450D03*
X245110Y44450D03*
X19050Y-24130D03*
X-222250Y138430D03*
X-228600Y25400D03*
X-219505Y13765D03*
X151356Y22860D03*
X-126795Y-9955D03*
X-93904Y134696D03*
X95250Y-102870D03*
X-48260Y-104140D03*
X-181610Y-101600D03*
X-209550Y106680D03*
X-215900Y99060D03*
X92710Y105410D03*
X116840Y105410D03*
X88900Y-274320D03*
X101600Y-274320D03*
X115570Y-274320D03*
X128270Y-274320D03*
X88900Y-287020D03*
X88900Y-299720D03*
X102870Y-288290D03*
X118110Y-288290D03*
X127000Y-317500D03*
X134620Y-326138D03*
X172720Y-275590D03*
X195580Y-289560D03*
X180340Y-302260D03*
X181610Y-289560D03*
X150217Y-157261D03*
X187960Y-279656D03*
X109220Y-153670D03*
X80010Y-205740D03*
X113030Y-167640D03*
X128270Y-167640D03*
X113030Y-179070D03*
X100330Y-199390D03*
X114300Y-199390D03*
X127000Y-199390D03*
X128270Y-189230D03*
X113030Y-189230D03*
X129054Y-179070D03*
X120650Y-139700D03*
X67310Y-43180D03*
X-102870Y10160D03*
X-137862Y26798D03*
X76200Y-120650D03*
X-165100Y100330D03*
X-146050Y100330D03*
X-165100Y113894D03*
X-137160Y113894D03*
X-53088Y109220D03*
X-95360Y124338D03*
X-30480Y-154940D03*
X-53340Y-205740D03*
X-3810Y-172720D03*
X-3810Y-182880D03*
X-19050Y-182880D03*
X-19050Y-193040D03*
X-3810Y-193040D03*
X-3810Y-203200D03*
X-19050Y-203200D03*
X-33020Y-203200D03*
X-20320Y-144780D03*
X-191414Y-207010D03*
X-165100Y-154742D03*
X-153670Y-182880D03*
X-153670Y-193040D03*
X-153670Y-201930D03*
X-166370Y-201930D03*
X-136116Y-172720D03*
X-136116Y-182880D03*
X-136116Y-193040D03*
X-136116Y-203200D03*
X-152400Y-144780D03*
X-55880Y-280670D03*
X-55880Y-294640D03*
X-55880Y-309880D03*
X-55880Y-325120D03*
X-43180Y-276860D03*
X-21590Y-276860D03*
X45720Y-325120D03*
X45720Y-308610D03*
X45720Y-292100D03*
X21590Y-275590D03*
X39370Y-276860D03*
X31750Y-300990D03*
X22860Y-323850D03*
X-16510Y-325120D03*
X-34290Y-294640D03*
X8890Y-160714D03*
X-158750Y35560D03*
X-63500Y-121920D03*
X-96520Y-276860D03*
X-116840Y-276860D03*
X-113030Y-298450D03*
X-127000Y-325120D03*
X-179070Y-298450D03*
X-176530Y-278130D03*
X-201930Y-281940D03*
X-194310Y-266700D03*
X-122834Y-160020D03*
X-187960Y-287020D03*
X-110490Y-323850D03*
X-109220Y-311150D03*
X-102870Y-287020D03*
X-215900Y-234950D03*
X-231140Y-250190D03*
X-210820Y52070D03*
X-274320Y48260D03*
X-66040Y5080D03*
X-59690Y-10160D03*
X26670Y-12700D03*
X-52070Y29210D03*
X6350Y24130D03*
X-60249Y13292D03*
X-16510Y16510D03*
X-48260Y2540D03*
X-17780Y26444D03*
X-73660Y35560D03*
X-91440Y10160D03*
X-60946Y-22846D03*
X-128322Y74930D03*
X-73660Y77470D03*
X31674Y-2464D03*
X-114300Y170180D03*
X-157198Y140984D03*
X-134620Y177800D03*
X-156408Y150072D03*
M02*
