M48
;GenerationSoftware,Autodesk,EAGLE,9.7.0*%
;CreationDate,2025-04-08T07:58:15Z*%
FMAT,2
ICI,OFF
METRIC,TZ,000.000
T2C0.350
T1C2.540
%
G90
M71
T1
X-14643Y-29811
X2810Y19046
X-3241Y19022
X14850Y-29690
X127Y-29817
T2
X-8001Y-18288
X-9525Y-19812
X-8001Y-19812
X-8001Y-21336
X-9525Y-21336
X-10922Y-21336
X-10922Y-20320
X-10668Y-6604
X-9525Y-7747
X-8763Y-9144
X3683Y-16002
X5334Y-16002
X3683Y-17272
X5334Y-17272
X3683Y-18669
X5334Y-18669
X5334Y-21336
X3810Y-21336
X2159Y-21336
X2159Y-20320
X3683Y-20066
X5334Y-20066
X3810Y-8001
X3810Y-8890
X3810Y-9906
X17907Y-16383
X20066Y-16383
X17907Y-17907
X20066Y-17907
X17907Y-19431
X20066Y-19431
X20066Y-21209
X15621Y-20193
X17018Y-20193
X15621Y-21209
X17018Y-21209
X18542Y-21209
X19050Y-20193
X16764Y-6604
X19304Y-6604
X18669Y-9271
X-15022Y-127
X-15022Y-1143
X-635Y14097
X-635Y15240
X-635Y16510
X-8255Y13716
X-6985Y9525
X-7366Y6731
X-1143Y3556
X-4572Y-889
X-2159Y-3175
X254Y-3429
X-9122Y5991
X-3703Y-2139
X-26670Y2921
X-25527Y1905
X-19304Y-16383
X-16764Y-16383
X-19304Y-18415
X-16764Y-18415
X-19304Y-17399
X-16764Y-17399
X-18034Y-17399
X-18034Y-18415
X-19304Y-19431
X-18034Y-19431
X-11430Y-16764
X-10414Y-16764
X-11303Y-18034
X-10414Y-18034
X-11303Y-19304
X-10414Y-19304
X-7366Y-7620
X-8509Y-5715
X-3302Y-16637
X-5588Y-16637
X-5588Y-18796
X-3302Y-18796
X-4445Y-18796
X-5588Y-17653
X-3302Y-17653
X-4445Y-17653
X1397Y-17018
X2667Y-17018
X1397Y-18161
X2667Y-18161
X-4572Y-19662
X-2413Y-8128
X-1143Y-10160
X6096Y-9779
X8255Y-16637
X10287Y-16637
X10287Y-18669
X8255Y-19431
X8255Y-18034
X10287Y-17653
X9271Y-17907
X9271Y-19177
X16891Y-16383
X16891Y-17907
X16764Y-19050
X14986Y-19050
X14986Y-17653
X6073Y-7874
X15536Y-16679
X12319Y-7874
X-25527Y-20701
X-23622Y-19431
X-22098Y-13462
X-24765Y-9652
X-23622Y-16764
X-24638Y-13589
X-26416Y-17653
X-29083Y-14605
X-31369Y-12065
X-29845Y-8509
X-28448Y-3937
X-26035Y-6731
X-6731Y-26924
X-8255Y-27813
X-9906Y-32512
X-9906Y-31115
X-9906Y-29972
X-6731Y-29337
X-8509Y-29210
X-6731Y-28067
X7239Y-25908
X7747Y-27178
X7747Y-29083
X5715Y-29210
X19812Y-25527
X19939Y-23241
X21717Y-23241
X21590Y-16637
X21590Y-18669
X21590Y-20701
X20955Y-27178
X23241Y-24765
X24765Y-20701
X25908Y-16637
X29464Y-14732
X31242Y-10541
X27940Y-6985
X27051Y-1397
X16129Y-127
X22352Y-127
X19304Y-3302
X23622Y-6096
X23749Y-12319
X26670Y5461
X30226Y9144
X29718Y14351
X24130Y13843
X19939Y10287
X18796Y13716
X12446Y17272
X8255Y19304
X-6604Y20574
X-6604Y19050
X-6604Y17526
X-9906Y19558
X-11049Y18796
X-8255Y20193
X-6858Y15621
X-6096Y14859
X-4826Y8255
X0Y8255
X3683Y4953
X4191Y1270
X2032Y3048
X889Y5334
X-3429Y5461
X-5842Y4318
X-1397Y-2286
X-762Y-6350
X-4445Y-5715
X-9779Y-2032
X-6731Y-4445
X-10541Y-4953
X-14097Y-6731
X-14224Y-3175
X-17526Y-3302
X-16891Y-4826
X-20320Y-7874
X-21717Y-7747
X-23749Y-5588
X-25908Y-3429
X-24130Y-254
X-20955Y-254
X-24765Y-2032
X-22225Y-4318
X8128Y13081
X6477Y13081
X9525Y12065
X12319Y15113
X12319Y13970
X10922Y19050
X13335Y-10922
X13208Y-5969
X10033Y-5080
X12573Y-3937
X9144Y-2413
X11811Y-635
X9271Y1270
X11811Y1397
X5461Y8128
X5461Y3302
X2794Y8128
X-25908Y14605
X-29591Y14478
X-31115Y11049
X-28321Y7493
X-22225Y11811
X-25146Y10287
X-25781Y7239
X-23368Y14986
X-22098Y-1016
X-19685Y-2794
X-12954Y10033
X-12954Y8636
X-25654Y2794
X0Y0
X1307Y-19214
X2577Y-19214
X5842Y-27828
X10414Y-12573
X11362Y-11176
X10412Y-13716
X8636Y-8382
X8636Y-12446
X12319Y-9525
X-5715Y-7112
X-5969Y-5588
X-2794Y-11430
X-3810Y-13970
X-3810Y-12700
X-22248Y-9906
X-16129Y-11303
X-17145Y-13843
X-17145Y-12573
X-21971Y-16002
X-21844Y-19812
X-19685Y-22098
X-15113Y-10160
X-12319Y-10541
X-10414Y-10541
X-13970Y-11303
X-15748Y-7493
X-13081Y-5080
X-14859Y-5080
X-10287Y-254
X-8001Y-2921
X1270Y-10414
X2286Y-5715
X5715Y-5461
X-2540Y-5842
X-6223Y-24892
X-6096Y-22352
X-6223Y-15367
X7239Y-21844
X7112Y-23876
X7239Y-14986
X14732Y-4064
X21336Y-8509
X16891Y-4318
X22733Y-3302
X24765Y-9017
X-7366Y-9906
X4191Y-1270
X4318Y-3429
X7112Y-2794
X7112Y-889
X5715Y-1905
X1778Y11684
X-2159Y11684
X5969Y11684
X9144Y9017
X-5969Y12319
X-4191Y10033
X-508Y10033
X3810Y10033
X7239Y7112
X7239Y3937
X7239Y1143
X-19558Y10922
X-19130Y14521
X15113Y11557
X22479Y2286
X24511Y6604
X15113Y6858
X15113Y9144
X15113Y4445
X17526Y2286
X20066Y2413
X17526Y4445
X17526Y6731
X20066Y4445
X20066Y6604
X22479Y6604
X22479Y4445
X24511Y4445
X1905Y-2413
X-22225Y13843
X-22860Y2540
X-21950Y1376
X15136Y2286
X-12679Y-995
X-9390Y13470
X9525Y-10287
X-4826Y-10414
X-18161Y-10160
X-20955Y10668
X-21590Y9906
X9271Y10541
X11684Y10541
X8890Y-27432
X10160Y-27432
X11557Y-27432
X12827Y-27432
X8890Y-28702
X8890Y-29972
X10287Y-28829
X11811Y-28829
X-9398Y-15748
X13462Y-32614
X17272Y-27559
X19558Y-28956
X18034Y-30226
X18161Y-28956
X15022Y-15726
X18796Y-27966
X10922Y-15367
X8001Y-20574
X11303Y-16764
X12827Y-16764
X11303Y-17907
X10033Y-19939
X11430Y-19939
X12700Y-19939
X12827Y-18923
X11303Y-18923
X12905Y-17907
X12065Y-13970
X6731Y-4318
X-10287Y1016
X-13786Y2680
X7620Y-12065
X-16510Y10033
X-14605Y10033
X-16510Y11389
X-13716Y11389
X-5309Y10922
X-9536Y12434
X-3048Y-15494
X-5334Y-20574
X-381Y-17272
X-381Y-18288
X-1905Y-18288
X-1905Y-19304
X-381Y-19304
X-381Y-20320
X-1905Y-20320
X-3302Y-20320
X-2032Y-14478
X-19141Y-20701
X-16510Y-15474
X-15367Y-18288
X-15367Y-19304
X-15367Y-20193
X-16637Y-20193
X-13612Y-17272
X-13612Y-18288
X-13612Y-19304
X-13612Y-20320
X-15240Y-14478
X-5588Y-28067
X-5588Y-29464
X-5588Y-30988
X12700Y-31750
X-4318Y-27686
X-2159Y-27686
X4572Y-32512
X4572Y-30861
X4572Y-29210
X2159Y-27559
X3937Y-27686
X3175Y-30099
X2286Y-32385
X-1651Y-32512
X-3429Y-29464
X889Y-16071
X-15875Y3556
X-6350Y-12192
X-9652Y-27686
X-11684Y-27686
X-11303Y-29845
X-12700Y-32512
X-17907Y-29845
X-17653Y-27813
X-20193Y-28194
X-19431Y-26670
X-12283Y-16002
X-18796Y-28702
X-11049Y-32385
X-10922Y-31115
X-10287Y-28702
X-21590Y-23495
X-23114Y-25019
X-21082Y5207
X-27432Y4826
X-6604Y508
X-5969Y-1016
X2667Y-1270
X-5207Y2921
X635Y2413
X-6025Y1329
X-1651Y1651
X-4826Y254
X-1778Y2644
X-7366Y3556
X-9144Y1016
X-6095Y-2285
X-12832Y7493
X-7366Y7747
X3167Y-246
X-11430Y17018
X-15720Y14098
X-13462Y17780
X-15641Y15007
X-8001Y-15748
X-9398Y-16891
X-8001Y-16891
X-9398Y-18288
X-5588Y-32512
M30